<svg width="48" height="48" viewBox="0 0 48 48" fill="none" xmlns="http://www.w3.org/2000/svg">
<g clip-path="url(#clip0)">
<mask id="path-2-inside-1" fill="white">
<path d="M46.75 35.5C46.75 33.8256 46.4202 32.1677 45.7795 30.6208C45.1387 29.0739 44.1996 27.6683 43.0156 26.4844C41.8317 25.3004 40.4261 24.3613 38.8792 23.7205C37.3323 23.0798 35.6744 22.75 34 22.75C32.3256 22.75 30.6677 23.0798 29.1208 23.7205C27.5739 24.3613 26.1683 25.3004 24.9844 26.4844C23.8004 27.6683 22.8613 29.0739 22.2205 30.6208C21.5798 32.1677 21.25 33.8256 21.25 35.5L34 35.5H46.75Z"/>
</mask>
<path d="M46.75 35.5C46.75 33.8256 46.4202 32.1677 45.7795 30.6208C45.1387 29.0739 44.1996 27.6683 43.0156 26.4844C41.8317 25.3004 40.4261 24.3613 38.8792 23.7205C37.3323 23.0798 35.6744 22.75 34 22.75C32.3256 22.75 30.6677 23.0798 29.1208 23.7205C27.5739 24.3613 26.1683 25.3004 24.9844 26.4844C23.8004 27.6683 22.8613 29.0739 22.2205 30.6208C21.5798 32.1677 21.25 33.8256 21.25 35.5L34 35.5H46.75Z" fill="#009F76" stroke="white" stroke-width="2" mask="url(#path-2-inside-1)"/>
<circle cx="34.75" cy="17.5" r="7" fill="#009F76" stroke="white"/>
<mask id="path-4-inside-2" fill="white">
<path d="M26.5 35.5C26.5 33.8256 26.1702 32.1677 25.5295 30.6208C24.8887 29.0739 23.9496 27.6683 22.7656 26.4844C21.5817 25.3004 20.1761 24.3613 18.6292 23.7205C17.0823 23.0798 15.4244 22.75 13.75 22.75C12.0756 22.75 10.4177 23.0798 8.87079 23.7205C7.32388 24.3613 5.91833 25.3004 4.73439 26.4844C3.55044 27.6683 2.61128 29.0739 1.97054 30.6208C1.32979 32.1677 1 33.8256 1 35.5L13.75 35.5H26.5Z"/>
</mask>
<path d="M26.5 35.5C26.5 33.8256 26.1702 32.1677 25.5295 30.6208C24.8887 29.0739 23.9496 27.6683 22.7656 26.4844C21.5817 25.3004 20.1761 24.3613 18.6292 23.7205C17.0823 23.0798 15.4244 22.75 13.75 22.75C12.0756 22.75 10.4177 23.0798 8.87079 23.7205C7.32388 24.3613 5.91833 25.3004 4.73439 26.4844C3.55044 27.6683 2.61128 29.0739 1.97054 30.6208C1.32979 32.1677 1 33.8256 1 35.5L13.75 35.5H26.5Z" fill="#009F76" stroke="white" stroke-width="2" mask="url(#path-4-inside-2)"/>
<circle cx="13" cy="17.5" r="7" fill="#009F76" stroke="white"/>
<mask id="path-6-inside-3" fill="white">
<path d="M37 39.25C37 37.5756 36.6605 35.9177 36.0009 34.3708C35.3413 32.8239 34.3745 31.4183 33.1558 30.2344C31.937 29.0504 30.4901 28.1113 28.8977 27.4705C27.3053 26.8298 25.5986 26.5 23.875 26.5C22.1514 26.5 20.4447 26.8298 18.8523 27.4705C17.2599 28.1113 15.813 29.0504 14.5942 30.2344C13.3755 31.4183 12.4087 32.8239 11.7491 34.3708C11.0895 35.9177 10.75 37.5756 10.75 39.25L23.875 39.25H37Z"/>
</mask>
<path d="M37 39.25C37 37.5756 36.6605 35.9177 36.0009 34.3708C35.3413 32.8239 34.3745 31.4183 33.1558 30.2344C31.937 29.0504 30.4901 28.1113 28.8977 27.4705C27.3053 26.8298 25.5986 26.5 23.875 26.5C22.1514 26.5 20.4447 26.8298 18.8523 27.4705C17.2599 28.1113 15.813 29.0504 14.5942 30.2344C13.3755 31.4183 12.4087 32.8239 11.7491 34.3708C11.0895 35.9177 10.75 37.5756 10.75 39.25L23.875 39.25H37Z" fill="#4ABB9E" stroke="white" stroke-width="2" mask="url(#path-6-inside-3)"/>
<circle cx="23.875" cy="21.25" r="7" fill="#4ABB9E" stroke="white"/>
</g>
<defs>
<clipPath id="clip0">
<rect width="48" height="48" fill="white"/>
</clipPath>
</defs>
</svg>
