<svg width="79" height="79" xmlns="http://www.w3.org/2000/svg">
    <path d="M67.56 1a1.28 1.28 0 011.2416.969h0l.4134 1.6537 1.4618-.8768a1.28 1.28 0 011.5642.1933h0l3.6198 3.6198a1.28 1.28 0 01.1933 1.5642h0l-.8768 1.4618 1.6537.4134A1.28 1.28 0 0177.8 11.24h0v5.12a1.28 1.28 0 01-.9702 1.2442h0l-1.6538.4134.8768 1.4618a1.28 1.28 0 01-.1933 1.5641h0l-3.6198 3.6199a1.28 1.28 0 01-1.5642.1932h0l-1.4617-.8768-.4135 1.6538.0188.3225c.0118.2133.0209.4246.0209.6439a17.6704 17.6704 0 01-2.4128 8.96H67.56c5.6554 0 10.24 4.5846 10.24 10.24s-4.5846 10.24-10.24 10.24h0-5.12a13.938 13.938 0 01-1.5462 6.4h.2662c4.2415 0 7.68 3.4385 7.68 7.68s-3.4385 7.68-7.68 7.68h0-43.52c-4.0925 0-7.4665-3.2082-7.6713-7.2955-.205-4.0874 2.8313-7.6174 6.9033-8.0261a4.5184 4.5184 0 01-.512-1.9584c.001-1.546.334-3.0738.9766-4.48h0H11.24c-5.5102-.0022-10.0307-4.3645-10.2292-9.8711-.1985-5.5067 3.9962-10.183 9.492-10.582A13.9277 13.9277 0 019.96 31.72c-.0032-5.634 3.3541-10.7269 8.5333-12.9444 5.1792-2.2176 11.1819-1.1324 15.2568 2.7582C36.0156 13.9337 42.9895 8.7128 50.92 8.68a17.7664 17.7664 0 013.5827.37h0l-.5568-.9268a1.28 1.28 0 01.1933-1.5642h0l3.6198-3.6198a1.28 1.28 0 011.5642-.1933h0l1.4618.8768.4134-1.6537A1.28 1.28 0 0162.44 1h0zm-19.2 43.52a11.3345 11.3345 0 00-3.84.6746h0V62.44h5.12a1.28 1.28 0 01.768 2.304h0l-10.24 7.68a1.28 1.28 0 01-1.536 0h0l-10.24-7.68a1.28 1.28 0 01.768-2.304h5.12v-6.3117c-1.9566-3.155-5.7698-4.628-9.3393-3.6074-3.5694 1.0205-6.0277 4.2866-6.0207 7.999.0928.5357.296 1.046.5965 1.499.235.4065.4383.8306.608 1.2685A1.28 1.28 0 0118.92 65h0-1.28c-2.8277 0-5.12 2.2923-5.12 5.12s2.2923 5.12 5.12 5.12h43.52c2.8277 0 5.12-2.2923 5.12-5.12S63.9877 65 61.16 65h0-2.574a1.28 1.28 0 01-1.024-2.048c2.6269-3.4864 3.0549-8.159 1.105-12.0647-1.9498-3.9056-5.9417-6.3717-10.307-6.3673zM39.4 29.48l-6.4 4.8h2.56c.707 0 1.28.573 1.28 1.28h0v28.16c0 .707-.573 1.28-1.28 1.28h0H33l6.4 4.8 6.4-4.8h-2.56c-.707 0-1.28-.573-1.28-1.28h0V35.56c0-.707.573-1.28 1.28-1.28h2.56l-6.4-4.8zm8.96 17.6c3.3947-.0024 6.4986 1.9163 8.014 4.954 1.5153 3.0378 1.1812 6.6715-.8626 9.382h0l-2.048-1.536A6.3872 6.3872 0 0048.36 49.64h0zm2.56-35.84c-7.648.0281-14.1182 5.6613-15.1987 13.2326a1.28 1.28 0 01-2.304.567c-2.9083-4.0755-8.116-5.8059-12.885-4.2813-4.7691 1.5245-8.0074 5.9549-8.0123 10.9617a11.392 11.392 0 00.9664 4.608 1.28 1.28 0 01-1.1712 1.792h0H11.24c-4.2415 0-7.68 3.4385-7.68 7.68s3.4385 7.68 7.68 7.68h7.7197A10.807 10.807 0 0134.28 52.264h0V36.84h-5.12a1.28 1.28 0 01-.768-2.304h0l10.24-7.68a1.28 1.28 0 011.536 0h0l10.24 7.68a1.28 1.28 0 01-.768 2.304h0-5.12v5.6704a13.8816 13.8816 0 013.84-.5504c6.783.0109 12.5962 4.8512 13.8355 11.52H67.56c4.2415 0 7.68-3.4385 7.68-7.68s-3.4385-7.68-7.68-7.68h0-3.5456a1.28 1.28 0 01-1.0086-2.0685A15.1987 15.1987 0 0066.28 26.6h0-3.84a1.28 1.28 0 01-1.2416-.969h0l-.4134-1.6537-1.4618.8768a1.28 1.28 0 01-1.5642-.1933h0l-3.6198-3.6198a1.28 1.28 0 01-.1933-1.5642h0l.8768-1.4618-1.6537-.4134A1.28 1.28 0 0152.2 16.36h0v-5.0637c-.4224-.0345-.8486-.0563-1.28-.0563zM11.24 40.68v2.56c-1.4138 0-2.56 1.1462-2.56 2.56h0-2.56c0-2.8277 2.2923-5.12 5.12-5.12h0zm12.8-17.92v2.56c-3.5329.0042-6.3958 2.8671-6.4 6.4a6.3066 6.3066 0 00.535 2.5523h0l-2.3436 1.024A8.822 8.822 0 0115.08 31.72c.0056-4.9461 4.0139-8.9544 8.96-8.96h0zm42.5203-19.2h-3.1206l-.5901 2.3603a1.28 1.28 0 01-1.9008.7872h0l-2.0864-1.2518-2.2067 2.2067 1.2518 2.0864a1.28 1.28 0 01-.7872 1.9008h0l-2.3603.59v3.1207l2.3603.5965a1.28 1.28 0 01.7872 1.9008h0l-1.2518 2.0864 2.2067 2.2003 2.0864-1.2518a1.28 1.28 0 011.9008.7872h0l.59 2.3603h3.1207l.5965-2.3603a1.28 1.28 0 011.9008-.7872h0l2.0864 1.2518 2.2003-2.2067-1.2518-2.0864a1.28 1.28 0 01.7872-1.9008h0l2.3603-.59v-3.1207l-2.3603-.5901a1.28 1.28 0 01-.7872-1.9008h0l1.2518-2.0864-2.2067-2.2067-2.0864 1.2518a1.28 1.28 0 01-1.9008-.7872h0l-.59-2.3603zM65 8.68a5.12 5.12 0 015.12 5.12c0 2.8277-2.2923 5.12-5.12 5.12s-5.12-2.2923-5.12-5.12S62.1723 8.68 65 8.68zm0 2.56c-1.4138 0-2.56 1.1462-2.56 2.56s1.1462 2.56 2.56 2.56 2.56-1.1462 2.56-2.56-1.1462-2.56-2.56-2.56z"
          fill="#12B688" fill-rule="nonzero" stroke-width=".8"/>
</svg>