<svg width="42" height="41" viewBox="0 0 42 41" fill="none" xmlns="http://www.w3.org/2000/svg">
<path d="M21 0.00131248C9.39881 0.00131248 0 9.408 0 21.0013C0 30.2846 6.0165 38.1531 14.3548 40.929C15.4088 41.1272 15.7894 40.4775 15.7894 39.9157C15.7894 39.417 15.7776 38.0979 15.7697 36.3471C9.92513 37.6123 8.694 33.5239 8.694 33.5239C7.73719 31.1036 6.35644 30.4539 6.35644 30.4539C4.45594 29.1559 6.50738 29.1834 6.50738 29.1834C8.61263 29.3265 9.72038 31.3425 9.72038 31.3425C11.5933 34.5555 14.6344 33.6263 15.8379 33.0855C16.0217 31.7323 16.569 30.8018 17.1649 30.2833C12.5029 29.757 7.60069 27.9523 7.60069 19.9054C7.60069 17.6072 8.41444 15.7356 9.75975 14.2656C9.52744 13.7392 8.81606 11.5999 9.94481 8.70712C9.94481 8.70712 11.7023 8.14669 15.7198 10.8609C17.4312 10.3955 19.1963 10.1567 20.9698 10.1509C22.7548 10.1627 24.5385 10.3963 26.2198 10.8609C30.2137 8.14669 31.9699 8.70712 31.9699 8.70712C33.0973 11.5999 32.3859 13.7379 32.1812 14.2656C33.5134 15.7356 34.3271 17.6085 34.3271 19.9054C34.3271 27.9707 29.4184 29.7491 24.7511 30.2623C25.4809 30.891 26.1647 32.1838 26.1647 34.146C26.1647 36.9548 26.1384 39.2175 26.1384 39.9013C26.1384 40.4473 26.5059 41.1036 27.5874 40.8923C35.9874 38.1452 41.9974 30.2702 41.9974 21C41.9974 9.40669 32.5986 0 20.9974 0L21 0.00131248Z" fill="#009F76"/>
</svg>
