<svg width="36" height="36" viewBox="0 0 36 36" fill="none" xmlns="http://www.w3.org/2000/svg">
<path d="M7.5645 22.7464C7.56243 23.7488 7.16369 24.7096 6.45541 25.4189C5.74713 26.1283 4.7869 26.5284 3.7845 26.532C2.78114 26.5302 1.81941 26.1308 1.11003 25.4212C0.400652 24.7116 0.00148708 23.7497 0 22.7464C0.00326968 21.7442 0.403221 20.7841 1.11241 20.0759C1.82159 19.3678 2.78231 18.9693 3.7845 18.9675H7.5645V22.7464ZM9.468 22.7464C9.47127 21.744 9.87138 20.7837 10.5808 20.0755C11.2902 19.3674 12.2512 18.969 13.2536 18.9675C14.255 18.9702 15.2146 19.3692 15.9227 20.0773C16.6308 20.7854 17.0298 21.745 17.0325 22.7464V32.2155C17.0307 33.2177 16.6322 34.1784 15.9241 34.8876C15.2159 35.5968 14.2558 35.9967 13.2536 36C12.2505 35.9976 11.2892 35.5982 10.5798 34.889C9.87041 34.1798 9.47067 33.2186 9.468 32.2155V22.7464ZM13.2536 7.5645C12.2512 7.56243 11.2904 7.16369 10.5811 6.45541C9.87173 5.74713 9.47157 4.7869 9.468 3.7845C9.47067 2.78142 9.87041 1.8202 10.5798 1.11101C11.2892 0.401826 12.2505 0.00237554 13.2536 0C14.2558 0.00326968 15.2159 0.403221 15.9241 1.11241C16.6322 1.82159 17.0307 2.78231 17.0325 3.7845V7.5645H13.2536ZM13.2536 9.468C14.2563 9.47038 15.2171 9.8702 15.9254 10.5798C16.6338 11.2894 17.0319 12.251 17.0325 13.2536C17.031 14.2554 16.6324 15.2157 15.924 15.924C15.2157 16.6324 14.2554 17.031 13.2536 17.0325H3.7845C2.78231 17.0307 1.82159 16.6322 1.11241 15.9241C0.403221 15.2159 0.00326968 14.2558 0 13.2536C0.00237554 12.2505 0.401826 11.2892 1.11101 10.5798C1.8202 9.87041 2.78142 9.47067 3.7845 9.468H13.2536ZM28.4355 13.2536C28.4364 12.2509 28.8347 11.2893 29.5433 10.5798C30.2518 9.87017 31.2127 9.47038 32.2155 9.468C33.2186 9.47067 34.1798 9.87041 34.889 10.5798C35.5982 11.2892 35.9976 12.2505 36 13.2536C35.9967 14.2558 35.5968 15.2159 34.8876 15.9241C34.1784 16.6322 33.2177 17.0307 32.2155 17.0325H28.4355V13.2536ZM26.532 13.2536C26.5287 14.256 26.1286 15.2163 25.4192 15.9245C24.7098 16.6326 23.7488 17.031 22.7464 17.0325C21.745 17.0298 20.7854 16.6308 20.0773 15.9227C19.3692 15.2146 18.9702 14.255 18.9675 13.2536V3.7845C18.9693 2.78231 19.3678 1.82159 20.0759 1.11241C20.7841 0.403221 21.7442 0.00326968 22.7464 0C23.7497 0.00148708 24.7116 0.400652 25.4212 1.11003C26.1308 1.81941 26.5302 2.78114 26.532 3.7845V13.2536ZM22.7464 28.4355C24.8389 28.4355 26.5264 30.1286 26.532 32.2155C26.5302 33.2189 26.1308 34.1806 25.4212 34.89C24.7116 35.5993 23.7497 35.9985 22.7464 36C21.7442 35.9967 20.7841 35.5968 20.0759 34.8876C19.3678 34.1784 18.9693 33.2177 18.9675 32.2155V28.4355H22.7464ZM22.7464 26.532C21.744 26.5287 20.7837 26.1286 20.0755 25.4192C19.3674 24.7098 18.969 23.7488 18.9675 22.7464C18.969 21.7446 19.3676 20.7843 20.076 20.076C20.7843 19.3676 21.7446 18.969 22.7464 18.9675H32.2155C33.2177 18.9693 34.1784 19.3678 34.8876 20.0759C35.5968 20.7841 35.9967 21.7442 36 22.7464C35.9985 23.7497 35.5993 24.7116 34.89 25.4212C34.1806 26.1308 33.2189 26.5302 32.2155 26.532H22.7464Z" fill="#009F76"/>
</svg>
