<svg width="40" height="40" viewBox="0 0 40 40" fill="none" xmlns="http://www.w3.org/2000/svg">
<g clip-path="url(#clip0)">
<path d="M40.2363 7.93424C38.7391 8.59237 37.1535 9.02701 35.53 9.22424C37.2413 8.19711 38.5225 6.58467 39.1362 4.68549C37.5176 5.62424 35.7558 6.29102 33.9212 6.65924C32.6875 5.34106 31.0533 4.46689 29.272 4.17236C27.4908 3.87783 25.6621 4.1794 24.0698 5.03028C22.4774 5.88117 21.2104 7.23379 20.4652 8.8783C19.7201 10.5228 19.5386 12.3673 19.9487 14.1255C13.1325 13.8067 7.09 10.5317 3.04875 5.58424C2.31309 6.83534 1.92834 8.26164 1.935 9.71299C1.934 11.0622 2.26618 12.3908 2.90205 13.5807C3.53792 14.7707 4.4578 15.7852 5.58 16.5342C4.27953 16.4949 3.00739 16.1447 1.87 15.513V15.6117C1.8696 17.5055 2.52401 19.3412 3.72232 20.8076C4.92062 22.2741 6.58911 23.2811 8.445 23.658C7.74199 23.8458 7.01766 23.942 6.29 23.9442C5.76375 23.9442 5.26125 23.893 4.76 23.8005C5.28816 25.4301 6.31126 26.8546 7.68689 27.8756C9.06251 28.8965 10.7222 29.4632 12.435 29.4967C9.53301 31.7694 5.95223 33.0023 2.26625 32.998C1.61338 33.0006 0.960952 32.9638 0.3125 32.888C4.07261 35.2973 8.44546 36.5763 12.9112 36.573C27.995 36.573 36.2375 24.0792 36.2375 13.2592C36.2375 12.9142 36.2375 12.563 36.2113 12.2105C37.8236 11.0549 39.2131 9.61667 40.3125 7.96549L40.2363 7.93424Z" fill="#009F76"/>
</g>
<defs>
<clipPath id="clip0">
<rect width="40" height="40" fill="white"/>
</clipPath>
</defs>
</svg>
