<?xml version="1.0" encoding="UTF-8"?>
<svg width="845px" height="364px" viewBox="0 0 845 364" version="1.1" xmlns="http://www.w3.org/2000/svg" xmlns:xlink="http://www.w3.org/1999/xlink">
    <!-- Generator: Sketch 49.1 (51147) - http://www.bohemiancoding.com/sketch -->
    <title>blog-new-landscape</title>
    <desc>Created with Sketch.</desc>
    <defs>
        <rect id="path-1" x="-22" y="270" width="921" height="130"></rect>
        <path d="M41.8864954,0.994901575 C42.8830405,0.514990742 44.5028956,0.516982644 45.4953045,0.994901575 L76.8159138,16.0781121 C77.8124589,16.5580229 78.8208647,17.8257185 79.0659694,18.8995926 L86.8015211,52.7912589 C87.0476474,53.8696088 86.6852538,55.4484075 85.9984855,56.3095876 L64.3239514,83.4885938 C63.6343208,84.3533632 62.1740175,85.0543973 61.0725268,85.0543973 L26.3092731,85.0543973 C25.2031915,85.0543973 23.7446167,84.3497739 23.0578485,83.4885938 L1.38331434,56.3095876 C0.693683723,55.4448182 0.335174016,53.865133 0.580278769,52.7912589 L8.31583044,18.8995926 C8.56195675,17.8212428 9.57347722,16.556031 10.5658861,16.0781121 L41.8864954,0.994901575 Z" id="path-2"></path>
        <linearGradient x1="12.7542673%" y1="-18.6617048%" x2="88.2666158%" y2="84.6075483%" id="linearGradient-4">
            <stop stop-color="#FFFFFF" offset="0%"></stop>
            <stop stop-color="#439246" offset="100%"></stop>
        </linearGradient>
        <linearGradient x1="50%" y1="4.93673768%" x2="148.756007%" y2="175.514523%" id="linearGradient-5">
            <stop stop-color="#FFFFFF" offset="0%"></stop>
            <stop stop-color="#439246" offset="100%"></stop>
        </linearGradient>
        <linearGradient x1="19.1574381%" y1="-9.04800713%" x2="82.2203149%" y2="77.9084293%" id="linearGradient-6">
            <stop stop-color="#FFFFFF" offset="0%"></stop>
            <stop stop-color="#439246" offset="100%"></stop>
        </linearGradient>
        <linearGradient x1="57.4403751%" y1="26.3148481%" x2="137.966711%" y2="158.080556%" id="linearGradient-7">
            <stop stop-color="#FFFFFF" offset="0%"></stop>
            <stop stop-color="#439246" offset="100%"></stop>
        </linearGradient>
        <path d="M427.589141,301.071362 C428.689578,300.976579 430.465241,300.975847 431.574176,301.071362 L476.109608,304.907288 C477.210045,305.00207 478.807013,305.631267 479.668768,306.306551 L488.51905,313.241762 C489.384282,313.91977 489.204842,314.66696 488.135306,314.906832 L458.458872,321.562573 C457.381703,321.804157 455.618687,322 454.511822,322 L404.651495,322 C403.548767,322 401.773981,321.802446 400.704445,321.562573 L371.02801,314.906832 C369.950842,314.665248 369.782513,313.917045 370.644267,313.241762 L379.494549,306.306551 C380.359781,305.628542 381.944774,305.002802 383.053708,304.907288 L427.589141,301.071362 Z" id="path-8"></path>
    </defs>
    <g id="blog-new-landscape" stroke="none" stroke-width="1" fill="none" fill-rule="evenodd">
        <rect id="Rectangle-3" fill="#0CA391" opacity="0.0399682971" x="-66" y="-20" width="921" height="400"></rect>
        <g id="Rectangle-3" opacity="0.0572916667">
            <use fill="#0CA391" fill-rule="evenodd" xlink:href="#path-1"></use>
            <rect stroke="#979797" stroke-width="2" x="-21" y="271" width="919" height="128"></rect>
        </g>
        <polygon id="Triangle" fill="#0CA391" opacity="0.219372736" points="427 -482 585 318 269 318"></polygon>
        <ellipse id="Oval" fill="#61C4B8" cx="427" cy="317.5" rx="157" ry="26.5"></ellipse>
        <g id="Icon" transform="translate(382.000000, 169.000000)">
            <g id="Rectangle-2">
                <mask id="mask-3" fill="white">
                    <use xlink:href="#path-2"></use>
                </mask>
                <use id="Mask" fill="#009F76" xlink:href="#path-2"></use>
                <polygon fill="#000000" opacity="0.289628623" mask="url(#mask-3)" points="-17.6484375 54.5224609 30.8242188 25.0791016 63.4726562 58.5 24.7324219 92.6689453"></polygon>
            </g>
            <path d="M56.0003445,39.109161 C55.5674183,40.2907377 54.7557375,41.4244511 53.8257515,42.0290903 L45.6741808,47.3289109 C44.2893065,48.2293 42.0440634,48.2293532 40.6591074,47.3289109 L32.5075367,42.0290903 C31.1226624,41.1287012 30,39.0553483 30,37.3969778 L30,26.2797693 C30,25.5549436 30.2145809,24.7506077 30.5718537,23.9995849 L56.0003445,39.109161 Z" id="Combined-Shape" fill="url(#linearGradient-4)" transform="translate(43.000000, 36.000000) scale(-1, 1) translate(-43.000000, -36.000000) "></path>
            <path d="M55.4207003,25.1423593 C55.7825492,25.8909465 56,26.6950594 56,27.4212666 L56,38.2121741 C56,39.8706426 54.8683,41.9311378 53.4720933,42.8145354 L45.2543033,48.014035 C43.858179,48.8973805 41.5946966,48.8974326 40.1984899,48.014035 L31.9806999,42.8145354 C31.3031749,42.3858568 30.6879041,41.6795392 30.2340263,40.87666 L55.4207003,25.1423593 Z" id="Combined-Shape" fill="url(#linearGradient-5)" transform="translate(43.000000, 37.000000) scale(-1, 1) translate(-43.000000, -37.000000) "></path>
            <path d="M64.003661,57.7674781 C63.5330833,58.7951442 62.7708588,59.7308191 61.9122211,60.2345001 L46.3350083,69.3721681 C44.9068376,70.20994 42.5890556,70.2086144 41.1631446,69.3721681 L25.5859318,60.2345001 C24.1577611,59.3967283 23,57.3741192 23,55.7082332 L23,37.3839106 C23,36.6155404 23.2479341,35.7689894 23.6554523,34.998121 L64.003661,57.7674781 Z" id="Combined-Shape" fill="url(#linearGradient-6)"></path>
            <path d="M64.4403353,35.0030897 C64.7908302,35.713618 65,36.4776184 65,37.1776344 L65,54.9697399 C65,56.627504 63.829783,58.6365533 62.391339,59.454183 L46.6772095,68.3862917 C45.2364858,69.2052172 42.8983315,69.2039214 41.4598874,68.3862917 L25.7457579,59.454183 C25.0765684,59.0738073 24.4662307,58.436165 24.0044466,57.6965531 L64.4403353,35.0030897 Z" id="Combined-Shape" fill="url(#linearGradient-7)"></path>
        </g>
        <path d="M427.5,137.5 L427.5,104" id="Line" stroke="#0CA391" stroke-width="8" opacity="0.525815217" stroke-linecap="round" stroke-linejoin="round"></path>
        <path d="M347.5,230.5 L326,238" id="Line" stroke="#0CA391" stroke-width="8" opacity="0.525815217" stroke-linecap="round" stroke-linejoin="round"></path>
        <path d="M357.5,163.5 L319,133" id="Line" stroke="#0CA391" stroke-width="8" opacity="0.525815217" stroke-linecap="round" stroke-linejoin="round"></path>
        <path d="M526,155 L492,176" id="Line" stroke="#0CA391" stroke-width="8" opacity="0.525815217" stroke-linecap="round" stroke-linejoin="round"></path>
        <path d="M495.5,235.5 L520,243" id="Line" stroke="#0CA391" stroke-width="8" opacity="0.525815217" stroke-linecap="round" stroke-linejoin="round"></path>
        <polygon id="Star" fill="#0CA391" opacity="0.394304801" points="375 134.75 369.709933 137.376644 370.720246 131.813322 366.440491 127.873356 372.354966 127.061678 375 122 377.645034 127.061678 383.559509 127.873356 379.279754 131.813322 380.290067 137.376644"></polygon>
        <polygon id="Star" fill="#0CA391" opacity="0.394304801" points="492 268.5 489.061074 270.045085 489.622359 266.772542 487.244717 264.454915 490.530537 263.977458 492 261 493.469463 263.977458 496.755283 264.454915 494.377641 266.772542 494.938926 270.045085"></polygon>
        <polygon id="Star" fill="#0CA391" opacity="0.394304801" points="516 198.75 510.709933 201.376644 511.720246 195.813322 507.440491 191.873356 513.354966 191.061678 516 186 518.645034 191.061678 524.559509 191.873356 520.279754 195.813322 521.290067 201.376644"></polygon>
        <circle id="Oval-2" fill="#0CA391" opacity="0.370810688" cx="328" cy="186" r="6"></circle>
        <circle id="Oval-2" fill="#0CA391" opacity="0.370810688" cx="478.5" cy="131.5" r="7.5"></circle>
        <circle id="Oval-2" fill="#0CA391" opacity="0.370810688" cx="345.5" cy="262.5" r="3.5"></circle>
        <mask id="mask-9" fill="white">
            <use xlink:href="#path-8"></use>
        </mask>
        <use id="Mask" fill="#009F76" opacity="0.184556159" xlink:href="#path-8"></use>
    </g>
</svg>