<svg xmlns="http://www.w3.org/2000/svg" xmlns:xlink="http://www.w3.org/1999/xlink" width="91" height="87" viewBox="0 0 91 87">
    <defs>
        <path id="a" d="M43.812 1.015c1.043-.49 2.737-.488 3.775 0l32.76 15.381c1.043.49 2.098 1.782 2.354 2.878l8.091 34.562c.258 1.1-.121 2.71-.84 3.588L67.282 85.14c-.722.881-2.25 1.596-3.402 1.596H27.52c-1.157 0-2.683-.718-3.401-1.596L1.447 57.424C.726 56.542.35 54.93.607 53.836l8.091-34.562c.258-1.1 1.316-2.39 2.354-2.878l32.76-15.381z"/>
        <linearGradient id="c" x1="12.754%" x2="88.267%" y1="-29.464%" y2="90.052%">
            <stop offset="0%" stop-color="#FFF"/>
            <stop offset="100%" stop-color="#439246"/>
        </linearGradient>
        <linearGradient id="d" x1="50%" x2="148.756%" y1="-.465%" y2="190.561%">
            <stop offset="0%" stop-color="#FFF"/>
            <stop offset="100%" stop-color="#439246"/>
        </linearGradient>
        <linearGradient id="e" x1="19.157%" x2="82.22%" y1="-8.63%" y2="77.711%">
            <stop offset="0%" stop-color="#FFF"/>
            <stop offset="100%" stop-color="#439246"/>
        </linearGradient>
        <linearGradient id="f" x1="57.44%" x2="137.967%" y1="26.601%" y2="156.776%">
            <stop offset="0%" stop-color="#FFF"/>
            <stop offset="100%" stop-color="#439246"/>
        </linearGradient>
    </defs>
    <g fill="none" fill-rule="evenodd">
        <path fill="#009F76" fill-rule="nonzero" d="M43.812 1.015c1.043-.49 2.737-.488 3.775 0l32.76 15.381c1.043.49 2.098 1.782 2.354 2.878l8.091 34.562c.258 1.1-.121 2.71-.84 3.588L67.282 85.14c-.722.881-2.25 1.596-3.402 1.596H27.52c-1.157 0-2.683-.718-3.401-1.596L1.447 57.424C.726 56.542.35 54.93.607 53.836l8.091-34.562c.258-1.1 1.316-2.39 2.354-2.878l32.76-15.381z"/>
        <g>
            <mask id="b" fill="#fff">
                <use xlink:href="#a"/>
            </mask>
            <use fill="#12B688" xlink:href="#a"/>
            <path fill="#000" fill-rule="nonzero" d="M-18.46 55.601l50.701-30.026 34.15 34.082L25.87 94.503z" mask="url(#b)" opacity=".29"/>
        </g>
        <path fill="url(#c)" fill-rule="nonzero" d="M59 40.738c-.417 1.232-1.201 2.416-2.106 3.053l-7.808 5.5c-1.34.943-3.505.948-4.852 0l-7.808-5.5C35.086 42.847 34 40.683 34 38.955v-11.58c0-.755.206-1.592.55-2.375L59 40.738z" transform="matrix(-1 0 0 1 93 0)"/>
        <path fill="url(#d)" fill-rule="nonzero" d="M58.444 25c.348.78.556 1.613.556 2.364V38.95c0 1.727-1.098 3.889-2.467 4.838L48.59 49.29c-1.363.944-3.565.949-4.935 0l-7.942-5.502c-.666-.462-1.27-1.215-1.714-2.066L58.444 25z" transform="matrix(-1 0 0 1 93 0)"/>
        <path fill="url(#e)" fill-rule="nonzero" d="M68 60.416c-.494 1.06-1.291 2.023-2.19 2.54l-16.337 9.398c-1.498.862-3.928.86-5.424 0l-16.337-9.399c-1.498-.861-2.712-2.96-2.712-4.68V39.477c0-.799.261-1.678.69-2.477L68 60.416z"/>
        <path fill="url(#f)" fill-rule="nonzero" d="M67.419 37c.364.742.581 1.539.581 2.268v18.915c0 1.734-1.227 3.844-2.736 4.71l-16.48 9.457c-1.512.867-3.964.866-5.472 0L26.83 62.893c-.704-.404-1.346-1.079-1.831-1.859L67.419 37z"/>
    </g>
</svg>
