<svg width="185" height="182" viewBox="0 0 185 182" fill="none" xmlns="http://www.w3.org/2000/svg">
<g opacity="0.98">
<path opacity="0.98" d="M167.15 0.649998H17.15C12.6136 0.663189 8.26668 2.47113 5.05891 5.6789C1.85115 8.88667 0.0432053 13.2335 0.030014 17.77V58.12H41.64V51.53C41.64 49.0741 42.6156 46.7188 44.3522 44.9822C46.0888 43.2456 48.4441 42.27 50.9 42.27H133.43C135.886 42.27 138.241 43.2456 139.978 44.9822C141.714 46.7188 142.69 49.0741 142.69 51.53V58.12H184.33V17.77C184.314 13.224 182.497 8.86957 179.277 5.66066C176.057 2.45175 171.696 0.64997 167.15 0.649998V0.649998Z" fill="#ED1944"/>
<path opacity="0.98" d="M142.66 130.13C142.657 132.585 141.681 134.939 139.945 136.675C138.209 138.411 135.855 139.387 133.4 139.39H50.87C48.4149 139.387 46.0611 138.411 44.3251 136.675C42.5891 134.939 41.6126 132.585 41.61 130.13V123.54H1.52588e-05V163.88C0.0105684 168.418 1.81732 172.768 5.02538 175.978C8.23343 179.187 12.5818 180.997 17.12 181.01H167.12C171.673 181.018 176.043 179.218 179.27 176.006C182.497 172.794 184.317 168.433 184.33 163.88V123.54H142.66V130.13Z" fill="#ED1944"/>
<path opacity="0.98" d="M41.62 70.02H0V111.64H41.62V70.02Z" fill="#ED1944"/>
<path opacity="0.98" d="M184.28 70.02H142.66V111.64H184.28V70.02Z" fill="#ED1944"/>
</g>
</svg>
