<svg width="1437" height="304" viewBox="0 0 1437 304" fill="none" xmlns="http://www.w3.org/2000/svg">
<rect y="-58" width="1513" height="440" fill="#19AC84"/>
<mask id="mask0" mask-type="alpha" maskUnits="userSpaceOnUse" x="-77" y="-3" width="1516" height="317">
<path d="M1438.97 -2.99646H-76.1307V313.853H1438.97V-2.99646Z" fill="#009F76"/>
</mask>
<g mask="url(#mask0)">
<g filter="url(#filter0_f)">
<path fill-rule="evenodd" clip-rule="evenodd" d="M630.872 -165.189C640.074 -168.945 655.009 -168.929 664.167 -165.189L953.176 -47.2817C962.377 -43.5255 971.693 -33.6213 973.951 -25.2196L1045.32 239.724C1047.6 248.156 1044.25 260.498 1037.92 267.236L837.925 479.693C831.547 486.446 818.075 491.927 807.904 491.927H487.144C476.937 491.927 463.466 486.423 457.141 479.693L257.128 267.236C250.759 260.468 247.442 248.118 249.718 239.724L321.097 -25.2196C323.373 -33.652 332.697 -43.5408 341.855 -47.2817L630.872 -165.189Z" fill="#0C7558"/>
</g>
<g filter="url(#filter1_f)">
<path fill-rule="evenodd" clip-rule="evenodd" d="M1259.22 -238.678C1266.62 -241.991 1278.63 -241.978 1286 -238.678L1518.44 -134.675C1525.84 -131.362 1533.34 -122.626 1535.15 -115.215L1592.56 118.485C1594.39 125.923 1591.7 136.81 1586.6 142.753L1425.75 330.156C1420.62 336.113 1409.78 340.947 1401.6 340.947H1143.62C1135.41 340.947 1124.58 336.092 1119.49 330.156L958.62 142.753C953.497 136.783 950.83 125.889 952.66 118.485L1010.07 -115.215C1011.9 -122.653 1019.4 -131.376 1026.77 -134.675L1259.22 -238.678Z" fill="#15B88A"/>
</g>
<g filter="url(#filter2_f)">
<path fill-rule="evenodd" clip-rule="evenodd" d="M1417.63 -101.242C1420.52 -102.536 1425.2 -102.531 1428.07 -101.242L1518.68 -60.6188C1521.57 -59.3247 1524.49 -55.9123 1525.19 -53.0177L1547.57 38.2649C1548.28 41.1701 1547.24 45.4223 1545.25 47.7439L1482.55 120.943C1480.55 123.269 1476.32 125.158 1473.14 125.158H1372.57C1369.37 125.158 1365.15 123.261 1363.17 120.943L1300.46 47.7439C1298.46 45.4117 1297.42 41.1569 1298.14 38.2649L1320.51 -53.0177C1321.23 -55.9229 1324.15 -59.3299 1327.02 -60.6188L1417.63 -101.242Z" fill="#1CD6A1"/>
</g>
<g filter="url(#filter3_f)">
<path fill-rule="evenodd" clip-rule="evenodd" d="M268.067 25.77C273.707 23.4052 282.862 23.4148 288.475 25.77L465.621 100.001C471.261 102.366 476.972 108.601 478.356 113.89L522.102 280.691C523.497 286 521.447 293.77 517.565 298.012L394.979 431.768C391.069 436.02 382.812 439.471 376.578 439.471H179.97C173.713 439.471 165.456 436.006 161.579 431.768L38.9821 298.012C35.078 293.751 33.0448 285.976 34.4399 280.691L78.1913 113.89C79.5864 108.582 85.302 102.356 90.9149 100.001L268.067 25.77Z" fill="#138565"/>
</g>
</g>
<defs>
<filter id="filter0_f" x="239" y="-178" width="817.036" height="679.927" filterUnits="userSpaceOnUse" color-interpolation-filters="sRGB">
<feFlood flood-opacity="0" result="BackgroundImageFix"/>
<feBlend mode="normal" in="SourceGraphic" in2="BackgroundImageFix" result="shape"/>
<feGaussianBlur stdDeviation="5" result="effect1_foregroundBlur"/>
</filter>
<filter id="filter1_f" x="942.083" y="-251.158" width="661.048" height="602.105" filterUnits="userSpaceOnUse" color-interpolation-filters="sRGB">
<feFlood flood-opacity="0" result="BackgroundImageFix"/>
<feBlend mode="normal" in="SourceGraphic" in2="BackgroundImageFix" result="shape"/>
<feGaussianBlur stdDeviation="5" result="effect1_foregroundBlur"/>
</filter>
<filter id="filter2_f" x="1287.91" y="-112.211" width="269.882" height="247.368" filterUnits="userSpaceOnUse" color-interpolation-filters="sRGB">
<feFlood flood-opacity="0" result="BackgroundImageFix"/>
<feBlend mode="normal" in="SourceGraphic" in2="BackgroundImageFix" result="shape"/>
<feGaussianBlur stdDeviation="5" result="effect1_foregroundBlur"/>
</filter>
<filter id="filter3_f" x="24" y="14" width="508.54" height="435.471" filterUnits="userSpaceOnUse" color-interpolation-filters="sRGB">
<feFlood flood-opacity="0" result="BackgroundImageFix"/>
<feBlend mode="normal" in="SourceGraphic" in2="BackgroundImageFix" result="shape"/>
<feGaussianBlur stdDeviation="5" result="effect1_foregroundBlur"/>
</filter>
</defs>
</svg>
