<svg width="1438" height="304" viewBox="0 0 1438 304" fill="none" xmlns="http://www.w3.org/2000/svg">
<path d="M1438 0H0V419.38H1438V0Z" fill="#13C190"/>
<path d="M1438 0H0V419.38H1438V0Z" fill="url(#paint0_linear)"/>
<path fill-rule="evenodd" clip-rule="evenodd" d="M1196.8 -172.211C1203.83 -175.369 1215.25 -175.356 1222.25 -172.211L1443.17 -73.0819C1450.21 -69.9239 1457.33 -61.5971 1459.06 -54.5335L1513.61 168.214C1515.35 175.304 1512.8 185.68 1507.95 191.345L1355.07 369.965C1350.2 375.643 1339.9 380.251 1332.13 380.251H1086.93C1079.13 380.251 1068.83 375.623 1063.99 369.965L911.101 191.345C906.232 185.654 903.697 175.272 905.436 168.214L960 -54.5335C961.74 -61.6229 968.868 -69.9368 975.868 -73.0819L1196.8 -172.211Z" fill="#14CC98"/>
<path fill-rule="evenodd" clip-rule="evenodd" d="M106.5 -43.4718C114.378 -47.0524 127.166 -47.0377 135.006 -43.4718L382.456 68.9219C390.334 72.5024 398.311 81.9435 400.244 89.9523L461.352 342.507C463.3 350.545 460.438 362.31 455.014 368.733L283.778 571.255C278.317 577.693 266.783 582.918 258.074 582.918H-16.5604C-25.2997 582.918 -36.8338 577.671 -42.2496 571.255L-213.501 368.733C-218.954 362.281 -221.794 350.509 -219.845 342.507L-158.731 89.9523C-156.782 81.9142 -148.798 72.4878 -140.958 68.9219L106.5 -43.4718Z" fill="#12B084"/>
<path fill-rule="evenodd" clip-rule="evenodd" d="M1347.36 -41.2153C1350.1 -42.4488 1354.55 -42.4438 1357.28 -41.2153L1443.4 -2.49597C1446.14 -1.26247 1448.92 1.98994 1449.59 4.74895L1470.86 91.7536C1471.53 94.5226 1470.54 98.5756 1468.65 100.788L1409.06 170.557C1407.16 172.774 1403.14 174.574 1400.11 174.574H1304.53C1301.49 174.574 1297.48 172.767 1295.59 170.557L1236 100.788C1234.1 98.5655 1233.11 94.5101 1233.79 91.7536L1255.06 4.74895C1255.73 1.97987 1258.51 -1.26751 1261.24 -2.49597L1347.36 -41.2153Z" fill="#15D59F"/>
<defs>
<linearGradient id="paint0_linear" x1="99.0185" y1="150.357" x2="694.275" y2="828.256" gradientUnits="userSpaceOnUse">
<stop stop-color="#12B688"/>
<stop offset="1" stop-color="#15D19C"/>
</linearGradient>
</defs>
</svg>
