<?xml version="1.0" encoding="UTF-8"?>
<svg width="1006px" height="444px" viewBox="0 0 1006 444" version="1.1" xmlns="http://www.w3.org/2000/svg" xmlns:xlink="http://www.w3.org/1999/xlink">
    <!-- Generator: Sketch 48.2 (47327) - http://www.bohemiancoding.com/sketch -->
    <title>howto-content-trust-replace</title>
    <desc>Created with Sketch.</desc>
    <defs></defs>
    <g id="Page-1" stroke="none" stroke-width="1" fill="none" fill-rule="evenodd">
        <g id="howto-content-trust-replace">
            <path d="M782,377 L723,377 L723,340.829909 L736.464292,324 L768.59225,324 L782,340.829909 L782,377 Z M777.083333,345.681818 L727.916667,345.681818 L727.916667,372.181818 L777.083333,372.181818 L777.083333,345.681818 Z M754.958333,357.727273 L762.333333,357.727273 L752.5,367.363636 L742.666667,357.727273 L750.041667,357.727273 L750.041667,350.5 L754.958333,350.5 L754.958333,357.727273 Z M766.188,328.818182 L738.937375,328.818182 L729.2245,340.863636 L775.79025,340.863636 L766.188,328.818182 Z" id="Shape" fill="#009F76"></path>
            <path d="M555.1925,103.9255 L554.335,104.404875 L554.335,100.183917 L555.1925,99.7045417 L555.1925,103.9255 Z M562.25,95.7515417 L561.395,96.2309167 L561.395,100.451875 L562.25,99.9725 L562.25,95.7515417 Z M571,77.0632917 L571,105.351333 L546.625,119 L516,101.84575 L516,73.5577083 L540.4175,60 L571,77.0632917 Z M536.385,67.8863333 L558.94,80.6155833 L563.19,78.3612917 L540.4075,65.6517083 L536.385,67.8863333 Z M543.5,91.683 L521,78.8554167 L521,98.9891667 L543.5,111.590583 L543.5,91.683 Z M551.0525,84.7775417 L529.005,71.9524167 L523.895,74.8212917 L546.045,87.4522083 L551.0525,84.7775417 Z M566,82.4593333 L561,85.1094167 L561,91.9583333 L553.5,96.108 L553.5,89.087 L548.5,91.7370833 L548.5,112.293667 L566,102.497208 L566,82.4593333 Z M553.7325,100.523167 L552.86,101.012375 L552.86,105.2235 L553.7325,104.744125 L553.7325,100.523167 Z M557.245,98.5565 L556.385,99.0383333 L556.385,103.259292 L557.245,102.777458 L557.245,98.5565 Z M558.68,97.752625 L557.8225,98.232 L557.8225,102.452958 L558.68,101.973583 L558.68,97.752625 Z M560.14,96.934 L559.265,97.4232083 L559.265,101.644167 L560.14,101.154958 L560.14,96.934 Z" id="Shape" fill="#D0021B" fill-rule="nonzero"></path>
            <path d="M753.1925,235.9255 L752.335,236.404875 L752.335,232.183917 L753.1925,231.704542 L753.1925,235.9255 Z M760.25,227.751542 L759.395,228.230917 L759.395,232.451875 L760.25,231.9725 L760.25,227.751542 Z M769,209.063292 L769,237.351333 L744.625,251 L714,233.84575 L714,205.557708 L738.4175,192 L769,209.063292 Z M734.385,199.886333 L756.94,212.615583 L761.19,210.361292 L738.4075,197.651708 L734.385,199.886333 Z M741.5,223.683 L719,210.855417 L719,230.989167 L741.5,243.590583 L741.5,223.683 Z M749.0525,216.777542 L727.005,203.952417 L721.895,206.821292 L744.045,219.452208 L749.0525,216.777542 Z M764,214.459333 L759,217.109417 L759,223.958333 L751.5,228.108 L751.5,221.087 L746.5,223.737083 L746.5,244.293667 L764,234.497208 L764,214.459333 Z M751.7325,232.523167 L750.86,233.012375 L750.86,237.2235 L751.7325,236.744125 L751.7325,232.523167 Z M755.245,230.5565 L754.385,231.038333 L754.385,235.259292 L755.245,234.777458 L755.245,230.5565 Z M756.68,229.752625 L755.8225,230.232 L755.8225,234.452958 L756.68,233.973583 L756.68,229.752625 Z M758.14,228.934 L757.265,229.423208 L757.265,233.644167 L758.14,233.154958 L758.14,228.934 Z" id="Shape" fill="#D0021B" fill-rule="nonzero"></path>
            <path d="M185.5,204.5 L667,204.5" id="Line" stroke="#009F76" stroke-width="6" fill="#009F76" stroke-linecap="round" stroke-linejoin="round"></path>
            <path id="Line-decoration-1" d="M667,204.5 L656.2,201.5 L656.2,207.5 L667,204.5 Z" stroke="#009F76" stroke-width="6" fill="#009F76" stroke-linecap="round" stroke-linejoin="round"></path>
            <path d="M543.741842,131.815102 C542.311656,159.796887 547.224755,176.829838 558.481139,182.913955 C569.737524,188.998072 605.910477,191.568477 667,190.625168" id="Line" stroke="#D0021B" stroke-width="6" stroke-linecap="round" stroke-linejoin="round"></path>
            <path id="Line-decoration-1" d="M667,190.625168 L656.154969,187.792273 L656.247606,193.791558 L667,190.625168 Z" stroke="#D0021B" stroke-width="6" stroke-linecap="round" stroke-linejoin="round"></path>
            <path d="M750,272 L750,319" id="Line" stroke="#D0021B" stroke-width="6" stroke-linecap="round" stroke-linejoin="round"></path>
            <path id="Line-decoration-1" d="M750,319 L753,308.2 L747,308.2 L750,319 Z" stroke="#D0021B" stroke-width="6" stroke-linecap="round" stroke-linejoin="round"></path>
            <text id="Publisher-push-trust" font-family="Verdana" font-size="14" font-weight="normal" fill="#009F76">
                <tspan x="31" y="260">Publisher push trusted </tspan>
                <tspan x="31" y="277">image to the repository</tspan>
            </text>
            <text id="User-runs-the-infect" font-family="Verdana" font-size="14" font-weight="normal" fill="#009F76">
                <tspan x="694" y="413">User runs the infected image</tspan>
            </text>
            <text id="Attacker-intercepts" font-family="Verdana" font-size="14" font-weight="normal" fill="#D0021B">
                <tspan x="407" y="24">Attacker intercepts the original</tspan>
                <tspan x="407" y="41">and uploads an infected image</tspan>
            </text>
            <path d="M153.1925,215.9255 L152.335,216.404875 L152.335,212.183917 L153.1925,211.704542 L153.1925,215.9255 Z M160.25,207.751542 L159.395,208.230917 L159.395,212.451875 L160.25,211.9725 L160.25,207.751542 Z M169,189.063292 L169,217.351333 L144.625,231 L114,213.84575 L114,185.557708 L138.4175,172 L169,189.063292 Z M134.385,179.886333 L156.94,192.615583 L161.19,190.361292 L138.4075,177.651708 L134.385,179.886333 Z M141.5,203.683 L119,190.855417 L119,210.989167 L141.5,223.590583 L141.5,203.683 Z M149.0525,196.777542 L127.005,183.952417 L121.895,186.821292 L144.045,199.452208 L149.0525,196.777542 Z M164,194.459333 L159,197.109417 L159,203.958333 L151.5,208.108 L151.5,201.087 L146.5,203.737083 L146.5,224.293667 L164,214.497208 L164,194.459333 Z M151.7325,212.523167 L150.86,213.012375 L150.86,217.2235 L151.7325,216.744125 L151.7325,212.523167 Z M155.245,210.5565 L154.385,211.038333 L154.385,215.259292 L155.245,214.777458 L155.245,210.5565 Z M156.68,209.752625 L155.8225,210.232 L155.8225,214.452958 L156.68,213.973583 L156.68,209.752625 Z M158.14,208.934 L157.265,209.423208 L157.265,213.644167 L158.14,213.154958 L158.14,208.934 Z" id="Shape" fill="#009F76" fill-rule="nonzero"></path>
            <path d="M801.1925,194.9255 L800.335,195.404875 L800.335,191.183917 L801.1925,190.704542 L801.1925,194.9255 Z M808.25,186.751542 L807.395,187.230917 L807.395,191.451875 L808.25,190.9725 L808.25,186.751542 Z M817,168.063292 L817,196.351333 L792.625,210 L762,192.84575 L762,164.557708 L786.4175,151 L817,168.063292 Z M782.385,158.886333 L804.94,171.615583 L809.19,169.361292 L786.4075,156.651708 L782.385,158.886333 Z M789.5,182.683 L767,169.855417 L767,189.989167 L789.5,202.590583 L789.5,182.683 Z M797.0525,175.777542 L775.005,162.952417 L769.895,165.821292 L792.045,178.452208 L797.0525,175.777542 Z M812,173.459333 L807,176.109417 L807,182.958333 L799.5,187.108 L799.5,180.087 L794.5,182.737083 L794.5,203.293667 L812,193.497208 L812,173.459333 Z M799.7325,191.523167 L798.86,192.012375 L798.86,196.2235 L799.7325,195.744125 L799.7325,191.523167 Z M803.245,189.5565 L802.385,190.038333 L802.385,194.259292 L803.245,193.777458 L803.245,189.5565 Z M804.68,188.752625 L803.8225,189.232 L803.8225,193.452958 L804.68,192.973583 L804.68,188.752625 Z M806.14,187.934 L805.265,188.423208 L805.265,192.644167 L806.14,192.154958 L806.14,187.934 Z" id="Shape" fill="#009F76" fill-rule="nonzero"></path>
            <path d="M870.987708,378 L866.083333,378 C866.083333,370.369333 866.375875,369.272917 861.754208,368.201083 C854.681583,366.56875 848.002292,365.027375 845.568542,359.700167 C844.681083,357.755625 844.091083,354.549958 846.330625,350.324083 C851.350542,340.842292 852.609208,332.710125 849.779667,328.01225 C846.483042,322.532625 836.472708,322.503125 833.146583,328.095833 C830.309667,332.857625 831.585542,340.945542 836.64725,350.282292 C838.9335,354.490958 838.360708,357.706458 837.478167,359.660833 C835.064083,365.015083 828.443792,366.541708 821.437542,368.156833 C816.609375,369.272917 816.916667,370.295583 816.916667,378 L812.012292,378 L812,374.949208 C812,368.754208 812.489208,365.177333 819.812583,363.486 C828.084875,361.575875 836.253917,359.864875 832.3255,352.625083 C820.690208,331.166292 829.00675,319 841.5,319 C853.749875,319 862.275375,330.716417 850.6745,352.625083 C846.861625,359.823083 854.73075,361.534083 863.187417,363.486 C870.510792,365.177333 871,368.754208 871,374.949208 L870.987708,378 Z M837.854292,363.25 L840.091375,368.166667 L842.952875,368.166667 L845.214542,363.25 L837.854292,363.25 Z M845.217,378 L843.486333,370.625 L839.516125,370.625 L837.785458,378 L845.217,378 Z" id="Shape" fill="#009F76" fill-rule="nonzero"></path>
            <path d="M96.9877083,225 L92.0833333,225 C92.0833333,217.369333 92.375875,216.272917 87.7542083,215.201083 C80.6815833,213.56875 74.0022917,212.027375 71.5685417,206.700167 C70.6810833,204.755625 70.0910833,201.549958 72.330625,197.324083 C77.3505417,187.842292 78.6092083,179.710125 75.7796667,175.01225 C72.4830417,169.532625 62.4727083,169.503125 59.1465833,175.095833 C56.3096667,179.857625 57.5855417,187.945542 62.64725,197.282292 C64.9335,201.490958 64.3607083,204.706458 63.4781667,206.660833 C61.0640833,212.015083 54.4437917,213.541708 47.4375417,215.156833 C42.609375,216.272917 42.9166667,217.295583 42.9166667,225 L38.0122917,225 L38,221.949208 C38,215.754208 38.4892083,212.177333 45.8125833,210.486 C54.084875,208.575875 62.2539167,206.864875 58.3255,199.625083 C46.6902083,178.166292 55.00675,166 67.5,166 C79.749875,166 88.275375,177.716417 76.6745,199.625083 C72.861625,206.823083 80.73075,208.534083 89.1874167,210.486 C96.5107917,212.177333 97,215.754208 97,221.949208 L96.9877083,225 Z M63.8542917,210.25 L66.091375,215.166667 L68.952875,215.166667 L71.2145417,210.25 L63.8542917,210.25 Z M71.217,225 L69.4863333,217.625 L65.516125,217.625 L63.7854583,225 L71.217,225 Z" id="Shape" fill="#009F76" fill-rule="nonzero"></path>
            <path d="M502.987708,119 L498.083333,119 C498.083333,111.369333 498.375875,110.272917 493.754208,109.201083 C486.681583,107.56875 480.002292,106.027375 477.568542,100.700167 C476.681083,98.755625 476.091083,95.5499583 478.330625,91.3240833 C483.350542,81.8422917 484.609208,73.710125 481.779667,69.01225 C478.483042,63.532625 468.472708,63.503125 465.146583,69.0958333 C462.309667,73.857625 463.585542,81.9455417 468.64725,91.2822917 C470.9335,95.4909583 470.360708,98.7064583 469.478167,100.660833 C467.064083,106.015083 460.443792,107.541708 453.437542,109.156833 C448.609375,110.272917 448.916667,111.295583 448.916667,119 L444.012292,119 L444,115.949208 C444,109.754208 444.489208,106.177333 451.812583,104.486 C460.084875,102.575875 468.253917,100.864875 464.3255,93.6250833 C452.690208,72.1662917 461.00675,60 473.5,60 C485.749875,60 494.275375,71.7164167 482.6745,93.6250833 C478.861625,100.823083 486.73075,102.534083 495.187417,104.486 C502.510792,106.177333 503,109.754208 503,115.949208 L502.987708,119 Z" id="Shape" fill="#D0021B" fill-rule="nonzero"></path>
            <path d="M746.1925,170.9255 L745.335,171.404875 L745.335,167.183917 L746.1925,166.704542 L746.1925,170.9255 Z M753.25,162.751542 L752.395,163.230917 L752.395,167.451875 L753.25,166.9725 L753.25,162.751542 Z M762,144.063292 L762,172.351333 L737.625,186 L707,168.84575 L707,140.557708 L731.4175,127 L762,144.063292 Z M727.385,134.886333 L749.94,147.615583 L754.19,145.361292 L731.4075,132.651708 L727.385,134.886333 Z M734.5,158.683 L712,145.855417 L712,165.989167 L734.5,178.590583 L734.5,158.683 Z M742.0525,151.777542 L720.005,138.952417 L714.895,141.821292 L737.045,154.452208 L742.0525,151.777542 Z M757,149.459333 L752,152.109417 L752,158.958333 L744.5,163.108 L744.5,156.087 L739.5,158.737083 L739.5,179.293667 L757,169.497208 L757,149.459333 Z M744.7325,167.523167 L743.86,168.012375 L743.86,172.2235 L744.7325,171.744125 L744.7325,167.523167 Z M748.245,165.5565 L747.385,166.038333 L747.385,170.259292 L748.245,169.777458 L748.245,165.5565 Z M749.68,164.752625 L748.8225,165.232 L748.8225,169.452958 L749.68,168.973583 L749.68,164.752625 Z M751.14,163.934 L750.265,164.423208 L750.265,168.644167 L751.14,168.154958 L751.14,163.934 Z" id="Shape" fill="#009F76" fill-rule="nonzero"></path>
            <rect id="Rectangle-2" stroke="#009F76" stroke-width="5" x="679.5" y="117.5" width="161" height="143" rx="6"></rect>
            <text id="Docker-Registry" font-family="Verdana" font-size="14" font-weight="normal" fill="#009F76">
                <tspan x="731" y="110">Docker Registry</tspan>
            </text>
        </g>
    </g>
</svg>