<svg width="32" height="32" xmlns="http://www.w3.org/2000/svg"><path d="M31 12.4a.8.8 0 01.8.8v12a.8.8 0 01-.8.8h-3.2v5.2c0 .7127-.8617 1.0697-1.3657.5657L20.6686 26H15a.8.8 0 01-.8-.8v-12a.8.8 0 01.8-.8h16zm-.8 1.6H15.8v10.4H21a.8.8 0 01.5657.2343L26.2 29.2686V25.2a.8.8 0 01.8-.8h3.2V14zM25 .4c1.5458 0 2.8 1.2542 2.8 2.8v6a.8.8 0 11-1.6 0v-6c0-.6622-.5378-1.2-1.2-1.2H3c-.6622 0-1.2.5378-1.2 1.2v16c0 .6622.5378 1.2 1.2 1.2h4a.8.8 0 01.8.8v4.4l2.72-2.04a.8.8 0 01.96 1.28l-4 3c-.5274.3955-1.28.0192-1.28-.64V22H3C1.4542 22 .2 20.7458.2 19.2v-16C.2 1.6542 1.4542.4 3 .4zm2 20a.8.8 0 110 1.6h-8a.8.8 0 110-1.6zm0-4a.8.8 0 110 1.6h-8a.8.8 0 110-1.6zm-16-4a.8.8 0 110 1.6H7a.8.8 0 110-1.6zm10-6A.8.8 0 1121 8H7a.8.8 0 110-1.6z" fill="#12B688" fill-rule="nonzero"/></svg>