<?xml version="1.0" encoding="UTF-8"?>
<svg width="1440px" height="800px" viewBox="0 0 1440 800" version="1.1" xmlns="http://www.w3.org/2000/svg" xmlns:xlink="http://www.w3.org/1999/xlink">
    <!-- Generator: Sketch 62 (91390) - https://sketch.com -->
    <title>header-dark</title>
    <desc>Created with Sketch.</desc>
    <defs>
        <linearGradient x1="6.88585069%" y1="35.8521319%" x2="92.5208876%" y2="64.294167%" id="linearGradient-1">
            <stop stop-color="#12B688" offset="0%"></stop>
            <stop stop-color="#15D19C" offset="100%"></stop>
        </linearGradient>
    </defs>
    <g id="header-dark" stroke="none" stroke-width="1" fill="none" fill-rule="evenodd">
        <rect fill="#13C190" x="0" y="0" width="1440" height="800"></rect>
        <rect id="Mask" fill="url(#linearGradient-1)" x="0" y="0" width="1440" height="800"></rect>
        <path d="M2.97294871,-135.208429 C13.7670151,-140.27419 31.2879686,-140.253514 42.0302897,-135.208429 L381.065396,23.8047867 C391.859462,28.8705481 402.788066,42.2276168 405.437425,53.558381 L489.161296,410.870308 C491.831352,422.242426 487.90906,438.88707 480.478437,447.974426 L245.865316,734.500092 C238.382947,743.608124 222.579937,751 210.647475,751 L-165.633887,751 C-177.607746,751 -193.410756,743.577109 -200.83103,734.500092 L-435.464849,447.974426 C-442.936868,438.845717 -446.828114,422.190734 -444.158057,410.870308 L-360.423837,53.558381 C-357.753781,42.1862637 -346.814827,28.8498715 -336.072506,23.8047867 L2.97294871,-135.208429 Z" id="Fill-1" fill="#12B084"></path>
        <path d="M1047.19353,16.2942474 C1056.57128,11.8929399 1071.79328,11.9109044 1081.12608,16.2942474 L1375.67572,154.450393 C1385.05347,158.851701 1394.54811,170.456781 1396.84984,180.301339 L1469.58814,490.74622 C1471.90785,500.626706 1468.50021,515.088145 1462.04457,522.983552 L1258.21551,771.926896 C1251.71492,779.840268 1237.98545,786.262584 1227.61867,786.262584 L900.709931,786.262584 C890.307186,786.262584 876.57772,779.813321 870.131075,771.926896 L666.284025,522.983552 C659.792424,515.052216 656.411757,500.581795 658.73147,490.74622 L731.478757,180.301339 C733.79847,170.420852 743.302101,158.833736 752.634901,154.450393 L1047.19353,16.2942474 Z" id="Fill-1" fill="#14CC98"></path>
        <path d="M1453.19353,-135.705753 C1462.57128,-140.10706 1477.79328,-140.089096 1487.12608,-135.705753 L1781.67572,2.45039332 C1791.05347,6.85170087 1800.54811,18.4567812 1802.84984,28.3013385 L1875.58814,338.74622 C1877.90785,348.626706 1874.50021,363.088145 1868.04457,370.983552 L1664.21551,619.926896 C1657.71492,627.840268 1643.98545,634.262584 1633.61867,634.262584 L1306.70993,634.262584 C1296.30719,634.262584 1282.57772,627.813321 1276.13108,619.926896 L1072.28402,370.983552 C1065.79242,363.052216 1062.41176,348.581795 1064.73147,338.74622 L1137.47876,28.3013385 C1139.79847,18.4208522 1149.3021,6.83373635 1158.6349,2.45039332 L1453.19353,-135.705753 Z" id="Fill-1" fill="#15D59F"></path>
    </g>
</svg>