<?xml version="1.0" encoding="UTF-8"?>
<svg width="1440px" height="800px" viewBox="0 0 1440 800" version="1.1" xmlns="http://www.w3.org/2000/svg" xmlns:xlink="http://www.w3.org/1999/xlink">
    <!-- Generator: Sketch 62 (91390) - https://sketch.com -->
    <title>header-light</title>
    <desc>Created with Sketch.</desc>
    <defs>
        <linearGradient x1="20.0016276%" y1="38.0286699%" x2="100%" y2="65.4320988%" id="linearGradient-1">
            <stop stop-color="#FFFFFF" offset="0%"></stop>
            <stop stop-color="#EEEEEE" offset="100%"></stop>
            <stop stop-color="#EEEEEE" offset="100%"></stop>
        </linearGradient>
    </defs>
    <g id="header-light" stroke="none" stroke-width="1" fill="none" fill-rule="evenodd">
        <rect id="Mask" fill="url(#linearGradient-1)" x="9.09494702e-13" y="0" width="1440" height="800"></rect>
        <path d="M-18.7960921,-100.349015 C-8.4060817,-105.226945 8.45900716,-105.207035 18.7992093,-100.349015 L345.143162,52.7682048 C355.533172,57.6461345 366.052684,70.5079412 368.602869,81.4185759 L449.192691,425.481859 C451.762799,436.432313 447.98733,452.459797 440.834859,461.210205 L215.004047,737.111886 C207.801768,745.882205 192.590314,753 181.104521,753 L-181.091442,753 C-192.617082,753 -207.828535,745.85234 -214.971045,737.111886 L-440.82178,461.210205 C-448.014098,452.419977 -451.759682,436.382538 -449.189574,425.481859 L-368.58979,81.4185759 C-366.019682,70.4681213 -355.490208,57.6262246 -345.150006,52.7682048 L-18.7960921,-100.349015 Z" id="Fill-1" fill="#F0F0F0"></path>
        <path d="M1040.19353,30.2942474 C1049.57128,25.8929399 1064.79328,25.9109044 1074.12608,30.2942474 L1368.67572,168.450393 C1378.05347,172.851701 1387.54811,184.456781 1389.84984,194.301339 L1462.58814,504.74622 C1464.90785,514.626706 1461.50021,529.088145 1455.04457,536.983552 L1251.21551,785.926896 C1244.71492,793.840268 1230.98545,800.262584 1220.61867,800.262584 L893.709931,800.262584 C883.307186,800.262584 869.57772,793.813321 863.131075,785.926896 L659.284025,536.983552 C652.792424,529.052216 649.411757,514.581795 651.73147,504.74622 L724.478757,194.301339 C726.79847,184.420852 736.302101,172.833736 745.634901,168.450393 L1040.19353,30.2942474 Z" id="Fill-1" fill="#F4F4F4"></path>
        <path d="M1453.19353,-100.705753 C1462.57128,-105.10706 1477.79328,-105.089096 1487.12608,-100.705753 L1781.67572,37.4503933 C1791.05347,41.8517009 1800.54811,53.4567812 1802.84984,63.3013385 L1875.58814,373.74622 C1877.90785,383.626706 1874.50021,398.088145 1868.04457,405.983552 L1664.21551,654.926896 C1657.71492,662.840268 1643.98545,669.262584 1633.61867,669.262584 L1306.70993,669.262584 C1296.30719,669.262584 1282.57772,662.813321 1276.13108,654.926896 L1072.28402,405.983552 C1065.79242,398.052216 1062.41176,383.581795 1064.73147,373.74622 L1137.47876,63.3013385 C1139.79847,53.4208522 1149.3021,41.8337364 1158.6349,37.4503933 L1453.19353,-100.705753 Z" id="Fill-1" fill="#FAFAFA"></path>
    </g>
</svg>