<?xml version="1.0" encoding="UTF-8"?>
<svg id="Layer_1" xmlns="http://www.w3.org/2000/svg" width="790.2" height="144.2" version="1.1" viewBox="0 0 790.2 144.2">
  <!-- Generator: Adobe Illustrator 29.3.1, SVG Export Plug-In . SVG Version: 2.1.0 Build 151)  -->
  <defs>
    <style>
      .st0 {
        fill: #333;
      }

      .st1 {
        fill: #0f6bff;
      }
    </style>
  </defs>
  <path class="st0" d="M203.6,29.1c-12.8,0-24.2,5.8-31.9,14.8-.7-.9-1.5-1.7-2.3-2.5-2.4-2.4-5.1-4.5-7.9-6.2-6.6-4-14.2-6-21.7-6.1,0,0,0,0,0,0-10.7,0-21.5,4.1-29.6,12.3-8.2,8.2-12.3,18.9-12.3,29.6,0,7.5,2,15.1,6,21.7,1.7,2.8,3.8,5.5,6.2,7.9,2.4,2.4,5.1,4.5,7.9,6.2,16.1,9.8,37.5,7.7,51.4-6.2.8-.8,1.6-1.7,2.3-2.5,7.7,9,19.1,14.8,31.9,14.8,23.1,0,41.9-18.8,41.9-41.9s-18.8-41.9-41.9-41.9ZM117.8,71c0-5.6,2.1-11.2,6.4-15.5,4.3-4.3,9.9-6.4,15.5-6.4,0,0,0,0,0,0,2.3,0,4.6.4,6.8,1.1l-17.3,17.3-10.3,10.3c-.7-2.2-1.1-4.5-1.1-6.8ZM155.3,86.5c-6,6-14.7,7.8-22.3,5.4l10.7-10.7,16.9-16.9,2-2c-.6,2.8-.9,5.8-.9,8.8,0,5.6-2.1,11.2-6.4,15.5ZM203.6,93c-12.1,0-22-9.8-22-22s9.8-22,22-22,22,9.8,22,22-9.8,22-22,22Z"/>
  <polygon class="st0" points="65.2 63.9 24 0 0 0 0 112.2 24 112.2 24 42 68.9 112.2 89.3 112.2 89.3 0 65.2 0 65.2 63.9"/>
  <polygon class="st1" points="324.6 63.9 283.4 0 259.4 0 259.4 112.2 283.4 112.2 283.4 42 328.3 112.2 348.6 112.2 348.6 0 324.6 0 324.6 63.9"/>
  <path class="st1" d="M419.9,35.5c-6-3.7-12.9-5.5-20.6-5.5s-15.3,1.8-21.6,5.4c-6.3,3.6-11.2,8.6-14.7,14.9-3.5,6.3-5.3,13.4-5.3,21.1s1.8,14.8,5.4,21.1c3.6,6.3,8.6,11.3,15.1,14.9,6.5,3.6,14,5.4,22.6,5.4s14.3-1.4,20.1-4.3c5.8-2.8,10.6-6.9,14.3-12.3l-17-10.1c-1.8,2.3-4.2,4.2-7.3,5.5-3.1,1.4-6.3,2.1-9.5,2.1-5.4,0-9.7-1.2-13.1-3.5-3.4-2.4-6-6-8-10.8h58.4c.4-2.4.6-5.1.6-8,0-7.7-1.7-14.7-5-21-3.4-6.3-8.1-11.3-14.1-15ZM379.7,62c.2-3.5,2.2-6.4,6-8.9,3.8-2.5,8.3-3.7,13.4-3.7s9.1,1.1,12.5,3.3c3.4,2.2,5.5,5.3,6.2,9.3h-38.2Z"/>
  <path class="st1" d="M518.4,35.4c-6-3.6-13.2-5.4-21.6-5.4s-8.6.7-12.7,2.2c-4.1,1.4-7.9,3.5-11.5,6.2v-6.2h-22.9v112.2h22.9v-38c3.5,2.7,7.4,4.7,11.5,6.2,4.2,1.4,8.4,2.2,12.7,2.2,8.3,0,15.5-1.8,21.6-5.5,6-3.7,10.7-8.7,13.9-15.1,3.2-6.4,4.8-13.7,4.8-21.8s-1.6-15.4-4.8-21.7c-3.2-6.4-7.8-11.4-13.9-15ZM508.4,86.8c-3.8,3.7-8.7,5.5-14.7,5.5s-11.1-1.8-15.1-5.5c-4-3.7-6-8.5-6-14.5s2-10.9,6.1-14.7c4.1-3.8,9.1-5.8,15.1-5.8s10.9,1.9,14.7,5.6c3.8,3.7,5.7,8.7,5.7,14.7s-1.9,11-5.7,14.7Z"/>
  <path class="st1" d="M602,33.4c-4.8-2-9.4-3-14-3-6.8,0-13.2,2.5-19.1,7.4V0h-22.9v112.2h22.9v-49c.6-4.4,2.2-7.6,4.6-9.7,2.5-2.1,5.3-3.1,8.7-3.1s7.4,1.1,10.3,3.4c2.9,2.3,4.3,6,4.3,11.1v47.3h22.9v-47.9c-.1-8.5-1.9-15.3-5.4-20.4-3.5-5-7.6-8.5-12.3-10.5Z"/>
  <path class="st1" d="M690.8,35.5c-6.3-3.7-13.2-5.6-20.6-5.6s-14.5,1.9-20.8,5.6c-6.3,3.7-11.4,8.7-15.1,15.1-3.7,6.3-5.6,13.3-5.6,20.8s1.9,14.3,5.6,20.7c3.7,6.4,8.7,11.4,15.1,15.1,6.3,3.7,13.3,5.6,20.8,5.6s14.3-1.9,20.6-5.6c6.3-3.7,11.3-8.8,15.1-15.1,3.7-6.4,5.6-13.3,5.6-20.7s-1.9-14.5-5.6-20.8c-3.7-6.3-8.7-11.3-15.1-15.1ZM683.5,84.8c-3.8,3.7-8.3,5.6-13.5,5.6s-9.7-1.9-13.4-5.6c-3.7-3.7-5.6-8.2-5.6-13.4s1.9-9.7,5.6-13.5c3.7-3.8,8.2-5.6,13.4-5.6s9.7,1.9,13.5,5.6c3.8,3.8,5.6,8.3,5.6,13.5s-1.9,9.7-5.6,13.4Z"/>
  <path class="st1" d="M785.5,72.7c-3.1-3.5-6.7-6-10.7-7.5-4.1-1.5-9.2-2.9-15.4-4.2-4.8-.9-8.3-1.9-10.5-2.7-2.2-.9-3.3-2.2-3.3-4s.9-3.6,2.7-4.8c1.8-1.2,4.2-1.8,7.2-1.8s6.2.6,8.4,1.9c2.1,1.3,3.8,3.2,5.1,5.8l18.2-8.9c-3.1-5.3-7.5-9.4-13-12.2-5.5-2.8-11.8-4.2-18.7-4.2s-11.3,1-16.2,3c-5,2-8.9,4.9-11.8,8.7-2.9,3.8-4.4,8.3-4.4,13.4s1.5,9.6,4.4,12.8c2.9,3.2,6.4,5.5,10.5,7.1,4.1,1.5,9.2,3,15.2,4.3,5.3,1.2,9.2,2.3,11.7,3.3,2.5,1,3.7,2.6,3.7,4.7s-1.3,4.3-4,5.6c-2.7,1.3-5.8,2-9.3,2-8.7,0-14.3-3.3-16.8-10l-18.4,9.4c3,6.1,7.5,10.6,13.5,13.7,6,3.1,13.2,4.6,21.7,4.6s11.9-1,17.3-2.9c5.3-1.9,9.6-4.8,12.9-8.6,3.2-3.8,4.9-8.4,4.9-13.7s-1.5-11-4.6-14.5Z"/>
  <metadata>
    <sfw xmlns="http://ns.adobe.com/SaveForWeb/1.0/">
      <slices/>
      <sliceSourceBounds x="26.49" y="-728.67" width="1575.67" height="728.67" bottomLeftOrigin="true"/>
    </sfw>
  </metadata>
</svg>