<svg width="79" height="79" xmlns="http://www.w3.org/2000/svg">
    <path d="M43.24 1c2.1208 0 3.84 1.7192 3.84 3.84h0v4.48c3.9355-4.2303 10.0606-5.6177 15.4349-3.4963C67.889 7.945 71.415 13.1422 71.4 18.92a13.9187 13.9187 0 01-1.5462 6.4h.2662c4.2415 0 7.68 3.4385 7.68 7.68s-3.4385 7.68-7.68 7.68h0-23.04v33.28c0 2.1208-1.7192 3.84-3.84 3.84h0-38.4C2.7192 77.8 1 76.0808 1 73.96h0V4.84C1 2.7192 2.7192 1 4.84 1h0zM8.68 3.56H4.84c-.707 0-1.28.573-1.28 1.28h0v69.12c0 .707.573 1.28 1.28 1.28h38.4c.707 0 1.28-.573 1.28-1.28h0V40.68H26.6c-4.0925.0005-7.4665-3.2082-7.6713-7.2955-.205-4.0874 2.8313-7.6174 6.9033-8.0261A4.503 4.503 0 0125.32 23.4c-.0044-4.3471 2.5817-8.2788 6.5752-9.9963 3.9934-1.7176 8.6261-.8906 11.7787 2.1025a13.952 13.952 0 01.8461-2.3808h0V4.84c0-.707-.573-1.28-1.28-1.28h0-3.84v1.28c0 2.1208-1.7192 3.84-3.84 3.84h0-23.04c-2.1208 0-3.84-1.7192-3.84-3.84h0V3.56zm33.28 66.56v2.56H39.4v-2.56h2.56zm-19.2-23.04a1.28 1.28 0 011.2416.969h0l.2138.8563.7564-.4544a1.28 1.28 0 011.5642.1933h0l3.6198 3.6198a1.28 1.28 0 01.1933 1.5642h0l-.4544.7564.8563.2138a1.28 1.28 0 01.969 1.2416h0v5.12a1.28 1.28 0 01-.969 1.2416h0l-.8563.2138.4544.7564a1.28 1.28 0 01-.1933 1.5642h0l-3.6198 3.6198a1.28 1.28 0 01-1.5642.1933h0l-.7564-.4544-.2138.8563a1.28 1.28 0 01-1.2416.969h0-5.12a1.28 1.28 0 01-1.2416-.969h0l-.2138-.8563-.7564.4544a1.28 1.28 0 01-1.5642-.1933h0l-3.6198-3.6198a1.28 1.28 0 01-.1933-1.5642h0l.4544-.7564-.8563-.2138A1.28 1.28 0 018.68 61.16h0v-5.12a1.28 1.28 0 01.969-1.2416h0l.8563-.2138-.4544-.7564a1.28 1.28 0 01.1933-1.5642h0l3.6198-3.6198a1.28 1.28 0 011.5642-.1933h0l.7564.4544.2138-.8563a1.28 1.28 0 011.2416-.969h0zM41.96 65v2.56H39.4V65h2.56zM21.754 49.6464h-3.1207l-.384 1.5616a1.28 1.28 0 01-1.9008.7872h0l-1.3811-.8282-2.2068 2.2068.8282 1.381a1.28 1.28 0 01-.786 1.9009h0l-1.5628.384v3.1206l1.5693.3904a1.28 1.28 0 01.7859 1.9008h0l-.8282 1.3811 2.2068 2.2068 1.381-.8282a1.28 1.28 0 011.9009.786h0l.384 1.5628h3.1206l.3904-1.5757a1.28 1.28 0 011.9008-.7859h0l1.3811.8282 2.2068-2.2068-.8282-1.381a1.28 1.28 0 01.786-1.9009h0l1.5628-.384v-3.1206l-1.5629-.384a1.28 1.28 0 01-.8717-.7527h0a1.2885 1.2885 0 01.073-1.1417h0l.8282-1.3811-2.2068-2.2068-1.381.8282a1.28 1.28 0 01-1.9009-.7872h0l-.384-1.5616zM65 43.24v16.64h2.7418c.5818-2.2537 2.6106-3.8313 4.9382-3.84 2.6556-.004 4.8717 2.0264 5.0998 4.6722.228 2.6457-1.6081 5.0253-4.2252 5.4758-2.617.4505-5.1431-1.1783-5.8128-3.748h0H63.72c-.707 0-1.28-.573-1.28-1.28h0V43.24H65zm7.68 15.36c-1.4138 0-2.56 1.1462-2.56 2.56s1.1462 2.56 2.56 2.56 2.56-1.1462 2.56-2.56-1.1462-2.56-2.56-2.56zM20.2 53.48c2.8277 0 5.12 2.2923 5.12 5.12s-2.2923 5.12-5.12 5.12-5.12-2.2923-5.12-5.12 2.2923-5.12 5.12-5.12zm0 2.56c-1.4138 0-2.56 1.1462-2.56 2.56s1.1462 2.56 2.56 2.56 2.56-1.1462 2.56-2.56-1.1462-2.56-2.56-2.56zm19.2-12.8V58.6c0 .707-.573 1.28-1.28 1.28h0-3.84v-2.56h2.56V43.24h2.56zM57.32 7.4c-6.25.0359-11.343 5.0263-11.506 11.2742a1.28 1.28 0 01-2.391.608c-1.871-3.273-5.7092-4.8789-9.3537-3.9133-3.6444.9655-6.1841 4.261-6.1893 8.0311a3.8822 3.8822 0 00.5926 1.4925c.238.4097.443.8377.6132 1.28A1.28 1.28 0 0127.88 27.88h0-1.28c-2.8277 0-5.12 2.2923-5.12 5.12s2.2923 5.12 5.12 5.12h43.52c2.8277 0 5.12-2.2923 5.12-5.12s-2.2923-5.12-5.12-5.12h0-2.5766a1.28 1.28 0 01-1.024-2.048A11.4035 11.4035 0 0068.84 18.92c-.0078-6.3591-5.1609-11.5122-11.52-11.52zM54.76 33v2.56H52.2V33h2.56zm-5.12 0v2.56h-2.56V33h2.56zm-5.12 0v2.56h-2.56V33h2.56zM8.68 21.48v2.56H6.12v-2.56h2.56zm27.52-3.84v2.56c-1.6228 0-2.9887 1.2146-3.1782 2.8262h0l-2.5434-.2956c.3397-2.9027 2.7992-5.091 5.7216-5.0906h0zm21.12-7.68c4.9461.0056 8.9544 4.0139 8.96 8.96h0-2.56c-.0042-3.5329-2.8671-6.3958-6.4-6.4h0zm-48.64 6.4v2.56H6.12v-2.56h2.56zm0-5.12v2.56H6.12v-2.56h2.56zm28.16-7.68h-25.6v1.28c0 .707.573 1.28 1.28 1.28h23.04c.707 0 1.28-.573 1.28-1.28h0V3.56z"
          fill="#12B688" fill-rule="nonzero" stroke-width=".8"/>
</svg>