<svg width="79" height="79" xmlns="http://www.w3.org/2000/svg">
    <path d="M67.72 1c.5875 0 1.0994.4002 1.2416.9702h0l.4134 1.6538 1.463-.878a1.28 1.28 0 011.563.1932h0l3.6198 3.6198a1.28 1.28 0 01.1933 1.563h0l-.8781 1.463 1.6538.4134c.57.1422.9702.6541.9702 1.2416h0v5.12c0 .588-.3998 1.1006-.9702 1.2429h0l-1.6538.4134.878 1.4618a1.28 1.28 0 01-.1932 1.5629h0l-3.6198 3.621a1.28 1.28 0 01-1.563.1934h0l-1.463-.8781-.4134 1.6537.018.3204c.0113.214.0204.4293.0204.6486a17.664 17.664 0 01-2.4128 8.96H67.72c5.6554 0 10.24 4.5846 10.24 10.24s-4.5846 10.24-10.24 10.24h0-9.5424a26.9248 26.9248 0 01-10.674 16.384h0l-7.2 5.1418a1.28 1.28 0 01-1.4873 0h0l-7.2-5.1418A26.9248 26.9248 0 0120.9424 56.04h0H11.4c-5.5102-.0022-10.0307-4.3645-10.2292-9.8711-.1985-5.5067 3.9962-10.183 9.492-10.582-1.7364-6.1053.827-12.6175 6.259-15.9011 5.4319-3.2837 12.3894-2.5269 16.9883 1.848C36.1748 13.9332 43.1492 8.712 51.08 8.68a17.7766 17.7766 0 013.5827.37h0l-.5568-.928a1.28 1.28 0 01.1933-1.563h0l3.6198-3.6198a1.28 1.28 0 011.563-.1933h0l1.463.8781.4134-1.6538A1.2798 1.2798 0 0162.6 1h0zM20.36 58.6v2.56h-3.84v11.52c0 .707-.573 1.28-1.28 1.28h0-4.0218c-.6445 2.4964-3.0448 4.124-5.6025 3.7992-2.5577-.3249-4.4749-2.501-4.4749-5.0792 0-2.5783 1.9172-4.7543 4.4749-5.0792 2.5577-.3249 4.958 1.3028 5.6025 3.7992H13.96V59.88c0-.707.573-1.28 1.28-1.28h5.12zm43.52 0c.707 0 1.28.573 1.28 1.28h0V71.4h2.7418c.5818-2.2537 2.6106-3.8313 4.9382-3.84 2.6556-.004 4.8717 2.0264 5.0998 4.6722.228 2.6457-1.6081 5.0253-4.2252 5.4758-2.617.4505-5.1431-1.1783-5.8128-3.748h0H63.88c-.707 0-1.28-.573-1.28-1.28h0V61.16h-3.84V58.6zm8.96 11.52c-1.4138 0-2.56 1.1462-2.56 2.56s1.1462 2.56 2.56 2.56 2.56-1.1462 2.56-2.56-1.1462-2.56-2.56-2.56zm-66.56 0c-1.4138 0-2.56 1.1462-2.56 2.56s1.1462 2.56 2.56 2.56 2.56-1.1462 2.56-2.56-1.1462-2.56-2.56-2.56zm33.28-38.2874l-16.64 7.131v11.5826c.0075 7.853 3.7986 15.2212 10.1837 19.7927h0l6.4563 4.608 6.4563-4.6106c6.3844-4.571 10.1754-11.938 10.1837-19.79h0V38.9634l-16.64-7.1309zM40.84 68.84v2.56h-2.56v-2.56h2.56zm-1.28-26.88c3.6992 0 7.68 1.2006 7.68 3.84h0v15.36c0 2.6394-3.9808 3.84-7.68 3.84s-7.68-1.2006-7.68-3.84h0V45.8c0-2.6394 3.9808-3.84 7.68-3.84zm5.1302 17.024a13.8778 13.8778 0 01-5.1302.896l-.4366.0002a13.906 13.906 0 01-4.6834-.8885h0V61.16c.1613.3149 1.9405 1.28 5.12 1.28s4.9587-.9651 5.1302-1.353h0zm-.0038-5.12a13.8829 13.8829 0 01-5.1264.896 13.906 13.906 0 01-5.12-.8883h0l-.0013 2.1683c.1613.3149 1.9507 1.28 5.12 1.28s4.9447-.96 5.1277-1.344h0zM51.08 11.24c-7.6487.027-14.1199 5.6605-15.2 13.2326a1.28 1.28 0 01-2.304.5658c-2.9088-4.0746-8.1161-5.8041-12.8846-4.2794-4.7684 1.5248-8.0063 5.9547-8.0114 10.961a11.378 11.378 0 00.9677 4.608 1.28 1.28 0 01-1.1725 1.792h0H11.4c-4.2415 0-7.68 3.4385-7.68 7.68s3.4385 7.68 7.68 7.68h9.129a26.5997 26.5997 0 01-.169-2.9338h0V38.12a1.28 1.28 0 01.7757-1.1763h0l17.92-7.68a1.289 1.289 0 011.0086 0h0l17.92 7.68A1.28 1.28 0 0158.76 38.12h0v12.4262a26.5997 26.5997 0 01-.169 2.9338h9.129c4.2415 0 7.68-3.4385 7.68-7.68s-3.4385-7.68-7.68-7.68h0-3.5456a1.28 1.28 0 01-1.0074-2.0685A15.2051 15.2051 0 0066.44 26.6h0-3.84a1.28 1.28 0 01-1.2416-.9702h0l-.4134-1.6538-1.463.878a1.28 1.28 0 01-1.563-.1932h0l-3.6198-3.6211a1.28 1.28 0 01-.1933-1.5629h0l.8781-1.4618-1.6538-.4134A1.28 1.28 0 0152.36 16.36h0v-5.0637c-.4237-.0345-.85-.0563-1.28-.0563zm-6.4 37.504a13.8982 13.8982 0 01-5.12.896 13.906 13.906 0 01-5.12-.8883h0v2.1619c.1613.3149 1.9405 1.28 5.12 1.28 3.1552 0 4.9267-.9562 5.12-1.3402h0zm-5.12-4.224c-3.0054 0-4.759.8614-5.088 1.28.329.4186 2.0826 1.28 5.088 1.28 3.0054 0 4.759-.8614 5.088-1.28-.329-.4186-2.0826-1.28-5.088-1.28zM11.4 40.68v2.56c-1.4138 0-2.56 1.1462-2.56 2.56h0-2.56c0-2.8277 2.2923-5.12 5.12-5.12h0zm42.24 1.28v2.56h-2.56v-2.56h2.56zm-25.6 0v2.56h-2.56v-2.56h2.56zm12.8-6.4v2.56h-2.56v-2.56h2.56zM24.2 22.76v2.56c-3.5329.0042-6.3958 2.8671-6.4 6.4a6.3206 6.3206 0 00.535 2.5523h0l-2.345 1.024a8.8513 8.8513 0 01-.75-3.5763c.0063-4.9458 4.0142-8.9537 8.96-8.96h0zm42.5203-19.2h-3.1206l-.5914 2.3603a1.28 1.28 0 01-1.8995.7872h0l-2.0864-1.2531-2.208 2.208 1.2531 2.0864a1.28 1.28 0 01-.7872 1.8995h0l-2.3603.5914v3.1206l2.3603.5914a1.28 1.28 0 01.7872 1.8995h0l-1.2531 2.0851 2.208 2.2093 2.0864-1.2531a1.28 1.28 0 011.8995.7872h0l.5914 2.3603h3.1206l.5978-2.3603a1.28 1.28 0 011.8995-.7872h0l2.0864 1.2531 2.2016-2.2093-1.2531-2.0851a1.28 1.28 0 01.7872-1.8995h0l2.3603-.5914v-3.1206l-2.3603-.5914a1.28 1.28 0 01-.7872-1.8995h0l1.2531-2.0864-2.2016-2.208-2.0928 1.2531a1.28 1.28 0 01-1.8995-.7872h0L66.7203 3.56zM65.16 8.68a5.12 5.12 0 015.12 5.12c0 2.8277-2.2923 5.12-5.12 5.12s-5.12-2.2923-5.12-5.12 2.2923-5.12 5.12-5.12zm0 2.56c-1.4138 0-2.56 1.1462-2.56 2.56s1.1462 2.56 2.56 2.56 2.56-1.1462 2.56-2.56-1.1462-2.56-2.56-2.56z"
          fill="#12B688" fill-rule="nonzero" stroke-width=".8"/>
</svg>