<svg width="79" height="79" xmlns="http://www.w3.org/2000/svg">
    <path d="M17.8 38.12c.707 0 1.28.573 1.28 1.28h0v7.3434a8.2522 8.2522 0 013.84-.9434c4.9461.0056 8.9544 4.0139 8.96 8.96a8.6426 8.6426 0 01-.096 1.28h.096c2.8277 0 5.12 2.2923 5.12 5.12s-2.2923 5.12-5.12 5.12h0-6.4v7.68c0 2.638-3.9808 3.84-7.68 3.84s-7.68-1.202-7.68-3.84h0v-7.68H6.28c-2.5802.0026-4.7592-1.9153-5.0843-4.475C.8707 59.2455 2.5011 56.8439 5 56.2014h0V56.04c.0042-4.2398 3.4402-7.6758 7.68-7.68a8.064 8.064 0 013.4624.8538c.1216-.1524.2496-.2906.3776-.434h0V40.68H6.28v-2.56zm8.96-2.56v2.56h8.96c.707 0 1.28.573 1.28 1.28h0v12.8h8.96c.707 0 1.28.573 1.28 1.28h0v14.3155a3.84 3.84 0 012.3245 2.3245H57.48V58.6h2.56v12.8c0 .707-.573 1.28-1.28 1.28h0-9.1955a3.817 3.817 0 01-7.209 0h0H28.04v-2.56h14.3155a3.84 3.84 0 012.3245-2.3245h0V54.76h-8.96c-.707 0-1.28-.573-1.28-1.28h0v-12.8h-8.96c-.707 0-1.28-.573-1.28-1.28h0v-3.84h2.56zm-3.8298 36.224a13.8778 13.8778 0 01-5.1302.896 13.8803 13.8803 0 01-5.12-.896h0v2.176c.1613.3149 1.9405 1.28 5.12 1.28s4.9587-.9651 5.1302-1.3517h0zM45.96 70.12c-.707 0-1.28.573-1.28 1.28 0 .707.573 1.28 1.28 1.28.707 0 1.28-.573 1.28-1.28 0-.707-.573-1.28-1.28-1.28zm-23.04-3.4496a13.8829 13.8829 0 01-5.12.896l-.4367-.0003a13.8803 13.8803 0 01-4.6833-.8957h0l-.0077 2.1696c.1613.3149 1.9507 1.28 5.12 1.28s4.9447-.96 5.1277-1.344h0zm0-5.1264a13.8982 13.8982 0 01-5.12.896 13.8803 13.8803 0 01-5.12-.896h0v2.1696c.1613.3149 1.9405 1.28 5.12 1.28 3.1552 0 4.9267-.9562 5.12-1.3402h0zm0-13.184a6.1978 6.1978 0 00-5.3043 3.223 1.28 1.28 0 01-1.8317.384 5.7229 5.7229 0 00-3.104-1.047c-2.8277 0-5.12 2.2923-5.12 5.12h0v1.28c0 .707-.573 1.28-1.28 1.28-1.4138 0-2.56 1.1462-2.56 2.56s1.1462 2.56 2.56 2.56h3.84V58.6c0-2.638 3.9808-3.84 7.68-3.84s7.68 1.202 7.68 3.84h0v5.12h6.4c1.4138 0 2.56-1.1462 2.56-2.56s-1.1462-2.56-2.56-2.56h0-1.728a1.28 1.28 0 01-1.2083-1.7024A6.478 6.478 0 0029.32 54.76c-.0042-3.5329-2.8671-6.3958-6.4-6.4zm-5.12 8.96c-3.0054 0-4.759.8614-5.088 1.28.329.4186 2.0826 1.28 5.088 1.28 3.0054 0 4.759-.8614 5.088-1.28-.329-.4186-2.0826-1.28-5.088-1.28zm55.04-38.4v2.56h-12.8v3.5034a8.2522 8.2522 0 013.84-.9434c4.9461.0056 8.9544 4.0139 8.96 8.96a8.6426 8.6426 0 01-.096 1.28h.096c2.8277 0 5.12 2.2923 5.12 5.12s-2.2923 5.12-5.12 5.12h0-6.4v7.68c0 2.638-3.9808 3.84-7.68 3.84s-7.68-1.202-7.68-3.84h0v-7.68h-3.84c-2.5802.0026-4.7592-1.9153-5.0843-4.475-.325-2.5596 1.3054-4.9612 3.8043-5.6037h0V34.28c.0042-4.2398 3.4402-7.6758 7.68-7.68a8.064 8.064 0 013.456.8538c.128-.1524.256-.2906.384-.434h0V20.2c0-.707.573-1.28 1.28-1.28h14.08zm-8.9498 31.104a15.177 15.177 0 01-10.2502 0h0V52.2c.1613.3149 1.9405 1.28 5.12 1.28s4.9587-.9651 5.1302-1.3517h0zm-.0038-5.1136a15.1872 15.1872 0 01-10.2464 0h0l-.0013 2.1696c.1613.3149 1.9507 1.28 5.12 1.28s4.9447-.96 5.1277-1.344h0zM53.64 39.7776v2.176c.1613.3149 1.9405 1.28 5.12 1.28 3.1552 0 4.9267-.9562 5.12-1.3402h0V39.784a13.8982 13.8982 0 01-5.12.896 13.8803 13.8803 0 01-5.12-.9024h0zM63.88 26.6a6.1978 6.1978 0 00-5.3043 3.223 1.28 1.28 0 01-1.8317.384 5.7229 5.7229 0 00-3.104-1.047c-2.8277 0-5.12 2.2923-5.12 5.12h0v1.28c0 .707-.573 1.28-1.28 1.28-1.4138 0-2.56 1.1462-2.56 2.56s1.1462 2.56 2.56 2.56h3.84v-5.12c0-2.638 3.9808-3.84 7.68-3.84s7.68 1.202 7.68 3.84h0v5.12h6.4c1.4138 0 2.56-1.1462 2.56-2.56s-1.1462-2.56-2.56-2.56h0-1.728a1.28 1.28 0 01-1.2083-1.7024A6.478 6.478 0 0070.28 33c-.0042-3.5329-2.8671-6.3958-6.4-6.4zM3.72 38.12v2.56H1.16v-2.56h2.56zm55.04-2.56c-3.0054 0-4.759.8614-5.088 1.28.329.4186 2.0826 1.28 5.088 1.28 3.0054 0 4.759-.8614 5.088-1.28-.329-.4186-2.0826-1.28-5.088-1.28zM30.6 1c4.9461.0056 8.9544 4.0139 8.96 8.96a8.6426 8.6426 0 01-.096 1.28h.096c2.8277 0 5.12 2.2923 5.12 5.12s-2.2923 5.12-5.12 5.12h0-6.4v7.68c0 2.638-3.9808 3.84-7.68 3.84s-7.68-1.202-7.68-3.84h0v-7.68h-3.84c-2.8277 0-5.12-2.2923-5.12-5.12.003-2.334 1.581-4.3717 3.84-4.9587h0V11.24c.0042-4.2398 3.4402-7.6758 7.68-7.68a8.064 8.064 0 013.456.8538A8.521 8.521 0 0130.6 1zm.0102 25.984a13.8778 13.8778 0 01-5.1302.896 13.8803 13.8803 0 01-5.12-.896h0v2.176c.1613.3149 1.9405 1.28 5.12 1.28s4.9587-.9651 5.1302-1.3517h0zM30.6 21.8704a13.8829 13.8829 0 01-5.12.896l-.4367-.0003a13.8803 13.8803 0 01-4.6833-.8957h0l-.0077 2.1696c.1613.3149 1.9507 1.28 5.12 1.28s4.9447-.96 5.1277-1.344h0zM77.96 18.92v2.56H75.4v-2.56h2.56zm-57.6-2.1824v2.176c.1613.3149 1.9405 1.28 5.12 1.28 3.1552 0 4.9267-.9562 5.12-1.3402h0V16.744a13.8982 13.8982 0 01-5.12.896l-.4368-.0008a13.8803 13.8803 0 01-4.6832-.9016h0zM30.6 3.56a6.1978 6.1978 0 00-5.3043 3.223 1.28 1.28 0 01-1.8317.384A5.7229 5.7229 0 0020.36 6.12c-2.8277 0-5.12 2.2923-5.12 5.12h0v1.28c0 .707-.573 1.28-1.28 1.28-1.4138 0-2.56 1.1462-2.56 2.56s1.1462 2.56 2.56 2.56h3.84V13.8c0-2.638 3.9808-3.84 7.68-3.84s7.68 1.202 7.68 3.84h0v5.12h6.4c1.4138 0 2.56-1.1462 2.56-2.56s-1.1462-2.56-2.56-2.56h0-1.728a1.28 1.28 0 01-1.2083-1.7024A6.478 6.478 0 0037 9.96c-.0042-3.5329-2.8671-6.3958-6.4-6.4zm-5.12 8.96c-3.0054 0-4.759.8614-5.088 1.28.329.4186 2.0826 1.28 5.088 1.28 3.0054 0 4.759-.8614 5.088-1.28-.329-.4186-2.0826-1.28-5.088-1.28zm47.36-6.4v2.56H42.12V6.12h30.72zm5.12 0v2.56H75.4V6.12h2.56zm-66.56 0v2.56H6.28V6.12h5.12zm-7.68 0v2.56H1.16V6.12h2.56z"
          fill="#12B688" fill-rule="nonzero" stroke-width=".8"/>
</svg>