<svg width="79" height="79" xmlns="http://www.w3.org/2000/svg">
    <path d="M16.52 50.92v21.76c0 .707-.573 1.28-1.28 1.28h0-4.0218c-.6445 2.4964-3.0448 4.124-5.6025 3.7992-2.5577-.3249-4.4749-2.501-4.4749-5.0792 0-2.5783 1.9172-4.7543 4.4749-5.0792 2.5577-.3249 4.958 1.3028 5.6025 3.7992H13.96V50.92h2.56zm17.39-37.0662C36.426 5.3114 44.8359-.085 53.6496 1.1876 62.4632 2.4601 69.0032 10.0149 69 18.92a17.6704 17.6704 0 01-2.4128 8.96H67.72c5.6554 0 10.24 4.5846 10.24 10.24s-4.5846 10.24-10.24 10.24h0H56.2v25.6c0 2.1208-1.7192 3.84-3.84 3.84h0-25.6c-2.1208 0-3.84-1.7192-3.84-3.84h0v-25.6H11.4c-5.5102-.0022-10.0307-4.3645-10.2292-9.8711-.1985-5.5067 3.9962-10.183 9.492-10.582-1.7364-6.1053.827-12.6175 6.259-15.9011 5.4319-3.2837 12.3894-2.5269 16.9883 1.848zM65.16 50.92V71.4h2.7418c.5818-2.2537 2.6106-3.8313 4.9382-3.84 2.6556-.004 4.8717 2.0264 5.0998 4.6722.228 2.6457-1.6081 5.0253-4.2252 5.4758-2.617.4505-5.1431-1.1783-5.8128-3.748h0H63.88c-.707 0-1.28-.573-1.28-1.28h0V50.92h2.56zM28.04 24.04h-1.28c-.707 0-1.28.573-1.28 1.28h0v48.64c0 .707.573 1.28 1.28 1.28h25.6c.707 0 1.28-.573 1.28-1.28h0V25.32c0-.707-.573-1.28-1.28-1.28h0-1.28v1.28c0 2.1208-1.7192 3.84-3.84 3.84h0-15.36c-2.1208 0-3.84-1.7192-3.84-3.84h0v-1.28zm44.8 46.08c-1.4138 0-2.56 1.1462-2.56 2.56s1.1462 2.56 2.56 2.56 2.56-1.1462 2.56-2.56-1.1462-2.56-2.56-2.56zm-66.56 0c-1.4138 0-2.56 1.1462-2.56 2.56s1.1462 2.56 2.56 2.56 2.56-1.1462 2.56-2.56-1.1462-2.56-2.56-2.56zm34.56-2.56v2.56h-2.56v-2.56h2.56zm5.12 0v2.56H43.4v-2.56h2.56zm-10.24 0v2.56h-2.56v-2.56h2.56zm11.79-17.426l2.02 1.572-1.938 2.492a11.479 11.479 0 013.488 8.242h0-2.56a8.9178 8.9178 0 00-2.5126-6.2054h0l-5.4375 6.9913-2.0198-1.5718 5.4387-6.9927A8.946 8.946 0 0030.6 62.44h0-2.56c-.0088-4.1707 2.242-8.019 5.8814-10.0558 3.6395-2.037 8.0967-1.9428 11.647.2459h0l1.9417-2.496zM52.1564 3.544c-8.0686-.5617-15.1888 5.234-16.2763 13.2487a1.28 1.28 0 01-2.304.5658c-2.9088-4.0746-8.1161-5.8041-12.8846-4.2794-4.7684 1.5248-8.0063 5.9547-8.0114 10.961a11.3728 11.3728 0 00.9677 4.608 1.28 1.28 0 01-1.1725 1.792h0H11.4c-4.2415 0-7.68 3.4385-7.68 7.68s3.4385 7.68 7.68 7.68h11.52V25.32c0-2.1208 1.7192-3.84 3.84-3.84h25.6c2.1208 0 3.84 1.7192 3.84 3.84h0V45.8h11.52c4.2415 0 7.68-3.4385 7.68-7.68s-3.4385-7.68-7.68-7.68h0-3.5456a1.28 1.28 0 01-1.0074-2.0685A15.2051 15.2051 0 0066.44 18.92c.0334-8.0881-6.215-14.8145-14.2837-15.3761zM30.6 41.96v2.56h-2.56v-2.56h2.56zm20.48 0v2.56H33.16v-2.56h17.92zM30.6 36.84v2.56h-2.56v-2.56h2.56zm20.48 0v2.56H33.16v-2.56h17.92zM67.72 33c2.8277 0 5.12 2.2923 5.12 5.12h0-2.56c0-1.4138-1.1462-2.56-2.56-2.56h0zM30.6 31.72v2.56h-2.56v-2.56h2.56zm20.48 0v2.56H33.16v-2.56h17.92zM24.2 15.08v2.56c-3.5329.0042-6.3958 2.8671-6.4 6.4a6.3309 6.3309 0 00.5363 2.56h0l-2.345 1.024a8.8603 8.8603 0 01-.7513-3.584c.0056-4.9461 4.0139-8.9544 8.96-8.96h0zm24.32 8.96H30.6v1.28c0 .707.573 1.28 1.28 1.28h15.36c.707 0 1.28-.573 1.28-1.28h0v-1.28zm2.56-17.92c7.066.0078 12.7922 5.734 12.8 12.8h0-2.56c-.0063-5.6528-4.5872-10.2337-10.24-10.24h0z"
          fill="#12B688" fill-rule="nonzero" stroke-width=".8"/>
</svg>