<?xml version="1.0" encoding="UTF-8"?>
<svg width="660px" height="160px" viewBox="0 0 660 160" version="1.1" xmlns="http://www.w3.org/2000/svg" xmlns:xlink="http://www.w3.org/1999/xlink">
    <!-- Generator: Sketch 52.6 (67491) - http://www.bohemiancoding.com/sketch -->
    <title>teaser</title>
    <desc>Created with Sketch.</desc>
    <defs>
        <path d="M65.4777399,1.55019548 C67.0355576,0.802427435 69.5677448,0.805531096 71.1190967,1.55019548 L120.080049,25.0519421 C121.637867,25.7997101 123.214225,27.7749567 123.597377,29.4482024 L135.689734,82.2561476 C136.074483,83.9363672 135.507983,86.3963559 134.434414,87.7381946 L100.552384,130.086879 C99.4743406,131.43431 97.1915676,132.526619 95.4696971,132.526619 L41.1271396,132.526619 C39.3980925,132.526619 37.1180215,131.428717 36.0444528,130.086879 L2.16242242,87.7381946 C1.08437915,86.3907632 0.523950186,83.9293933 0.907102443,82.2561476 L12.9994591,29.4482024 C13.3842083,27.767983 14.9654357,25.7966064 16.5167875,25.0519421 L65.4777399,1.55019548 Z" id="path-1"></path>
        <linearGradient x1="12.7542673%" y1="-18.6617048%" x2="88.2666158%" y2="84.6075483%" id="linearGradient-3">
            <stop stop-color="#FFFFFF" offset="0%"></stop>
            <stop stop-color="#439246" offset="100%"></stop>
        </linearGradient>
        <linearGradient x1="50%" y1="4.93673768%" x2="148.756007%" y2="175.514523%" id="linearGradient-4">
            <stop stop-color="#FFFFFF" offset="0%"></stop>
            <stop stop-color="#439246" offset="100%"></stop>
        </linearGradient>
        <linearGradient x1="19.1574381%" y1="-9.04800713%" x2="82.2203149%" y2="77.9084293%" id="linearGradient-5">
            <stop stop-color="#FFFFFF" offset="0%"></stop>
            <stop stop-color="#439246" offset="100%"></stop>
        </linearGradient>
        <linearGradient x1="57.4403751%" y1="26.3148481%" x2="137.966711%" y2="158.080556%" id="linearGradient-6">
            <stop stop-color="#FFFFFF" offset="0%"></stop>
            <stop stop-color="#439246" offset="100%"></stop>
        </linearGradient>
    </defs>
    <g id="teaser" stroke="none" stroke-width="1" fill="none" fill-rule="evenodd">
        <path d="M442.5,80.5 L495,80.5" id="Line" stroke="#009F76" stroke-width="6" stroke-linecap="round" stroke-linejoin="round"></path>
        <path d="M203,80 L276.783203,80.5" id="Line" stroke="#009F76" stroke-width="6" stroke-linecap="round" stroke-linejoin="round"></path>
        <g id="logo" transform="translate(485.000000, 14.000000)">
            <g id="Rectangle-2">
                <g id="Mask" fill="#009F76" fill-rule="nonzero">
                    <path d="M65.4777399,1.55019548 C67.0355576,0.802427435 69.5677448,0.805531096 71.1190967,1.55019548 L120.080049,25.0519421 C121.637867,25.7997101 123.214225,27.7749567 123.597377,29.4482024 L135.689734,82.2561476 C136.074483,83.9363672 135.507983,86.3963559 134.434414,87.7381946 L100.552384,130.086879 C99.4743406,131.43431 97.1915676,132.526619 95.4696971,132.526619 L41.1271396,132.526619 C39.3980925,132.526619 37.1180215,131.428717 36.0444528,130.086879 L2.16242242,87.7381946 C1.08437915,86.3907632 0.523950186,83.9293933 0.907102443,82.2561476 L12.9994591,29.4482024 C13.3842083,27.767983 14.9654357,25.7966064 16.5167875,25.0519421 L65.4777399,1.55019548 Z" id="path-1"></path>
                </g>
                <g id="Clipped">
                    <mask id="mask-2" fill="white">
                        <use xlink:href="#path-1"></use>
                    </mask>
                    <g id="path-1"></g>
                    <polygon id="Shape" fill="#000000" fill-rule="nonzero" opacity="0.289628623" mask="url(#mask-2)" points="-27.5883621 84.9536019 48.1849857 39.0767397 99.2216235 91.1511628 38.6621768 144.391147"></polygon>
                </g>
            </g>
            <path d="M87,61.2929743 C86.3323067,63.1160129 85.0781228,64.8676646 83.6310856,65.8104295 L71.1380409,73.9498222 C68.9942563,75.3465279 65.5293284,75.3535862 63.3747101,73.9498222 L50.8816654,65.8104295 C48.7378809,64.4137239 47,61.2103286 47,58.6536743 L47,41.5146442 C47,40.3978289 47.3297558,39.158572 47.8808497,38 L87,61.2929743 Z" id="Combined-Shape" fill="url(#linearGradient-3)" fill-rule="nonzero" transform="translate(67.000000, 56.500000) scale(-1, 1) translate(-67.000000, -56.500000) "></path>
            <path d="M86.1106753,39 C86.666559,40.1539929 87,41.3870398 87,42.498023 L87,59.6455603 C87,62.2026902 85.2434392,65.4014074 83.0520005,66.805868 L70.3454611,74.9493011 C68.1650411,76.3466998 64.6409006,76.3537617 62.449462,74.9493011 L49.7429225,66.805868 C48.6772911,66.1229206 47.7102685,65.0082225 47,63.7483172 L86.1106753,39 Z" id="Combined-Shape" fill="url(#linearGradient-4)" fill-rule="nonzero" transform="translate(67.000000, 57.500000) scale(-1, 1) translate(-67.000000, -57.500000) "></path>
            <path d="M100,89.1237787 C99.2649921,90.7138759 98.0778704,92.1581328 96.741028,92.9332287 L72.4253788,107.031345 C70.1960391,108.323907 66.5780379,108.321862 64.3522257,107.031345 L40.0365765,92.9332287 C37.8072369,91.6406665 36,88.49309 36,85.912056 L36,57.7158232 C36,56.5174373 36.389128,55.1986217 37.0283427,54 L100,89.1237787 Z" id="Combined-Shape" fill="url(#linearGradient-5)" fill-rule="nonzero"></path>
            <path d="M100.134971,54 C100.676908,55.0929917 101,56.2652468 101,57.3383428 L101,85.1855054 C101,87.7386259 99.1733198,90.8452154 96.9279438,92.1197558 L72.3985709,106.043337 C70.1496363,107.319897 66.4998345,107.317878 64.2544584,106.043337 L39.7250856,92.1197558 C38.6771408,91.524912 37.7216535,90.5322723 37,89.3838111 L100.134971,54 Z" id="Combined-Shape" fill="url(#linearGradient-6)" fill-rule="nonzero"></path>
        </g>
        <g id="Group" transform="translate(28.000000, 65.000000)">
            <rect id="Rectangle" stroke="#009F76" stroke-width="4" x="2" y="2" width="171" height="26" rx="8"></rect>
            <circle id="Oval" fill="#009F76" cx="18" cy="15" r="4"></circle>
            <circle id="Oval" fill="#009F76" cx="31" cy="15" r="4"></circle>
            <circle id="Oval" fill="#009F76" cx="45" cy="15" r="4"></circle>
            <circle id="Oval" fill="#009F76" cx="59" cy="15" r="4"></circle>
        </g>
        <path d="M393,55.5 C392.171573,55.5 391.5,56.1715729 391.5,57 L391.5,104 C391.5,104.828427 392.171573,105.5 393,105.5 L418.875,105.5 C424.743025,105.5 429.5,100.743025 429.5,94.875 L429.5,92.375 L438.283203,92.375 C439.11163,92.375 439.783203,91.7034271 439.783203,90.875 L439.783203,71.9882812 C439.783203,71.1598541 439.11163,70.4882812 438.283203,70.4882812 L429.5,70.4882812 L429.5,67.9882812 C429.5,61.091194 423.908806,55.5 417.011719,55.5 L393,55.5 Z" id="Rectangle" stroke="#009F76" stroke-width="5"></path>
        <path d="M281,54.5 C280.171573,54.5 279.5,55.1715729 279.5,56 L279.5,103 C279.5,103.828427 280.171573,104.5 281,104.5 L306.875,104.5 C312.743025,104.5 317.5,99.7430255 317.5,93.875 L317.5,91.375 L326.283203,91.375 C327.11163,91.375 327.783203,90.7034271 327.783203,89.875 L327.783203,70.9882813 C327.783203,70.1598541 327.11163,69.4882813 326.283203,69.4882813 L317.5,69.4882813 L317.5,66.9882813 C317.5,60.091194 311.908806,54.5 305.011719,54.5 L281,54.5 Z" id="Rectangle" stroke="#009F76" stroke-width="5" transform="translate(303.641602, 79.500000) scale(-1, 1) translate(-303.641602, -79.500000) "></path>
        <path d="M329.5,68.5 L352,68.5" id="Line" stroke="#009F76" stroke-width="6" stroke-linecap="round" stroke-linejoin="round"></path>
        <path d="M329.5,91.5 L352,91.5" id="Line" stroke="#009F76" stroke-width="6" stroke-linecap="round" stroke-linejoin="round"></path>
    </g>
</svg>