<svg width="100" height="100" viewBox="0 0 100 100" fill="none" xmlns="http://www.w3.org/2000/svg">
<g clip-path="url(#clip0)">
<path opacity="0.6" d="M31.1526 28.8587L6.17389 40.8949L0 67.9411L17.3039 89.6064H45.0297L62.3053 67.9411L56.1597 40.8949L31.1526 28.8587Z" fill="#009FE3"/>
<path opacity="0.6" d="M68.819 28.8587L43.8403 40.8949L37.6664 67.9411L54.9703 89.6064H82.6961L100 67.9411L93.8261 40.8949L68.819 28.8587Z" fill="#009FE3"/>
<path opacity="0.6" d="M49.9858 10.3937L17.4172 26.0833L9.37411 61.3424L31.9173 89.6064H68.0827L90.6259 61.3424L82.5828 26.0833L49.9858 10.3937Z" fill="#0063A5"/>
<path fill-rule="evenodd" clip-rule="evenodd" d="M49.9858 56.6129L40.8383 61.9088L31.6907 56.6129V52.563L49.9858 41.9994L68.2809 52.563V56.6129L59.1334 61.9088L49.9858 56.6129ZM35.2025 54.5738L40.8666 57.8306L50.0142 52.5347L59.1617 57.8306L64.8258 54.5738L50.0142 46.021L35.2025 54.5738Z" fill="white"/>
<path opacity="0.5" fill-rule="evenodd" clip-rule="evenodd" d="M49.9858 64.6842L40.8383 69.9802L31.6907 64.6842V60.6344L40.8383 65.9303L49.9858 60.6344L59.1334 65.9303L68.3093 60.6344V64.6842L59.1334 69.9802L49.9858 64.6842Z" fill="white"/>
<path opacity="0.5" fill-rule="evenodd" clip-rule="evenodd" d="M49.9858 72.7839L40.8383 78.0515L31.6907 72.7839V68.7341L40.8383 74.03L49.9858 68.7341L59.1334 74.03L68.3093 68.7341V72.7839L59.1334 78.0515L49.9858 72.7839Z" fill="white"/>
</g>
<defs>
<clipPath id="clip0">
<rect width="100" height="100" fill="white"/>
</clipPath>
</defs>
</svg>
