<svg width="72" height="80" xmlns="http://www.w3.org/2000/svg"><g stroke="#12B688" stroke-width="2" fill="none" fill-rule="evenodd"><path d="M55.204 28.0823c.5512-1.245.8823-2.5772.8823-3.7778V5.9617c0-1.1959-.3263-2.5217-.8728-3.762L35.7667 14.7181"/><path d="M56.0858 28.687L17.3665 2.1995c-.5512 1.2355-.8807 2.555-.8807 3.7446v18.3522c0 1.3686.5275 3.9806 1.2324 5.3666" stroke-linecap="round"/><path d="M69.4214 21.2079c.575 1.177.9203 2.4378.9203 3.5925v29.9614c0 2.7466-1.9436 6.0889-4.3339 7.4606L39.902 77.2023c-2.3918 1.3733-6.2774 1.3717-8.666 0L5.1299 62.2224c-1.115-.64-2.1336-1.7091-2.9002-2.943l67.1917-38.0715z" stroke-linejoin="round"/><path d="M2.584 59.5603c-.4182-1.0042-.792-3.6843-.792-4.6522V25.1337c0-1.2656.4134-2.6595 1.0945-3.9252L35.848 40.5523"/></g></svg>