<?xml version="1.0" encoding="UTF-8"?>
<svg width="307px" height="308px" viewBox="0 0 307 308" version="1.1" xmlns="http://www.w3.org/2000/svg" xmlns:xlink="http://www.w3.org/1999/xlink">
    <!-- Generator: Sketch 48.2 (47327) - http://www.bohemiancoding.com/sketch -->
    <title>hiring_nerd</title>
    <desc>Created with Sketch.</desc>
    <defs>
        <circle id="path-1" cx="145.5" cy="145.5" r="145.5"></circle>
    </defs>
    <g id="hiring_banner" stroke="none" stroke-width="1" fill="none" fill-rule="evenodd" transform="translate(-9.000000, -155.000000)">
        <polygon id="Rectangle-3" fill="#7ED321" points="133 367.323762 164 367 164 371.676238 133 372"></polygon>
        <g id="Hippster" transform="translate(18.000000, 165.000000)">
            <g id="Group">
                <mask id="mask-2" fill="white">
                    <use xlink:href="#path-1"></use>
                </mask>
                <circle stroke="#4A4A4A" stroke-width="3" cx="145.5" cy="145.5" r="147"></circle>
                <path d="M173.5,87.5 L187,91" id="Line-2" stroke="#4D4C4C" stroke-width="2" stroke-linecap="square" mask="url(#mask-2)"></path>
                <path d="M17.6640625,229.6875 L74,185.572266 L137.371094,160.011719 L125.208984,122.261719 L115.972656,70.859375 L163.573242,46.5556641 C165.734474,47.4166168 167.713315,49.3472808 169.509766,52.3476563 C171.306216,55.3480317 172.549706,58.7992035 173.240234,62.7011719 L190.060547,179.710938 L188.411133,197.412109 C156.430459,207.667545 135.363077,213.104394 125.208984,213.722656 C115.054892,214.340918 110.300009,210.476335 110.944336,202.128906 L82.6523438,211.427734 L24.4121094,241.878906 L17.6640625,229.6875 Z" id="Rectangle-5" fill="#DCB282" mask="url(#mask-2)"></path>
                <path d="M121,93 L138,96" id="Line-2" stroke="#4D4C4C" stroke-width="2" stroke-linecap="square" mask="url(#mask-2)"></path>
                <polygon id="Rectangle-5" fill="#DCB282" mask="url(#mask-2)" points="247.710938 203.943359 268.191406 241.894531 261.507812 257.621094 234.304688 219.025391"></polygon>
                <polygon id="Rectangle-4" fill="#49145C" mask="url(#mask-2)" points="76.7792969 214.179687 69 184.644531 104.962891 169.669922 138.271484 158.138672 160.100586 195.90332 174.804688 155 215.458984 161.478516 251.201172 202.763672 234.441406 226.826172 209.851562 194.179688 209.851562 306.521484 99.3085938 298.810547 104.962891 207.074219"></polygon>
                <polygon id="Polygon" fill="#5D250E" mask="url(#mask-2)" points="145.394531 130.259766 171.308594 127.771484 180.927734 115.212891 186.980469 133.414062 186.980469 148.853516 180.927734 164.964844 167.552734 173.197266 151.103516 181.585938 135.316406 164.964844 126.578125 142.023437 124.3125 120"></polygon>
                <path d="M167.72168,49.0439453 C171.288422,52.1221749 131.704102,83.1113281 107.870117,75.5166016 C116.162435,68.7264796 123.826497,60.9699692 130.862305,52.2470703 C141.416016,39.162722 164.154937,45.9657157 167.72168,49.0439453 Z" id="Polygon" fill="#5D250E" mask="url(#mask-2)"></path>
                <path d="M182.555664,104 L176.879443,82 C171.423177,82 167,87.391804 167,94.0429312 C167,100.694058 177.099399,104 182.555664,104 Z" id="Oval-4" fill="#77C3CD" opacity="0.284080616" mask="url(#mask-2)"></path>
                <path d="M151,106 L147.879443,84 C142.423177,84 138,89.0945463 138,95.3789877 C138,101.663429 145.543735,106 151,106 Z" id="Oval-4" fill="#77C3CD" opacity="0.284080616" mask="url(#mask-2)"></path>
                <ellipse id="Oval-2" stroke="#4D4C4C" stroke-width="3" mask="url(#mask-2)" cx="148.5" cy="95" rx="10.5" ry="12"></ellipse>
                <ellipse id="Oval-2" stroke="#4D4C4C" stroke-width="3" mask="url(#mask-2)" cx="176.5" cy="92" rx="10.5" ry="12"></ellipse>
                <path d="M159,94 L164,94" id="Line-2" stroke="#4D4C4C" stroke-width="2" stroke-linecap="square" mask="url(#mask-2)"></path>
                <polygon id="Rectangle-5" fill="#DCB282" mask="url(#mask-2)" points="172.589844 136.161133 170.777832 143.304688 147.736328 140.119141 159.684814 140.119141"></polygon>
            </g>
            <g id="Heard" transform="translate(178.000000, 194.000000)">
                <polygon id="Combined-Shape" fill="#326CE5" fill-rule="nonzero" points="14.7617188 21.0644531 5.39263275 21.0644531 0.2421875 12.9785156 2.87841797 5.05566406 9.70361328 0.513183594 17.5854492 5.05566406 19.7441406 13.6342773"></polygon>
                <ellipse id="Oval-3" stroke="#FFFFFF" cx="10.5" cy="11.5" rx="4.5" ry="5"></ellipse>
                <path d="M10.5,11.5 L4.5,6.5" id="Line-3" stroke="#FFFFFF" stroke-linecap="round" stroke-linejoin="round"></path>
                <path d="M10.5,11.5 L10.5,3.5" id="Line-3" stroke="#FFFFFF" stroke-linecap="round" stroke-linejoin="round"></path>
                <path d="M10.5,11.5 L16.5,6.5" id="Line-3" stroke="#FFFFFF" stroke-linecap="round" stroke-linejoin="round"></path>
                <path d="M10.5,11.5 L17.5,13.5" id="Line-3" stroke="#FFFFFF" stroke-linecap="round" stroke-linejoin="round"></path>
                <path d="M10.5,11.5 L14.5,18.5" id="Line-3" stroke="#FFFFFF" stroke-linecap="round" stroke-linejoin="round"></path>
                <path d="M10.5,11.5 L7.5,18.5" id="Line-3" stroke="#FFFFFF" stroke-linecap="round" stroke-linejoin="round"></path>
                <path d="M10.5,11.5 L3.5,12.5" id="Line-3" stroke="#FFFFFF" stroke-linecap="round" stroke-linejoin="round"></path>
            </g>
        </g>
    </g>
</svg>