<svg width="116" height="140" viewBox="0 0 116 140" fill="none" xmlns="http://www.w3.org/2000/svg">
<g filter="url(#filter0_d)">
<path d="M4 43C4 37.4772 8.47715 33 14 33H102C107.523 33 112 37.4772 112 43V94C112 99.5228 107.523 104 102 104H14C8.47715 104 4 99.5228 4 94V43Z" fill="white"/>
</g>
<path d="M24.3359 48.1953H26.2207L30.2344 55.0215L34.2383 48.1953H36.0742L31.0742 56.5156V63H29.3164V56.5156L24.3359 48.1953ZM36.5625 55.5977C36.5625 54.4128 36.7253 53.3451 37.0508 52.3945C37.3763 51.4375 37.8223 50.6302 38.3887 49.9727C38.9551 49.3086 39.6289 48.8008 40.4102 48.4492C41.1914 48.0977 42.041 47.9219 42.959 47.9219C43.877 47.9219 44.7233 48.0977 45.498 48.4492C46.2728 48.8008 46.9434 49.3086 47.5098 49.9727C48.0762 50.6302 48.5189 51.4375 48.8379 52.3945C49.1569 53.3451 49.3164 54.4128 49.3164 55.5977C49.3164 56.7891 49.1569 57.86 48.8379 58.8105C48.5189 59.7611 48.0762 60.5684 47.5098 61.2324C46.9434 61.89 46.2728 62.3978 45.498 62.7559C44.7233 63.1074 43.877 63.2832 42.959 63.2832C42.041 63.2832 41.1914 63.1074 40.4102 62.7559C39.6289 62.3978 38.9551 61.89 38.3887 61.2324C37.8223 60.5684 37.3763 59.7611 37.0508 58.8105C36.7253 57.86 36.5625 56.7891 36.5625 55.5977ZM38.3398 55.5977C38.3398 56.5612 38.4538 57.4238 38.6816 58.1855C38.9095 58.9408 39.2253 59.5788 39.6289 60.0996C40.0326 60.6204 40.5176 61.0176 41.084 61.291C41.6569 61.5645 42.2819 61.7012 42.959 61.7012C43.623 61.7012 44.2383 61.5645 44.8047 61.291C45.3711 61.0176 45.8561 60.6204 46.2598 60.0996C46.6699 59.5788 46.9889 58.9408 47.2168 58.1855C47.4447 57.4238 47.5586 56.5612 47.5586 55.5977C47.5586 54.6406 47.4447 53.7845 47.2168 53.0293C46.9889 52.2741 46.6699 51.6393 46.2598 51.125C45.8561 50.6042 45.3711 50.207 44.8047 49.9336C44.2383 49.6602 43.623 49.5234 42.959 49.5234C42.2819 49.5234 41.6569 49.6602 41.084 49.9336C40.5176 50.207 40.0326 50.6042 39.6289 51.125C39.2253 51.6393 38.9095 52.2741 38.6816 53.0293C38.4538 53.7845 38.3398 54.6406 38.3398 55.5977ZM51.9629 57.8828V48.1953H53.7207V57.6387C53.7207 58.2376 53.7923 58.7845 53.9355 59.2793C54.0853 59.7741 54.3132 60.1973 54.6191 60.5488C54.9316 60.9004 55.3223 61.1771 55.791 61.3789C56.2663 61.5807 56.8294 61.6816 57.4805 61.6816C58.776 61.6816 59.7201 61.3171 60.3125 60.5879C60.9049 59.8522 61.2012 58.8822 61.2012 57.6777V48.1953H62.9395V57.8438C62.9395 58.612 62.8255 59.3281 62.5977 59.9922C62.3763 60.6497 62.0345 61.2227 61.5723 61.7109C61.11 62.1992 60.5404 62.5801 59.8633 62.8535C59.1862 63.127 58.3854 63.2637 57.4609 63.2637C56.5169 63.2637 55.6966 63.127 55 62.8535C54.3099 62.5801 53.737 62.2025 53.2812 61.7207C52.832 61.2389 52.5 60.6693 52.2852 60.0117C52.0703 59.3477 51.9629 58.638 51.9629 57.8828ZM66.4355 63V48.1953H71.5234C73.2161 48.1953 74.515 48.5436 75.4199 49.2402C76.3249 49.9303 76.7773 50.9622 76.7773 52.3359C76.7773 53.5404 76.4681 54.4616 75.8496 55.0996C75.2311 55.7376 74.3945 56.1706 73.3398 56.3984L76.9824 63H75.0586L71.5234 56.623H68.1836V63H66.4355ZM68.1836 55.0605H71.416C72.5749 55.0605 73.4668 54.8717 74.0918 54.4941C74.7233 54.11 75.0391 53.4134 75.0391 52.4043C75.0391 51.4277 74.7298 50.7507 74.1113 50.373C73.4928 49.9889 72.5879 49.7969 71.3965 49.7969H68.1836V55.0605ZM79.043 59.416L80.5176 58.7617C80.8887 59.7578 81.4323 60.5 82.1484 60.9883C82.8646 61.4766 83.7207 61.7207 84.7168 61.7207C85.7585 61.7207 86.5951 61.5124 87.2266 61.0957C87.8646 60.6725 88.1836 60.0671 88.1836 59.2793C88.1836 58.9212 88.125 58.599 88.0078 58.3125C87.8971 58.026 87.7018 57.7624 87.4219 57.5215C87.1419 57.2806 86.7611 57.0527 86.2793 56.8379C85.7975 56.623 85.1921 56.4049 84.4629 56.1836C83.6882 55.9427 82.9948 55.7018 82.3828 55.4609C81.7773 55.2201 81.263 54.9401 80.8398 54.6211C80.4232 54.3021 80.1009 53.9212 79.873 53.4785C79.6517 53.0293 79.541 52.4824 79.541 51.8379C79.541 51.278 79.6549 50.7604 79.8828 50.2852C80.1172 49.8034 80.4427 49.3867 80.8594 49.0352C81.2826 48.6771 81.7839 48.4036 82.3633 48.2148C82.9492 48.0195 83.5938 47.9219 84.2969 47.9219C85.0065 47.9219 85.6413 48.0065 86.2012 48.1758C86.7611 48.3385 87.2526 48.5697 87.6758 48.8691C88.1055 49.1686 88.4733 49.5234 88.7793 49.9336C89.0853 50.3372 89.3327 50.7734 89.5215 51.2422L88.1152 52.0234C87.7181 51.125 87.1973 50.4837 86.5527 50.0996C85.9147 49.7155 85.1562 49.5234 84.2773 49.5234C83.3333 49.5234 82.5977 49.7285 82.0703 50.1387C81.543 50.5423 81.2793 51.0632 81.2793 51.7012C81.2793 52.0983 81.3444 52.4336 81.4746 52.707C81.6113 52.9805 81.8327 53.2279 82.1387 53.4492C82.4447 53.6706 82.8483 53.8822 83.3496 54.084C83.8509 54.2793 84.4596 54.4909 85.1758 54.7188C85.9245 54.9466 86.5918 55.1908 87.1777 55.4512C87.7637 55.7116 88.2585 56.0111 88.6621 56.3496C89.0723 56.6882 89.3848 57.0853 89.5996 57.541C89.8145 57.9967 89.9219 58.5371 89.9219 59.1621C89.9219 59.7741 89.7949 60.334 89.541 60.8418C89.2871 61.3496 88.9258 61.7826 88.457 62.1406C87.9948 62.4987 87.4382 62.7786 86.7871 62.9805C86.1426 63.1823 85.4264 63.2832 84.6387 63.2832C83.2259 63.2832 82.0345 62.9349 81.0645 62.2383C80.1009 61.5352 79.4271 60.5944 79.043 59.416ZM32.9688 87V72.1953H34.7363V78.3965H42.3535V72.1953H44.1113V87H42.3535V80.0176H34.7363V87H32.9688ZM47.7539 87V72.1953H56.8359V73.8164H49.5215V78.4355H54.9609V80.0176H49.5215V85.3984H57.2559V87H47.7539ZM59.9414 87V72.1953H65.0293C66.722 72.1953 68.0208 72.5436 68.9258 73.2402C69.8307 73.9303 70.2832 74.9622 70.2832 76.3359C70.2832 77.5404 69.974 78.4616 69.3555 79.0996C68.737 79.7376 67.9004 80.1706 66.8457 80.3984L70.4883 87H68.5645L65.0293 80.623H61.6895V87H59.9414ZM61.6895 79.0605H64.9219C66.0807 79.0605 66.9727 78.8717 67.5977 78.4941C68.2292 78.11 68.5449 77.4134 68.5449 76.4043C68.5449 75.4277 68.2357 74.7507 67.6172 74.373C66.9987 73.9889 66.0938 73.7969 64.9023 73.7969H61.6895V79.0605ZM73.4766 87V72.1953H82.5586V73.8164H75.2441V78.4355H80.6836V80.0176H75.2441V85.3984H82.9785V87H73.4766Z" fill="black"/>
<path d="M58.6187 113.381C58.277 113.04 57.723 113.04 57.3813 113.381L51.8128 118.95C51.4711 119.291 51.4711 119.845 51.8128 120.187C52.1545 120.529 52.7085 120.529 53.0503 120.187L58 115.237L62.9497 120.187C63.2915 120.529 63.8455 120.529 64.1872 120.187C64.5289 119.845 64.5289 119.291 64.1872 118.95L58.6187 113.381ZM58.875 140L58.875 114H57.125L57.125 140H58.875Z" fill="#FA902F"/>
<defs>
<filter id="filter0_d" x="0" y="33" width="116" height="79" filterUnits="userSpaceOnUse" color-interpolation-filters="sRGB">
<feFlood flood-opacity="0" result="BackgroundImageFix"/>
<feColorMatrix in="SourceAlpha" type="matrix" values="0 0 0 0 0 0 0 0 0 0 0 0 0 0 0 0 0 0 127 0"/>
<feOffset dy="4"/>
<feGaussianBlur stdDeviation="2"/>
<feColorMatrix type="matrix" values="0 0 0 0 0 0 0 0 0 0 0 0 0 0 0 0 0 0 0.25 0"/>
<feBlend mode="normal" in2="BackgroundImageFix" result="effect1_dropShadow"/>
<feBlend mode="normal" in="SourceGraphic" in2="effect1_dropShadow" result="shape"/>
</filter>
</defs>
</svg>
