<?xml version="1.0" encoding="UTF-8"?>
<svg width="1037px" height="495px" viewBox="0 0 1037 495" version="1.1" xmlns="http://www.w3.org/2000/svg" xmlns:xlink="http://www.w3.org/1999/xlink">
    <!-- Generator: Sketch 50 (54983) - http://www.bohemiancoding.com/sketch -->
    <title>git_bg</title>
    <desc>Created with Sketch.</desc>
    <defs></defs>
    <g id="git_bg" stroke="none" stroke-width="1" fill="none" fill-rule="evenodd" opacity="0.465122768">
        <g id="Git_icon" transform="translate(628.000000, 220.000000)" fill="#009F76" fill-rule="nonzero">
            <path d="M257.058016,119.32945 L142.667445,4.9420916 C136.080984,-1.64736387 125.397231,-1.64736387 118.805068,4.9420916 L95.0538914,28.699488 L125.183385,58.8296377 C132.186133,56.4630223 140.215343,58.0512208 145.795301,63.6341519 C151.409475,69.2512992 152.983382,77.3491155 150.556941,84.3776779 L179.600097,113.418614 C186.628506,110.994972 194.731849,112.563211 200.343171,118.18321 C208.184196,126.024405 208.184196,138.729993 200.343171,146.576891 C192.496444,154.420938 179.791133,154.420938 171.941554,146.576891 C166.045104,140.674609 164.585247,132.006524 167.576242,124.7413 L140.489066,97.6563859 L140.489066,168.931426 C142.399424,169.878072 144.204286,171.138366 145.795301,172.729416 C153.636326,180.570612 153.636326,193.276199 145.795301,201.125949 C137.954276,208.964293 125.240411,208.964293 117.405089,201.125949 C109.564064,193.273348 109.564064,180.56776 117.405089,172.729416 C119.34396,170.793354 121.587919,169.327763 123.982996,168.346901 L123.982996,96.4074973 C121.587919,95.426635 119.349663,93.9753011 117.405089,92.0249819 C111.465869,86.0884842 110.037377,77.3690749 113.082546,70.0753375 L83.3807441,40.3671867 L4.94198403,118.7991 C-1.64732801,125.394258 -1.64732801,136.078243 4.94198403,142.667699 L119.338258,257.057908 C125.924719,263.647364 136.60562,263.647364 143.200634,257.057908 L257.058016,143.198049 C263.647328,136.608593 263.647328,125.918905 257.058016,119.32945 Z" id="Shape"></path>
        </g>
    </g>
</svg>