<?xml version="1.0" encoding="UTF-8"?>
<svg width="300px" height="300px" viewBox="0 0 300 300" version="1.1" xmlns="http://www.w3.org/2000/svg" xmlns:xlink="http://www.w3.org/1999/xlink">
    <!-- Generator: Sketch 51.1 (57501) - http://www.bohemiancoding.com/sketch -->
    <title>offering</title>
    <desc>Created with Sketch.</desc>
    <defs></defs>
    <g id="offering" stroke="none" stroke-width="1" fill="none" fill-rule="evenodd">
        <path d="M173.265796,96.3613017 C174.264797,95.880208 175.881833,95.8789246 176.8835,96.3613017 L199.283416,107.148533 C200.282417,107.629626 201.291626,108.893076 201.539017,109.976968 L207.07134,134.215656 C207.318073,135.296663 206.959499,136.873443 206.266325,137.742656 L190.765102,157.180575 C190.073772,158.047476 188.617429,158.750238 187.505663,158.750238 L162.643632,158.750238 C161.534824,158.750238 160.077368,158.049788 159.384193,157.180575 L143.882971,137.742656 C143.19164,136.875755 142.830565,135.299547 143.077956,134.215656 L148.610278,109.976968 C148.857011,108.89596 149.864213,107.63091 150.86588,107.148533 L173.265796,96.3613017 Z" id="Polygon-2" stroke="#0CA391" stroke-width="4"></path>
        <path d="M220.227238,47.3625721 C221.225678,46.8817486 222.833661,46.8765436 223.84291,47.3625721 L240.598752,55.4317603 C241.597192,55.9125838 242.603822,57.1665105 242.853086,58.2586065 L246.991437,76.3899079 C247.238032,77.4703084 246.885296,79.0391343 246.186875,79.9149274 L234.591472,94.4551021 C233.90053,95.3215161 232.454046,96.0238834 231.333864,96.0238834 L212.736283,96.0238834 C211.628098,96.0238834 210.177097,95.3308951 209.478675,94.4551021 L197.883273,79.9149274 C197.19233,79.0485134 196.829446,77.4820039 197.07871,76.3899079 L201.217061,58.2586065 C201.463655,57.1782059 202.462147,55.9177888 203.471396,55.4317603 L220.227238,47.3625721 Z" id="Polygon-2" stroke="#0CA391" stroke-width="4"></path>
        <path d="M154.023414,59.3577127 C155.014746,58.8803124 156.623883,58.8812127 157.613345,59.3577127 L169.408417,65.0379197 C170.399749,65.5153201 171.402325,66.7739549 171.646702,67.8446407 L174.559844,80.60795 C174.804683,81.6806589 174.445738,83.2492505 173.761009,84.1078738 L165.598566,94.3432532 C164.912543,95.2034989 163.462371,95.9008658 162.36415,95.9008658 L149.272609,95.9008658 C148.172313,95.9008658 146.722922,95.2018765 146.038193,94.3432532 L137.87575,84.1078738 C137.189727,83.2476281 136.832538,81.6786358 137.076916,80.60795 L139.990058,67.8446407 C140.234896,66.7719319 141.23888,65.5144197 142.228343,65.0379197 L154.023414,59.3577127 Z" id="Polygon-2" stroke="#0CA391" stroke-width="4"></path>
        <g transform="translate(8.000000, 158.750238)" stroke="#0CA391" stroke-width="4">
            <path d="M272.504688,0.699833333 C270.573076,0.699833333 268.486302,1.1685 266.329863,2.08683333 L200.667726,28.0503333 L169.081122,28.0503333 C169.242618,27.93 169.362948,27.7685 169.51811,27.6418333 C169.948764,27.2871667 170.360419,26.9166667 170.734075,26.505 C170.939903,26.2801667 171.126731,26.0426667 171.313559,25.802 C171.642883,25.3808333 171.937375,24.9406667 172.203367,24.4751667 C172.355363,24.2091667 172.507358,23.9495 172.640355,23.6708333 C172.887348,23.1546667 173.074176,22.6163333 173.245171,22.0621667 C173.324335,21.8025 173.425666,21.5555 173.485831,21.2863333 C173.675825,20.4535 173.796155,19.5953333 173.796155,18.7055 C173.796155,12.2961667 168.58397,7.08066667 162.174818,7.08066667 L86.3036377,7.08066667 C86.2498059,7.08066667 86.1959741,7.08383333 86.1453089,7.09333333 L86.1453089,7.087 C73.266841,7.087 64.8279137,19.4465 64.4764237,19.9721667 L41.6169057,53.8871667 L34.3306124,49.5995 C33.7859612,49.2796667 33.0893143,49.4633333 32.7726566,50.0016667 L26.2811741,61.0311667 L18.0575741,56.1925 C17.5160895,55.8758333 16.816276,56.0531667 16.4996183,56.5946667 L0.160081941,84.3568333 C-0.159742318,84.8983333 0.0207525606,85.5981667 0.565403774,85.9148333 L79.0901757,132.138667 C79.267504,132.243167 79.4669984,132.297 79.6664927,132.297 C79.76149,132.297 79.8564873,132.2875 79.9514846,132.262167 C80.2428097,132.186167 80.4929693,131.999333 80.6481315,131.7365 L96.9876679,103.971167 C97.3074922,103.429667 97.1269973,102.729833 96.5823461,102.413167 L89.2137218,98.0748333 L95.7020377,87.0453333 C96.0186954,86.5038333 95.8413671,85.804 95.2967159,85.4873333 L87.902759,81.1363333 L98.3207968,67.1586667 L154.796694,72.6528333 C155.008855,72.7003333 160.056378,73.8593333 166.009543,73.8593333 L166.009543,73.8593333 C170.065928,73.8593333 173.552329,73.3146667 176.522578,72.1841667 L284.392017,13.4931667 C284.844838,13.2461667 285.075998,12.7268333 284.955668,12.2296667 C284.943002,12.1156667 282.115249,0.699833333 272.504688,0.699833333 Z" id="Shape" fill-rule="nonzero"></path>
            <path d="M25.5,60.7497621 L90.5,98.7497621" id="Line" stroke-linecap="square"></path>
            <path d="M41.5,53.7497621 L87.5,80.7497621" id="Line" stroke-linecap="square"></path>
        </g>
    </g>
</svg>