<?xml version="1.0" encoding="UTF-8"?>
<svg width="300px" height="300px" viewBox="0 0 300 300" version="1.1" xmlns="http://www.w3.org/2000/svg" xmlns:xlink="http://www.w3.org/1999/xlink">
    <!-- Generator: Sketch 51.1 (57501) - http://www.bohemiancoding.com/sketch -->
    <title>projects</title>
    <desc>Created with Sketch.</desc>
    <defs></defs>
    <g id="projects" stroke="none" stroke-width="1" fill="none" fill-rule="evenodd">
        <path d="M60,43 L60,255" id="Line" stroke="#0CA391" stroke-width="12" stroke-linecap="square"></path>
        <path d="M60,41.5 L139,41.5" id="Line" stroke="#0CA391" stroke-width="12" stroke-linecap="square"></path>
        <path d="M16,154.5 L144,154.5" id="Line" stroke="#0CA391" stroke-width="12" stroke-linecap="square"></path>
        <path d="M60,263.5 L139,263.5" id="Line" stroke="#0CA391" stroke-width="12" stroke-linecap="square"></path>
        <path d="M182.863331,13.7577266 C185.251612,12.3788518 189.134635,12.3851186 191.512062,13.7577266 L209.051027,23.883853 C211.439308,25.2627277 213.375393,28.6286578 213.375393,31.3738736 L213.375393,51.6261264 C213.375393,54.3838758 211.428454,57.7435391 209.051027,59.116147 L191.512062,69.2422734 C189.123781,70.6211482 185.240757,70.6148814 182.863331,69.2422734 L165.324365,59.116147 C162.936084,57.7372723 161,54.3713422 161,51.6261264 L161,31.3738736 C161,28.6161242 162.946939,25.2564609 165.324365,23.883853 L182.863331,13.7577266 Z" id="Polygon-3" stroke="#0CA391" stroke-width="8"></path>
        <path d="M182.863331,126.031807 C185.251612,124.652933 189.134635,124.659199 191.512062,126.031807 L209.051027,136.157934 C211.439308,137.536808 213.375393,140.902739 213.375393,143.647954 L213.375393,163.900207 C213.375393,166.657957 211.428454,170.01762 209.051027,171.390228 L191.512062,181.516354 C189.123781,182.895229 185.240757,182.888962 182.863331,181.516354 L165.324365,171.390228 C162.936084,170.011353 161,166.645423 161,163.900207 L161,143.647954 C161,140.890205 162.946939,137.530542 165.324365,136.157934 L182.863331,126.031807 Z" id="Polygon-3" stroke="#0CA391" stroke-width="8"></path>
        <path d="M182.863331,237.257727 C185.251612,235.878852 189.134635,235.885119 191.512062,237.257727 L209.051027,247.383853 C211.439308,248.762728 213.375393,252.128658 213.375393,254.873874 L213.375393,275.126126 C213.375393,277.883876 211.428454,281.243539 209.051027,282.616147 L191.512062,292.742273 C189.123781,294.121148 185.240757,294.114881 182.863331,292.742273 L165.324365,282.616147 C162.936084,281.237272 161,277.871342 161,275.126126 L161,254.873874 C161,252.116124 162.946939,248.756461 165.324365,247.383853 L182.863331,237.257727 Z" id="Polygon-3" stroke="#0CA391" stroke-width="8"></path>
    </g>
</svg>