<?xml version="1.0" encoding="UTF-8"?>
<svg width="300px" height="300px" viewBox="0 0 300 300" version="1.1" xmlns="http://www.w3.org/2000/svg" xmlns:xlink="http://www.w3.org/1999/xlink">
    <!-- Generator: Sketch 51.1 (57501) - http://www.bohemiancoding.com/sketch -->
    <title>screencast</title>
    <desc>Created with Sketch.</desc>
    <defs></defs>
    <g id="screencast" stroke="none" stroke-width="1" fill="none" fill-rule="evenodd">
        <path d="M141.369276,13.4704393 C145.349284,11.5537686 151.798284,11.5519065 155.782159,13.4704393 L255.706124,61.5912847 C259.686131,63.5079553 263.708473,68.5488261 264.692409,72.8597302 L289.37159,180.986288 C290.354571,185.293008 288.921349,191.580733 286.164422,195.03781 L217.014893,281.748577 C214.260642,285.202298 208.451101,288.002093 204.029334,288.002093 L93.1221002,288.002093 C88.704625,288.002093 82.8934682,285.205654 80.1365416,281.748577 L10.9870122,195.03781 C8.23276141,191.584089 6.79590831,185.297192 7.77984404,180.986288 L32.4590253,72.8597302 C33.4420061,68.5530103 37.4614364,63.5098175 41.4453108,61.5912847 L141.369276,13.4704393 Z" id="Polygon-2" stroke="#0CA391" stroke-width="6"></path>
        <path d="M149,209 C203.67619,209 248,153.5 248,153.5 C248,153.5 203.67619,98 149,98 C94.3238098,98 50,153.5 50,153.5 C50,153.5 94.3238098,209 149,209 Z" id="Oval-2" stroke="#0CA391" stroke-width="6"></path>
        <path d="M163.118283,123.060745 C155.205146,123.75977 149,130.40524 149,138.5 C149,147.060414 155.939586,154 164.5,154 C172.59476,154 179.24023,147.794854 179.939255,139.881717 C181.904689,144.181864 183,148.96302 183,154 C183,172.777681 167.777681,188 149,188 C130.222319,188 115,172.777681 115,154 C115,135.222319 130.222319,120 149,120 C154.03698,120 158.818136,121.095311 163.118283,123.060745 Z" id="Combined-Shape" fill="#0CA391"></path>
    </g>
</svg>