<?xml version="1.0" encoding="UTF-8" standalone="no"?>
<!-- Generator: Adobe Illustrator 19.2.1, SVG Export Plug-In . SVG Version: 6.00 Build 0)  -->

<svg
   xmlns:dc="http://purl.org/dc/elements/1.1/"
   xmlns:cc="http://creativecommons.org/ns#"
   xmlns:rdf="http://www.w3.org/1999/02/22-rdf-syntax-ns#"
   xmlns:svg="http://www.w3.org/2000/svg"
   xmlns="http://www.w3.org/2000/svg"
   xmlns:sodipodi="http://sodipodi.sourceforge.net/DTD/sodipodi-0.dtd"
   xmlns:inkscape="http://www.inkscape.org/namespaces/inkscape"
   version="1.1"
   id="Layer_1"
   x="0px"
   y="0px"
   viewBox="0 0 576 270"
   style="enable-background:new 0 0 576 270;"
   xml:space="preserve"
   inkscape:version="0.91 r13725"
   sodipodi:docname="Slack_Invite_RGB.svg"><metadata
     id="metadata39"><rdf:RDF><cc:Work
         rdf:about=""><dc:format>image/svg+xml</dc:format><dc:type
           rdf:resource="http://purl.org/dc/dcmitype/StillImage" /><dc:title></dc:title></cc:Work></rdf:RDF></metadata><defs
     id="defs37" /><sodipodi:namedview
     pagecolor="#ffffff"
     bordercolor="#666666"
     borderopacity="1"
     objecttolerance="10"
     gridtolerance="10"
     guidetolerance="10"
     inkscape:pageopacity="0"
     inkscape:pageshadow="2"
     inkscape:window-width="1680"
     inkscape:window-height="1005"
     id="namedview35"
     showgrid="false"
     inkscape:snap-text-baseline="true"
     inkscape:zoom="2"
     inkscape:cx="350.62109"
     inkscape:cy="135"
     inkscape:window-x="0"
     inkscape:window-y="1"
     inkscape:window-maximized="1"
     inkscape:current-layer="Layer_1" /><style
     type="text/css"
     id="style3">
	.st0{fill:#ECB32D;}
	.st1{fill:#63C1A0;}
	.st2{fill:#E01A59;}
	.st3{fill:#331433;}
	.st4{fill:#D62027;}
	.st5{fill:#89D3DF;}
	.st6{fill:#258B74;}
	.st7{fill:#819C3C;}
	.st8{fill:#2D333A;}
</style><g
     id="g5"><g
       id="g7"><path
         class="st0"
         d="M141.8,87.1c-1.9-5.7-8-8.8-13.7-7c-5.7,1.9-8.8,8-7,13.7l28.1,86.4c1.9,5.3,7.7,8.3,13.2,6.7    c5.8-1.7,9.3-7.8,7.4-13.4C169.8,173.3,141.8,87.1,141.8,87.1z"
         id="path9" /><path
         class="st1"
         d="M98.3,101.2c-1.9-5.7-8-8.8-13.7-7c-5.7,1.9-8.8,8-7,13.7l28.1,86.4c1.9,5.3,7.7,8.3,13.2,6.7    c5.8-1.7,9.3-7.8,7.4-13.4C126.3,187.4,98.3,101.2,98.3,101.2z"
         id="path11" /><path
         class="st2"
         d="M177.2,158.6c5.7-1.9,8.8-8,7-13.7c-1.9-5.7-8-8.8-13.7-7L84,166.1c-5.3,1.9-8.3,7.7-6.7,13.2    c1.7,5.8,7.8,9.3,13.4,7.4C90.9,186.7,177.2,158.6,177.2,158.6z"
         id="path13" /><path
         class="st3"
         d="M102,183.1c5.6-1.8,12.9-4.2,20.7-6.7c-1.8-5.6-4.2-12.9-6.7-20.7l-20.7,6.7L102,183.1z"
         id="path15" /><path
         class="st4"
         d="M145.6,168.9c7.8-2.5,15.1-4.9,20.7-6.7c-1.8-5.6-4.2-12.9-6.7-20.7l-20.7,6.7L145.6,168.9z"
         id="path17" /><path
         class="st5"
         d="M163,115.1c5.7-1.9,8.8-8,7-13.7c-1.9-5.7-8-8.8-13.7-7l-86.4,28.1c-5.3,1.9-8.3,7.7-6.7,13.2    c1.7,5.8,7.8,9.3,13.4,7.4C76.8,143.1,163,115.1,163,115.1z"
         id="path19" /><path
         class="st6"
         d="M87.9,139.5c5.6-1.8,12.9-4.2,20.7-6.7c-2.5-7.8-4.9-15.1-6.7-20.7l-20.7,6.7L87.9,139.5z"
         id="path21" /><path
         class="st7"
         d="M131.4,125.4c7.8-2.5,15.1-4.9,20.7-6.7c-2.5-7.8-4.9-15.1-6.7-20.7l-20.7,6.7L131.4,125.4z"
         id="path23" /></g></g><text
     xml:space="preserve"
     style="font-style:normal;font-weight:normal;font-size:40px;line-height:125%;font-family:Sans;letter-spacing:0px;word-spacing:0px;fill:#000000;fill-opacity:1;stroke:none;stroke-width:1px;stroke-linecap:butt;stroke-linejoin:miter;stroke-opacity:1"
     x="234"
     y="123"
     id="text3367"
     sodipodi:linespacing="125%"><tspan
       sodipodi:role="line"
       id="tspan3369"
       x="234"
       y="123" /></text>
<text
     xml:space="preserve"
     style="font-style:normal;font-variant:normal;font-weight:normal;font-stretch:normal;font-size:60px;line-height:125%;font-family:Sans;-inkscape-font-specification:'Sans, Normal';text-align:start;letter-spacing:0px;word-spacing:0px;writing-mode:lr-tb;text-anchor:start;fill:#000000;fill-opacity:1;stroke:none;stroke-width:1px;stroke-linecap:butt;stroke-linejoin:miter;stroke-opacity:1"
     x="391.20117"
     y="102"
     id="text3429"
     sodipodi:linespacing="125%"><tspan
       sodipodi:role="line"
       x="406.8457"
       y="102"
       style="font-style:normal;font-variant:normal;font-weight:bold;font-stretch:normal;font-size:90px;line-height:125%;font-family:sans-serif;-inkscape-font-specification:'sans-serif Bold';text-align:center;writing-mode:lr-tb;text-anchor:middle"
       id="tspan3347">my </tspan><tspan
       sodipodi:role="line"
       x="391.20117"
       y="214.5"
       style="font-style:normal;font-variant:normal;font-weight:bold;font-stretch:normal;font-size:90px;line-height:125%;font-family:sans-serif;-inkscape-font-specification:'sans-serif Bold';text-align:center;writing-mode:lr-tb;text-anchor:middle"
       id="tspan3372">invite</tspan></text>
</svg>