<?xml version="1.0" encoding="UTF-8"?>
<svg width="594px" height="278px" viewBox="0 0 594 278" version="1.1" xmlns="http://www.w3.org/2000/svg" xmlns:xlink="http://www.w3.org/1999/xlink">
    <!-- Generator: Sketch 48.2 (47327) - http://www.bohemiancoding.com/sketch -->
    <title>howto-content-trust</title>
    <desc>Created with Sketch.</desc>
    <defs></defs>
    <g id="Page-1" stroke="none" stroke-width="1" fill="none" fill-rule="evenodd">
        <g id="howto-content-trust" stroke="#009F76">
            <g id="Group" transform="translate(361.000000, 114.000000) rotate(-24.000000) translate(-361.000000, -114.000000) translate(143.000000, 26.000000)">
                <path d="M336,104.427402 L336,53.8733135 L295.117023,3.47991944 C294.357503,2.54371665 293.216255,2 292.010708,2 L6,2 C3.790861,2 2,3.790861 2,6 L2,155 C2,157.209139 3.790861,159 6,159 L291.920607,159 C293.160306,159 294.329943,158.425194 295.087321,157.443751 L336,104.427402 Z" id="Rectangle" stroke-width="4"></path>
                <path d="M75,49.5 L165,49.5" id="Line" stroke-width="4" stroke-linecap="round" stroke-linejoin="round"></path>
                <path d="M47,82.5 L186,82.5" id="Line" stroke-width="4" stroke-linecap="round" stroke-linejoin="round"></path>
                <path d="M73,115.5 L168,115.5" id="Line" stroke-width="4" stroke-linecap="round" stroke-linejoin="round"></path>
                <ellipse id="Oval" stroke-width="5" fill="#FFFFFF" cx="296.5" cy="81" rx="21.5" ry="20"></ellipse>
                <path d="M286,119 C286,130.045695 319.578644,139 361,139 C402.421356,139 436,130.045695 436,119 C436,107.954305 402.421356,99 361,99 C346.602389,99 333.15232,100.081843 321.730576,101.95732" id="Oval" stroke-width="7" transform="translate(361.000000, 119.000000) rotate(32.000000) translate(-361.000000, -119.000000) "></path>
            </g>
        </g>
    </g>
</svg>