<svg xmlns="http://www.w3.org/2000/svg" width="27" height="50" viewBox="0 0 27 50">
    <path fill="#F18266" fill-rule="nonzero" d="M1.721 50c-.23 0-.45-.04-.664-.122a1.61 1.61 0 0 1-.565-.367A1.595 1.595 0 0 1 0 48.338c0-.456.164-.847.492-1.173L22.967 24.83.837 2.884a1.623 1.623 0 0 1-.493-1.198c0-.472.164-.871.492-1.197C1.164.163 1.566 0 2.041 0c.475 0 .877.163 1.205.489l23.262 23.167c.328.326.492.717.492 1.173 0 .456-.164.847-.492 1.173L2.902 49.512a1.61 1.61 0 0 1-.566.366 1.72 1.72 0 0 1-.615.122z"/>
</svg>
