<svg xmlns="http://www.w3.org/2000/svg" width="27" height="50" viewBox="0 0 27 50">
    <path fill="#F18266" fill-rule="nonzero" d="M25.279 0c.23 0 .45.04.664.122.213.082.401.204.565.367.328.326.492.717.492 1.173 0 .456-.164.847-.492 1.173L4.033 25.17l22.13 21.945c.329.326.493.725.493 1.198 0 .472-.164.871-.492 1.197-.328.326-.73.489-1.205.489-.475 0-.877-.163-1.205-.489L.492 26.344A1.595 1.595 0 0 1 0 25.171c0-.456.164-.847.492-1.173L24.098.488a1.61 1.61 0 0 1 .566-.366A1.72 1.72 0 0 1 25.279 0z"/>
</svg>
