<svg xmlns="http://www.w3.org/2000/svg">
  <symbol id="sort" viewBox="0 0 20 20">
    <path d="M0.672776 5.63522L0.309088 5.97718L0.995335 6.70674L1.35902 6.36478L0.672776 5.63522ZM6.2989 1.03271L6.64308 0.671121L6.2999 0.344367L5.95578 0.667925L6.2989 1.03271ZM11.1717 6.36159L11.5344 6.70692L12.2228 5.98375L11.8601 5.63842L11.1717 6.36159ZM1.0159 6C1.35902 6.36478 1.35904 6.36477 1.35906 6.36475C1.35908 6.36473 1.35912 6.36469 1.35917 6.36465C1.35927 6.36456 1.35942 6.36441 1.35961 6.36423C1.36 6.36386 1.36059 6.36331 1.36136 6.36258C1.36292 6.36112 1.36525 6.35893 1.36832 6.35604C1.37448 6.35025 1.38364 6.34163 1.39569 6.33031C1.41977 6.30766 1.45537 6.27419 1.50141 6.23091C1.59348 6.14434 1.72731 6.0185 1.89436 5.86144C2.22846 5.5473 2.69542 5.10825 3.22685 4.60858C4.2897 3.60924 5.61045 2.36741 6.64202 1.39749L5.95578 0.667925C4.92421 1.63785 3.60346 2.87968 2.5406 3.87902C2.00917 4.37869 1.54221 4.81774 1.20812 5.13187C1.04107 5.28894 0.907232 5.41478 0.815159 5.50135C0.769123 5.54463 0.733527 5.5781 0.70944 5.60075C0.697396 5.61208 0.688232 5.62069 0.682076 5.62648C0.678998 5.62937 0.676674 5.63156 0.675118 5.63302C0.67434 5.63375 0.673755 5.6343 0.673364 5.63467C0.673165 5.63486 0.673024 5.63499 0.672923 5.63509C0.672874 5.63513 0.672837 5.63517 0.672813 5.63519C0.672788 5.63521 0.672776 5.63522 1.0159 6ZM5.95472 1.39429C6.97341 2.36422 8.27764 3.60603 9.32723 4.60538C9.85207 5.1051 10.3131 5.54406 10.6431 5.85824C10.808 6.01523 10.9403 6.14122 11.0311 6.22771C11.0765 6.27097 11.1118 6.3045 11.1355 6.32711C11.1475 6.33855 11.1563 6.34695 11.1625 6.35284C11.1669 6.35698 11.1666 6.35668 11.1694 6.35939C11.1728 6.36264 11.1681 6.35815 11.1711 6.36104C11.1815 6.37092 11.1613 6.35166 11.1716 6.36145C11.1716 6.3615 11.1717 6.36153 11.1717 6.36155C11.1717 6.36158 11.1717 6.36159 11.5159 6C11.8601 5.63842 11.8601 5.63841 11.86 5.63838C11.86 5.63836 11.86 5.63833 11.8599 5.63828C11.8599 5.63824 11.8598 5.63818 11.8597 5.63811C11.8597 5.63804 11.8596 5.63796 11.8595 5.63787C11.8594 5.63778 11.8593 5.63767 11.8592 5.63756C11.859 5.63744 11.8589 5.63732 11.8588 5.63718C11.8585 5.6369 11.8581 5.63658 11.8578 5.63622C11.8575 5.63599 11.8526 5.63133 11.8509 5.62968C11.8449 5.624 11.8356 5.61516 11.8239 5.60395C11.8 5.58127 11.765 5.54786 11.7195 5.50454C11.6285 5.4179 11.4965 5.29221 11.3314 5.13507C11.0015 4.82099 10.5403 4.38184 10.0156 3.88221C8.96601 2.88288 7.66175 1.64104 6.64308 0.671121L5.95472 1.39429ZM5.7989 1.02972C5.78972 4.33739 5.78457 6.19187 5.77539 9.49955L6.77539 9.50552C6.78457 6.19785 6.78972 4.34337 6.7989 1.03569L5.7989 1.02972ZM5.77539 9.49955C5.76621 12.8072 5.76107 14.6617 5.75189 17.9694L6.75189 17.9754C6.76107 14.6677 6.76621 12.8132 6.77539 9.50552L5.77539 9.49955Z" fill="var(--outline-color, black)" fill-opacity="0.5"/>
    <path d="M11.1887 13.3371L10.825 12.9952L11.5112 12.2656L11.8749 12.6076L11.1887 13.3371ZM16.8148 17.9397L17.159 18.3012L16.8158 18.628L16.4717 18.3044L16.8148 17.9397ZM21.6876 12.6108L22.0503 12.2654L22.7387 12.9886L22.376 13.3339L21.6876 12.6108ZM11.5318 12.9724C11.8749 12.6076 11.8749 12.6076 11.875 12.6076C11.875 12.6076 11.875 12.6077 11.8751 12.6077C11.8752 12.6078 11.8753 12.608 11.8755 12.6081C11.8759 12.6085 11.8765 12.6091 11.8773 12.6098C11.8788 12.6112 11.8811 12.6134 11.8842 12.6163C11.8904 12.6221 11.8995 12.6307 11.9116 12.6421C11.9357 12.6647 11.9713 12.6982 12.0173 12.7415C12.1094 12.828 12.2432 12.9539 12.4103 13.1109C12.7444 13.4251 13.2113 13.8641 13.7427 14.3638C14.8056 15.3631 16.1264 16.605 17.1579 17.5749L16.4717 18.3044C15.4401 17.3345 14.1194 16.0927 13.0565 15.0933C12.5251 14.5937 12.0581 14.1546 11.724 13.8405C11.557 13.6834 11.4231 13.5576 11.3311 13.471C11.285 13.4277 11.2494 13.3943 11.2253 13.3716C11.2133 13.3603 11.2041 13.3517 11.198 13.3459C11.1949 13.343 11.1926 13.3408 11.191 13.3393C11.1902 13.3386 11.1897 13.3381 11.1893 13.3377C11.1891 13.3375 11.1889 13.3374 11.1888 13.3373C11.1888 13.3372 11.1887 13.3372 11.1887 13.3372C11.1887 13.3372 11.1887 13.3371 11.5318 12.9724ZM16.4706 17.5781C17.4893 16.6081 18.7935 15.3663 19.8431 14.367C20.368 13.8673 20.829 13.4283 21.159 13.1141C21.3239 12.9571 21.4562 12.8311 21.547 12.7447C21.5924 12.7014 21.6277 12.6679 21.6514 12.6452C21.6634 12.6338 21.6722 12.6254 21.6784 12.6195C21.6828 12.6154 21.6825 12.6157 21.6853 12.613C21.6887 12.6097 21.684 12.6142 21.687 12.6113C21.6974 12.6014 21.6772 12.6207 21.6875 12.6109C21.6875 12.6109 21.6876 12.6108 21.6876 12.6108C21.6876 12.6108 21.6876 12.6108 22.0318 12.9724C22.376 13.3339 22.376 13.334 22.3759 13.334C22.3759 13.334 22.3759 13.334 22.3758 13.3341C22.3758 13.3341 22.3757 13.3342 22.3756 13.3343C22.3756 13.3343 22.3755 13.3344 22.3754 13.3345C22.3753 13.3346 22.3752 13.3347 22.3751 13.3348C22.3749 13.3349 22.3748 13.335 22.3747 13.3352C22.3744 13.3355 22.374 13.3358 22.3737 13.3361C22.3734 13.3364 22.3685 13.341 22.3668 13.3427C22.3608 13.3484 22.3515 13.3572 22.3398 13.3684C22.3159 13.3911 22.2809 13.4245 22.2354 13.4678C22.1444 13.5545 22.0124 13.6802 21.8473 13.8373C21.5174 14.1514 21.0562 14.5905 20.5315 15.0902C19.4819 16.0895 18.1777 17.3313 17.159 18.3012L16.4706 17.5781ZM16.3148 17.9426C16.3056 14.635 16.3005 12.7805 16.2913 9.47282L17.2913 9.46684C17.3005 12.7745 17.3056 14.629 17.3148 17.9367L16.3148 17.9426ZM16.2913 9.47282C16.2821 6.16514 16.277 4.31066 16.2678 1.00298L17.2678 0.997011C17.277 4.30469 17.2821 6.15917 17.2913 9.46684L16.2913 9.47282Z" fill="var(--outline-color, black)" fill-opacity="0.5"/>
  </symbol>
  <symbol id="sort-asc" viewBox="0 0 20 20">
    <path d="M0.672776 5.63522L0.309088 5.97718L0.995335 6.70674L1.35902 6.36478L0.672776 5.63522ZM6.2989 1.03271L6.64308 0.671121L6.2999 0.344367L5.95578 0.667925L6.2989 1.03271ZM11.1717 6.36159L11.5344 6.70692L12.2228 5.98375L11.8601 5.63842L11.1717 6.36159ZM1.0159 6C1.35902 6.36478 1.35904 6.36477 1.35906 6.36475C1.35908 6.36473 1.35912 6.36469 1.35917 6.36465C1.35927 6.36456 1.35942 6.36441 1.35961 6.36423C1.36 6.36386 1.36059 6.36331 1.36136 6.36258C1.36292 6.36112 1.36525 6.35893 1.36832 6.35604C1.37448 6.35025 1.38364 6.34163 1.39569 6.33031C1.41977 6.30766 1.45537 6.27419 1.50141 6.23091C1.59348 6.14434 1.72731 6.0185 1.89436 5.86144C2.22846 5.5473 2.69542 5.10825 3.22685 4.60858C4.2897 3.60924 5.61045 2.36741 6.64202 1.39749L5.95578 0.667925C4.92421 1.63785 3.60346 2.87968 2.5406 3.87902C2.00917 4.37869 1.54221 4.81774 1.20812 5.13187C1.04107 5.28894 0.907232 5.41478 0.815159 5.50135C0.769123 5.54463 0.733527 5.5781 0.70944 5.60075C0.697396 5.61208 0.688232 5.62069 0.682076 5.62648C0.678998 5.62937 0.676674 5.63156 0.675118 5.63302C0.67434 5.63375 0.673755 5.6343 0.673364 5.63467C0.673165 5.63486 0.673024 5.63499 0.672923 5.63509C0.672874 5.63513 0.672837 5.63517 0.672813 5.63519C0.672788 5.63521 0.672776 5.63522 1.0159 6ZM5.95472 1.39429C6.97341 2.36422 8.27764 3.60603 9.32723 4.60538C9.85207 5.1051 10.3131 5.54406 10.6431 5.85824C10.808 6.01523 10.9403 6.14122 11.0311 6.22771C11.0765 6.27097 11.1118 6.3045 11.1355 6.32711C11.1475 6.33855 11.1563 6.34695 11.1625 6.35284C11.1669 6.35698 11.1666 6.35668 11.1694 6.35939C11.1728 6.36264 11.1681 6.35815 11.1711 6.36104C11.1815 6.37092 11.1613 6.35166 11.1716 6.36145C11.1716 6.3615 11.1717 6.36153 11.1717 6.36155C11.1717 6.36158 11.1717 6.36159 11.5159 6C11.8601 5.63842 11.8601 5.63841 11.86 5.63838C11.86 5.63836 11.86 5.63833 11.8599 5.63828C11.8599 5.63824 11.8598 5.63818 11.8597 5.63811C11.8597 5.63804 11.8596 5.63796 11.8595 5.63787C11.8594 5.63778 11.8593 5.63767 11.8592 5.63756C11.859 5.63744 11.8589 5.63732 11.8588 5.63718C11.8585 5.6369 11.8581 5.63658 11.8578 5.63622C11.8575 5.63599 11.8526 5.63133 11.8509 5.62968C11.8449 5.624 11.8356 5.61516 11.8239 5.60395C11.8 5.58127 11.765 5.54786 11.7195 5.50454C11.6285 5.4179 11.4965 5.29221 11.3314 5.13507C11.0015 4.82099 10.5403 4.38184 10.0156 3.88221C8.96601 2.88288 7.66175 1.64104 6.64308 0.671121L5.95472 1.39429ZM5.7989 1.02972C5.78972 4.33739 5.78457 6.19187 5.77539 9.49955L6.77539 9.50552C6.78457 6.19785 6.78972 4.34337 6.7989 1.03569L5.7989 1.02972ZM5.77539 9.49955C5.76621 12.8072 5.76107 14.6617 5.75189 17.9694L6.75189 17.9754C6.76107 14.6677 6.76621 12.8132 6.77539 9.50552L5.77539 9.49955Z" fill="var(--outline-color, black)"/>
    <path d="M11.1887 13.3371L10.825 12.9952L11.5112 12.2656L11.8749 12.6076L11.1887 13.3371ZM16.8148 17.9397L17.159 18.3012L16.8158 18.628L16.4717 18.3044L16.8148 17.9397ZM21.6876 12.6108L22.0503 12.2654L22.7387 12.9886L22.376 13.3339L21.6876 12.6108ZM11.5318 12.9724C11.8749 12.6076 11.8749 12.6076 11.875 12.6076C11.875 12.6076 11.875 12.6077 11.8751 12.6077C11.8752 12.6078 11.8753 12.608 11.8755 12.6081C11.8759 12.6085 11.8765 12.6091 11.8773 12.6098C11.8788 12.6112 11.8811 12.6134 11.8842 12.6163C11.8904 12.6221 11.8995 12.6307 11.9116 12.6421C11.9357 12.6647 11.9713 12.6982 12.0173 12.7415C12.1094 12.828 12.2432 12.9539 12.4103 13.1109C12.7444 13.4251 13.2113 13.8641 13.7427 14.3638C14.8056 15.3631 16.1264 16.605 17.1579 17.5749L16.4717 18.3044C15.4401 17.3345 14.1194 16.0927 13.0565 15.0933C12.5251 14.5937 12.0581 14.1546 11.724 13.8405C11.557 13.6834 11.4231 13.5576 11.3311 13.471C11.285 13.4277 11.2494 13.3943 11.2253 13.3716C11.2133 13.3603 11.2041 13.3517 11.198 13.3459C11.1949 13.343 11.1926 13.3408 11.191 13.3393C11.1902 13.3386 11.1897 13.3381 11.1893 13.3377C11.1891 13.3375 11.1889 13.3374 11.1888 13.3373C11.1888 13.3372 11.1887 13.3372 11.1887 13.3372C11.1887 13.3372 11.1887 13.3371 11.5318 12.9724ZM16.4706 17.5781C17.4893 16.6081 18.7935 15.3663 19.8431 14.367C20.368 13.8673 20.829 13.4283 21.159 13.1141C21.3239 12.9571 21.4562 12.8311 21.547 12.7447C21.5924 12.7014 21.6277 12.6679 21.6514 12.6452C21.6634 12.6338 21.6722 12.6254 21.6784 12.6195C21.6828 12.6154 21.6825 12.6157 21.6853 12.613C21.6887 12.6097 21.684 12.6142 21.687 12.6113C21.6974 12.6014 21.6772 12.6207 21.6875 12.6109C21.6875 12.6109 21.6876 12.6108 21.6876 12.6108C21.6876 12.6108 21.6876 12.6108 22.0318 12.9724C22.376 13.3339 22.376 13.334 22.3759 13.334C22.3759 13.334 22.3759 13.334 22.3758 13.3341C22.3758 13.3341 22.3757 13.3342 22.3756 13.3343C22.3756 13.3343 22.3755 13.3344 22.3754 13.3345C22.3753 13.3346 22.3752 13.3347 22.3751 13.3348C22.3749 13.3349 22.3748 13.335 22.3747 13.3352C22.3744 13.3355 22.374 13.3358 22.3737 13.3361C22.3734 13.3364 22.3685 13.341 22.3668 13.3427C22.3608 13.3484 22.3515 13.3572 22.3398 13.3684C22.3159 13.3911 22.2809 13.4245 22.2354 13.4678C22.1444 13.5545 22.0124 13.6802 21.8473 13.8373C21.5174 14.1514 21.0562 14.5905 20.5315 15.0902C19.4819 16.0895 18.1777 17.3313 17.159 18.3012L16.4706 17.5781ZM16.3148 17.9426C16.3056 14.635 16.3005 12.7805 16.2913 9.47282L17.2913 9.46684C17.3005 12.7745 17.3056 14.629 17.3148 17.9367L16.3148 17.9426ZM16.2913 9.47282C16.2821 6.16514 16.277 4.31066 16.2678 1.00298L17.2678 0.997011C17.277 4.30469 17.2821 6.15917 17.2913 9.46684L16.2913 9.47282Z" fill="var(--outline-color, black)" fill-opacity="0.5"/>
  </symbol>
  <symbol id="sort-desc" viewBox="0 0 20 20">
    <path d="M0.672776 5.63522L0.309088 5.97718L0.995335 6.70674L1.35902 6.36478L0.672776 5.63522ZM6.2989 1.03271L6.64308 0.671121L6.2999 0.344367L5.95578 0.667925L6.2989 1.03271ZM11.1717 6.36159L11.5344 6.70692L12.2228 5.98375L11.8601 5.63842L11.1717 6.36159ZM1.0159 6C1.35902 6.36478 1.35904 6.36477 1.35906 6.36475C1.35908 6.36473 1.35912 6.36469 1.35917 6.36465C1.35927 6.36456 1.35942 6.36441 1.35961 6.36423C1.36 6.36386 1.36059 6.36331 1.36136 6.36258C1.36292 6.36112 1.36525 6.35893 1.36832 6.35604C1.37448 6.35025 1.38364 6.34163 1.39569 6.33031C1.41977 6.30766 1.45537 6.27419 1.50141 6.23091C1.59348 6.14434 1.72731 6.0185 1.89436 5.86144C2.22846 5.5473 2.69542 5.10825 3.22685 4.60858C4.2897 3.60924 5.61045 2.36741 6.64202 1.39749L5.95578 0.667925C4.92421 1.63785 3.60346 2.87968 2.5406 3.87902C2.00917 4.37869 1.54221 4.81774 1.20812 5.13187C1.04107 5.28894 0.907232 5.41478 0.815159 5.50135C0.769123 5.54463 0.733527 5.5781 0.70944 5.60075C0.697396 5.61208 0.688232 5.62069 0.682076 5.62648C0.678998 5.62937 0.676674 5.63156 0.675118 5.63302C0.67434 5.63375 0.673755 5.6343 0.673364 5.63467C0.673165 5.63486 0.673024 5.63499 0.672923 5.63509C0.672874 5.63513 0.672837 5.63517 0.672813 5.63519C0.672788 5.63521 0.672776 5.63522 1.0159 6ZM5.95472 1.39429C6.97341 2.36422 8.27764 3.60603 9.32723 4.60538C9.85207 5.1051 10.3131 5.54406 10.6431 5.85824C10.808 6.01523 10.9403 6.14122 11.0311 6.22771C11.0765 6.27097 11.1118 6.3045 11.1355 6.32711C11.1475 6.33855 11.1563 6.34695 11.1625 6.35284C11.1669 6.35698 11.1666 6.35668 11.1694 6.35939C11.1728 6.36264 11.1681 6.35815 11.1711 6.36104C11.1815 6.37092 11.1613 6.35166 11.1716 6.36145C11.1716 6.3615 11.1717 6.36153 11.1717 6.36155C11.1717 6.36158 11.1717 6.36159 11.5159 6C11.8601 5.63842 11.8601 5.63841 11.86 5.63838C11.86 5.63836 11.86 5.63833 11.8599 5.63828C11.8599 5.63824 11.8598 5.63818 11.8597 5.63811C11.8597 5.63804 11.8596 5.63796 11.8595 5.63787C11.8594 5.63778 11.8593 5.63767 11.8592 5.63756C11.859 5.63744 11.8589 5.63732 11.8588 5.63718C11.8585 5.6369 11.8581 5.63658 11.8578 5.63622C11.8575 5.63599 11.8526 5.63133 11.8509 5.62968C11.8449 5.624 11.8356 5.61516 11.8239 5.60395C11.8 5.58127 11.765 5.54786 11.7195 5.50454C11.6285 5.4179 11.4965 5.29221 11.3314 5.13507C11.0015 4.82099 10.5403 4.38184 10.0156 3.88221C8.96601 2.88288 7.66175 1.64104 6.64308 0.671121L5.95472 1.39429ZM5.7989 1.02972C5.78972 4.33739 5.78457 6.19187 5.77539 9.49955L6.77539 9.50552C6.78457 6.19785 6.78972 4.34337 6.7989 1.03569L5.7989 1.02972ZM5.77539 9.49955C5.76621 12.8072 5.76107 14.6617 5.75189 17.9694L6.75189 17.9754C6.76107 14.6677 6.76621 12.8132 6.77539 9.50552L5.77539 9.49955Z" fill="var(--outline-color, black)" fill-opacity="0.5"/>
    <path d="M11.1887 13.3371L10.825 12.9952L11.5112 12.2656L11.8749 12.6076L11.1887 13.3371ZM16.8148 17.9397L17.159 18.3012L16.8158 18.628L16.4717 18.3044L16.8148 17.9397ZM21.6876 12.6108L22.0503 12.2654L22.7387 12.9886L22.376 13.3339L21.6876 12.6108ZM11.5318 12.9724C11.8749 12.6076 11.8749 12.6076 11.875 12.6076C11.875 12.6076 11.875 12.6077 11.8751 12.6077C11.8752 12.6078 11.8753 12.608 11.8755 12.6081C11.8759 12.6085 11.8765 12.6091 11.8773 12.6098C11.8788 12.6112 11.8811 12.6134 11.8842 12.6163C11.8904 12.6221 11.8995 12.6307 11.9116 12.6421C11.9357 12.6647 11.9713 12.6982 12.0173 12.7415C12.1094 12.828 12.2432 12.9539 12.4103 13.1109C12.7444 13.4251 13.2113 13.8641 13.7427 14.3638C14.8056 15.3631 16.1264 16.605 17.1579 17.5749L16.4717 18.3044C15.4401 17.3345 14.1194 16.0927 13.0565 15.0933C12.5251 14.5937 12.0581 14.1546 11.724 13.8405C11.557 13.6834 11.4231 13.5576 11.3311 13.471C11.285 13.4277 11.2494 13.3943 11.2253 13.3716C11.2133 13.3603 11.2041 13.3517 11.198 13.3459C11.1949 13.343 11.1926 13.3408 11.191 13.3393C11.1902 13.3386 11.1897 13.3381 11.1893 13.3377C11.1891 13.3375 11.1889 13.3374 11.1888 13.3373C11.1888 13.3372 11.1887 13.3372 11.1887 13.3372C11.1887 13.3372 11.1887 13.3371 11.5318 12.9724ZM16.4706 17.5781C17.4893 16.6081 18.7935 15.3663 19.8431 14.367C20.368 13.8673 20.829 13.4283 21.159 13.1141C21.3239 12.9571 21.4562 12.8311 21.547 12.7447C21.5924 12.7014 21.6277 12.6679 21.6514 12.6452C21.6634 12.6338 21.6722 12.6254 21.6784 12.6195C21.6828 12.6154 21.6825 12.6157 21.6853 12.613C21.6887 12.6097 21.684 12.6142 21.687 12.6113C21.6974 12.6014 21.6772 12.6207 21.6875 12.6109C21.6875 12.6109 21.6876 12.6108 21.6876 12.6108C21.6876 12.6108 21.6876 12.6108 22.0318 12.9724C22.376 13.3339 22.376 13.334 22.3759 13.334C22.3759 13.334 22.3759 13.334 22.3758 13.3341C22.3758 13.3341 22.3757 13.3342 22.3756 13.3343C22.3756 13.3343 22.3755 13.3344 22.3754 13.3345C22.3753 13.3346 22.3752 13.3347 22.3751 13.3348C22.3749 13.3349 22.3748 13.335 22.3747 13.3352C22.3744 13.3355 22.374 13.3358 22.3737 13.3361C22.3734 13.3364 22.3685 13.341 22.3668 13.3427C22.3608 13.3484 22.3515 13.3572 22.3398 13.3684C22.3159 13.3911 22.2809 13.4245 22.2354 13.4678C22.1444 13.5545 22.0124 13.6802 21.8473 13.8373C21.5174 14.1514 21.0562 14.5905 20.5315 15.0902C19.4819 16.0895 18.1777 17.3313 17.159 18.3012L16.4706 17.5781ZM16.3148 17.9426C16.3056 14.635 16.3005 12.7805 16.2913 9.47282L17.2913 9.46684C17.3005 12.7745 17.3056 14.629 17.3148 17.9367L16.3148 17.9426ZM16.2913 9.47282C16.2821 6.16514 16.277 4.31066 16.2678 1.00298L17.2678 0.997011C17.277 4.30469 17.2821 6.15917 17.2913 9.46684L16.2913 9.47282Z" fill="var(--outline-color, black)"/>
  </symbol>  
  <symbol id="filter-o" viewBox="0 0 24 23">
    <path d="M3 2H21L13.8 10.5V17.5L10.2 21V10.5L3 2Z" stroke="var(--outline-color)"/>
  </symbol>
  <symbol id="tutorial-o" viewBox="0 0 64 39" fill="none" stroke-width="3">
    <path d="M50 19.5C41 10.5 22 10.5 14 19.5" stroke="var(--outline-color, black)"/>
    <path d="M14 28.5V19L4 14L31.5 2.5L61.5 14L50 19V28.5" stroke="var(--outline-color, black)"/>
    <path d="M7.5 12.5C2.5 13 2.61471 23.5854 4.93661 30.2927M4.93661 30.2927H6.10168M4.93661 30.2927L3.5 30.5M4.93661 30.2927C7.25852 31.5122 8 35.2805 8 36.5H2C3 35 2.61469 31.5122 4.93661 30.2927Z" stroke="var(--outline-color, black)"/>
    <path d="M50 28.5C41 21.1667 23 21.1667 14 28.5" stroke="var(--outline-color, black)"/>
    <path d="M50 28C41 35.3333 23 35.3333 14 28" stroke="var(--outline-color, black)"/>
  </symbol>
  <symbol id="task-o" viewBox="0 0 30 32" fill="none" stroke-width="1">
    <path d="M13 7.49999H26M4 7L7 9.5L11.5 4M13 16H26M4 16L7 18L11.5 12M13 24.5H26" stroke="var(--outline-color, black)"/>
    <circle cx="7.5" cy="24.5" r="2.5" fill="var(--outline-color, black)"/>
    <rect x="1.5" y="1.5" width="27" height="29" stroke="var(--outline-color, black)"/>
  </symbol>
  <symbol id="level-1" viewBox="0 0 26 35" fill="none" stroke-width="1">
    <path d="M23.7237 33H17.7237V2H23.7237V33Z" stroke="var(--outline-color, black)"/>
    <path d="M15.7763 33H9.77631V10H15.7763V33Z" stroke="var(--outline-color, black)"/>
    <path d="M7 33H7.5V32.5V17.5V17H7H3H2.5V17.5V32.5V33H3H7Z" fill="var(--fill, black)" stroke="var(--outline-color, black)"/>
  </symbol>
  <symbol id="level-2" viewBox="0 0 26 35" fill="none" stroke-width="1">
    <path d="M23.7237 33H17.7237V2H23.7237V33Z" stroke="var(--outline-color, black)"/>
    <path d="M16.2763 33.5H9.27631V9.5H16.2763V33.5Z" fill="var(--fill, black)" fill-rule="evenodd" clip-rule="evenodd"/>
    <path d="M7 33H7.5V32.5V17.5V17H7H3H2.5V17.5V32.5V33H3H7Z" fill="var(--fill, black)" stroke="var(--outline-color, black)"/>
  </symbol>
  <symbol id="level-3" viewBox="0 0 26 35" fill="none" stroke-width="1">
    <path d="M24.2237 33.5H17.2237V1.5H24.2237V33.5Z" fill="var(--outline-color, black)"/>
    <path d="M16.2763 33.5H9.27631V9.5H16.2763V33.5Z" fill="var(--fill, black)" fill-rule="evenodd" clip-rule="evenodd" />
    <path d="M7 33H7.5V32.5V17.5V17H7H3H2.5V17.5V32.5V33H3H7Z" fill="var(--fill, black)" stroke="var(--outline-color, black)" fill-rule="evenodd" clip-rule="evenodd" />
  </symbol>
</svg>