<?xml version="1.0" encoding="UTF-8"?>
<svg width="300px" height="300px" viewBox="0 0 300 300" version="1.1" xmlns="http://www.w3.org/2000/svg" xmlns:xlink="http://www.w3.org/1999/xlink">
    <!-- Generator: Sketch 51.1 (57501) - http://www.bohemiancoding.com/sketch -->
    <title>blog</title>
    <desc>Created with Sketch.</desc>
    <defs></defs>
    <g id="blog" stroke="none" stroke-width="1" fill="none" fill-rule="evenodd">
        <path d="M141.369276,13.4704393 C145.349284,11.5537686 151.798284,11.5519065 155.782159,13.4704393 L255.706124,61.5912847 C259.686131,63.5079553 263.708473,68.5488261 264.692409,72.8597302 L289.37159,180.986288 C290.354571,185.293008 288.921349,191.580733 286.164422,195.03781 L217.014893,281.748577 C214.260642,285.202298 208.451101,288.002093 204.029334,288.002093 L93.1221002,288.002093 C88.704625,288.002093 82.8934682,285.205654 80.1365416,281.748577 L10.9870122,195.03781 C8.23276141,191.584089 6.79590831,185.297192 7.77984404,180.986288 L32.4590253,72.8597302 C33.4420061,68.5530103 37.4614364,63.5098175 41.4453108,61.5912847 L141.369276,13.4704393 Z" id="Polygon-2" stroke="#0CA391" stroke-width="6"></path>
        <path d="M219.969531,219.999994 C218.390793,142.341493 155.658507,79.6092073 78.0000058,78.0304688 L78,103.709 C141.506312,105.277127 192.722873,156.493688 194.290999,219.999991 L219.969531,220 Z" id="Path" stroke="#0CA391" stroke-width="6"></path>
        <path d="M78,132.513243 L78,158.204899 C111.322133,159.738312 138.261688,186.677867 139.795101,220 L165.486757,220 C163.926273,172.526718 125.473282,134.073727 78.0000147,132.513244 Z" id="Path" stroke="#0CA391" stroke-width="6"></path>
        <path d="M92.76,187.184 C82.992,187.184 75,195.176 75,204.944 C75,214.712 82.992,222.704 92.76,222.704 C102.528,222.704 110.52,214.712 110.52,204.944 C110.816,195.176 102.824,187.184 92.76,187.184 Z" id="Path" stroke="#0CA391" stroke-width="5"></path>
    </g>
</svg>