<?xml version="1.0" encoding="UTF-8"?>
<svg width="300px" height="300px" viewBox="0 0 300 300" version="1.1" xmlns="http://www.w3.org/2000/svg" xmlns:xlink="http://www.w3.org/1999/xlink">
    <!-- Generator: Sketch 51.1 (57501) - http://www.bohemiancoding.com/sketch -->
    <title>clusters</title>
    <desc>Created with Sketch.</desc>
    <defs></defs>
    <g id="clusters" stroke="none" stroke-width="1" fill="none" fill-rule="evenodd">
        <path d="M79.6731953,42.4980819 C82.0628235,41.1184294 85.9418051,41.1211017 88.3268047,42.4980819 L134.232796,69.0019181 C136.622424,70.3815706 138.5596,73.7422034 138.5596,76.4961638 L138.5596,129.503836 C138.5596,132.263141 136.617795,135.621102 134.232796,136.998082 L88.3268047,163.501918 C85.9371765,164.881571 82.0581949,164.878898 79.6731953,163.501918 L33.7672043,136.998082 C31.377576,135.618429 29.4403996,132.257797 29.4403996,129.503836 L29.4403996,76.4961638 C29.4403996,73.7368587 31.3822046,70.3788983 33.7672043,69.0019181 L79.6731953,42.4980819 Z" id="Polygon-3" stroke="#0CA391" stroke-width="10"></path>
        <path d="M208.673195,38.4980819 C211.062824,37.1184294 214.941805,37.1211017 217.326805,38.4980819 L263.232796,65.0019181 C265.622424,66.3815706 267.5596,69.7422034 267.5596,72.4961638 L267.5596,125.503836 C267.5596,128.263141 265.617795,131.621102 263.232796,132.998082 L217.326805,159.501918 C214.937176,160.881571 211.058195,160.878898 208.673195,159.501918 L162.767204,132.998082 C160.377576,131.618429 158.4404,128.257797 158.4404,125.503836 L158.4404,72.4961638 C158.4404,69.7368587 160.382205,66.3788983 162.767204,65.0019181 L208.673195,38.4980819 Z" id="Polygon-3" stroke="#0CA391" stroke-width="10"></path>
        <path d="M145.673195,152.498082 C148.062824,151.118429 151.941805,151.121102 154.326805,152.498082 L200.232796,179.001918 C202.622424,180.381571 204.5596,183.742203 204.5596,186.496164 L204.5596,239.503836 C204.5596,242.263141 202.617795,245.621102 200.232796,246.998082 L154.326805,273.501918 C151.937176,274.881571 148.058195,274.878898 145.673195,273.501918 L99.7672043,246.998082 C97.377576,245.618429 95.4403996,242.257797 95.4403996,239.503836 L95.4403996,186.496164 C95.4403996,183.736859 97.3822046,180.378898 99.7672043,179.001918 L145.673195,152.498082 Z" id="Polygon-3" stroke="#0CA391" stroke-width="10"></path>
        <rect id="Rectangle-3" stroke="#0CA391" stroke-width="10" x="10" y="10" width="280" height="280" rx="9"></rect>
    </g>
</svg>