<?xml version="1.0" encoding="UTF-8"?>
<svg width="300px" height="300px" viewBox="0 0 300 300" version="1.1" xmlns="http://www.w3.org/2000/svg" xmlns:xlink="http://www.w3.org/1999/xlink">
    <!-- Generator: Sketch 51.1 (57501) - http://www.bohemiancoding.com/sketch -->
    <title>feedback</title>
    <desc>Created with Sketch.</desc>
    <defs></defs>
    <g id="feedback" stroke="none" stroke-width="1" fill="none" fill-rule="evenodd">
        <path d="M142.217841,12.4704393 C146.197849,10.5537686 152.64685,10.5519065 156.630724,12.4704393 L256.554689,60.5912847 C260.534697,62.5079553 264.557039,67.5488261 265.540975,71.8597302 L290.220156,179.986288 C291.203137,184.293008 289.769914,190.580733 287.012988,194.03781 L217.863458,280.748577 C215.109208,284.202298 209.299667,287.002093 204.8779,287.002093 L93.9706657,287.002093 C89.5531905,287.002093 83.7420337,284.205654 80.985107,280.748577 L11.8355777,194.03781 C9.08132689,190.584089 7.6444738,184.297192 8.62840952,179.986288 L33.3075908,71.8597302 C34.2905715,67.5530103 38.3100018,62.5098175 42.2938763,60.5912847 L142.217841,12.4704393 Z" id="Polygon-2" stroke="#0CA391" stroke-width="6"></path>
        <path d="M193.242862,203.723708 L147.179405,203.723708 C145.348165,203.723708 143.512011,203.575537 141.721024,203.278986 C139.859595,202.982435 138.058545,202.564634 136.15429,202.119704 C131.113876,200.947274 125.403685,199.61749 114.935079,199.61749 C111.003004,199.61749 107.806467,196.097696 107.806467,191.769221 L107.806467,137.248303 C107.806467,132.922124 111.003004,129.404417 114.935079,129.404417 C118.459016,129.404417 119.045948,128.48346 121.564985,123.593396 C122.756403,121.281927 124.237542,118.406781 126.602825,114.934151 C128.091453,112.748523 130.854577,109.981271 134.056262,106.775766 C138.222596,102.604436 143.391489,97.4270038 144.728703,94.1204923 L146.968081,82.1524403 C147.093986,78.794382 150.302926,76 154.086396,76 C158.421461,76 161.857171,77.6486645 164.597828,81.045122 C170.338443,88.1679787 170.948076,101.665741 166.419005,121.185511 L193.242862,121.185511 C204.792191,121.185511 214.187562,129.56177 214.187562,139.858619 L214.187562,185.044131 C214.184988,195.345362 204.792191,203.723708 193.242862,203.723708 Z M78.0807094,129.788618 C76.9346928,129.788618 76,130.621924 76,131.648479 L76,197.371341 C76,198.397896 76.9344587,199.231202 78.0807094,199.231202 L96.506607,199.231202 C97.6603464,199.231202 98.5973794,198.397896 98.5973794,197.371341 L98.5973794,131.648479 C98.5973794,130.621924 97.6603464,129.788618 96.506607,129.788618 L78.0807094,129.788618 Z" id="Shape" stroke="#0CA391" stroke-width="6" fill-rule="nonzero"></path>
    </g>
</svg>