<?xml version="1.0" encoding="UTF-8"?>
<svg width="300px" height="300px" viewBox="0 0 300 300" version="1.1" xmlns="http://www.w3.org/2000/svg" xmlns:xlink="http://www.w3.org/1999/xlink">
    <!-- Generator: Sketch 51.1 (57501) - http://www.bohemiancoding.com/sketch -->
    <title>support</title>
    <desc>Created with Sketch.</desc>
    <defs></defs>
    <g id="support" stroke="none" stroke-width="1" fill="none" fill-rule="evenodd">
        <g id="Download-(1)" transform="translate(18.000000, 11.000000)" fill-rule="nonzero">
            <g id="Group">
                <path d="M179.236568,38.9174 C164.620946,15.9991 132,0 94.1704865,0 C42.7426216,0 0.901540541,29.5523 0.901540541,65.8781 C0.901540541,85.5569 13.0081351,103.7663 34.2809459,116.3275 L16.0527568,161.3395 L74.3067568,130.1938 C81.0322432,131.2323 87.7038108,131.7593 94.1668919,131.7593 C102.110946,131.7593 109.824946,131.0494 117.193865,129.7226" id="Shape" stroke="#0CA391" stroke-width="6"></path>
                <path d="M204.628784,142.9596 L254.295297,161.7332 L233.967865,129.4653 C244.866676,120.8163 250.81573,109.7834 250.81573,98.0437 C250.81573,72.0192 220.994973,50.8462 184.344486,50.8462 C147.694,50.8462 117.873243,72.0192 117.873243,98.0437 C117.873243,124.0682 147.694,145.2443 184.344486,145.2443 C191.170622,145.2443 197.982378,144.4755 204.628784,142.9596 Z" id="Shape" stroke="#0CA391" stroke-width="6"></path>
                <ellipse id="Oval" fill="#0CA391" cx="152.485595" cy="99.6929" rx="7.42643243" ry="6.4046"></ellipse>
                <ellipse id="Oval" fill="#0CA391" cx="184.348081" cy="99.6929" rx="7.42643243" ry="6.4046"></ellipse>
                <ellipse id="Oval" fill="#0CA391" cx="216.206973" cy="99.6929" rx="7.42643243" ry="6.4046"></ellipse>
            </g>
            <g id="Person" transform="translate(174.000000, 176.000000)" stroke="#0CA391" stroke-width="6">
                <path d="M42.0092703,0.1885 C28.640973,0.1885 17.7026216,9.6218 17.7026216,21.1507 L17.7026216,31.5605 C17.7026216,43.0894 28.640973,52.5227 42.0092703,52.5227 L47.9655135,52.5227 C61.3338108,52.5227 72.2721622,43.0894 72.2721622,31.5605 L72.2721622,21.1507 C72.2721622,9.6218 61.3338108,0.1885 47.9655135,0.1885 L42.0092703,0.1885 Z" id="Shape"></path>
                <path d="M58.3862432,59.4977 L31.5921351,59.4977 C14.2194595,59.4977 0.00643243243,71.7551 0.00643243243,86.7374 L0.00643243243,103 L89.9683514,103 L89.9683514,86.7374 C89.9683514,71.7551 75.7553243,59.4977 58.3862432,59.4977 Z" id="Shape"></path>
            </g>
            <g id="Person" transform="translate(0.000000, 176.000000)" stroke="#0CA391" stroke-width="6">
                <path d="M42.0092703,0.1885 C28.640973,0.1885 17.7026216,9.6218 17.7026216,21.1507 L17.7026216,31.5605 C17.7026216,43.0894 28.640973,52.5227 42.0092703,52.5227 L47.9655135,52.5227 C61.3338108,52.5227 72.2721622,43.0894 72.2721622,31.5605 L72.2721622,21.1507 C72.2721622,9.6218 61.3338108,0.1885 47.9655135,0.1885 L42.0092703,0.1885 Z" id="Shape"></path>
                <path d="M58.3862432,59.4977 L31.5921351,59.4977 C14.2194595,59.4977 0.00643243243,71.7551 0.00643243243,86.7374 L0.00643243243,103 L89.9683514,103 L89.9683514,86.7374 C89.9683514,71.7551 75.7553243,59.4977 58.3862432,59.4977 Z" id="Shape"></path>
            </g>
        </g>
    </g>
</svg>