<?xml version="1.0" encoding="UTF-8"?>
<svg width="300px" height="300px" viewBox="0 0 300 300" version="1.1" xmlns="http://www.w3.org/2000/svg" xmlns:xlink="http://www.w3.org/1999/xlink">
    <!-- Generator: Sketch 51.1 (57501) - http://www.bohemiancoding.com/sketch -->
    <title>testimonial</title>
    <desc>Created with Sketch.</desc>
    <defs></defs>
    <g id="testimonial" stroke="none" stroke-width="1" fill="none" fill-rule="evenodd">
        <path d="M82.4803076,235.769772 C82.2363176,236.464596 82.0674083,237.07565 81.9683491,237.586962 C82.4361971,237.346634 82.9867619,237.007096 83.6092749,236.562883 C83.719699,236.486422 83.9379911,236.334361 84.2569442,236.110762 C84.7912721,235.736177 85.4118733,235.298163 86.1115376,234.800786 C88.1133915,233.37771 90.3451884,231.765835 92.7491867,229.997751 C99.6161793,224.947237 106.482259,219.66095 112.883208,214.402131 C116.08818,211.769026 119.098823,209.205034 121.880963,206.729919 C129.188108,200.229161 135.15864,193.744647 139.887427,187.587302 C141.532721,185.444967 142.903191,183.501119 144.010639,181.794812 C144.393319,181.205195 144.714698,180.68958 144.976252,180.252858 C145.126673,180.001696 145.220243,179.83918 145.258439,179.770205 L145.355302,179.60761 C147.104726,176.871203 150.774919,174.825485 154.00611,174.825485 L245.00347,174.825485 C247.765609,174.825485 250,172.589475 250,169.826453 L250,54.9990317 C250,52.2403434 247.758611,50 244.995244,50 L56.0047563,50 C53.2378183,50 51,52.2369966 51,54.9990317 L51,169.826453 C51,172.586175 53.236906,174.825485 55.9924363,174.825485 L82.3688461,174.825485 C85.4821051,174.825485 88.302676,177.211975 88.7928824,180.200079 C88.8531966,180.508198 88.9528453,181.071421 89.0784776,181.872547 C89.2845988,183.186932 89.4899228,184.704543 89.6810649,186.408216 C90.2249408,191.255846 90.5507812,196.63945 90.5507812,202.422144 C90.5507812,205.661358 90.1027347,209.36071 89.2763239,213.446943 C88.5772674,216.903466 87.6246521,220.551951 86.4817301,224.29692 C85.6030598,227.176026 84.6625572,229.948464 83.7215231,232.516173 C83.3915515,233.416535 83.0846669,234.228026 82.8085354,234.93824 C82.7112242,235.188526 82.6244948,235.408786 82.5493062,235.597463 C82.5209511,235.668616 82.4981866,235.725406 82.4803076,235.769772 Z" id="Rectangle-4" stroke="#0CA391" stroke-width="6"></path>
        <path d="M186.689189,101 L186.689189,96 C188.265774,95.1441399 189.448194,93.6013625 190.236486,91.3716216 C191.024779,89.1418807 191.418919,86.2027209 191.418919,82.5540541 L191.418919,81 L186.002956,81 C185.449039,81 185,80.5510798 185,79.992516 L185,67.007484 C185,66.4510659 185.44892,66 186.007484,66 L198.992516,66 C199.548934,66 200,66.4535807 200,66.9953644 L200,77.2162162 C200,84.018052 198.885146,89.4008811 196.655405,93.3648649 C194.425665,97.3288486 191.103626,99.8738682 186.689189,101 Z M211.689189,101 L211.689189,96 C213.265774,95.1441399 214.448194,93.6013625 215.236486,91.3716216 C216.024779,89.1418807 216.418919,86.2027209 216.418919,82.5540541 L216.418919,81 L211.002956,81 C210.449039,81 210,80.5510798 210,79.992516 L210,67.007484 C210,66.4510659 210.44892,66 211.007484,66 L223.992516,66 C224.548934,66 225,66.4535807 225,66.9953644 L225,77.2162162 C225,84.018052 223.885146,89.4008811 221.655405,93.3648649 C219.425665,97.3288486 216.103626,99.8738682 211.689189,101 Z" id="„" stroke="#0CA391" stroke-width="3" stroke-linecap="round" stroke-linejoin="round" transform="translate(205.000000, 83.500000) rotate(180.000000) translate(-205.000000, -83.500000) "></path>
        <path d="M82.6891892,150 L82.6891892,145 C84.2657736,144.14414 85.4481943,142.601363 86.2364865,140.371622 C87.0247787,138.141881 87.4189189,135.202721 87.4189189,131.554054 L87.4189189,130 L82.0029561,130 C81.4490387,130 81,129.55108 81,128.992516 L81,116.007484 C81,115.451066 81.4489202,115 82.007484,115 L94.992516,115 C95.5489341,115 96,115.453581 96,115.995364 L96,126.216216 C96,133.018052 94.8851463,138.400881 92.6554054,142.364865 C90.4256645,146.328849 87.1036257,148.873868 82.6891892,150 Z M107.689189,150 L107.689189,145 C109.265774,144.14414 110.448194,142.601363 111.236486,140.371622 C112.024779,138.141881 112.418919,135.202721 112.418919,131.554054 L112.418919,130 L107.002956,130 C106.449039,130 106,129.55108 106,128.992516 L106,116.007484 C106,115.451066 106.44892,115 107.007484,115 L119.992516,115 C120.548934,115 121,115.453581 121,115.995364 L121,126.216216 C121,133.018052 119.885146,138.400881 117.655405,142.364865 C115.425665,146.328849 112.103626,148.873868 107.689189,150 Z" id="„" stroke="#0CA391" stroke-width="3" stroke-linecap="round" stroke-linejoin="round"></path>
    </g>
</svg>