<svg width="100" height="98" viewBox="0 0 100 98" fill="none" xmlns="http://www.w3.org/2000/svg">
<path fill-rule="evenodd" clip-rule="evenodd" d="M48.6926 0.593598C49.3019 0.306041 50.0117 0.30604 50.621 0.593597L87.5031 17.9999C88.1124 18.2874 88.5549 18.8312 88.7054 19.4774L97.8145 58.5888C97.9651 59.235 97.807 59.913 97.3855 60.4312L71.8623 91.7963C71.4406 92.3143 70.8012 92.6162 70.1248 92.6162H29.1888C28.5125 92.6162 27.873 92.3143 27.4514 91.7963L1.9282 60.4312C1.50655 59.913 1.34861 59.235 1.4991 58.5888L10.6082 19.4774C10.7587 18.8312 11.2013 18.2874 11.8105 17.9999L48.6926 0.593598Z" fill="#009F76"/>
<mask id="mask0" mask-type="alpha" maskUnits="userSpaceOnUse" x="1" y="0" width="97" height="93">
<path fill-rule="evenodd" clip-rule="evenodd" d="M48.6926 0.593598C49.3019 0.306041 50.0117 0.30604 50.621 0.593597L87.5031 17.9999C88.1124 18.2874 88.5549 18.8312 88.7054 19.4774L97.8145 58.5888C97.9651 59.235 97.807 59.913 97.3855 60.4312L71.8623 91.7963C71.4406 92.3143 70.8012 92.6162 70.1248 92.6162H29.1888C28.5125 92.6162 27.873 92.3143 27.4514 91.7963L1.9282 60.4312C1.50655 59.913 1.34861 59.235 1.4991 58.5888L10.6082 19.4774C10.7587 18.8312 11.2013 18.2874 11.8105 17.9999L48.6926 0.593598Z" fill="white"/>
</mask>
<g mask="url(#mask0)">
<path opacity="0.289629" fill-rule="evenodd" clip-rule="evenodd" d="M-18.497 59.3684L35.3614 27.3079L71.6376 63.6995L28.5928 100.906L-18.497 59.3684Z" fill="#333333"/>
</g>
<path fill-rule="evenodd" clip-rule="evenodd" d="M62.9309 26.0461C63.0856 26.4257 63.1682 26.8357 63.1682 27.2566V42.3906C63.1682 43.4924 62.6014 44.52 61.6607 45.1236L50.4484 52.3177C49.3394 53.0292 47.9056 53.0292 46.7967 52.3177L35.5842 45.1236C34.8018 44.6215 34.278 43.8261 34.124 42.9384L62.9309 26.0461Z" fill="url(#paint0_linear)"/>
<path fill-rule="evenodd" clip-rule="evenodd" d="M63.0826 45.1203C62.826 45.5518 62.468 45.9265 62.0285 46.2085L50.8161 53.4026C49.7071 54.1142 48.2734 54.1142 47.1644 53.4026L35.952 46.2085C35.0114 45.605 34.4446 44.5774 34.4446 43.4755V28.3414C34.4446 27.9199 34.5276 27.5091 34.6827 27.1289L63.0826 45.1203Z" fill="url(#paint1_linear)"/>
<path fill-rule="evenodd" clip-rule="evenodd" d="M27.0039 37.6123C26.786 38.0507 26.6673 38.5384 26.6673 39.0428V61.4041C26.6673 62.5712 27.3026 63.6496 28.334 64.2331L48.0946 75.4138C49.1259 75.9973 50.3966 75.9973 51.4279 75.4138L71.1886 64.2331C71.8943 63.8339 72.4146 63.2028 72.6728 62.4703L27.0039 37.6123Z" fill="url(#paint2_linear)"/>
<path fill-rule="evenodd" clip-rule="evenodd" d="M27.2245 63.212C27.5044 63.625 27.8812 63.9769 28.3343 64.2333L48.095 75.4139C49.1263 75.9975 50.397 75.9975 51.4283 75.4139L71.189 64.2333C72.2203 63.6498 72.8557 62.5714 72.8557 61.4043V39.043C72.8557 38.6277 72.7752 38.2237 72.6251 37.8491L27.2245 63.212Z" fill="url(#paint3_linear)"/>
<mask id="mask1" mask-type="alpha" maskUnits="userSpaceOnUse" x="61" y="70" width="27" height="23">
<mask id="path-9-inside-1" mask-type="luminance" fill="white">
<path d="M72.8574 70.5945C75.3783 70.5945 76.5067 71.9252 76.5067 73.2444C76.5067 74.1696 76.1065 74.5921 75.8423 74.8709C75.7026 75.0188 75.6461 75.0846 75.6461 75.151C75.6461 75.2609 75.6461 75.3267 76.0283 75.3403L76.0572 75.3423H78.8952C80.4282 75.3423 81.5414 76.5381 81.5414 78.1856V80.6158L81.5428 80.632C81.5595 80.7019 81.7824 81.0193 82.1233 81.0193C82.2107 81.0193 82.3632 80.9065 82.5262 80.7859L82.5315 80.7819L82.5326 80.7811C82.9047 80.5057 83.4662 80.0901 84.438 80.0901C85.8791 80.0901 87.3331 81.1387 87.3331 83.4814C87.3331 85.6532 85.7321 86.7886 84.1514 86.7893C83.1656 86.7893 82.7161 86.4129 82.4193 86.1639C82.263 86.0337 82.1928 85.9801 82.1233 85.9801C81.7831 85.9801 81.5602 86.2962 81.5414 86.3789V89.5328C81.5414 91.1613 80.4528 92.2988 78.8952 92.2988L76.0428 92.2981C75.3458 92.2717 74.9223 91.9095 74.9223 91.3519C74.9223 91.0217 75.1234 90.8095 75.3007 90.6223L75.3009 90.6221L75.302 90.621C75.5383 90.371 75.7829 90.1124 75.7829 89.446C75.7829 88.2482 74.622 87.4743 72.8255 87.4743C71.0298 87.4743 69.8688 88.2482 69.8688 89.446C69.8688 90.1134 70.1135 90.3719 70.3509 90.6221C70.5282 90.8093 70.7287 91.0216 70.7287 91.3519C70.7287 91.902 70.2952 92.273 69.6235 92.2988H65.1874C63.5198 92.2988 62.0005 90.9185 61.9998 89.4026V86.6204C62.0273 85.9666 62.4138 85.5684 63.0073 85.5684C63.3518 85.5684 63.6076 85.7669 63.8554 85.9591L63.8571 85.9605L63.8589 85.9618C64.1899 86.2179 64.5648 86.5078 65.28 86.5078C66.4678 86.5078 67.7909 85.2646 67.7909 83.4814C67.7909 81.7193 66.4851 80.7684 65.2576 80.7684C64.5355 80.7684 64.1671 81.033 63.8419 81.2666L63.8397 81.2683L63.8391 81.2687C63.5961 81.4442 63.3458 81.625 63.0081 81.625C62.4138 81.625 62.028 81.2269 62.0005 80.5866V78.0553C62.0005 76.61 63.4901 75.3423 65.1874 75.3423H69.601C70.0049 75.3274 70.0049 75.2609 70.0049 75.151C70.0049 75.0846 69.9485 75.0181 69.8088 74.8709L69.8081 74.8702C69.544 74.5908 69.1451 74.1689 69.1451 73.2444C69.1451 71.6594 70.6375 70.5945 72.8574 70.5945Z"/>
</mask>
<path d="M72.8574 70.5945C75.3783 70.5945 76.5067 71.9252 76.5067 73.2444C76.5067 74.1696 76.1065 74.5921 75.8423 74.8709C75.7026 75.0188 75.6461 75.0846 75.6461 75.151C75.6461 75.2609 75.6461 75.3267 76.0283 75.3403L76.0572 75.3423H78.8952C80.4282 75.3423 81.5414 76.5381 81.5414 78.1856V80.6158L81.5428 80.632C81.5595 80.7019 81.7824 81.0193 82.1233 81.0193C82.2107 81.0193 82.3632 80.9065 82.5262 80.7859L82.5315 80.7819L82.5326 80.7811C82.9047 80.5057 83.4662 80.0901 84.438 80.0901C85.8791 80.0901 87.3331 81.1387 87.3331 83.4814C87.3331 85.6532 85.7321 86.7886 84.1514 86.7893C83.1656 86.7893 82.7161 86.4129 82.4193 86.1639C82.263 86.0337 82.1928 85.9801 82.1233 85.9801C81.7831 85.9801 81.5602 86.2962 81.5414 86.3789V89.5328C81.5414 91.1613 80.4528 92.2988 78.8952 92.2988L76.0428 92.2981C75.3458 92.2717 74.9223 91.9095 74.9223 91.3519C74.9223 91.0217 75.1234 90.8095 75.3007 90.6223L75.3009 90.6221L75.302 90.621C75.5383 90.371 75.7829 90.1124 75.7829 89.446C75.7829 88.2482 74.622 87.4743 72.8255 87.4743C71.0298 87.4743 69.8688 88.2482 69.8688 89.446C69.8688 90.1134 70.1135 90.3719 70.3509 90.6221C70.5282 90.8093 70.7287 91.0216 70.7287 91.3519C70.7287 91.902 70.2952 92.273 69.6235 92.2988H65.1874C63.5198 92.2988 62.0005 90.9185 61.9998 89.4026V86.6204C62.0273 85.9666 62.4138 85.5684 63.0073 85.5684C63.3518 85.5684 63.6076 85.7669 63.8554 85.9591L63.8571 85.9605L63.8589 85.9618C64.1899 86.2179 64.5648 86.5078 65.28 86.5078C66.4678 86.5078 67.7909 85.2646 67.7909 83.4814C67.7909 81.7193 66.4851 80.7684 65.2576 80.7684C64.5355 80.7684 64.1671 81.033 63.8419 81.2666L63.8397 81.2683L63.8391 81.2687C63.5961 81.4442 63.3458 81.625 63.0081 81.625C62.4138 81.625 62.028 81.2269 62.0005 80.5866V78.0553C62.0005 76.61 63.4901 75.3423 65.1874 75.3423H69.601C70.0049 75.3274 70.0049 75.2609 70.0049 75.151C70.0049 75.0846 69.9485 75.0181 69.8088 74.8709L69.8081 74.8702C69.544 74.5908 69.1451 74.1689 69.1451 73.2444C69.1451 71.6594 70.6375 70.5945 72.8574 70.5945Z" fill="white"/>
<path d="M69.8081 74.8702L70.5348 74.1833L70.5348 74.1833L69.8081 74.8702ZM69.8088 74.8709L69.0821 75.5579L69.0834 75.5593L69.8088 74.8709ZM69.601 75.3423V76.3423H69.6195L69.638 76.3416L69.601 75.3423ZM62.0005 80.5866H61.0005V80.6081L61.0015 80.6295L62.0005 80.5866ZM63.8391 81.2687L64.4247 82.0793L64.4256 82.0786L63.8391 81.2687ZM63.8397 81.2683L63.2563 80.4561L63.2532 80.4583L63.8397 81.2683ZM63.8419 81.2666L64.4253 82.0788L64.4254 82.0788L63.8419 81.2666ZM63.8589 85.9618L64.4706 85.1708L64.4706 85.1708L63.8589 85.9618ZM63.8571 85.9605L63.2438 86.7503L63.2453 86.7515L63.8571 85.9605ZM63.8554 85.9591L64.4687 85.1693L64.4684 85.1691L63.8554 85.9591ZM61.9998 86.6204L61.0007 86.5784L60.9998 86.5994V86.6204H61.9998ZM61.9998 89.4026L60.9998 89.4026L60.9998 89.4031L61.9998 89.4026ZM69.6235 92.2988V93.2988H69.6427L69.6618 93.2981L69.6235 92.2988ZM70.3509 90.6221L71.0769 89.9344L71.0764 89.9339L70.3509 90.6221ZM75.302 90.621L74.5754 89.9339L74.5748 89.9345L75.302 90.621ZM75.3009 90.6221L76.0233 91.3136L76.0281 91.3085L75.3009 90.6221ZM75.3007 90.6223L74.5783 89.9309L74.5747 89.9346L75.3007 90.6223ZM76.0428 92.2981L76.0048 93.2974L76.0237 93.2981L76.0425 93.2981L76.0428 92.2981ZM78.8952 92.2988L78.895 93.2988H78.8952V92.2988ZM81.5414 86.3789L80.5663 86.1572L80.5414 86.2667V86.3789H81.5414ZM82.4193 86.1639L83.062 85.3978L83.0594 85.3956L82.4193 86.1639ZM84.1514 86.7893L84.1514 87.7893L84.1518 87.7893L84.1514 86.7893ZM82.5326 80.7811L81.9377 79.9774L81.9373 79.9776L82.5326 80.7811ZM82.5315 80.7819L83.1262 81.5859L83.1268 81.5854L82.5315 80.7819ZM82.5262 80.7859L81.9315 79.9819L81.9315 79.982L82.5262 80.7859ZM81.5428 80.632L80.5468 80.7206L80.5532 80.7931L80.5701 80.8639L81.5428 80.632ZM81.5414 80.6158H80.5414V80.6601L80.5453 80.7043L81.5414 80.6158ZM76.0572 75.3423L75.9871 76.3398L76.0221 76.3423H76.0572V75.3423ZM76.0283 75.3403L76.0984 74.3427L76.0811 74.3415L76.0638 74.3409L76.0283 75.3403ZM75.8423 74.8709L75.1164 74.183L75.1154 74.1842L75.8423 74.8709ZM77.5067 73.2444C77.5067 72.2887 77.0933 71.3445 76.2675 70.6565C75.4481 69.9737 74.2897 69.5945 72.8574 69.5945V71.5945C73.946 71.5945 74.6123 71.8806 74.9873 72.193C75.356 72.5002 75.5067 72.881 75.5067 73.2444H77.5067ZM72.8574 69.5945C71.6002 69.5945 70.4517 69.8945 69.5878 70.5111C68.6997 71.145 68.1451 72.0987 68.1451 73.2444H70.1451C70.1451 72.805 70.3366 72.4338 70.7497 72.139C71.187 71.8269 71.8947 71.5945 72.8574 71.5945V69.5945ZM68.1451 73.2444C68.1451 73.8602 68.2803 74.3555 68.4898 74.7596C68.6933 75.152 68.9479 75.4159 69.0815 75.5572L70.5348 74.1833C70.4042 74.0451 70.3273 73.9584 70.2653 73.8388C70.2093 73.7309 70.1451 73.5531 70.1451 73.2444H68.1451ZM69.0815 75.5572L69.0821 75.5579L70.5355 74.1839L70.5348 74.1833L69.0815 75.5572ZM69.0834 75.5593C69.1171 75.5948 69.1379 75.6172 69.152 75.6329C69.1669 75.6497 69.1629 75.6464 69.1511 75.6302C69.1333 75.6058 69.0049 75.429 69.0049 75.151H71.0049C71.0049 74.8066 70.8484 74.5634 70.7674 74.4522C70.6908 74.3471 70.5947 74.2464 70.5341 74.1825L69.0834 75.5593ZM69.0049 75.151C69.0049 75.2156 68.9973 75.0886 69.0377 74.9485C69.0632 74.8598 69.1077 74.7578 69.1819 74.6582C69.2557 74.5592 69.3398 74.4882 69.4165 74.4393C69.4897 74.3926 69.5531 74.3678 69.5909 74.3552C69.6289 74.3426 69.6547 74.3379 69.6603 74.3369C69.6683 74.3355 69.6441 74.34 69.5641 74.343L69.638 76.3416C69.7599 76.3371 69.8872 76.3278 70.0087 76.3063C70.1185 76.2869 70.3057 76.2444 70.4924 76.1252C70.724 75.9775 70.8863 75.7565 70.9596 75.5019C70.9898 75.397 70.9987 75.3075 71.0021 75.2539C71.0053 75.2039 71.0049 75.1578 71.0049 75.151H69.0049ZM69.601 74.3423H65.1874V76.3423H69.601V74.3423ZM65.1874 74.3423C63.0949 74.3423 61.0005 75.9127 61.0005 78.0553H63.0005C63.0005 77.3072 63.8853 76.3423 65.1874 76.3423V74.3423ZM61.0005 78.0553V80.5866H63.0005V78.0553H61.0005ZM61.0015 80.6295C61.0234 81.1391 61.1941 81.6505 61.5739 82.0421C61.961 82.4412 62.4779 82.625 63.0081 82.625V80.625C62.9715 80.625 62.9619 80.6191 62.9703 80.6224C62.9801 80.6262 62.9957 80.6354 63.0096 80.6497C63.0229 80.6634 63.0233 80.6701 63.0185 80.6579C63.0133 80.6445 63.0024 80.6087 62.9996 80.5437L61.0015 80.6295ZM63.0081 82.625C63.7155 82.625 64.2175 82.2289 64.4247 82.0793L63.2535 80.458C63.19 80.5039 63.1454 80.536 63.1024 80.5645C63.0612 80.5917 63.0335 80.6075 63.0142 80.6171C62.9822 80.633 62.9876 80.625 63.0081 80.625V82.625ZM64.4256 82.0786L64.4262 82.0782L63.2532 80.4583L63.2526 80.4588L64.4256 82.0786ZM64.4231 82.0804L64.4253 82.0788L63.2585 80.4545L63.2563 80.4561L64.4231 82.0804ZM64.4254 82.0788C64.5932 81.9582 64.6849 81.8961 64.7941 81.8494C64.889 81.8088 65.0274 81.7684 65.2576 81.7684V79.7684C64.2152 79.7684 63.6333 80.1852 63.2585 80.4545L64.4254 82.0788ZM65.2576 81.7684C65.9773 81.7684 66.7909 82.315 66.7909 83.4814H68.7909C68.7909 81.1236 66.9929 79.7684 65.2576 79.7684V81.7684ZM66.7909 83.4814C66.7909 84.8162 65.817 85.5078 65.28 85.5078V87.5078C67.1186 87.5078 68.7909 85.7129 68.7909 83.4814H66.7909ZM65.28 85.5078C65.0682 85.5078 64.9396 85.4672 64.8473 85.4242C64.7377 85.3732 64.643 85.3041 64.4706 85.1708L63.2471 86.7529C63.6164 87.0385 64.217 87.5078 65.28 87.5078V85.5078ZM64.4706 85.1708L64.4688 85.1694L63.2453 86.7515L63.2471 86.7529L64.4706 85.1708ZM64.4703 85.1706L64.4687 85.1693L63.2421 86.749L63.2438 86.7503L64.4703 85.1706ZM64.4684 85.1691C64.2648 85.0111 63.746 84.5684 63.0073 84.5684V86.5684C62.9755 86.5684 62.9639 86.5564 62.9967 86.5739C63.0163 86.5843 63.0449 86.6018 63.0874 86.6321C63.1317 86.6635 63.1777 86.699 63.2424 86.7492L64.4684 85.1691ZM63.0073 84.5684C62.4769 84.5684 61.9582 84.7528 61.5704 85.1562C61.1906 85.5513 61.0222 86.0662 61.0007 86.5784L62.9989 86.6624C63.0019 86.5922 63.0135 86.5528 63.0196 86.537C63.0251 86.5224 63.0255 86.5284 63.0122 86.5422C62.9983 86.5568 62.9821 86.5664 62.9714 86.5707C62.9621 86.5743 62.9711 86.5684 63.0073 86.5684V84.5684ZM60.9998 86.6204V89.4026H62.9998V86.6204H60.9998ZM60.9998 89.4031C61.0003 90.499 61.5449 91.4768 62.2961 92.1593C63.0501 92.8444 64.0811 93.2988 65.1874 93.2988V91.2988C64.626 91.2988 64.0637 91.0631 63.641 90.679C63.2155 90.2924 63 89.8222 62.9998 89.4021L60.9998 89.4031ZM65.1874 93.2988H69.6235V91.2988H65.1874V93.2988ZM69.6618 93.2981C70.1656 93.2787 70.6759 93.1262 71.0785 92.7815C71.4979 92.4223 71.7287 91.912 71.7287 91.3519H69.7287C69.7287 91.356 69.7284 91.3402 69.7401 91.3146C69.7518 91.2888 69.7675 91.271 69.7775 91.2625C69.7953 91.2472 69.753 91.2931 69.5851 91.2995L69.6618 93.2981ZM71.7287 91.3519C71.7287 90.5738 71.2255 90.0914 71.0769 89.9344L69.6249 91.3098C69.6717 91.3592 69.6994 91.3888 69.7232 91.4168C69.7453 91.4428 69.7529 91.4547 69.7541 91.4565C69.7544 91.457 69.7469 91.4449 69.7398 91.4221C69.7323 91.398 69.7287 91.373 69.7287 91.3519H71.7287ZM71.0764 89.9339C70.9512 89.802 70.9293 89.7711 70.9129 89.7386C70.9046 89.7221 70.8688 89.6504 70.8688 89.446H68.8688C68.8688 89.9091 68.9554 90.3002 69.1288 90.6424C69.294 90.9686 69.5131 91.192 69.6254 91.3103L71.0764 89.9339ZM70.8688 89.446C70.8688 89.2187 70.9595 89.0224 71.2286 88.843C71.5291 88.6426 72.0551 88.4743 72.8255 88.4743V86.4743C71.8002 86.4743 70.8479 86.693 70.119 87.179C69.3587 87.686 68.8688 88.4755 68.8688 89.446H70.8688ZM72.8255 88.4743C73.5963 88.4743 74.1226 88.6426 74.4232 88.8431C74.6923 89.0225 74.7829 89.2187 74.7829 89.446H76.7829C76.7829 88.4755 76.2931 87.686 75.5326 87.179C74.8036 86.693 73.8512 86.4743 72.8255 86.4743V88.4743ZM74.7829 89.446C74.7829 89.6496 74.7473 89.7214 74.7388 89.7381C74.7223 89.7709 74.7003 89.8019 74.5754 89.9339L76.0286 91.3081C76.14 91.1902 76.3585 90.9669 76.5233 90.6412C76.6962 90.2996 76.7829 89.9088 76.7829 89.446H74.7829ZM74.5748 89.9345L74.5737 89.9357L76.0281 91.3085L76.0292 91.3074L74.5748 89.9345ZM74.5785 89.9307L74.5783 89.9309L76.0231 91.3138L76.0233 91.3136L74.5785 89.9307ZM74.5747 89.9346C74.4274 90.0901 73.9223 90.5731 73.9223 91.3519H75.9223C75.9223 91.3734 75.9187 91.3986 75.9111 91.4229C75.9039 91.4459 75.8964 91.458 75.8968 91.4575C75.8979 91.4556 75.9057 91.4436 75.9279 91.4174C75.9519 91.3893 75.9797 91.3597 76.0267 91.31L74.5747 89.9346ZM73.9223 91.3519C73.9223 91.9064 74.1439 92.4221 74.5746 92.7871C74.9841 93.1341 75.5012 93.2783 76.0048 93.2974L76.0807 91.2988C75.8873 91.2915 75.8442 91.2414 75.8677 91.2613C75.8812 91.2727 75.8992 91.2939 75.9118 91.322C75.924 91.3492 75.9223 91.3631 75.9223 91.3519H73.9223ZM76.0425 93.2981L78.895 93.2988L78.8955 91.2988L76.043 91.2981L76.0425 93.2981ZM78.8952 93.2988C79.927 93.2988 80.8561 92.9168 81.5249 92.2178C82.1907 91.5221 82.5414 90.5729 82.5414 89.5328H80.5414C80.5414 90.1213 80.3478 90.5551 80.0799 90.8352C79.815 91.112 79.421 91.2988 78.8952 91.2988V93.2988ZM82.5414 89.5328V86.3789H80.5414V89.5328H82.5414ZM82.5165 86.6007C82.492 86.7084 82.4551 86.7799 82.4462 86.7972C82.4313 86.8261 82.4188 86.845 82.4119 86.8548C82.3983 86.8742 82.3871 86.8862 82.3759 86.8962C82.3601 86.9102 82.2744 86.9801 82.1233 86.9801V84.9801C81.632 84.9801 81.2648 85.2081 81.0478 85.4008C80.936 85.5001 80.8442 85.6067 80.7729 85.7086C80.724 85.7786 80.615 85.943 80.5663 86.1572L82.5165 86.6007ZM82.1233 86.9801C81.8775 86.9801 81.7174 86.8769 81.6948 86.8623C81.6811 86.8534 81.6796 86.8513 81.6985 86.8661C81.7164 86.8802 81.7409 86.9003 81.7793 86.9323L83.0594 85.3956C82.9921 85.3396 82.8881 85.2524 82.7827 85.1841C82.6686 85.1101 82.4386 84.9801 82.1233 84.9801V86.9801ZM81.7767 86.9301C81.9297 87.0584 82.2046 87.2927 82.6096 87.4787C83.0218 87.668 83.5241 87.7893 84.1514 87.7893V85.7893C83.7928 85.7893 83.5775 85.7224 83.4443 85.6612C83.3039 85.5967 83.2058 85.5184 83.062 85.3978L81.7767 86.9301ZM84.1518 87.7893C86.2136 87.7884 88.3331 86.2738 88.3331 83.4814H86.3331C86.3331 85.0326 85.2506 85.7888 84.1509 85.7893L84.1518 87.7893ZM88.3331 83.4814C88.3331 82.0963 87.898 80.981 87.1403 80.2075C86.3897 79.4412 85.3991 79.0901 84.438 79.0901V81.0901C84.9179 81.0901 85.3749 81.2633 85.7116 81.607C86.0412 81.9435 86.3331 82.5238 86.3331 83.4814H88.3331ZM84.438 79.0901C83.1301 79.0901 82.3476 79.6739 81.9377 79.9774L83.1276 81.5849C83.4617 81.3376 83.8023 81.0901 84.438 81.0901V79.0901ZM81.9373 79.9776L81.9362 79.9784L83.1268 81.5854L83.1279 81.5846L81.9373 79.9776ZM81.9368 79.978L81.9315 79.9819L83.1209 81.5898L83.1262 81.5859L81.9368 79.978ZM81.9315 79.982C81.8893 80.0132 81.8562 80.0376 81.8259 80.0593C81.7954 80.081 81.7771 80.0931 81.7673 80.0993C81.7547 80.1071 81.7705 80.096 81.8068 80.0804C81.8264 80.0721 81.8613 80.0583 81.9088 80.0461C81.9551 80.0341 82.0293 80.0193 82.1233 80.0193V82.0193C82.3409 82.0193 82.5115 81.9543 82.5936 81.9192C82.6882 81.8787 82.7687 81.8318 82.8255 81.7964C82.9357 81.7277 83.0493 81.6428 83.121 81.5898L81.9315 79.982ZM82.1233 80.0193C82.274 80.0193 82.3581 80.0889 82.3709 80.1001C82.3809 80.1089 82.3909 80.1194 82.4035 80.1368C82.4098 80.1456 82.422 80.1634 82.4371 80.1911C82.4447 80.205 82.4559 80.2268 82.4681 80.2553C82.4786 80.2801 82.4991 80.3311 82.5156 80.4002L80.5701 80.8639C80.6224 81.0834 80.7405 81.25 80.7817 81.3072C80.8514 81.4038 80.9416 81.5068 81.0521 81.6037C81.2657 81.7911 81.6317 82.0193 82.1233 82.0193V80.0193ZM82.5389 80.5435L82.5375 80.5272L80.5453 80.7043L80.5468 80.7206L82.5389 80.5435ZM82.5414 80.6158V78.1856H80.5414V80.6158H82.5414ZM82.5414 78.1856C82.5414 76.0546 81.0469 74.3423 78.8952 74.3423V76.3423C79.8095 76.3423 80.5414 77.0216 80.5414 78.1856H82.5414ZM78.8952 74.3423H76.0572V76.3423H78.8952V74.3423ZM76.1273 74.3448L76.0984 74.3427L75.9582 76.3378L75.9871 76.3398L76.1273 74.3448ZM76.0638 74.3409C75.9902 74.3383 75.9726 74.3341 75.9866 74.3366C75.9895 74.3371 76.1081 74.356 76.249 74.45C76.3277 74.5025 76.4106 74.5766 76.4816 74.6766C76.5525 74.7764 76.5936 74.8767 76.6167 74.9612C76.6531 75.0943 76.6461 75.2143 76.6461 75.151H74.6461C74.6461 75.1581 74.6458 75.2025 74.6487 75.2505C74.6518 75.3018 74.6599 75.3878 74.6875 75.4889C74.7544 75.7333 74.9061 75.9583 75.1388 76.1136C75.3274 76.2394 75.5177 76.2841 75.6281 76.3042C75.7496 76.3264 75.8753 76.3355 75.9928 76.3396L76.0638 74.3409ZM76.6461 75.151C76.6461 75.4299 76.5169 75.6073 76.4994 75.6312C76.4879 75.647 76.484 75.6501 76.4995 75.6328C76.5139 75.6165 76.5351 75.5938 76.5692 75.5577L75.1154 74.1842C75.0558 74.2472 74.9601 74.3478 74.8842 74.4517C74.8036 74.5622 74.6461 74.8057 74.6461 75.151H76.6461ZM76.5681 75.5588C76.7019 75.4176 76.9569 75.1538 77.1609 74.7611C77.371 74.3569 77.5067 73.861 77.5067 73.2444H75.5067C75.5067 73.5531 75.4423 73.731 75.3862 73.839C75.324 73.9586 75.2468 74.0454 75.1164 74.183L76.5681 75.5588Z" fill="#009F76" mask="url(#path-9-inside-1)"/>
</mask>
<g mask="url(#mask1)">
<path fill-rule="evenodd" clip-rule="evenodd" d="M61.9998 70.5945V93.1658H88.9998V70.5945H61.9998Z" fill="url(#paint4_linear)"/>
</g>
<defs>
<linearGradient id="paint0_linear" x1="74.4607" y1="31.1645" x2="54.7625" y2="60.3535" gradientUnits="userSpaceOnUse">
<stop stop-color="white"/>
<stop offset="1" stop-color="#439246"/>
</linearGradient>
<linearGradient id="paint1_linear" x1="73.1886" y1="41.6892" x2="47.6124" y2="88.8829" gradientUnits="userSpaceOnUse">
<stop stop-color="white"/>
<stop offset="1" stop-color="#439246"/>
</linearGradient>
<linearGradient id="paint2_linear" x1="15.4784" y1="46.2097" x2="37.9126" y2="83.4265" gradientUnits="userSpaceOnUse">
<stop stop-color="white"/>
<stop offset="1" stop-color="#439246"/>
</linearGradient>
<linearGradient id="paint3_linear" x1="23.3721" y1="63.1504" x2="51.1746" y2="117.776" gradientUnits="userSpaceOnUse">
<stop stop-color="white"/>
<stop offset="1" stop-color="#439246"/>
</linearGradient>
<linearGradient id="paint4_linear" x1="44.1474" y1="80.9023" x2="71.9499" y2="135.527" gradientUnits="userSpaceOnUse">
<stop stop-color="white"/>
<stop offset="1" stop-color="#439246"/>
</linearGradient>
</defs>
</svg>
