<svg width="32" height="32" viewBox="0 0 32 32" fill="none" xmlns="http://www.w3.org/2000/svg">
<path d="M18.6 18H18.2933C18.0533 18.1466 17.9467 18.4266 18.0533 18.6666L19.2 21.48C20.3067 20.7733 21.1467 19.72 21.5867 18.48L18.6133 18H18.6V18ZM14 18.3866C13.9657 18.2778 13.8986 18.1823 13.8079 18.113C13.7172 18.0438 13.6073 18.0043 13.4933 18H13.3867L10.4267 18.4933C10.8667 19.72 11.7067 20.76 12.8133 21.4667L13.9467 18.7066V18.6666C14 18.6 14 18.48 14 18.3866V18.3866ZM16.44 19.4667C16.3758 19.3505 16.2684 19.2644 16.1411 19.2269C16.0138 19.1895 15.8768 19.2038 15.76 19.2666C15.6667 19.3333 15.6 19.3733 15.56 19.4667H15.5467L14.0933 22.0933C15.1333 22.44 16.2533 22.5067 17.3333 22.2533C17.52 22.2133 17.72 22.16 17.9067 22.0933L16.4533 19.4667H16.44ZM21.04 13.3733L18.8 15.3333L18.8133 15.3733C18.7625 15.4156 18.7207 15.4677 18.6904 15.5264C18.6601 15.5852 18.642 15.6494 18.637 15.7154C18.632 15.7813 18.6403 15.8475 18.6615 15.9102C18.6826 15.9728 18.7161 16.0305 18.76 16.08C18.8267 16.16 18.9067 16.2133 19 16.24L19.0133 16.2533L21.9067 17.08C22 15.7866 21.72 14.48 21.04 13.3733V13.3733ZM16.8933 13.5866C16.9067 13.8666 17.1333 14.08 17.4133 14.0666C17.52 14.0666 17.6133 14.04 17.6933 14H17.7067L20.1467 12.2533C19.2169 11.341 18.0127 10.76 16.72 10.6L16.8933 13.5866V13.5866ZM14.3067 14C14.5333 14.1466 14.84 14.1066 15 13.88C15.0667 13.8 15.0933 13.7066 15.1067 13.6H15.12L15.28 10.6C15.08 10.6266 14.88 10.6666 14.6667 10.7066C13.6 10.9466 12.6133 11.48 11.84 12.2533L14.2933 14H14.3067V14ZM12.9867 16.2533C13.2533 16.1866 13.4133 15.9066 13.3333 15.64C13.3333 15.5333 13.2667 15.4533 13.1867 15.3866V15.3733L10.9467 13.3333C10.2533 14.48 9.95999 15.7866 10.1067 17.0933L12.9867 16.2666V16.2533V16.2533ZM15.1733 17.1333L16 17.5333L16.8267 17.1333L17.0267 16.24L16.4533 15.5333H15.5333L14.96 16.24L15.1733 17.1333ZM29.6933 18.8933L27.3333 8.66665C27.2133 8.10665 26.84 7.65332 26.3467 7.41332L16.7867 2.83998C16.2933 2.61332 15.7067 2.61332 15.2 2.83998L5.65332 7.41332C5.15999 7.65332 4.78665 8.10665 4.66665 8.66665L2.30665 18.8933C2.23999 19.16 2.23999 19.4266 2.30665 19.68C2.31999 19.76 2.34665 19.84 2.37332 19.92C2.41332 20.04 2.47999 20.1733 2.54665 20.28C2.58665 20.3333 2.61332 20.3866 2.66665 20.4266L9.26665 28.6666C9.29332 28.6666 9.33332 28.72 9.33332 28.7466C9.46665 28.8666 9.58665 28.96 9.70665 29.04C9.86665 29.1467 10.0533 29.2267 10.24 29.2667C10.3867 29.3333 10.5467 29.3333 10.6667 29.3333H21.4933C21.5867 29.3333 21.68 29.2933 21.76 29.2667C21.8267 29.2533 21.8933 29.2266 21.9467 29.2133C22 29.1866 22.04 29.1733 22.0933 29.1467C22.16 29.12 22.2267 29.08 22.2933 29.04C22.4533 28.9333 22.6 28.8 22.7333 28.6666L22.9333 28.4L29.3333 20.4266C29.4667 20.2666 29.56 20.0933 29.6267 19.92C29.6533 19.84 29.68 19.76 29.6933 19.68C29.76 19.4266 29.76 19.1466 29.6933 18.8933V18.8933ZM19.7867 22.88C19.8133 22.96 19.84 23.04 19.88 23.1066C19.8267 23.2133 19.8 23.3333 19.84 23.4533C20 23.7733 20.1467 24.0667 20.3467 24.36C20.4533 24.5067 20.56 24.6666 20.6667 24.8133C20.6667 24.8533 20.7067 24.92 20.72 24.9733C20.88 25.24 20.8 25.5866 20.52 25.76C20.24 25.9333 19.8933 25.8266 19.7333 25.56C19.72 25.52 19.7067 25.4933 19.6933 25.4533C19.6667 25.4133 19.64 25.3333 19.6133 25.3333C19.5467 25.1333 19.4933 24.96 19.4533 24.7866C19.3333 24.4533 19.2267 24.1333 19.0533 23.8267C18.9844 23.7339 18.8854 23.668 18.7733 23.64L18.6667 23.4266C16.9467 24.0666 15.0667 24.0666 13.3733 23.4133L13.24 23.6533C13.1467 23.6666 13.0533 23.7066 12.9867 23.7733C12.8 24.0933 12.6667 24.4267 12.5467 24.8C12.5067 24.9733 12.4533 25.1467 12.3867 25.3333C12.36 25.3333 12.3333 25.4267 12.3067 25.4667C12.2554 25.6099 12.1493 25.7268 12.0118 25.7919C11.8743 25.8569 11.7165 25.8646 11.5733 25.8133C11.4301 25.762 11.3131 25.656 11.2481 25.5184C11.1831 25.3809 11.1754 25.2232 11.2267 25.08C11.24 25.04 11.2667 25.0133 11.28 24.9733C11.3333 24.9333 11.3333 24.8667 11.3333 24.8267C11.4533 24.6667 11.5467 24.52 11.6533 24.36C11.8667 24.08 12.04 23.76 12.1733 23.44C12.1864 23.3273 12.1727 23.2131 12.1333 23.1066L12.2267 22.8666C10.6651 21.9387 9.49452 20.4743 8.93332 18.7467L8.66665 18.7866C8.58023 18.7143 8.47255 18.6722 8.35999 18.6666C7.99999 18.7333 7.67999 18.84 7.33332 18.96C7.18665 19.04 7.01332 19.1066 6.83999 19.16C6.79999 19.1733 6.74665 19.1866 6.66665 19.2C6.52337 19.2438 6.36873 19.2309 6.23472 19.1639C6.10071 19.0968 5.99757 18.9809 5.94665 18.84C5.85332 18.5333 5.99999 18.2133 6.31999 18.1066C6.34665 18.1066 6.38665 18.0933 6.42665 18.0933V18.08H6.43999L6.58665 18.0533C6.77332 18 6.95999 18 7.13332 18C7.47999 18 7.82665 17.92 8.15999 17.84C8.26665 17.7733 8.34665 17.6933 8.41332 17.5866L8.66665 17.52C8.38665 15.7066 8.79999 13.88 9.81332 12.36L9.62665 12.2C9.62665 12.08 9.58665 11.96 9.51999 11.8666C9.25332 11.64 8.97332 11.44 8.66665 11.2666C8.50665 11.1866 8.34665 11.0933 8.18665 10.9866C8.15999 10.96 8.10665 10.92 8.07999 10.8933L8.06665 10.88C7.79999 10.6666 7.73332 10.32 7.91999 10.04C8.03999 9.90665 8.19999 9.83998 8.38665 9.83998C8.53332 9.85332 8.66665 9.90665 8.78665 9.99998L8.90665 10.0933C9.03999 10.2133 9.15999 10.36 9.27999 10.4933C9.51999 10.7466 9.77332 10.9867 10.0533 11.1867C10.16 11.24 10.28 11.2533 10.4 11.2267L10.6 11.3733C11.6 10.3066 12.9067 9.55998 14.3333 9.23998C14.6667 9.15998 15.0267 9.10665 15.3733 9.07998L15.3867 8.83998C15.4787 8.75921 15.5439 8.65219 15.5733 8.53332C15.5867 8.18665 15.56 7.83998 15.5067 7.50665C15.4667 7.33332 15.44 7.14665 15.4267 6.95998V6.79998C15.4 6.47998 15.6267 6.19998 15.9467 6.15998C16.2667 6.11998 16.5333 6.35998 16.5733 6.66665V6.95998C16.56 7.14665 16.5333 7.33332 16.4933 7.50665C16.44 7.83998 16.4133 8.18665 16.4267 8.53332C16.4533 8.66665 16.52 8.75998 16.6133 8.82665L16.6267 9.07998C18.44 9.23998 20.12 10.0533 21.3733 11.3733L21.5867 11.2133C21.7067 11.24 21.8267 11.2267 21.9333 11.1733C22.2133 10.9733 22.48 10.7333 22.7067 10.48C22.8267 10.3466 22.9467 10.2133 23.08 10.08C23.12 10.0533 23.1733 9.99998 23.2133 9.99998C23.44 9.75998 23.8 9.75998 24 9.99998C24.2533 10.2133 24.24 10.5733 24 10.8C24 10.8267 23.96 10.8533 23.92 10.88C23.738 11.0246 23.5414 11.1497 23.3333 11.2533C23.0267 11.4266 22.7333 11.6267 22.48 11.8533C22.4 11.9467 22.36 12.0533 22.3733 12.1733L22.16 12.36C23.1836 13.8673 23.6025 15.7046 23.3333 17.5066L23.5867 17.5733C23.64 17.68 23.7333 17.76 23.84 17.8133C24.1733 17.9066 24.52 17.96 24.8667 18H25.4133C25.4533 18.04 25.52 18.0533 25.5733 18.0666C25.8933 18.1066 26.1067 18.4 26.0667 18.72C26 19.0266 25.7467 19.2533 25.4267 19.2133C25.3867 19.2 25.3333 19.2 25.3333 19.1866V19.1733C25.2533 19.1733 25.2 19.16 25.1467 19.1466C24.9733 19.0933 24.8133 19.0266 24.6667 18.9466C24.32 18.8133 24 18.72 23.64 18.6666C23.52 18.6666 23.4133 18.6666 23.3333 18.7733C23.24 18.76 23.16 18.7466 23.08 18.7333C22.5333 20.48 21.3333 21.9466 19.7867 22.88V22.88Z" fill="#009F76"/>
</svg>
