<?xml version="1.0" encoding="UTF-8"?>
<svg width="420px" height="400px" viewBox="0 0 420 400" version="1.1" xmlns="http://www.w3.org/2000/svg" xmlns:xlink="http://www.w3.org/1999/xlink">
    <!-- Generator: Sketch 62 (91390) - https://sketch.com -->
    <title>logo-big</title>
    <desc>Created with Sketch.</desc>
    <defs>
        <polygon id="path-1" points="0.260208033 0.21353177 419.907261 0.21353177 419.907261 399.83174 0.260208033 399.83174"></polygon>
        <path d="M201.316344,1.91714393 L49.1504803,73.3156689 C44.3291077,75.5809625 39.4148377,81.5644941 38.2211067,86.6753305 L38.2211067,86.6753305 L0.639482573,247.10732 C-0.558893281,252.190304 1.18757696,259.668558 4.53652653,263.76744 L4.53652653,263.76744 L109.844966,392.424973 C113.179981,396.500644 120.268049,399.828955 125.646806,399.828955 L125.646806,399.828955 L294.534193,399.828955 C299.885081,399.828955 306.977794,396.51457 310.336033,392.424973 L310.336033,392.424973 L415.635183,263.76744 C418.970198,259.687126 420.730602,252.218156 419.532227,247.10732 L419.532227,247.10732 L381.950602,86.6753305 C380.766161,81.587704 375.861181,75.5856045 371.016584,73.3156689 L371.016584,73.3156689 L218.85072,1.91714393 C216.435389,0.784497154 213.258299,0.21353177 210.08121,0.21353177 L210.08121,0.21353177 C206.908765,0.21353177 203.736321,0.779855159 201.316344,1.91714393 L201.316344,1.91714393 Z" id="path-3"></path>
        <path d="M0.348945492,77.3553357 C2.39739735,81.2903979 5.19494447,84.7723036 8.27455833,86.9086123 L8.27455833,86.9086123 L44.9987224,112.350107 C51.3290397,116.738326 61.5158105,116.715205 67.8183836,112.350107 L67.8183836,112.350107 L104.547172,86.9086123 C110.877489,82.5250178 115.95469,72.5232089 115.95469,64.5374834 L115.95469,64.5374834 L115.95469,10.9633001 C115.95469,7.49064238 114.997513,3.63881304 113.379097,0.0320580744 L113.379097,0.0320580744 L0.348945492,77.3553357 Z" id="path-5"></path>
        <linearGradient x1="97.6906336%" y1="-10.8344428%" x2="30.2579061%" y2="95.8287907%" id="linearGradient-7">
            <stop stop-color="#FFFFFF" offset="0%"></stop>
            <stop stop-color="#429146" offset="100%"></stop>
        </linearGradient>
        <path d="M0.365299542,10.9633001 L0.365299542,64.5374834 C0.365299542,72.5232089 5.44712481,82.5250178 11.7728181,86.9086123 L11.7728181,86.9086123 L48.5016062,112.350107 C54.8088034,116.715205 64.9909501,116.738326 71.3212674,112.350107 L71.3212674,112.350107 L108.045431,86.9086123 C111.125045,84.7723036 113.917968,81.2903979 115.971044,77.3553357 L115.971044,77.3553357 L2.94089251,0.0320580744 C1.32710087,3.63881304 0.365299542,7.49064238 0.365299542,10.9633001" id="path-8"></path>
        <linearGradient x1="64.7112272%" y1="7.14379667%" x2="-34.0447714%" y2="198.152594%" id="linearGradient-10">
            <stop stop-color="#FFFFFF" offset="0%"></stop>
            <stop stop-color="#429146" offset="100%"></stop>
        </linearGradient>
        <path d="M-0.000176377676,11.5640992 L-0.000176377676,99.075534 C-0.000176377676,107.082751 5.66939584,116.854349 12.6757345,120.857958 L12.6757345,120.857958 L89.0350101,164.618331 C96.0226527,168.621939 107.385167,168.626595 114.391506,164.618331 L114.391506,164.618331 L190.750781,120.867269 C194.948041,118.465103 198.668552,113.981993 200.977512,109.042657 L200.977512,109.042657 L3.22956344,0.0327753961 C1.21506581,3.75240708 -0.000176377676,7.84446747 -0.000176377676,11.5640992" id="path-11"></path>
        <linearGradient x1="4.31520687%" y1="16.7700423%" x2="67.3796828%" y2="76.8074799%" id="linearGradient-13">
            <stop stop-color="#FFFFFF" offset="0%"></stop>
            <stop stop-color="#429146" offset="100%"></stop>
        </linearGradient>
        <path d="M0.185631897,111.919669 C2.44349317,115.550849 5.44308986,118.693216 8.72725171,120.573981 L8.72725171,120.573981 L85.61116,164.604365 C92.645984,168.626595 104.08457,168.63125 111.138054,164.604365 L111.138054,164.604365 L188.021963,120.573981 C195.056787,116.54244 200.78541,106.719633 200.78541,98.6518964 L200.78541,98.6518964 L200.78541,10.5911292 C200.78541,7.1973726 199.768439,3.48705163 198.070378,0.0281200373 L198.070378,0.0281200373 L0.185631897,111.919669 Z" id="path-14"></path>
        <linearGradient x1="48.5141985%" y1="37.5226472%" x2="129.041197%" y2="128.384363%" id="linearGradient-16">
            <stop stop-color="#FFFFFF" offset="0%"></stop>
            <stop stop-color="#429146" offset="100%"></stop>
        </linearGradient>
    </defs>
    <g id="logo-big" stroke="none" stroke-width="1" fill="none" fill-rule="evenodd">
        <g id="Group-3">
            <mask id="mask-2" fill="white">
                <use xlink:href="#path-1"></use>
            </mask>
            <g id="Clip-2"></g>
            <path d="M201.319596,1.91528713 C206.164193,-0.359290413 214.027954,-0.350006423 218.849326,1.91528713 L371.015191,73.3138121 C375.859788,75.5883897 380.764768,81.5858472 381.953854,86.6734737 L419.530833,247.110105 C420.729209,252.216299 418.968804,259.689911 415.633789,263.770225 L310.33464,392.423116 C306.9764,396.512714 299.883687,399.83174 294.528155,399.83174 L125.645412,399.83174 C120.2713,399.83174 113.178587,396.498788 109.848217,392.423116 L4.53977794,263.770225 C1.1861835,259.671343 -0.560286741,252.193089 0.638089112,247.110105 L38.2197133,86.6734737 C39.4180891,81.5672793 44.3277142,75.5791057 49.1490868,73.3138121 L201.319596,1.91528713 Z" id="Fill-1" fill="#12B688" mask="url(#mask-2)"></path>
        </g>
        <g id="Group-6">
            <mask id="mask-4" fill="white">
                <use xlink:href="#path-3"></use>
            </mask>
            <g id="Clip-5"></g>
            <polygon id="Fill-4" fill-opacity="0.1" fill="#000000" mask="url(#mask-4)" points="303.819748 261.225483 30.7619138 492.053326 -115.333108 319.440742 157.724726 88.6128993"></polygon>
        </g>
        <g id="Group-9" transform="translate(158.000000, 88.000000)">
            <mask id="mask-6" fill="white">
                <use xlink:href="#path-5"></use>
            </mask>
            <g id="Clip-8"></g>
            <path d="M0.348945492,77.3553357 C2.39739735,81.2903979 5.19494447,84.7723036 8.27455833,86.9086123 L8.27455833,86.9086123 L44.9987224,112.350107 C51.3290397,116.738326 61.5158105,116.715205 67.8183836,112.350107 L67.8183836,112.350107 L104.547172,86.9086123 C110.877489,82.5250178 115.95469,72.5232089 115.95469,64.5374834 L115.95469,64.5374834 L115.95469,10.9633001 C115.95469,7.49064238 114.997513,3.63881304 113.379097,0.0320580744 L113.379097,0.0320580744 L0.348945492,77.3553357 Z" id="Fill-7" fill="url(#linearGradient-7)" mask="url(#mask-6)"></path>
        </g>
        <g id="Group-12" transform="translate(155.000000, 88.000000)">
            <mask id="mask-9" fill="white">
                <use xlink:href="#path-8"></use>
            </mask>
            <g id="Clip-11"></g>
            <path d="M0.365299542,10.9633001 L0.365299542,64.5374834 C0.365299542,72.5232089 5.44712481,82.5250178 11.7728181,86.9086123 L11.7728181,86.9086123 L48.5016062,112.350107 C54.8088034,116.715205 64.9909501,116.738326 71.3212674,112.350107 L71.3212674,112.350107 L108.045431,86.9086123 C111.125045,84.7723036 113.917968,81.2903979 115.971044,77.3553357 L115.971044,77.3553357 L2.94089251,0.0320580744 C1.32710087,3.63881304 0.365299542,7.49064238 0.365299542,10.9633001" id="Fill-10" fill="url(#linearGradient-10)" mask="url(#mask-9)"></path>
        </g>
        <g id="Group-15" transform="translate(108.000000, 144.000000)">
            <mask id="mask-12" fill="white">
                <use xlink:href="#path-11"></use>
            </mask>
            <g id="Clip-14"></g>
            <path d="M-0.000176377676,11.5640992 L-0.000176377676,99.075534 C-0.000176377676,107.082751 5.66939584,116.854349 12.6757345,120.857958 L12.6757345,120.857958 L89.0350101,164.618331 C96.0226527,168.621939 107.385167,168.626595 114.391506,164.618331 L114.391506,164.618331 L190.750781,120.867269 C194.948041,118.465103 198.668552,113.981993 200.977512,109.042657 L200.977512,109.042657 L3.22956344,0.0327753961 C1.21506581,3.75240708 -0.000176377676,7.84446747 -0.000176377676,11.5640992" id="Fill-13" fill="url(#linearGradient-13)" mask="url(#mask-12)"></path>
        </g>
        <g id="Group-18" transform="translate(112.000000, 144.000000)">
            <mask id="mask-15" fill="white">
                <use xlink:href="#path-14"></use>
            </mask>
            <g id="Clip-17"></g>
            <path d="M0.185631897,111.919669 C2.44349317,115.550849 5.44308986,118.693216 8.72725171,120.573981 L8.72725171,120.573981 L85.61116,164.604365 C92.645984,168.626595 104.08457,168.63125 111.138054,164.604365 L111.138054,164.604365 L188.021963,120.573981 C195.056787,116.54244 200.78541,106.719633 200.78541,98.6518964 L200.78541,98.6518964 L200.78541,10.5911292 C200.78541,7.1973726 199.768439,3.48705163 198.070378,0.0281200373 L198.070378,0.0281200373 L0.185631897,111.919669 Z" id="Fill-16" fill="url(#linearGradient-16)" mask="url(#mask-15)"></path>
        </g>
    </g>
</svg>