<svg width="65" height="62" viewBox="0 0 65 62" fill="none" xmlns="http://www.w3.org/2000/svg">
<path d="M25.682 25.7804L25.682 34.9386C25.2027 34.9386 24.8034 34.9386 24.5638 34.8162C23.6053 34.4085 22.8066 33.6745 21.6884 33.6745C20.5702 33.6745 19.5319 34.0823 18.813 34.8162C18.0942 35.5502 17.6948 36.6103 17.6948 37.752C17.6948 38.8937 18.0942 39.9539 18.813 40.6878C19.5319 41.4218 20.5702 41.8295 21.6884 41.8295C22.8066 41.8295 23.6053 41.0956 24.5638 40.6878C24.8034 40.6063 25.2027 40.5655 25.682 40.5655L25.682 49.9845L1.72051 49.9845L1.72051 34.9386L1.72018 25.7936" stroke="#009F76" stroke-width="1.5"/>
<path d="M25.6897 16.4092V25.0558H17.4173C17.4235 25.0241 17.4283 25.0114 17.428 25.0113C17.4279 25.0113 17.4278 25.0116 17.4275 25.0121L17.4389 24.9902L17.4495 24.9659C17.5391 24.7597 17.6503 24.554 17.7787 24.3278C17.8081 24.2759 17.8391 24.222 17.8709 24.1665C17.9716 23.991 18.0811 23.8 18.1801 23.6104C18.4473 23.0981 18.7002 22.4833 18.7002 21.738C18.7002 20.4156 18.2067 19.1553 17.2806 18.2677C16.3571 17.3828 15.0581 16.9202 13.7054 16.9202C12.3528 16.9202 11.0538 17.3828 10.1303 18.2677C9.20415 19.1553 8.71068 20.4156 8.71068 21.738C8.71068 22.4833 8.96354 23.0981 9.23084 23.6104C9.32978 23.8 9.43935 23.991 9.54001 24.1665C9.57183 24.222 9.60276 24.2759 9.63218 24.3278C9.75421 24.5427 9.86065 24.7392 9.94786 24.9351C9.95716 24.9663 9.96648 25.0066 9.97528 25.0558H1.72116V2.14905H16.6343H25.6897V10.7957V11.5457H26.4397H26.4571C26.6985 11.5457 26.9559 11.5457 27.1861 11.5283C27.4041 11.5118 27.6764 11.4756 27.926 11.3623C28.2095 11.2478 28.4741 11.1147 28.7151 10.9891C28.7825 10.954 28.8471 10.92 28.9099 10.8869C29.0861 10.7941 29.248 10.7088 29.4168 10.628C29.8605 10.4154 30.2517 10.2846 30.6845 10.2846C31.7089 10.2846 32.6171 10.6357 33.2218 11.2151C33.8238 11.792 34.1792 12.647 34.1792 13.6024C34.1792 14.5579 33.8238 15.4129 33.2218 15.9898C32.6171 16.5692 31.7089 16.9202 30.6845 16.9202C30.2517 16.9202 29.8605 16.7895 29.4168 16.5769C29.248 16.4961 29.0861 16.4108 28.9099 16.318C28.8471 16.2849 28.7825 16.2509 28.7151 16.2158C28.4686 16.0872 28.1973 15.9509 27.9064 15.8347L27.8817 15.8249L27.8565 15.8168C27.485 15.6981 26.9624 15.6592 26.4397 15.6592H25.6897V16.4092Z" stroke="#009F76" stroke-width="1.5"/>
<path d="M39.6684 46.3653V37.7187H47.9409C47.9346 37.7504 47.9298 37.7631 47.9301 37.7632C47.9302 37.7633 47.9304 37.763 47.9307 37.7624L47.9192 37.7843L47.9087 37.8086C47.819 38.0148 47.7078 38.2205 47.5794 38.4468C47.55 38.4986 47.5191 38.5526 47.4872 38.608C47.3866 38.7835 47.277 38.9745 47.1781 39.1642C46.9108 39.6765 46.6579 40.2912 46.6579 41.0365C46.6579 42.359 47.1514 43.6193 48.0775 44.5068C49.001 45.3918 50.3 45.8543 51.6527 45.8543C53.0054 45.8543 54.3044 45.3918 55.2278 44.5068C56.154 43.6193 56.6474 42.359 56.6474 41.0365C56.6474 40.2912 56.3946 39.6765 56.1273 39.1642C56.0283 38.9745 55.9188 38.7835 55.8181 38.608C55.7863 38.5525 55.7554 38.4986 55.7259 38.4468C55.6039 38.2318 55.4975 38.0354 55.4103 37.8394C55.401 37.8082 55.3916 37.768 55.3828 37.7187H63.637V60.6255H48.7238H39.6684V51.9789V51.2289H38.9184H38.901C38.6597 51.2289 38.4022 51.2289 38.172 51.2463C37.954 51.2628 37.6817 51.299 37.4321 51.4123C37.1486 51.5267 36.884 51.6598 36.643 51.7854C36.5756 51.8206 36.511 51.8546 36.4482 51.8877C36.272 51.9805 36.1101 52.0657 35.9413 52.1466C35.4977 52.3592 35.1064 52.4899 34.6736 52.4899C33.6492 52.4899 32.741 52.1389 32.1363 51.5594C31.5344 50.9825 31.1789 50.1276 31.1789 49.1721C31.1789 48.2166 31.5344 47.3617 32.1363 46.7848C32.741 46.2053 33.6492 45.8543 34.6736 45.8543C35.1064 45.8543 35.4977 45.985 35.9413 46.1976C36.1101 46.2785 36.272 46.3637 36.4482 46.4565C36.511 46.4896 36.5756 46.5236 36.643 46.5588C36.8895 46.6873 37.1608 46.8236 37.4517 46.9398L37.4764 46.9496L37.5016 46.9577C37.8732 47.0764 38.3958 47.1153 38.9184 47.1153H39.6684V46.3653Z" stroke="#009F76" stroke-width="1.5"/>
<path d="M25.1073 2.13684L49.5141 2.13684V16.2288V25.0506H40.1175C40.1175 25.5088 40.1175 25.8907 40.2396 26.1199C40.6463 27.0364 41.3785 27.8002 41.3785 28.8695C41.3785 29.9388 40.9718 30.9318 40.2396 31.6192C39.5073 32.3066 38.4497 32.6885 37.3107 32.6885C36.1718 32.6885 35.1141 32.3066 34.3819 31.6192C33.6497 30.9318 33.2429 29.9388 33.2429 28.8695C33.2429 27.8002 33.9751 27.0364 34.3819 26.1199C34.4633 25.8907 34.504 25.5088 34.504 25.0506H25.1073" stroke="#009F76" stroke-width="1.5"/>
</svg>
