<svg width="10" height="40" viewBox="0 0 10 40" fill="none" xmlns="http://www.w3.org/2000/svg">
<path d="M1 0.5C1 0.776142 0.776142 1 0.5 1C0.223858 1 0 0.776142 0 0.5C0 0.223858 0.223858 0 0.5 0C0.776142 0 1 0.223858 1 0.5Z" fill="#555555"/>
<path d="M4 0.5C4 0.776142 3.77614 1 3.5 1C3.22386 1 3 0.776142 3 0.5C3 0.223858 3.22386 0 3.5 0C3.77614 0 4 0.223858 4 0.5Z" fill="#555555"/>
<path d="M7 0.5C7 0.776142 6.77614 1 6.5 1C6.22386 1 6 0.776142 6 0.5C6 0.223858 6.22386 0 6.5 0C6.77614 0 7 0.223858 7 0.5Z" fill="#555555"/>
<path d="M10 0.5C10 0.776142 9.77614 1 9.5 1C9.22386 1 9 0.776142 9 0.5C9 0.223858 9.22386 0 9.5 0C9.77614 0 10 0.223858 10 0.5Z" fill="#555555"/>
<path d="M1 3.5C1 3.77614 0.776142 4 0.5 4C0.223858 4 0 3.77614 0 3.5C0 3.22386 0.223858 3 0.5 3C0.776142 3 1 3.22386 1 3.5Z" fill="#555555"/>
<path d="M4 3.5C4 3.77614 3.77614 4 3.5 4C3.22386 4 3 3.77614 3 3.5C3 3.22386 3.22386 3 3.5 3C3.77614 3 4 3.22386 4 3.5Z" fill="#555555"/>
<path d="M7 3.5C7 3.77614 6.77614 4 6.5 4C6.22386 4 6 3.77614 6 3.5C6 3.22386 6.22386 3 6.5 3C6.77614 3 7 3.22386 7 3.5Z" fill="#555555"/>
<path d="M10 3.5C10 3.77614 9.77614 4 9.5 4C9.22386 4 9 3.77614 9 3.5C9 3.22386 9.22386 3 9.5 3C9.77614 3 10 3.22386 10 3.5Z" fill="#555555"/>
<path d="M1 6.5C1 6.77614 0.776142 7 0.5 7C0.223858 7 0 6.77614 0 6.5C0 6.22386 0.223858 6 0.5 6C0.776142 6 1 6.22386 1 6.5Z" fill="#555555"/>
<path d="M4 6.5C4 6.77614 3.77614 7 3.5 7C3.22386 7 3 6.77614 3 6.5C3 6.22386 3.22386 6 3.5 6C3.77614 6 4 6.22386 4 6.5Z" fill="#555555"/>
<path d="M7 6.5C7 6.77614 6.77614 7 6.5 7C6.22386 7 6 6.77614 6 6.5C6 6.22386 6.22386 6 6.5 6C6.77614 6 7 6.22386 7 6.5Z" fill="#555555"/>
<path d="M10 6.5C10 6.77614 9.77614 7 9.5 7C9.22386 7 9 6.77614 9 6.5C9 6.22386 9.22386 6 9.5 6C9.77614 6 10 6.22386 10 6.5Z" fill="#555555"/>
<path d="M1 9.5C1 9.77614 0.776142 10 0.5 10C0.223858 10 0 9.77614 0 9.5C0 9.22386 0.223858 9 0.5 9C0.776142 9 1 9.22386 1 9.5Z" fill="#555555"/>
<path d="M4 9.5C4 9.77614 3.77614 10 3.5 10C3.22386 10 3 9.77614 3 9.5C3 9.22386 3.22386 9 3.5 9C3.77614 9 4 9.22386 4 9.5Z" fill="#555555"/>
<path d="M7 9.5C7 9.77614 6.77614 10 6.5 10C6.22386 10 6 9.77614 6 9.5C6 9.22386 6.22386 9 6.5 9C6.77614 9 7 9.22386 7 9.5Z" fill="#555555"/>
<path d="M10 9.5C10 9.77614 9.77614 10 9.5 10C9.22386 10 9 9.77614 9 9.5C9 9.22386 9.22386 9 9.5 9C9.77614 9 10 9.22386 10 9.5Z" fill="#555555"/>
<path d="M1 12.5C1 12.7761 0.776142 13 0.5 13C0.223858 13 0 12.7761 0 12.5C0 12.2239 0.223858 12 0.5 12C0.776142 12 1 12.2239 1 12.5Z" fill="#555555"/>
<path d="M4 12.5C4 12.7761 3.77614 13 3.5 13C3.22386 13 3 12.7761 3 12.5C3 12.2239 3.22386 12 3.5 12C3.77614 12 4 12.2239 4 12.5Z" fill="#555555"/>
<path d="M7 12.5C7 12.7761 6.77614 13 6.5 13C6.22386 13 6 12.7761 6 12.5C6 12.2239 6.22386 12 6.5 12C6.77614 12 7 12.2239 7 12.5Z" fill="#555555"/>
<path d="M10 12.5C10 12.7761 9.77614 13 9.5 13C9.22386 13 9 12.7761 9 12.5C9 12.2239 9.22386 12 9.5 12C9.77614 12 10 12.2239 10 12.5Z" fill="#555555"/>
<path d="M1 15.5C1 15.7761 0.776142 16 0.5 16C0.223858 16 0 15.7761 0 15.5C0 15.2239 0.223858 15 0.5 15C0.776142 15 1 15.2239 1 15.5Z" fill="#555555"/>
<path d="M4 15.5C4 15.7761 3.77614 16 3.5 16C3.22386 16 3 15.7761 3 15.5C3 15.2239 3.22386 15 3.5 15C3.77614 15 4 15.2239 4 15.5Z" fill="#555555"/>
<path d="M7 15.5C7 15.7761 6.77614 16 6.5 16C6.22386 16 6 15.7761 6 15.5C6 15.2239 6.22386 15 6.5 15C6.77614 15 7 15.2239 7 15.5Z" fill="#555555"/>
<path d="M10 15.5C10 15.7761 9.77614 16 9.5 16C9.22386 16 9 15.7761 9 15.5C9 15.2239 9.22386 15 9.5 15C9.77614 15 10 15.2239 10 15.5Z" fill="#555555"/>
<path d="M1 18.5C1 18.7761 0.776142 19 0.5 19C0.223858 19 0 18.7761 0 18.5C0 18.2239 0.223858 18 0.5 18C0.776142 18 1 18.2239 1 18.5Z" fill="#555555"/>
<path d="M4 18.5C4 18.7761 3.77614 19 3.5 19C3.22386 19 3 18.7761 3 18.5C3 18.2239 3.22386 18 3.5 18C3.77614 18 4 18.2239 4 18.5Z" fill="#555555"/>
<path d="M7 18.5C7 18.7761 6.77614 19 6.5 19C6.22386 19 6 18.7761 6 18.5C6 18.2239 6.22386 18 6.5 18C6.77614 18 7 18.2239 7 18.5Z" fill="#555555"/>
<path d="M10 18.5C10 18.7761 9.77614 19 9.5 19C9.22386 19 9 18.7761 9 18.5C9 18.2239 9.22386 18 9.5 18C9.77614 18 10 18.2239 10 18.5Z" fill="#555555"/>
<path d="M1 21.5C1 21.7761 0.776142 22 0.5 22C0.223858 22 0 21.7761 0 21.5C0 21.2239 0.223858 21 0.5 21C0.776142 21 1 21.2239 1 21.5Z" fill="#555555"/>
<path d="M4 21.5C4 21.7761 3.77614 22 3.5 22C3.22386 22 3 21.7761 3 21.5C3 21.2239 3.22386 21 3.5 21C3.77614 21 4 21.2239 4 21.5Z" fill="#555555"/>
<path d="M7 21.5C7 21.7761 6.77614 22 6.5 22C6.22386 22 6 21.7761 6 21.5C6 21.2239 6.22386 21 6.5 21C6.77614 21 7 21.2239 7 21.5Z" fill="#555555"/>
<path d="M10 21.5C10 21.7761 9.77614 22 9.5 22C9.22386 22 9 21.7761 9 21.5C9 21.2239 9.22386 21 9.5 21C9.77614 21 10 21.2239 10 21.5Z" fill="#555555"/>
<path d="M1 24.5C1 24.7761 0.776142 25 0.5 25C0.223858 25 0 24.7761 0 24.5C0 24.2239 0.223858 24 0.5 24C0.776142 24 1 24.2239 1 24.5Z" fill="#555555"/>
<path d="M4 24.5C4 24.7761 3.77614 25 3.5 25C3.22386 25 3 24.7761 3 24.5C3 24.2239 3.22386 24 3.5 24C3.77614 24 4 24.2239 4 24.5Z" fill="#555555"/>
<path d="M7 24.5C7 24.7761 6.77614 25 6.5 25C6.22386 25 6 24.7761 6 24.5C6 24.2239 6.22386 24 6.5 24C6.77614 24 7 24.2239 7 24.5Z" fill="#555555"/>
<path d="M10 24.5C10 24.7761 9.77614 25 9.5 25C9.22386 25 9 24.7761 9 24.5C9 24.2239 9.22386 24 9.5 24C9.77614 24 10 24.2239 10 24.5Z" fill="#555555"/>
<path d="M1 27.5C1 27.7761 0.776142 28 0.5 28C0.223858 28 0 27.7761 0 27.5C0 27.2239 0.223858 27 0.5 27C0.776142 27 1 27.2239 1 27.5Z" fill="#555555"/>
<path d="M4 27.5C4 27.7761 3.77614 28 3.5 28C3.22386 28 3 27.7761 3 27.5C3 27.2239 3.22386 27 3.5 27C3.77614 27 4 27.2239 4 27.5Z" fill="#555555"/>
<path d="M7 27.5C7 27.7761 6.77614 28 6.5 28C6.22386 28 6 27.7761 6 27.5C6 27.2239 6.22386 27 6.5 27C6.77614 27 7 27.2239 7 27.5Z" fill="#555555"/>
<path d="M10 27.5C10 27.7761 9.77614 28 9.5 28C9.22386 28 9 27.7761 9 27.5C9 27.2239 9.22386 27 9.5 27C9.77614 27 10 27.2239 10 27.5Z" fill="#555555"/>
<path d="M1 30.5C1 30.7761 0.776142 31 0.5 31C0.223858 31 0 30.7761 0 30.5C0 30.2239 0.223858 30 0.5 30C0.776142 30 1 30.2239 1 30.5Z" fill="#555555"/>
<path d="M4 30.5C4 30.7761 3.77614 31 3.5 31C3.22386 31 3 30.7761 3 30.5C3 30.2239 3.22386 30 3.5 30C3.77614 30 4 30.2239 4 30.5Z" fill="#555555"/>
<path d="M7 30.5C7 30.7761 6.77614 31 6.5 31C6.22386 31 6 30.7761 6 30.5C6 30.2239 6.22386 30 6.5 30C6.77614 30 7 30.2239 7 30.5Z" fill="#555555"/>
<path d="M10 30.5C10 30.7761 9.77614 31 9.5 31C9.22386 31 9 30.7761 9 30.5C9 30.2239 9.22386 30 9.5 30C9.77614 30 10 30.2239 10 30.5Z" fill="#555555"/>
<path d="M1 33.5C1 33.7761 0.776142 34 0.5 34C0.223858 34 0 33.7761 0 33.5C0 33.2239 0.223858 33 0.5 33C0.776142 33 1 33.2239 1 33.5Z" fill="#555555"/>
<path d="M4 33.5C4 33.7761 3.77614 34 3.5 34C3.22386 34 3 33.7761 3 33.5C3 33.2239 3.22386 33 3.5 33C3.77614 33 4 33.2239 4 33.5Z" fill="#555555"/>
<path d="M7 33.5C7 33.7761 6.77614 34 6.5 34C6.22386 34 6 33.7761 6 33.5C6 33.2239 6.22386 33 6.5 33C6.77614 33 7 33.2239 7 33.5Z" fill="#555555"/>
<path d="M10 33.5C10 33.7761 9.77614 34 9.5 34C9.22386 34 9 33.7761 9 33.5C9 33.2239 9.22386 33 9.5 33C9.77614 33 10 33.2239 10 33.5Z" fill="#555555"/>
<path d="M1 36.5C1 36.7761 0.776142 37 0.5 37C0.223858 37 0 36.7761 0 36.5C0 36.2239 0.223858 36 0.5 36C0.776142 36 1 36.2239 1 36.5Z" fill="#555555"/>
<path d="M4 36.5C4 36.7761 3.77614 37 3.5 37C3.22386 37 3 36.7761 3 36.5C3 36.2239 3.22386 36 3.5 36C3.77614 36 4 36.2239 4 36.5Z" fill="#555555"/>
<path d="M7 36.5C7 36.7761 6.77614 37 6.5 37C6.22386 37 6 36.7761 6 36.5C6 36.2239 6.22386 36 6.5 36C6.77614 36 7 36.2239 7 36.5Z" fill="#555555"/>
<path d="M10 36.5C10 36.7761 9.77614 37 9.5 37C9.22386 37 9 36.7761 9 36.5C9 36.2239 9.22386 36 9.5 36C9.77614 36 10 36.2239 10 36.5Z" fill="#555555"/>
<path d="M1 39.5C1 39.7761 0.776142 40 0.5 40C0.223858 40 0 39.7761 0 39.5C0 39.2239 0.223858 39 0.5 39C0.776142 39 1 39.2239 1 39.5Z" fill="#555555"/>
<path d="M4 39.5C4 39.7761 3.77614 40 3.5 40C3.22386 40 3 39.7761 3 39.5C3 39.2239 3.22386 39 3.5 39C3.77614 39 4 39.2239 4 39.5Z" fill="#555555"/>
<path d="M7 39.5C7 39.7761 6.77614 40 6.5 40C6.22386 40 6 39.7761 6 39.5C6 39.2239 6.22386 39 6.5 39C6.77614 39 7 39.2239 7 39.5Z" fill="#555555"/>
<path d="M10 39.5C10 39.7761 9.77614 40 9.5 40C9.22386 40 9 39.7761 9 39.5C9 39.2239 9.22386 39 9.5 39C9.77614 39 10 39.2239 10 39.5Z" fill="#555555"/>
</svg>
