<svg width="1438" height="567" viewBox="0 0 1438 567" fill="none" xmlns="http://www.w3.org/2000/svg">
<rect x="-445" y="-353.613" width="2228.91" height="921.613" fill="#099E75"/>
<path fill-rule="evenodd" clip-rule="evenodd" d="M-0.380838 -308.251C10.3324 -313.26 27.7222 -313.239 38.3841 -308.251L374.881 -151.024C385.594 -146.016 396.441 -132.809 399.071 -121.605L482.168 231.692C484.818 242.936 480.925 259.394 473.55 268.379L240.693 551.685C233.267 560.691 217.582 568 205.739 568H-167.725C-179.61 568 -195.294 560.66 -202.659 551.685L-435.536 268.379C-442.952 259.353 -446.814 242.885 -444.164 231.692L-361.057 -121.605C-358.407 -132.85 -347.55 -146.036 -336.888 -151.024L-0.380838 -308.251Z" fill="#12B084"/>
<path fill-rule="evenodd" clip-rule="evenodd" d="M4.88206 -267.158C12.6861 -270.955 25.3537 -270.939 33.1203 -267.158L278.241 -147.988C286.045 -144.191 293.946 -134.181 295.862 -125.689L356.394 142.094C358.324 150.617 355.488 163.091 350.116 169.901L180.492 384.634C175.082 391.46 163.657 397 155.03 397H-117.02C-125.677 397 -137.102 391.437 -142.467 384.634L-312.106 169.901C-317.508 163.06 -320.322 150.578 -318.391 142.094L-257.852 -125.689C-255.921 -134.212 -248.013 -144.207 -240.246 -147.988L4.88206 -267.158Z" fill="#099E75"/>
<path fill-rule="evenodd" clip-rule="evenodd" d="M1037.34 -159.529C1046.66 -163.606 1061.79 -163.59 1071.06 -159.529L1363.78 -31.5372C1373.1 -27.4597 1382.54 -16.7084 1384.82 -7.58814L1457.11 280.016C1459.42 289.17 1456.03 302.567 1449.61 309.882L1247.05 540.51C1240.59 547.841 1226.95 553.79 1216.65 553.79H891.771C881.433 553.79 867.789 547.816 861.383 540.51L658.804 309.882C652.352 302.534 648.993 289.128 651.298 280.016L723.593 -7.58814C725.898 -16.7417 735.342 -27.4763 744.617 -31.5372L1037.34 -159.529Z" fill="#12BE8E"/>
<path fill-rule="evenodd" clip-rule="evenodd" d="M1363.94 -350.557C1373.25 -354.64 1388.35 -354.623 1397.62 -350.557L1689.98 -222.384C1699.28 -218.3 1708.71 -207.534 1710.99 -198.401L1783.19 89.6118C1785.49 98.7783 1782.11 112.195 1775.7 119.52L1573.39 350.474C1566.94 357.816 1553.31 363.774 1543.02 363.774H1218.54C1208.22 363.774 1194.59 357.791 1188.19 350.474L985.863 119.52C979.419 112.161 976.064 98.7366 978.366 89.6118L1050.57 -198.401C1052.87 -207.567 1062.31 -218.317 1071.57 -222.384L1363.94 -350.557Z" fill="#15D59F"/>
</svg>
