<svg width="2229" height="922" viewBox="0 0 2229 922" fill="none" xmlns="http://www.w3.org/2000/svg">
<rect width="2228.91" height="921.613" fill="#099E75"/>
<path fill-rule="evenodd" clip-rule="evenodd" d="M1623.19 386.952C1625.24 386.004 1627.64 386.004 1629.69 386.952L1754.06 444.321C1756.11 445.269 1757.6 447.062 1758.11 449.191L1788.83 578.099C1789.34 580.229 1788.8 582.464 1787.38 584.172L1701.32 687.548C1699.9 689.256 1697.74 690.251 1695.46 690.251H1557.42C1555.14 690.251 1552.99 689.256 1551.56 687.548L1465.5 584.172C1464.08 582.464 1463.55 580.229 1464.05 578.099L1494.77 449.191C1495.28 447.062 1496.77 445.269 1498.82 444.321L1623.19 386.952Z" fill="#009F76"/>
<mask id="mask0" mask-type="alpha" maskUnits="userSpaceOnUse" x="1463" y="386" width="327" height="305">
<path fill-rule="evenodd" clip-rule="evenodd" d="M1623.19 386.952C1625.24 386.004 1627.64 386.004 1629.69 386.952L1754.06 444.321C1756.11 445.269 1757.6 447.062 1758.11 449.191L1788.83 578.099C1789.34 580.229 1788.8 582.464 1787.38 584.172L1701.32 687.548C1699.9 689.256 1697.74 690.251 1695.46 690.251H1557.42C1555.14 690.251 1552.99 689.256 1551.56 687.548L1465.5 584.172C1464.08 582.464 1463.55 580.229 1464.05 578.099L1494.77 449.191C1495.28 447.062 1496.77 445.269 1498.82 444.321L1623.19 386.952Z" fill="#009F76"/>
</mask>
<g mask="url(#mask0)">
<path opacity="0.289629" fill-rule="evenodd" clip-rule="evenodd" d="M1396.62 580.675L1578.23 475.006L1700.56 594.95L1555.41 717.578L1396.62 580.675Z" fill="black"/>
</g>
<path fill-rule="evenodd" clip-rule="evenodd" d="M1671.2 470.845C1671.72 472.096 1672 473.447 1672 474.834V524.715C1672 528.346 1670.09 531.733 1666.92 533.722L1629.11 557.433C1625.37 559.779 1620.53 559.779 1616.8 557.433L1578.99 533.722C1576.35 532.068 1574.58 529.446 1574.06 526.52L1671.2 470.845Z" fill="url(#paint0_linear)"/>
<path fill-rule="evenodd" clip-rule="evenodd" d="M1671.71 533.713C1670.85 535.136 1669.64 536.371 1668.16 537.3L1630.35 561.011C1626.61 563.357 1621.78 563.357 1618.04 561.011L1580.23 537.3C1577.06 535.311 1575.15 531.924 1575.15 528.292V478.412C1575.15 477.022 1575.43 475.669 1575.95 474.415L1671.71 533.713Z" fill="url(#paint1_linear)"/>
<path fill-rule="evenodd" clip-rule="evenodd" d="M1550.05 508.967C1549.32 510.412 1548.92 512.019 1548.92 513.682V587.383C1548.92 591.229 1551.06 594.784 1554.54 596.707L1621.17 633.557C1624.65 635.481 1628.93 635.481 1632.41 633.557L1699.04 596.707C1701.42 595.391 1703.18 593.311 1704.05 590.897L1550.05 508.967Z" fill="url(#paint2_linear)"/>
<path fill-rule="evenodd" clip-rule="evenodd" d="M1550.8 593.34C1551.74 594.702 1553.01 595.862 1554.54 596.707L1621.17 633.557C1624.65 635.48 1628.93 635.48 1632.41 633.557L1699.04 596.707C1702.52 594.784 1704.66 591.229 1704.66 587.383V513.681C1704.66 512.313 1704.39 510.981 1703.89 509.747L1550.8 593.34Z" fill="url(#paint3_linear)"/>
<mask id="mask1" mask-type="alpha" maskUnits="userSpaceOnUse" x="0" y="0" width="2229" height="922">
<rect width="2229" height="922" fill="#009F76"/>
</mask>
<g mask="url(#mask1)">
<path fill-rule="evenodd" clip-rule="evenodd" d="M377.889 -90.4757C393.428 -96.5204 418.651 -96.4958 434.115 -90.4757L922.181 99.2682C937.72 105.313 953.452 121.251 957.266 134.772L1077.79 561.137C1081.64 574.707 1075.99 594.569 1065.29 605.412L727.551 947.311C716.779 958.18 694.03 967 676.852 967H135.168C117.931 967 95.1809 958.143 84.4989 947.311L-253.273 605.412C-264.03 594.519 -269.632 574.646 -265.788 561.137L-145.246 134.772C-141.403 121.202 -125.655 105.288 -110.191 99.2682L377.889 -90.4757Z" fill="#138B6A"/>
<path fill-rule="evenodd" clip-rule="evenodd" d="M286.889 -119.476C302.428 -125.52 327.651 -125.496 343.115 -119.476L831.181 70.2682C846.72 76.313 862.452 92.2514 866.266 105.772L986.793 532.137C990.636 545.707 984.99 565.569 974.293 576.412L636.551 918.311C625.779 929.18 603.03 938 585.852 938H44.1677C26.9305 938 4.18092 929.143 -6.5011 918.311L-344.273 576.412C-355.03 565.519 -360.632 545.646 -356.788 532.137L-236.246 105.772C-232.403 92.202 -216.655 76.2883 -201.191 70.2682L286.889 -119.476Z" fill="#138B6A"/>
<path fill-rule="evenodd" clip-rule="evenodd" d="M886.052 456.8C897.908 451.723 917.153 451.744 928.952 456.8L1301.35 616.171C1313.2 621.248 1325.21 634.635 1328.12 645.991L1420.08 1004.11C1423.01 1015.5 1418.7 1032.19 1410.54 1041.29L1152.84 1328.46C1144.62 1337.59 1127.27 1345 1114.16 1345H700.855C687.703 1345 670.345 1337.56 662.194 1328.46L404.473 1041.29C396.266 1032.14 391.992 1015.45 394.925 1004.11L486.898 645.991C489.831 634.593 501.846 621.227 513.645 616.171L886.052 456.8Z" fill="#39A788"/>
<path fill-rule="evenodd" clip-rule="evenodd" d="M1894.01 -90.9017C1905.89 -96.3773 1925.17 -96.3549 1936.99 -90.9017L2310.11 80.9755C2321.99 86.4511 2334.02 100.889 2336.94 113.136L2429.08 499.354C2432.02 511.646 2427.7 529.638 2419.52 539.46L2161.32 849.165C2153.09 859.01 2135.69 867 2122.56 867H1708.45C1695.27 867 1677.88 858.977 1669.72 849.165L1411.49 539.46C1403.27 529.593 1398.99 511.59 1401.93 499.354L1494.08 113.136C1497.02 100.844 1509.06 86.4287 1520.88 80.9755L1894.01 -90.9017Z" fill="#12BE8E"/>
<path fill-rule="evenodd" clip-rule="evenodd" d="M268.354 274.408C277.832 269.855 293.217 269.873 302.649 274.408L600.347 417.341C609.825 421.895 619.421 433.901 621.748 444.086L695.264 765.265C697.608 775.488 694.164 790.449 687.639 798.617L481.631 1056.17C475.061 1064.36 461.185 1071 450.708 1071H120.304C109.79 1071 95.9142 1064.33 89.3987 1056.17L-116.627 798.617C-123.188 790.412 -126.605 775.441 -124.261 765.265L-50.7358 444.086C-48.3913 433.864 -38.7861 421.876 -29.3535 417.341L268.354 274.408Z" fill="#289879"/>
<path fill-rule="evenodd" clip-rule="evenodd" d="M2028.84 -88.2138C2036.67 -91.9363 2049.37 -91.9211 2057.16 -88.2138L2303.01 28.6341C2310.83 32.3566 2318.76 42.1717 2320.68 50.4979L2381.39 313.062C2383.33 321.419 2380.48 333.65 2375.1 340.327L2204.97 550.875C2199.54 557.568 2188.08 563 2179.43 563H1906.58C1897.9 563 1886.44 557.545 1881.06 550.875L1710.91 340.327C1705.5 333.619 1702.67 321.381 1704.61 313.062L1765.33 50.4979C1767.27 42.1414 1775.2 32.3414 1782.99 28.6341L2028.84 -88.2138Z" fill="#15D59F"/>
</g>
<defs>
<linearGradient id="paint0_linear" x1="1710.08" y1="487.714" x2="1645.72" y2="585.281" gradientUnits="userSpaceOnUse">
<stop stop-color="white"/>
<stop offset="1" stop-color="#439246"/>
</linearGradient>
<linearGradient id="paint1_linear" x1="1705.79" y1="522.405" x2="1622.55" y2="679.543" gradientUnits="userSpaceOnUse">
<stop stop-color="white"/>
<stop offset="1" stop-color="#439246"/>
</linearGradient>
<linearGradient id="paint2_linear" x1="1511.19" y1="537.303" x2="1584.33" y2="661.442" gradientUnits="userSpaceOnUse">
<stop stop-color="white"/>
<stop offset="1" stop-color="#439246"/>
</linearGradient>
<linearGradient id="paint3_linear" x1="1537.81" y1="593.138" x2="1628.2" y2="774.846" gradientUnits="userSpaceOnUse">
<stop stop-color="white"/>
<stop offset="1" stop-color="#439246"/>
</linearGradient>
</defs>
</svg>
