<svg width="1438" height="567" viewBox="0 0 1438 567" fill="none" xmlns="http://www.w3.org/2000/svg">
<path d="M1438 5.08081H5.99173V567H1438V5.08081Z" fill="#13C190"/>
<path d="M1438 -174.774H5.99173V567H1438V-174.774Z" fill="url(#paint0_linear)"/>
<path fill-rule="evenodd" clip-rule="evenodd" d="M0.448303 -254.582C11.1645 -259.278 28.559 -259.259 39.2238 -254.582L375.813 -107.164C386.529 -102.468 397.379 -90.0851 400.009 -79.5806L483.129 251.674C485.78 262.217 481.885 277.648 474.508 286.073L241.588 551.703C234.16 560.147 218.471 567 206.624 567H-166.942C-178.829 567 -194.518 560.118 -201.885 551.703L-434.826 286.073C-442.244 277.61 -446.107 262.169 -443.457 251.674L-360.327 -79.5806C-357.676 -90.1234 -346.816 -102.487 -336.151 -107.164L0.448303 -254.582Z" fill="#12B084"/>
<path fill-rule="evenodd" clip-rule="evenodd" d="M1037.34 -159.529C1046.66 -163.606 1061.79 -163.59 1071.06 -159.529L1363.78 -31.5372C1373.1 -27.4597 1382.54 -16.7084 1384.82 -7.58813L1457.11 280.016C1459.42 289.17 1456.03 302.567 1449.61 309.882L1247.05 540.51C1240.59 547.841 1226.95 553.79 1216.65 553.79H891.771C881.433 553.79 867.789 547.816 861.383 540.51L658.804 309.882C652.352 302.534 648.993 289.128 651.298 280.016L723.593 -7.58813C725.898 -16.7417 735.342 -27.4763 744.617 -31.5372L1037.34 -159.529Z" fill="#14CC98"/>
<path fill-rule="evenodd" clip-rule="evenodd" d="M1363.94 -350.557C1373.25 -354.64 1388.35 -354.623 1397.62 -350.557L1689.98 -222.384C1699.28 -218.3 1708.71 -207.534 1710.99 -198.401L1783.19 89.6118C1785.49 98.7783 1782.11 112.195 1775.7 119.52L1573.39 350.474C1566.94 357.816 1553.31 363.774 1543.02 363.774H1218.54C1208.22 363.774 1194.59 357.791 1188.19 350.474L985.863 119.52C979.419 112.161 976.064 98.7366 978.366 89.6118L1050.57 -198.401C1052.87 -207.567 1062.31 -218.317 1071.57 -222.384L1363.94 -350.557Z" fill="#15D59F"/>
<defs>
<linearGradient id="paint0_linear" x1="174.865" y1="150.458" x2="1103.29" y2="692.205" gradientUnits="userSpaceOnUse">
<stop stop-color="#12B688"/>
<stop offset="1" stop-color="#15D19C"/>
</linearGradient>
</defs>
</svg>
