<svg width="1438" height="567" viewBox="0 0 1438 567" fill="none" xmlns="http://www.w3.org/2000/svg">
<rect x="-391" y="-355" width="2228.91" height="921.613" fill="#19AC84"/>
<mask id="mask0" mask-type="alpha" maskUnits="userSpaceOnUse" x="0" y="0" width="1438" height="567">
<rect width="1438" height="567" fill="#009F76"/>
</mask>
<g mask="url(#mask0)">
<g filter="url(#filter0_f)">
<path fill-rule="evenodd" clip-rule="evenodd" d="M7.50124 -551.627C26.0185 -560.142 56.0758 -560.107 74.5043 -551.627L656.122 -284.342C674.639 -275.827 693.387 -253.375 697.932 -234.329L841.561 366.276C846.142 385.392 839.413 413.37 826.666 428.645L424.185 910.265C411.349 925.575 384.239 938 363.769 938H-281.745C-302.286 938 -329.397 925.523 -342.126 910.265L-744.642 428.645C-757.461 413.3 -764.136 385.305 -759.556 366.276L-615.909 -234.329C-611.328 -253.444 -592.563 -275.861 -574.134 -284.342L7.50124 -551.627Z" fill="#1B7159"/>
</g>
<g filter="url(#filter1_f)">
<path fill-rule="evenodd" clip-rule="evenodd" d="M-69.3391 -86.4172C-58.6489 -91.204 -41.2966 -91.1845 -30.6577 -86.4172L305.114 63.8414C315.804 68.6283 326.628 81.2499 329.252 91.9569L412.169 429.597C414.814 440.343 410.929 456.071 403.57 464.658L171.215 735.409C163.805 744.015 148.154 751 136.336 751H-236.323C-248.182 751 -263.832 743.986 -271.181 735.409L-503.557 464.658C-510.957 456.032 -514.811 440.294 -512.166 429.597L-429.238 91.9569C-426.594 81.2109 -415.76 68.6087 -405.121 63.8414L-69.3391 -86.4172Z" fill="#138565"/>
</g>
<g filter="url(#filter2_f)">
<path fill-rule="evenodd" clip-rule="evenodd" d="M1503.01 -445.902C1514.89 -451.377 1534.17 -451.355 1545.99 -445.902L1919.11 -274.024C1930.99 -268.549 1943.02 -254.111 1945.94 -241.864L2038.08 144.354C2041.02 156.646 2036.7 174.638 2028.52 184.46L1770.32 494.165C1762.09 504.01 1744.69 512 1731.56 512H1317.45C1304.27 512 1286.88 503.977 1278.72 494.165L1020.49 184.46C1012.27 174.593 1007.99 156.59 1010.93 144.354L1103.08 -241.864C1106.02 -254.156 1118.06 -268.571 1129.88 -274.024L1503.01 -445.902Z" fill="#10C995"/>
</g>
<g filter="url(#filter3_f)">
<path fill-rule="evenodd" clip-rule="evenodd" d="M1639.84 -441.214C1647.67 -444.936 1660.37 -444.921 1668.16 -441.214L1914.01 -324.366C1921.83 -320.643 1929.76 -310.828 1931.68 -302.502L1992.39 -39.938C1994.33 -31.5814 1991.48 -19.3504 1986.1 -12.6727L1815.97 197.875C1810.54 204.568 1799.08 210 1790.43 210H1517.58C1508.9 210 1497.44 204.545 1492.06 197.875L1321.91 -12.6727C1316.5 -19.3808 1313.67 -31.6194 1315.61 -39.938L1376.33 -302.502C1378.27 -310.859 1386.2 -320.659 1393.99 -324.366L1639.84 -441.214Z" fill="#07E1A4"/>
</g>
</g>
<defs>
<filter id="filter0_f" x="-771" y="-568" width="1624" height="1516" filterUnits="userSpaceOnUse" color-interpolation-filters="sRGB">
<feFlood flood-opacity="0" result="BackgroundImageFix"/>
<feBlend mode="normal" in="SourceGraphic" in2="BackgroundImageFix" result="shape"/>
<feGaussianBlur stdDeviation="5" result="effect1_foregroundBlur"/>
</filter>
<filter id="filter1_f" x="-523" y="-100" width="946" height="861" filterUnits="userSpaceOnUse" color-interpolation-filters="sRGB">
<feFlood flood-opacity="0" result="BackgroundImageFix"/>
<feBlend mode="normal" in="SourceGraphic" in2="BackgroundImageFix" result="shape"/>
<feGaussianBlur stdDeviation="5" result="effect1_foregroundBlur"/>
</filter>
<filter id="filter2_f" x="1000" y="-460" width="1049" height="982" filterUnits="userSpaceOnUse" color-interpolation-filters="sRGB">
<feFlood flood-opacity="0" result="BackgroundImageFix"/>
<feBlend mode="normal" in="SourceGraphic" in2="BackgroundImageFix" result="shape"/>
<feGaussianBlur stdDeviation="5" result="effect1_foregroundBlur"/>
</filter>
<filter id="filter3_f" x="1305" y="-454" width="698" height="674" filterUnits="userSpaceOnUse" color-interpolation-filters="sRGB">
<feFlood flood-opacity="0" result="BackgroundImageFix"/>
<feBlend mode="normal" in="SourceGraphic" in2="BackgroundImageFix" result="shape"/>
<feGaussianBlur stdDeviation="5" result="effect1_foregroundBlur"/>
</filter>
</defs>
</svg>
