<svg width="2400" height="922" viewBox="0 0 2400 922" fill="none" xmlns="http://www.w3.org/2000/svg">
<rect width="2400" height="922" fill="#099E75"/>
<mask id="mask0" mask-type="alpha" maskUnits="userSpaceOnUse" x="0" y="0" width="2400" height="922">
<rect width="2400" height="922" fill="#009F76"/>
</mask>
<g mask="url(#mask0)">
<path fill-rule="evenodd" clip-rule="evenodd" d="M702.619 -338.251C713.332 -343.26 730.722 -343.239 741.384 -338.251L1077.88 -181.024C1088.59 -176.016 1099.44 -162.809 1102.07 -151.605L1185.17 201.692C1187.82 212.936 1183.92 229.394 1176.55 238.379L943.693 521.685C936.267 530.691 920.582 538 908.739 538H535.275C523.39 538 507.706 530.661 500.341 521.685L267.464 238.379C260.048 229.353 256.186 212.885 258.836 201.692L341.943 -151.605C344.593 -162.85 355.45 -176.036 366.112 -181.024L702.619 -338.251Z" fill="#20B088"/>
<path fill-rule="evenodd" clip-rule="evenodd" d="M443.474 -179.281C453.991 -184.25 471.062 -184.23 481.529 -179.281L811.862 -23.305C822.379 -18.336 833.027 -5.23404 835.608 5.88029L917.183 356.367C919.784 367.522 915.963 383.849 908.723 392.763L680.132 673.815C672.842 682.749 657.444 690 645.818 690H279.195C267.529 690 252.131 682.719 244.902 673.815L16.2904 392.763C9.01017 383.808 5.21881 367.471 7.82033 356.367L89.4052 5.88029C92.0068 -5.2746 102.665 -18.3562 113.131 -23.305L443.474 -179.281Z" fill="#138B6A"/>
<path fill-rule="evenodd" clip-rule="evenodd" d="M1572.65 133.295C1581.96 128.893 1597.08 128.911 1606.36 133.295L1898.98 271.489C1908.29 275.892 1917.73 287.5 1920.01 297.347L1992.28 607.877C1994.58 617.761 1991.2 632.226 1984.78 640.124L1782.29 889.135C1775.83 897.051 1762.19 903.475 1751.89 903.475H1427.12C1416.79 903.475 1403.15 897.024 1396.74 889.135L1194.23 640.124C1187.78 632.19 1184.42 617.716 1186.73 607.877L1259 297.347C1261.3 287.464 1270.74 275.874 1280.02 271.489L1572.65 133.295Z" fill="#12BE8E"/>
<path fill-rule="evenodd" clip-rule="evenodd" d="M706.064 133.353C715.149 128.873 729.897 128.892 738.939 133.353L1024.31 273.963C1033.39 278.443 1042.59 290.254 1044.82 300.274L1115.29 616.234C1117.54 626.29 1114.24 641.008 1107.99 649.044L910.509 902.41C904.211 910.464 890.91 917 880.866 917H564.146C554.067 917 540.765 910.436 534.52 902.41L337.026 649.044C330.737 640.971 327.461 626.244 329.709 616.234L400.189 300.274C402.436 290.218 411.644 278.425 420.685 273.963L706.064 133.353Z" fill="#289879"/>
<path fill-rule="evenodd" clip-rule="evenodd" d="M1934.83 -213.448C1944.87 -218.194 1961.18 -218.174 1971.17 -213.448L2286.64 -64.4652C2296.68 -59.719 2306.85 -47.2045 2309.32 -36.5885L2387.22 298.184C2389.7 308.838 2386.05 324.433 2379.14 332.947L2160.84 601.398C2153.87 609.932 2139.17 616.858 2128.07 616.858H1777.94C1766.8 616.858 1752.1 609.903 1745.19 601.398L1526.87 332.947C1519.92 324.394 1516.3 308.79 1518.78 298.184L1596.7 -36.5885C1599.18 -47.2432 1609.36 -59.7383 1619.35 -64.4652L1934.83 -213.448Z" fill="#15D59F"/>
</g>
</svg>
