<svg width="265" height="166" viewBox="0 0 265 166" fill="none" xmlns="http://www.w3.org/2000/svg">
<path d="M36.1 2C24 4.45 11 14.15 5.6 24.75C0.2 35.35 0 37.95 0 82.55C0 106.35 0.4 125.95 1 129.05C2.73662 137.925 7.07969 146.081 13.4743 152.476C19.869 158.87 28.0249 163.213 36.9 164.95C42.4 165.95 114 166.45 114 165.35C114 164.55 107.9 140.55 107.6 140.25C107.5 140.05 94.8 137.25 79.4 133.95C43.5 126.15 44.6 126.45 41.6 122.85L39 119.75V47.15L41.6 44C44.6 40.4 43.5 40.7 79.4 32.9C94.8 29.6 107.5 26.8 107.6 26.6C107.9 26.3 114 2.3 114 1.5C114 0.549998 40.9 0.999998 36.1 2V2ZM152 2.15C152.1 3.95 157.7 25.95 158.3 26.55C158.5 26.85 172.2 29.95 188.6 33.45C205 36.95 219.6 40.55 220.9 41.25C222.661 42.2701 224.139 43.7138 225.2 45.45C226.8 48.25 227 51.25 227 83.45C227 115.65 226.8 118.65 225.2 121.45C224.11 123.163 222.638 124.601 220.9 125.65C219.6 126.35 205.1 129.85 188.6 133.45C172.1 137.05 158.5 140.05 158.3 140.35C157.7 140.95 152.1 162.95 152 164.75C152 165.85 159.2 166.05 190.8 165.75C234.4 165.35 234.9 165.25 246 157.75C253.974 152.263 259.997 144.384 263.2 135.25C265.5 128.55 265.5 127.95 265.5 83.45C265.5 38.95 265.5 38.35 263.2 31.65C259.997 22.5162 253.974 14.6369 246 9.15C234.9 1.65 234.4 1.55 190.8 1.15C159.2 0.849998 152 0.999998 152 2.15V2.15Z" fill="#333333"/>
<path d="M107.4 81.35C107.079 82.4197 107.01 83.5494 107.2 84.65C107.5 86.35 109.3 86.45 132.8 86.75L158 86.95V79.95H133C112.1 79.95 107.8 80.15 107.4 81.35Z" fill="#333333"/>
</svg>
