<svg xmlns="http://www.w3.org/2000/svg" width="49" height="44" viewBox="0 0 49 44">
    <g fill="none" fill-rule="evenodd" opacity=".7">
        <path fill="#D7D4D2" d="M15.75 37L7 21.5 15.75 6h17.5L42 21.5 33.25 37z"/>
        <path fill="#8D9BA6" d="M17.046 35.093L9.389 21.826 5.19 14.552c-.306-.537-.433-1.272-.385-1.975L.396 20.32c-.528.927-.528 2.442 0 3.369l10.612 18.628c.528.926 1.823 1.684 2.879 1.684h12.63c.506-.303.946-.714 1.203-1.165l4.323-7.742H17.046z"/>
        <path fill="#D93A22" d="M48.602 20.319L37.99 1.691 42.3 9.259z"/>
        <path fill="#4C606F" d="M48.602 20.319l-6.3-11.06c-.546-.339-1.173-.554-1.733-.554h-8.542l7.386 13.193-7.37 13.195-4.323 7.742c-.257.451-.697.862-1.203 1.165h8.594c1.056 0 2.351-.758 2.879-1.684l4.22-7.409 6.392-11.22c.528-.926.528-2.442 0-3.368"/>
        <path fill="#6C7D8A" d="M37.99 1.691C37.462.765 36.166.007 35.11.007H13.888c-1.056 0-2.351.758-2.879 1.684L4.806 12.577c-.048.703.079 1.438.385 1.975l4.198 7.274 7.494-13.12h23.686c.56 0 1.187.214 1.732.553L37.99 1.691z"/>
        <path fill="#D6DCE2" d="M9.389 21.826l7.657 13.267h14.997l7.37-13.195-7.386-13.193H16.883z"/>
        <path fill="#FEFEFE" d="M24.484 28.778c-3.701 0-6.713-3.052-6.713-6.804 0-3.75 3.012-6.803 6.713-6.803 3.702 0 6.714 3.052 6.714 6.803 0 3.752-3.012 6.804-6.714 6.804"/>
    </g>
</svg>
