<svg width="128" height="128" viewBox="0 0 128 128" fill="none" xmlns="http://www.w3.org/2000/svg">
<path d="M82.0067 95.2867L70.0067 116.147H38.58C37.2027 116.146 35.8498 115.783 34.6582 115.092C33.4665 114.401 32.4783 113.408 31.7933 112.213L6.37332 67.8934C5.69511 66.7091 5.33832 65.3681 5.33832 64.0034C5.33832 62.6387 5.69511 61.2977 6.37332 60.1134L16.0466 43.2534L27.9867 64L45.9867 95.2867H82.0067Z" fill="#FBBC05"/>
<path d="M121.627 67.8933L96.2067 112.22C95.5224 113.416 94.5343 114.409 93.3425 115.1C92.1507 115.79 90.7975 116.154 89.42 116.153H70L82 95.2933L100.013 64L82 32.7133H105.907L121.62 60.1133C122.304 61.2954 122.665 62.6367 122.666 64.0024C122.667 65.3681 122.309 66.71 121.627 67.8933V67.8933Z" fill="#EA4335"/>
<path d="M105.913 32.7133H45.9867L27.9867 64L16.0467 43.2467L31.7934 15.7867C32.4777 14.5912 33.4658 13.5978 34.6575 12.907C35.8493 12.2163 37.2025 11.8528 38.58 11.8533H89.4267C90.8039 11.8544 92.1564 12.2186 93.3479 12.9091C94.5394 13.5997 95.5278 14.5922 96.2134 15.7866L105.913 32.7133Z" fill="#4285F4"/>
<path d="M82.0067 32.7133L100.007 64L82 95.2867H45.9933L27.9867 64L45.9867 32.7133H82.0067" fill="#E0E0E0"/>
<path d="M64 79.6467C72.6414 79.6467 79.6467 72.6414 79.6467 64C79.6467 55.3586 72.6414 48.3533 64 48.3533C55.3585 48.3533 48.3533 55.3586 48.3533 64C48.3533 72.6414 55.3585 79.6467 64 79.6467Z" fill="white"/>
<path opacity="0.2" d="M31.7933 16.4333C32.4776 15.2378 33.4657 14.2444 34.6575 13.5537C35.8494 12.8629 37.2025 12.4994 38.58 12.5H89.4267C90.8039 12.5011 92.1564 12.8653 93.348 13.5558C94.5395 14.2464 95.5279 15.2389 96.2134 16.4333L105.547 32.7133H105.92L96.2133 15.7867C95.529 14.5912 94.5409 13.5978 93.3491 12.9071C92.1573 12.2163 90.8041 11.8528 89.4266 11.8534H38.58C37.2027 11.8537 35.8498 12.2175 34.6582 12.9081C33.4665 13.5988 32.4783 14.5917 31.7933 15.7867L16.0466 43.2467L16.2333 43.5734L31.7933 16.4333Z" fill="white"/>
<path d="M27.987 64L45.987 32.713H105.913L105.54 32.06H45.987L27.987 63.347" fill="#1A237E" fill-opacity="0.2"/>
<path opacity="0.2" d="M6.3733 60.76L16.0466 43.8933L27.9866 64.6466L45.9866 95.9333H81.6266L82.0066 95.28H45.9866L27.9866 64L16.0466 43.2467L6.3733 60.1067C5.64458 61.39 5.29114 62.8522 5.3533 64.3267C5.40359 63.0734 5.75334 61.8504 6.3733 60.76V60.76Z" fill="white"/>
<g opacity="0.2">
<path opacity="0.2" d="M70.38 115.493H38.58C37.2027 115.493 35.8498 115.129 34.6581 114.439C33.4665 113.748 32.4782 112.755 31.7933 111.56L6.37331 67.24C5.75335 66.1496 5.40359 64.9266 5.35331 63.6733C5.28543 65.1483 5.63924 66.6121 6.37331 67.8933L31.7933 112.22C32.4776 113.416 33.4657 114.409 34.6575 115.1C35.8493 115.79 37.2025 116.154 38.58 116.153H70.0067L70.38 115.493Z" fill="#BF360C"/>
</g>
<g opacity="0.2">
<path opacity="0.2" d="M100.38 64L82.38 32.713H82.007L100.013 64H100.38Z" fill="#3E2723"/>
<path opacity="0.2" d="M121.627 67.24L96.2067 111.567C95.5224 112.762 94.5343 113.756 93.3425 114.446C92.1507 115.137 90.7975 115.501 89.42 115.5H70.38L70 116.153H89.42C90.7972 116.152 92.1497 115.788 93.3412 115.097C94.5328 114.407 95.5211 113.414 96.2067 112.22L121.627 67.8933C122.358 66.6109 122.711 65.148 122.647 63.6733C122.596 64.9266 122.247 66.1496 121.627 67.24Z" fill="#3E2723"/>
</g>
<g opacity="0.2">
<path opacity="0.2" d="M105.913 33.36L121.627 60.76C122.247 61.8504 122.596 63.0734 122.647 64.3267C122.714 62.8517 122.361 61.3879 121.627 60.1067L105.913 32.7067H82.0067L82.3867 33.36" fill="white"/>
<path opacity="0.2" d="M82.007 95.94L100.38 64H100.013L82.007 95.287L70.007 116.147H70.38L82.007 95.94Z" fill="white"/>
</g>
<path d="M121.627 60.1067L105.913 32.7067L96.2067 15.78C95.5224 14.5845 94.5343 13.5911 93.3425 12.9003C92.1507 12.2096 90.7975 11.8461 89.42 11.8467H38.58C37.2027 11.847 35.8498 12.2108 34.6582 12.9014C33.4665 13.5921 32.4783 14.585 31.7933 15.78L6.37332 60.1067C5.69511 61.291 5.33832 62.632 5.33832 63.9967C5.33832 65.3614 5.69511 66.7024 6.37332 67.8867L31.7933 112.213C32.4776 113.409 33.4657 114.402 34.6575 115.093C35.8493 115.784 37.2025 116.147 38.58 116.147H89.4267C90.8039 116.146 92.1564 115.781 93.3479 115.091C94.5395 114.4 95.5278 113.408 96.2134 112.213L121.633 67.8867C122.312 66.7024 122.669 65.3608 122.668 63.9958C122.666 62.6308 122.308 61.2899 121.627 60.1067V60.1067Z" fill="url(#paint0_radial)"/>
<defs>
<radialGradient id="paint0_radial" cx="0" cy="0" r="1" gradientUnits="userSpaceOnUse" gradientTransform="translate(22.208 18.89) scale(120.415)">
<stop stop-color="white" stop-opacity="0.1"/>
<stop offset="1" stop-color="white" stop-opacity="0"/>
</radialGradient>
</defs>
</svg>
