<svg width="110" height="114" viewBox="0 0 110 114" fill="none" xmlns="http://www.w3.org/2000/svg">
<path d="M81.668 26.316H56.336C54.2152 26.316 52.496 28.0352 52.496 30.156V54.161C52.4965 54.4699 52.5266 54.7779 52.586 55.081H28.21C26.0896 55.0816 24.371 56.8006 24.371 58.921V82.926C24.371 85.5766 26.5194 87.726 29.17 87.726H53.542C55.6624 87.726 57.381 86.0064 57.381 83.886V58.962H81.668C82.6866 58.962 83.6635 58.5573 84.3836 57.8369C85.1038 57.1166 85.508 56.1396 85.508 55.121V30.156C85.508 28.0352 83.7888 26.316 81.668 26.316Z" fill="url(#paint0_linear)"/>
<path d="M96.469 0H40.295C32.978 0 27.045 6.233 27.045 13.922V28.704H13.25C5.933 28.704 0 34.937 0 42.626V99.588C0 107.277 5.933 113.51 13.25 113.51H69.422C76.739 113.51 82.671 107.277 82.671 99.588V84.806H96.468C103.785 84.806 109.717 78.573 109.717 70.884V13.922C109.717 6.233 103.785 0 96.467 0H96.469ZM95.428 61.025C95.5466 65.9395 91.6624 70.0215 86.748 70.147H68.382V89.73C68.5 94.6442 64.616 98.7255 59.702 98.851H22.969C18.055 98.7255 14.171 94.6442 14.289 89.73V52.485C14.1704 47.5705 18.0546 43.4885 22.969 43.363H41.335V23.78C41.217 18.8658 45.101 14.7845 50.015 14.659H86.746C91.66 14.7845 95.544 18.8658 95.426 23.78L95.428 61.025Z" fill="url(#paint1_linear)"/>
<defs>
<linearGradient id="paint0_linear" x1="24.371" y1="57.021" x2="85.508" y2="57.021" gradientUnits="userSpaceOnUse">
<stop stop-color="#FFF263"/>
<stop offset="1" stop-color="#FEDC5E"/>
</linearGradient>
<linearGradient id="paint1_linear" x1="0" y1="56.755" x2="109.717" y2="56.755" gradientUnits="userSpaceOnUse">
<stop stop-color="#9EE96B"/>
<stop offset="1" stop-color="#6EAF56"/>
</linearGradient>
</defs>
</svg>
