<svg width="136" height="98" viewBox="0 0 136 98" fill="none" xmlns="http://www.w3.org/2000/svg">
<g filter="url(#filter0_d)">
<rect x="25" y="19" width="106" height="69" rx="9" fill="white"/>
<path d="M40.6995 33.7148H42.7728L47.1878 41.2236L51.5921 33.7148H53.6116L48.1116 42.8672V50H46.178V42.8672L40.6995 33.7148ZM54.8088 41.8574C54.8088 40.554 54.9878 39.3796 55.3459 38.334C55.7039 37.2812 56.1945 36.3932 56.8175 35.6699C57.4406 34.9395 58.1818 34.3809 59.0412 33.9941C59.9005 33.6074 60.8351 33.4141 61.8449 33.4141C62.8546 33.4141 63.7856 33.6074 64.6379 33.9941C65.4901 34.3809 66.2277 34.9395 66.8507 35.6699C67.4738 36.3932 67.9608 37.2812 68.3117 38.334C68.6626 39.3796 68.838 40.554 68.838 41.8574C68.838 43.168 68.6626 44.346 68.3117 45.3916C67.9608 46.4372 67.4738 47.3252 66.8507 48.0557C66.2277 48.779 65.4901 49.3376 64.6379 49.7314C63.7856 50.1182 62.8546 50.3115 61.8449 50.3115C60.8351 50.3115 59.9005 50.1182 59.0412 49.7314C58.1818 49.3376 57.4406 48.779 56.8175 48.0557C56.1945 47.3252 55.7039 46.4372 55.3459 45.3916C54.9878 44.346 54.8088 43.168 54.8088 41.8574ZM56.7638 41.8574C56.7638 42.9173 56.8892 43.8662 57.1398 44.7041C57.3905 45.5348 57.7378 46.2367 58.1818 46.8096C58.6258 47.3825 59.1593 47.8193 59.7824 48.1201C60.4126 48.4209 61.1001 48.5713 61.8449 48.5713C62.5754 48.5713 63.2521 48.4209 63.8752 48.1201C64.4982 47.8193 65.0317 47.3825 65.4757 46.8096C65.9269 46.2367 66.2778 45.5348 66.5285 44.7041C66.7791 43.8662 66.9045 42.9173 66.9045 41.8574C66.9045 40.8047 66.7791 39.863 66.5285 39.0322C66.2778 38.2015 65.9269 37.5033 65.4757 36.9375C65.0317 36.3646 64.4982 35.9277 63.8752 35.627C63.2521 35.3262 62.5754 35.1758 61.8449 35.1758C61.1001 35.1758 60.4126 35.3262 59.7824 35.627C59.1593 35.9277 58.6258 36.3646 58.1818 36.9375C57.7378 37.5033 57.3905 38.2015 57.1398 39.0322C56.8892 39.863 56.7638 40.8047 56.7638 41.8574ZM72.4092 44.3711V33.7148H74.3428V44.1025C74.3428 44.7614 74.4215 45.363 74.5791 45.9072C74.7438 46.4515 74.9945 46.917 75.3311 47.3037C75.6748 47.6904 76.1045 47.9948 76.6201 48.2168C77.1429 48.4388 77.7624 48.5498 78.4785 48.5498C79.9036 48.5498 80.9421 48.1488 81.5938 47.3467C82.2454 46.5374 82.5713 45.4704 82.5713 44.1455V33.7148H84.4834V44.3281C84.4834 45.1732 84.3581 45.9609 84.1074 46.6914C83.8639 47.4147 83.488 48.0449 82.9795 48.582C82.471 49.1191 81.8444 49.5381 81.0996 49.8389C80.3548 50.1396 79.474 50.29 78.457 50.29C77.4186 50.29 76.5163 50.1396 75.75 49.8389C74.9909 49.5381 74.3607 49.1227 73.8594 48.5928C73.3652 48.0628 73 47.4362 72.7637 46.7129C72.5273 45.9824 72.4092 45.2018 72.4092 44.3711ZM88.9891 50V33.7148H94.5858C96.4478 33.7148 97.8765 34.098 98.8719 34.8643C99.8674 35.6234 100.365 36.7585 100.365 38.2695C100.365 39.5944 100.025 40.6077 99.3446 41.3096C98.6642 42.0114 97.744 42.4876 96.5838 42.7383L100.591 50H98.4745L94.5858 42.9854H90.912V50H88.9891ZM90.912 41.2666H94.4676C95.7424 41.2666 96.7235 41.0589 97.411 40.6436C98.1056 40.221 98.453 39.4548 98.453 38.3447C98.453 37.2705 98.1128 36.5257 97.4325 36.1104C96.7521 35.6878 95.7567 35.4766 94.4461 35.4766H90.912V41.2666ZM103.517 46.0576L105.139 45.3379C105.548 46.4336 106.146 47.25 106.933 47.7871C107.721 48.3242 108.663 48.5928 109.758 48.5928C110.904 48.5928 111.825 48.3636 112.519 47.9053C113.221 47.4398 113.572 46.7738 113.572 45.9072C113.572 45.5133 113.507 45.1589 113.379 44.8438C113.257 44.5286 113.042 44.2386 112.734 43.9736C112.426 43.7087 112.007 43.458 111.477 43.2217C110.947 42.9854 110.281 42.7454 109.479 42.502C108.627 42.237 107.864 41.972 107.191 41.707C106.525 41.4421 105.959 41.1341 105.494 40.7832C105.035 40.4323 104.681 40.0133 104.43 39.5264C104.187 39.0322 104.065 38.4307 104.065 37.7217C104.065 37.1058 104.19 36.5365 104.441 36.0137C104.699 35.4837 105.057 35.0254 105.515 34.6387C105.981 34.2448 106.532 33.944 107.17 33.7363C107.814 33.5215 108.523 33.4141 109.297 33.4141C110.077 33.4141 110.775 33.5072 111.391 33.6934C112.007 33.8724 112.548 34.1266 113.013 34.4561C113.486 34.7855 113.891 35.1758 114.227 35.627C114.564 36.071 114.836 36.5508 115.044 37.0664L113.497 37.9258C113.06 36.9375 112.487 36.2321 111.778 35.8096C111.076 35.387 110.242 35.1758 109.275 35.1758C108.237 35.1758 107.427 35.4014 106.847 35.8525C106.267 36.2965 105.977 36.8695 105.977 37.5713C105.977 38.0081 106.049 38.377 106.192 38.6777C106.342 38.9785 106.586 39.2507 106.923 39.4941C107.259 39.7376 107.703 39.9704 108.255 40.1924C108.806 40.4072 109.476 40.64 110.263 40.8906C111.087 41.1413 111.821 41.4098 112.466 41.6963C113.11 41.9827 113.654 42.3122 114.098 42.6846C114.549 43.057 114.893 43.4938 115.13 43.9951C115.366 44.4964 115.484 45.0908 115.484 45.7783C115.484 46.4515 115.344 47.0674 115.065 47.626C114.786 48.1846 114.388 48.6608 113.873 49.0547C113.364 49.4486 112.752 49.7565 112.036 49.9785C111.327 50.2005 110.539 50.3115 109.673 50.3115C108.119 50.3115 106.808 49.9284 105.741 49.1621C104.681 48.3887 103.94 47.3538 103.517 46.0576ZM50.5256 74V57.7148H52.47V64.5361H60.8489V57.7148H62.7825V74H60.8489V66.3193H52.47V74H50.5256ZM67.4493 74V57.7148H77.4395V59.498H69.3936V64.5791H75.377V66.3193H69.3936V72.2383H77.9014V74H67.4493ZM81.5155 74V57.7148H87.1122C88.9742 57.7148 90.4029 58.098 91.3984 58.8643C92.3938 59.6234 92.8915 60.7585 92.8915 62.2695C92.8915 63.5944 92.5514 64.6077 91.871 65.3096C91.1907 66.0114 90.2704 66.4876 89.1103 66.7383L93.1171 74H91.0009L87.1122 66.9854H83.4384V74H81.5155ZM83.4384 65.2666H86.9941C88.2688 65.2666 89.2499 65.0589 89.9374 64.6436C90.6321 64.221 90.9794 63.4548 90.9794 62.3447C90.9794 61.2705 90.6392 60.5257 89.9589 60.1104C89.2786 59.6878 88.2831 59.4766 86.9726 59.4766H83.4384V65.2666ZM97.0642 74V57.7148H107.054V59.498H99.0086V64.5791H104.992V66.3193H99.0086V72.2383H107.516V74H97.0642Z" fill="#222222"/>
<rect x="25" y="19" width="106" height="69" rx="9" stroke="#009F76" stroke-width="2"/>
<path fill-rule="evenodd" clip-rule="evenodd" d="M23.477 2.23748C23.7208 2.12246 24.0047 2.12246 24.2484 2.23748L39.0012 9.19999C39.2449 9.31502 39.422 9.53254 39.4821 9.791L43.1258 25.4356C43.186 25.694 43.1228 25.9653 42.9542 26.1725L32.7449 38.7185C32.5762 38.9258 32.3205 39.0465 32.0499 39.0465H15.6755C15.405 39.0465 15.1492 38.9258 14.9805 38.7185L4.77127 26.1725C4.60261 25.9653 4.53943 25.694 4.59963 25.4356L8.24328 9.791C8.30347 9.53254 8.48049 9.31502 8.72418 9.19999L23.477 2.23748Z" fill="#009F76"/>
<mask id="mask0" mask-type="alpha" maskUnits="userSpaceOnUse" x="4" y="2" width="40" height="38">
<path fill-rule="evenodd" clip-rule="evenodd" d="M23.477 2.23748C23.7208 2.12246 24.0047 2.12246 24.2484 2.23748L39.0012 9.19999C39.2449 9.31502 39.422 9.53254 39.4821 9.791L43.1258 25.4356C43.186 25.694 43.1228 25.9653 42.9542 26.1725L32.7449 38.7185C32.5762 38.9258 32.3205 39.0465 32.0499 39.0465H15.6755C15.405 39.0465 15.1492 38.9258 14.9805 38.7185L4.77127 26.1725C4.60261 25.9653 4.53943 25.694 4.59963 25.4356L8.24328 9.791C8.30347 9.53254 8.48049 9.31502 8.72418 9.19999L23.477 2.23748Z" fill="white"/>
</mask>
<g mask="url(#mask0)">
<path opacity="0.289629" fill-rule="evenodd" clip-rule="evenodd" d="M-3.3988 25.7475L18.1446 12.9232L32.655 27.4799L15.4371 42.3623L-3.3988 25.7475Z" fill="#333333"/>
</g>
<path fill-rule="evenodd" clip-rule="evenodd" d="M29.1724 12.4185C29.2342 12.5703 29.2673 12.7343 29.2673 12.9026V18.9562C29.2673 19.397 29.0405 19.808 28.6643 20.0494L24.1793 22.9271C23.7357 23.2117 23.1622 23.2117 22.7187 22.9271L18.2337 20.0494C17.9207 19.8486 17.7112 19.5304 17.6496 19.1754L29.1724 12.4185Z" fill="url(#paint0_linear)"/>
<path fill-rule="evenodd" clip-rule="evenodd" d="M29.233 20.0482C29.1304 20.2208 28.9872 20.3707 28.8114 20.4835L24.3265 23.3611C23.8829 23.6457 23.3093 23.6457 22.8657 23.3611L18.3808 20.4835C18.0045 20.242 17.7778 19.831 17.7778 19.3903V13.3366C17.7778 13.168 17.811 13.0037 17.8731 12.8516L29.233 20.0482Z" fill="url(#paint1_linear)"/>
<path fill-rule="evenodd" clip-rule="evenodd" d="M14.8016 17.0448C14.7144 17.2202 14.6669 17.4152 14.6669 17.617V26.5615C14.6669 27.0283 14.9211 27.4597 15.3336 27.6931L23.2379 32.1654C23.6504 32.3988 24.1587 32.3988 24.5712 32.1654L32.4755 27.6931C32.7577 27.5334 32.9659 27.281 33.0691 26.988L14.8016 17.0448Z" fill="url(#paint2_linear)"/>
<path fill-rule="evenodd" clip-rule="evenodd" d="M14.8898 27.2847C15.0018 27.4499 15.1525 27.5906 15.3337 27.6932L23.238 32.1655C23.6505 32.3989 24.1588 32.3989 24.5713 32.1655L32.4756 27.6932C32.8881 27.4598 33.1423 27.0284 33.1423 26.5616V17.6171C33.1423 17.4509 33.1101 17.2894 33.0501 17.1395L14.8898 27.2847Z" fill="url(#paint3_linear)"/>
<mask id="mask1" mask-type="alpha" maskUnits="userSpaceOnUse" x="28" y="30" width="11" height="9">
<path d="M33.9735 31.605L33.974 31.6044C34.026 31.5496 34.048 31.5237 34.0657 31.4895C34.0805 31.4611 34.1027 31.4058 34.1027 31.2978C34.1027 31.182 34.0555 31.0579 33.9309 30.954C33.8031 30.8476 33.5612 30.7378 33.1429 30.7378C32.7726 30.7378 32.5116 30.8274 32.358 30.937C32.2165 31.038 32.158 31.1573 32.158 31.2978C32.158 31.4059 32.1802 31.4611 32.1949 31.4895C32.2126 31.5236 32.2345 31.5495 32.2864 31.6044C32.2865 31.6045 32.2865 31.6045 32.2865 31.6046C32.2866 31.6046 32.2866 31.6046 32.2866 31.6046L32.2868 31.6048L32.2885 31.6066C32.3122 31.6316 32.3537 31.6753 32.3878 31.722C32.4251 31.7732 32.502 31.8915 32.502 32.0604L32.502 32.061C32.502 32.0652 32.5021 32.0856 32.5006 32.1079C32.499 32.1335 32.4947 32.1771 32.4799 32.2284C32.4439 32.3535 32.364 32.4621 32.2508 32.5344C32.16 32.5923 32.0701 32.6123 32.0209 32.621C31.9658 32.6307 31.9098 32.6347 31.8589 32.6366L31.8497 32.6369H31.8404H30.075C29.5936 32.6369 29.3002 32.9926 29.3002 33.2221V34.0614C29.4586 33.9513 29.7037 33.8074 30.103 33.8074C30.848 33.8074 31.6163 34.3898 31.6163 35.3926C31.6163 36.33 30.9125 37.1031 30.112 37.1031C29.7096 37.1031 29.4581 36.9457 29.2999 36.8278L29.2999 37.7608C29.3 37.895 29.3697 38.0578 29.5236 38.1976C29.6761 38.3362 29.8777 38.4195 30.075 38.4195H31.6324C31.6083 38.3846 31.5842 38.3454 31.5623 38.3022C31.4847 38.149 31.4475 37.9766 31.4475 37.7784C31.4475 37.3531 31.6634 37.0076 31.9921 36.7884C32.3051 36.5797 32.7073 36.4897 33.1302 36.4897C33.5532 36.4897 33.9555 36.5797 34.2685 36.7884C34.5973 37.0076 34.8132 37.353 34.8132 37.7784C34.8132 37.9765 34.7759 38.1487 34.6986 38.3016C34.6766 38.345 34.6525 38.3843 34.6283 38.4193L35.5581 38.4195C35.5581 38.4195 35.5582 38.4195 35.5582 38.4195C35.7432 38.4195 35.8739 38.3546 35.9597 38.2649C36.047 38.1737 36.1166 38.0259 36.1166 37.8131V36.5516V36.4954L36.129 36.4407C36.1529 36.3357 36.2056 36.257 36.2272 36.2261C36.26 36.1793 36.3018 36.1307 36.3527 36.0856C36.4512 35.9981 36.6207 35.8921 36.8493 35.8921C37.0035 35.8921 37.115 35.9557 37.1675 35.9897C37.2137 36.0197 37.2583 36.0569 37.2846 36.0788L37.2877 36.0814L37.2891 36.0825C37.3461 36.1304 37.3765 36.1539 37.4194 36.1736C37.4588 36.1917 37.5305 36.2157 37.6603 36.2157L33.9735 31.605ZM33.9735 31.605L33.9706 31.608C33.9472 31.6327 33.9063 31.676 33.8729 31.7217C33.8358 31.7726 33.7585 31.891 33.7585 32.0604C33.7585 32.0626 33.7583 32.0835 33.7597 32.1062C33.7611 32.1307 33.765 32.1725 33.7786 32.2219C33.8114 32.342 33.8861 32.4526 34 32.5286C34.0919 32.5899 34.1835 32.611 34.2333 32.6201C34.2852 32.6295 34.3374 32.6335 34.3842 32.6354M33.9735 31.605L34.3842 32.6354M34.3842 32.6354L34.3878 32.6357L34.4053 32.6369H34.4229H35.5581C35.862 32.6369 36.1166 32.857 36.1166 33.2742V34.2463V34.2685L36.1185 34.2906L36.1191 34.2971L36.1223 34.3333L36.1308 34.3687C36.1565 34.4767 36.2138 34.5568 36.2316 34.5814C36.2636 34.6257 36.3047 34.6726 36.3549 34.7166C36.4517 34.8015 36.6206 34.9077 36.8493 34.9077C36.9559 34.9077 37.0387 34.8759 37.0768 34.8596C37.1212 34.8406 37.1582 34.819 37.1831 34.8034C37.2283 34.7752 37.2742 34.7412 37.3025 34.7202L37.3079 34.7163L37.3079 34.7163L37.31 34.7147L37.3101 34.7146L37.3105 34.7143C37.3105 34.7143 37.3105 34.7143 37.3106 34.7143C37.385 34.6592 37.4399 34.62 37.5088 34.5891C37.5725 34.5606 37.6563 34.536 37.7752 34.536C37.9431 34.536 38.0992 34.5964 38.2132 34.7128C38.3236 34.8255 38.4333 35.0309 38.4333 35.3926C38.4333 35.9509 38.0522 36.2155 37.6605 36.2157L34.3842 32.6354ZM34.3887 38.413C34.3887 38.413 34.389 38.4131 34.3896 38.4134L34.3887 38.413ZM31.8676 38.4146C31.8676 38.4147 31.8674 38.4148 31.8668 38.415L31.8676 38.4146Z" fill="white" stroke="#009F76"/>
</mask>
<g mask="url(#mask1)">
<path fill-rule="evenodd" clip-rule="evenodd" d="M28.7999 30.2378V39.2663H39.5999V30.2378H28.7999Z" fill="url(#paint4_linear)"/>
</g>
</g>
<defs>
<filter id="filter0_d" x="-2" y="0" width="140" height="105" filterUnits="userSpaceOnUse" color-interpolation-filters="sRGB">
<feFlood flood-opacity="0" result="BackgroundImageFix"/>
<feColorMatrix in="SourceAlpha" type="matrix" values="0 0 0 0 0 0 0 0 0 0 0 0 0 0 0 0 0 0 127 0"/>
<feOffset dy="5"/>
<feGaussianBlur stdDeviation="2"/>
<feColorMatrix type="matrix" values="0 0 0 0 0 0 0 0 0 0 0 0 0 0 0 0 0 0 0.25 0"/>
<feBlend mode="normal" in2="BackgroundImageFix" result="effect1_dropShadow"/>
<feBlend mode="normal" in="SourceGraphic" in2="effect1_dropShadow" result="shape"/>
</filter>
<linearGradient id="paint0_linear" x1="33.7843" y1="14.4658" x2="25.905" y2="26.1414" gradientUnits="userSpaceOnUse">
<stop stop-color="white"/>
<stop offset="1" stop-color="#439246"/>
</linearGradient>
<linearGradient id="paint1_linear" x1="33.2754" y1="18.6757" x2="23.0449" y2="37.5532" gradientUnits="userSpaceOnUse">
<stop stop-color="white"/>
<stop offset="1" stop-color="#439246"/>
</linearGradient>
<linearGradient id="paint2_linear" x1="10.1914" y1="20.4838" x2="19.165" y2="35.3705" gradientUnits="userSpaceOnUse">
<stop stop-color="white"/>
<stop offset="1" stop-color="#439246"/>
</linearGradient>
<linearGradient id="paint3_linear" x1="13.3489" y1="27.26" x2="24.4698" y2="49.1101" gradientUnits="userSpaceOnUse">
<stop stop-color="white"/>
<stop offset="1" stop-color="#439246"/>
</linearGradient>
<linearGradient id="paint4_linear" x1="21.659" y1="34.3609" x2="32.78" y2="56.211" gradientUnits="userSpaceOnUse">
<stop stop-color="white"/>
<stop offset="1" stop-color="#439246"/>
</linearGradient>
</defs>
</svg>
