<svg width="48" height="48" viewBox="0 0 48 48" fill="none" xmlns="http://www.w3.org/2000/svg">
<path d="M46.992 12.4064C46.7133 11.41 46.182 10.5025 45.4496 9.77166C44.7172 9.04084 43.8085 8.51151 42.8115 8.23492C39.069 7.23442 24.024 7.23442 24.024 7.23442C24.024 7.23442 9.00752 7.21042 5.22602 8.23492C4.23062 8.51272 3.32371 9.04261 2.59296 9.77336C1.86221 10.5041 1.33232 11.411 1.05452 12.4064C0.343821 16.2378 -0.00620964 20.1273 0.0090213 24.0239C0.00208666 27.9018 0.352063 31.7722 1.05452 35.5859C1.33322 36.5819 1.86326 37.4894 2.59376 38.2215C3.32426 38.9536 4.23069 39.4856 5.22602 39.7664C8.96852 40.7669 24.024 40.7669 24.024 40.7669C24.024 40.7669 39.0315 40.7669 42.8115 39.7664C43.8085 39.4868 44.7167 38.9553 45.4488 38.2232C46.1809 37.4911 46.7124 36.5829 46.992 35.5859C47.6805 31.7744 48.0165 27.8984 47.9925 24.0239C48.0165 20.1239 47.688 16.2419 46.992 12.4064ZM19.218 31.2044V16.8119L31.7415 24.0239L19.218 31.2044Z" fill="#009F76"/>
</svg>
