<?xml version="1.0" encoding="UTF-8" standalone="no"?>
<svg
   xmlns:dc="http://purl.org/dc/elements/1.1/"
   xmlns:cc="http://creativecommons.org/ns#"
   xmlns:rdf="http://www.w3.org/1999/02/22-rdf-syntax-ns#"
   xmlns:svg="http://www.w3.org/2000/svg"
   xmlns="http://www.w3.org/2000/svg"
   viewBox="0 0 234.66667 165.33333"
   height="165.33333"
   width="234.66667"
   xml:space="preserve"
   id="svg2"
   version="1.1"><metadata
     id="metadata8"><rdf:RDF><cc:Work
         rdf:about=""><dc:format>image/svg+xml</dc:format><dc:type
           rdf:resource="http://purl.org/dc/dcmitype/StillImage" /></cc:Work></rdf:RDF></metadata><defs
     id="defs6" /><g
     transform="matrix(1.3333333,0,0,-1.3333333,0,165.33333)"
     id="g10"><g
       transform="scale(0.1)"
       id="g12"><path
         id="path14"
         style="fill:#252323;fill-opacity:1;fill-rule:nonzero;stroke:none"
         d="m 1723.22,1046.37 c -20.24,76.22 -79.87,136.24 -155.6,156.61 C 1430.37,1240 880,1240 880,1240 c 0,0 -550.367,0 -687.621,-37.02 C 116.656,1182.61 57.0156,1122.59 36.7773,1046.37 0,908.227 0,620 0,620 0,620 0,331.777 36.7773,193.621 57.0156,117.41 116.656,57.3906 192.379,37.0117 329.633,0 880,0 880,0 c 0,0 550.37,0 687.62,37.0117 75.73,20.3789 135.36,80.3983 155.6,156.6093 C 1760,331.777 1760,620 1760,620 c 0,0 0,288.227 -36.78,426.37" /><path
         id="path16"
         style="fill:#ffffff;fill-opacity:1;fill-rule:nonzero;stroke:none"
         d="m 700,358.313 460,261.675 -460,261.7 z" /></g></g></svg>