<?xml version="1.0" encoding="UTF-8"?>
<svg width="300px" height="300px" viewBox="0 0 300 300" version="1.1" xmlns="http://www.w3.org/2000/svg" xmlns:xlink="http://www.w3.org/1999/xlink">
    <!-- Generator: Sketch 51.1 (57501) - http://www.bohemiancoding.com/sketch -->
    <title>github</title>
    <desc>Created with Sketch.</desc>
    <defs></defs>
    <g id="github" stroke="none" stroke-width="1" fill="none" fill-rule="evenodd">
        <path d="M267.067288,87.764451 C267.322722,74.8301612 264.525437,61.7524714 262.254383,48.875249 C261.472718,44.4425306 259.888743,40.1590653 258.328294,35.9560796 C257.152915,32.7920122 253.682477,30.7770959 250.485717,31.4697082 C248.416801,31.9174673 246.556746,32.3535204 244.752867,32.9563857 C225.870473,39.2669612 208.386722,48.4962633 191.590528,59.2190714 C189.333879,60.657949 186.051655,61.1774082 183.327351,60.974502 C176.809955,60.490649 170.36314,58.8430122 163.848625,58.5293857 C147.725585,57.7533673 131.634715,58.2518531 115.658117,61.0905878 C113.436998,61.4846939 110.512957,61.0964408 108.667786,59.8848571 C90.3524352,47.845598 71.2967116,37.5412837 49.860943,31.7560204 C46.643057,30.8873286 43.331544,31.3472816 42.5177098,32.6456857 C42.0207668,33.439751 41.5713575,34.2635694 41.3245665,35.1468939 C39.0088601,43.4123918 36.2643903,51.6364306 34.918563,60.0780082 C33.3144214,70.1525898 31.7717375,80.5320184 32.5327565,90.5944061 C33.0119344,96.9196143 31.2925596,100.806535 27.8903005,105.245106 C16.4769361,120.140659 11.3375371,137.262814 11.0230466,156.03602 C10.7527288,172.092431 12.8446908,187.740102 17.658076,203.089755 C25.0305976,226.608818 39.2671744,244.259212 60.7034231,255.742918 C78.3283351,265.184394 97.5338618,268.823535 117.186397,269.524927 C134.899655,270.155106 152.647482,269.620527 170.380905,269.72198 C188.1561,269.823433 205.686425,268.214329 222.690998,262.584659 C239.710456,256.951576 254.438214,247.862259 265.865983,233.570059 C282.371212,212.925337 287.510131,188.605867 288.564995,162.862641 C289.373547,143.176357 285.423931,124.657271 274.075385,108.552573 C269.473741,102.018606 266.893959,96.4064959 267.067288,87.764451 Z" id="Path" fill="#000000"></path>
        <path d="M232.846401,238.608569 C225.223727,245.304471 215.903285,248.474392 206.361979,250.790741 C187.641392,255.33418 168.579907,256.465771 149.456484,255.617565 C130.553444,256.450163 111.867907,255.253212 93.4762142,250.8561 C79.9094301,247.61448 67.5237858,242.163816 58.8909016,230.333804 C45.1536684,211.506945 41.642418,175.677431 64.3419102,156.122841 C70.130456,151.137496 76.5863938,147.973429 84.214829,147.481284 C92.6335717,146.934998 101.055195,145.869253 109.467696,145.970706 C130.689323,146.227265 151.901347,147.299351 173.120093,147.46031 C182.811202,147.531522 192.57001,145.236147 202.190059,145.827306 C210.931934,146.364812 220.123699,148.000255 228.057503,151.573549 C241.283389,157.531478 248.402877,169.612196 250.553896,183.761484 C253.756418,204.799824 249.530722,223.94909 232.846401,238.608569 Z" id="Path" fill="#FFFFFF"></path>
        <ellipse id="Oval" fill="#000000" fill-rule="nonzero" cx="198.26637" cy="197.593731" rx="20.2253402" ry="27.4596367"></ellipse>
        <ellipse id="Oval" fill="#000000" fill-rule="nonzero" cx="101.759558" cy="197.593731" rx="20.2282211" ry="27.4596367"></ellipse>
    </g>
</svg>