<?xml version="1.0" encoding="UTF-8"?>
<!DOCTYPE svg PUBLIC "-//W3C//DTD SVG 1.1//EN" "http://www.w3.org/Graphics/SVG/1.1/DTD/svg11.dtd">
<svg version="1.1" xmlns="http://www.w3.org/2000/svg" xmlns:xlink="http://www.w3.org/1999/xlink" x="0" y="0" width="35" height="20" viewBox="0, 0, 35, 20">
  <g id="Layer_1">
    <path d="M28.179,9.363 C28.03,9.461 27.831,9.462 27.683,9.363 C27.439,9.201 27.416,8.863 27.612,8.667 C27.786,8.486 28.075,8.486 28.25,8.667 C28.445,8.863 28.421,9.201 28.179,9.363 M28.836,8.378 C29.108,9.532 28.07,10.571 26.915,10.299 C26.327,10.161 25.861,9.695 25.723,9.107 C25.452,7.954 26.489,6.916 27.643,7.187 C28.231,7.324 28.698,7.79 28.836,8.378 M29.114,11.234 C28.689,11.195 28.705,10.69 29.23,10.743 C29.387,10.759 29.906,10.778 30.04,10.611 C30.101,10.534 30.091,10.387 30.089,10.352 C30.012,8.99 29.921,7.195 28.238,6.426 C26.982,5.852 25.099,4.962 24.304,4.593 C24.119,4.506 23.903,4.644 23.903,4.849 C23.903,5.344 23.927,5.881 23.927,6.57 C23.927,6.702 23.948,6.968 23.896,6.997 C23.847,7.024 23.773,6.822 23.594,6.671 C23.288,6.414 22.87,6.21 22.419,6.004 C21.864,5.749 21.291,5.533 20.708,5.352 C19.533,4.988 18.318,4.764 17.095,4.642 C15.709,4.504 14.3,4.57 12.935,4.852 C10.686,5.318 8.477,6.4 6.799,7.981 C5.77,8.951 4.962,10.329 4.907,11.729 C4.829,13.71 5.384,14.774 6.404,15.87 C8.031,17.617 11.532,17.862 12.95,15.79 C13.588,14.857 13.726,13.592 13.263,12.561 C12.801,11.531 11.736,10.786 10.607,10.748 C9.732,10.72 8.799,11.165 8.463,11.974 C8.207,12.592 8.353,13.357 8.819,13.837 C9.001,14.024 9.247,14.177 9.516,14.117 C9.674,14.082 9.806,13.963 9.83,13.802 C9.865,13.565 9.658,13.412 9.531,13.23 C9.3,12.901 9.347,12.409 9.635,12.13 C9.878,11.894 10.239,11.824 10.577,11.825 C10.893,11.825 11.215,11.882 11.487,12.041 C11.87,12.266 12.124,12.678 12.212,13.113 C12.474,14.414 11.417,15.471 9.982,15.555 C9.248,15.598 8.502,15.405 7.929,14.944 C6.479,13.778 6.123,11.393 7.782,10.12 C9.355,8.912 11.341,9.223 12.513,9.851 C13.45,10.353 14.149,11.175 14.678,12.084 C14.944,12.541 15.17,13.018 15.38,13.503 C15.582,13.97 15.771,14.44 16.176,14.781 C16.443,15.008 16.773,15 17.124,15 L19.126,15 C19.398,15 19.332,14.819 19.214,14.699 C18.949,14.427 18.567,14.366 18.214,14.269 C17.408,14.047 17.49,12.979 17.713,12.979 C18.434,12.979 18.457,13.001 19.089,12.992 C20.001,12.98 20.277,12.927 20.99,13.191 C21.372,13.332 21.738,13.705 21.977,14.045 C22.102,14.225 22.206,14.398 22.265,14.572 C22.306,14.695 22.359,14.858 22.481,14.924 C22.487,14.927 22.493,14.93 22.5,14.932 C22.724,15.014 23.298,15 23.298,15 L24.355,15 C24.445,15.001 25.238,14.999 25.218,14.91 C25.123,14.486 24.632,14.41 24.259,14.188 C23.914,13.983 23.588,13.75 23.439,13.35 C23.362,13.143 23.408,12.666 23.541,12.493 C23.638,12.367 23.781,12.284 23.935,12.25 C24.105,12.214 24.281,12.245 24.452,12.263 C24.662,12.284 24.869,12.322 25.078,12.348 C25.482,12.4 25.891,12.422 26.298,12.411 C26.97,12.392 27.644,12.284 28.281,12.067 C28.727,11.918 28.748,11.89 29.169,11.68 C29.808,11.36 29.333,11.253 29.114,11.234" fill="#30BA78"/>
  </g>
</svg>
