<?xml version="1.0" encoding="UTF-8"?>
<svg width="300px" height="300px" viewBox="0 0 300 300" version="1.1" xmlns="http://www.w3.org/2000/svg" xmlns:xlink="http://www.w3.org/1999/xlink">
    <!-- Generator: Sketch 51.1 (57501) - http://www.bohemiancoding.com/sketch -->
    <title>costs</title>
    <desc>Created with Sketch.</desc>
    <defs></defs>
    <g id="costs" stroke="none" stroke-width="1" fill="none" fill-rule="evenodd">
        <path d="M142.217841,12.4704393 C146.197849,10.5537686 152.64685,10.5519065 156.630724,12.4704393 L256.554689,60.5912847 C260.534697,62.5079553 264.557039,67.5488261 265.540975,71.8597302 L290.220156,179.986288 C291.203137,184.293008 289.769914,190.580733 287.012988,194.03781 L217.863458,280.748577 C215.109208,284.202298 209.299667,287.002093 204.8779,287.002093 L93.9706657,287.002093 C89.5531905,287.002093 83.7420337,284.205654 80.985107,280.748577 L11.8355777,194.03781 C9.08132689,190.584089 7.6444738,184.297192 8.62840952,179.986288 L33.3075908,71.8597302 C34.2905715,67.5530103 38.3100018,62.5098175 42.2938763,60.5912847 L142.217841,12.4704393 Z" id="Polygon-2" stroke="#0CA391" stroke-width="6"></path>
        <text id="$" font-family="KohinoorTelugu-Light, Kohinoor Telugu" font-size="204" font-weight="300" fill="#0CA391">
            <tspan x="93" y="223">$</tspan>
        </text>
    </g>
</svg>