<?xml version="1.0" encoding="UTF-8"?>
<svg width="300px" height="300px" viewBox="0 0 300 300" version="1.1" xmlns="http://www.w3.org/2000/svg" xmlns:xlink="http://www.w3.org/1999/xlink">
    <!-- Generator: Sketch 51.1 (57501) - http://www.bohemiancoding.com/sketch -->
    <title>rocket</title>
    <desc>Created with Sketch.</desc>
    <defs></defs>
    <g id="rocket" stroke="none" stroke-width="1" fill="none" fill-rule="evenodd">
        <path d="M142.217841,12.4704393 C146.197849,10.5537686 152.64685,10.5519065 156.630724,12.4704393 L256.554689,60.5912847 C260.534697,62.5079553 264.557039,67.5488261 265.540975,71.8597302 L290.220156,179.986288 C291.203137,184.293008 289.769914,190.580733 287.012988,194.03781 L217.863458,280.748577 C215.109208,284.202298 209.299667,287.002093 204.8779,287.002093 L93.9706657,287.002093 C89.5531905,287.002093 83.7420337,284.205654 80.985107,280.748577 L11.8355777,194.03781 C9.08132689,190.584089 7.6444738,184.297192 8.62840952,179.986288 L33.3075908,71.8597302 C34.2905715,67.5530103 38.3100018,62.5098175 42.2938763,60.5912847 L142.217841,12.4704393 Z" id="Polygon-2" stroke="#0CA391" stroke-width="6"></path>
        <g transform="translate(149.614407, 148.489428) rotate(35.000000) translate(-149.614407, -148.489428) translate(95.614407, 37.989428)" fill-rule="nonzero" id="Shape" stroke="#0CA391">
            <path d="M72.7224318,152.934549 C71.2728152,147.377686 66.44076,143.512041 60.6422936,143.512041 L49.7701693,143.512041 C43.9717029,143.512041 39.1396477,147.377686 37.6900311,152.934549 L36.2404145,158.491413 C32.6163731,172.745976 34.5491952,187.483744 42.0388808,200.288691 L52.6694024,218.650501 C53.152608,219.375309 54.119019,220.100118 55.0854301,220.100118 L55.0854301,220.100118 C56.0518411,220.100118 57.0182522,219.616912 57.5014577,218.650501 L68.1319793,200.288691 C75.621665,187.483744 77.5544871,172.745976 73.9304456,158.491413 L72.7224318,152.934549 Z" stroke-width="5"></path>
            <path d="M62.333513,152.451344 C61.6087047,150.035316 59.6758826,148.344097 57.0182522,148.344097 L53.152608,148.344097 C50.7365803,148.344097 48.5621555,150.035316 47.8373472,152.451344 L47.5957444,154.625769 C46.1461278,159.941029 47.1125389,165.497893 49.7701693,170.329948 L53.6358135,176.853223 C54.119019,177.578031 54.6022245,177.819634 55.3270328,177.819634 L55.3270328,177.819634 C56.0518411,177.819634 56.7766494,177.336428 57.0182522,176.853223 L60.8838964,170.329948 C63.5415268,165.497893 64.5079378,159.941029 63.0583213,154.625769 L62.333513,152.451344 Z" stroke-width="4"></path>
            <path d="M37.9316339,58.9510743 C37.9316339,67.6487738 44.938114,74.6552539 53.6358135,74.6552539 C62.333513,74.6552539 69.3399931,67.6487738 69.3399931,58.9510743 C69.3399931,50.2533748 62.333513,43.2468947 53.6358135,43.2468947 C44.938114,43.2468947 37.9316339,50.2533748 37.9316339,58.9510743 Z" stroke-width="5"></path>
            <path d="M106.305216,115.969326 C104.372394,106.063613 98.3323247,96.6411054 89.3930225,89.6346252 C87.9434059,61.6087047 79.0041037,34.3075924 63.0583213,10.6305216 L57.7430605,2.89923316 C56.7766494,1.69121934 55.3270328,0.72480829 53.8774163,0.72480829 L53.8774163,0.72480829 C52.4277997,0.72480829 50.9781831,1.44961658 50.011772,2.89923316 L45.6629223,9.42250777 C29.4755371,33.3411814 20.2946321,61.3671019 18.6034128,89.876228 C9.9057133,96.6411054 3.86564422,106.063613 1.93282211,115.969326 L0.72480829,122.250998 C0.483205527,123.459012 0.966411054,124.908629 1.93282211,125.633437 C2.6576304,126.116643 3.38243869,126.358245 4.10724698,126.358245 C4.59045251,126.358245 5.07365803,126.116643 5.55686356,125.87504 L19.5698238,119.834971 C20.2946321,124.908629 21.0194404,129.982287 22.2274542,135.055945 C22.9522625,137.713575 25.1266874,139.646397 27.7843178,139.646397 L28.0259206,139.646397 L43.2468947,138.679986 C50.2533748,138.196781 57.2598549,138.196781 64.2663351,138.679986 L78.7625009,139.646397 C81.661734,139.888 84.0777617,137.955178 84.80257,135.297548 C86.0105838,130.22389 86.9769948,125.150231 87.7018031,120.076573 L101.956366,126.116643 C102.439572,126.358245 102.922777,126.599848 103.647586,126.599848 C104.372394,126.599848 105.097202,126.358245 105.82201,125.87504 C107.030024,125.150231 107.51323,123.700615 107.030024,122.492601 L106.305216,115.969326 Z" stroke-width="5"></path>
        </g>
    </g>
</svg>