<?xml version="1.0" encoding="UTF-8"?>
<svg width="300px" height="300px" viewBox="0 0 300 300" version="1.1" xmlns="http://www.w3.org/2000/svg" xmlns:xlink="http://www.w3.org/1999/xlink">
    <!-- Generator: Sketch 51.1 (57501) - http://www.bohemiancoding.com/sketch -->
    <title>video</title>
    <desc>Created with Sketch.</desc>
    <defs></defs>
    <g id="video" stroke="none" stroke-width="1" fill="none" fill-rule="evenodd">
        <path d="M151.310833,115.576584 C155.26646,108.92847 161.682649,108.933259 165.635427,115.576584 L210.810833,191.501635 C214.76646,198.149749 211.701018,203.53911 203.972386,203.53911 L112.973873,203.53911 C105.241476,203.53911 102.182649,198.14496 106.135427,191.501635 L151.310833,115.576584 Z" id="Triangle-2" stroke="#0CA391" stroke-width="5" transform="translate(158.473408, 157.065702) rotate(90.000000) translate(-158.473408, -157.065702) "></path>
        <path d="M141.369276,13.4704393 C145.349284,11.5537686 151.798284,11.5519065 155.782159,13.4704393 L255.706124,61.5912847 C259.686131,63.5079553 263.708473,68.5488261 264.692409,72.8597302 L289.37159,180.986288 C290.354571,185.293008 288.921349,191.580733 286.164422,195.03781 L217.014893,281.748577 C214.260642,285.202298 208.451101,288.002093 204.029334,288.002093 L93.1221002,288.002093 C88.704625,288.002093 82.8934682,285.205654 80.1365416,281.748577 L10.9870122,195.03781 C8.23276141,191.584089 6.79590831,185.297192 7.77984404,180.986288 L32.4590253,72.8597302 C33.4420061,68.5530103 37.4614364,63.5098175 41.4453108,61.5912847 L141.369276,13.4704393 Z" id="Polygon-2" stroke="#0CA391" stroke-width="6"></path>
    </g>
</svg>