<?xml version="1.0" encoding="UTF-8"?>
<svg width="660px" height="160px" viewBox="0 0 660 160" version="1.1" xmlns="http://www.w3.org/2000/svg" xmlns:xlink="http://www.w3.org/1999/xlink">

    <style type="text/css">
        <![CDATA[


@keyframes snooze {
	0% {
		transform: scale(1);
	}
	50% {
		transform: scale(1.1);
	}
	100% {
		transform: scale(1);
	}
}

#snooze > *{
animation: snooze 6s ease-in-out infinite;
    transform-origin: 100px center;
}

  ]]>
    </style>


    <!-- Generator: Sketch 52 (66869) - http://www.bohemiancoding.com/sketch -->
    <title>teaser</title>
    <desc>Created with Sketch.</desc>
    <defs>
        <path d="M65.4777399,1.55019548 C67.0355576,0.802427435 69.5677448,0.805531096 71.1190967,1.55019548 L120.080049,25.0519421 C121.637867,25.7997101 123.214225,27.7749567 123.597377,29.4482024 L135.689734,82.2561476 C136.074483,83.9363672 135.507983,86.3963559 134.434414,87.7381946 L100.552384,130.086879 C99.4743406,131.43431 97.1915676,132.526619 95.4696971,132.526619 L41.1271396,132.526619 C39.3980925,132.526619 37.1180215,131.428717 36.0444528,130.086879 L2.16242242,87.7381946 C1.08437915,86.3907632 0.523950186,83.9293933 0.907102443,82.2561476 L12.9994591,29.4482024 C13.3842083,27.767983 14.9654357,25.7966064 16.5167875,25.0519421 L65.4777399,1.55019548 Z" id="path-1"></path>
        <linearGradient x1="12.7542673%" y1="-18.6617048%" x2="88.2666158%" y2="84.6075483%" id="linearGradient-3">
            <stop stop-color="#FFFFFF" offset="0%"></stop>
            <stop stop-color="#439246" offset="100%"></stop>
        </linearGradient>
        <linearGradient x1="50%" y1="4.93673768%" x2="148.756007%" y2="175.514523%" id="linearGradient-4">
            <stop stop-color="#FFFFFF" offset="0%"></stop>
            <stop stop-color="#439246" offset="100%"></stop>
        </linearGradient>
        <linearGradient x1="19.1574381%" y1="-9.04800713%" x2="82.2203149%" y2="77.9084293%" id="linearGradient-5">
            <stop stop-color="#FFFFFF" offset="0%"></stop>
            <stop stop-color="#439246" offset="100%"></stop>
        </linearGradient>
        <linearGradient x1="57.4403751%" y1="26.3148481%" x2="137.966711%" y2="158.080556%" id="linearGradient-6">
            <stop stop-color="#FFFFFF" offset="0%"></stop>
            <stop stop-color="#439246" offset="100%"></stop>
        </linearGradient>
        <path d="M65.4777399,1.55019548 C67.0355576,0.802427435 69.5677448,0.805531096 71.1190967,1.55019548 L120.080049,25.0519421 C121.637867,25.7997101 123.214225,27.7749567 123.597377,29.4482024 L135.689734,82.2561476 C136.074483,83.9363672 135.507983,86.3963559 134.434414,87.7381946 L100.552384,130.086879 C99.4743406,131.43431 97.1915676,132.526619 95.4696971,132.526619 L41.1271396,132.526619 C39.3980925,132.526619 37.1180215,131.428717 36.0444528,130.086879 L2.16242242,87.7381946 C1.08437915,86.3907632 0.523950186,83.9293933 0.907102443,82.2561476 L12.9994591,29.4482024 C13.3842083,27.767983 14.9654357,25.7966064 16.5167875,25.0519421 L65.4777399,1.55019548 Z" id="path-7"></path>
    </defs>
    <g id="teaser" stroke="none" stroke-width="1" fill="none" fill-rule="evenodd">
        <g id="logo" transform="translate(21.000000, 14.000000)">
            <g id="Rectangle-2">
                <g id="Mask" fill="#009F76" fill-rule="nonzero">
                    <path d="M65.4777399,1.55019548 C67.0355576,0.802427435 69.5677448,0.805531096 71.1190967,1.55019548 L120.080049,25.0519421 C121.637867,25.7997101 123.214225,27.7749567 123.597377,29.4482024 L135.689734,82.2561476 C136.074483,83.9363672 135.507983,86.3963559 134.434414,87.7381946 L100.552384,130.086879 C99.4743406,131.43431 97.1915676,132.526619 95.4696971,132.526619 L41.1271396,132.526619 C39.3980925,132.526619 37.1180215,131.428717 36.0444528,130.086879 L2.16242242,87.7381946 C1.08437915,86.3907632 0.523950186,83.9293933 0.907102443,82.2561476 L12.9994591,29.4482024 C13.3842083,27.767983 14.9654357,25.7966064 16.5167875,25.0519421 L65.4777399,1.55019548 Z" id="path-1"></path>
                </g>
                <g id="Clipped">
                    <mask id="mask-2" fill="white">
                        <use xlink:href="#path-1"></use>
                    </mask>
                    <g id="path-1"></g>
                    <polygon id="Shape" fill="#000000" fill-rule="nonzero" opacity="0.289628623" mask="url(#mask-2)" points="-27.5883621 84.9536019 48.1849857 39.0767397 99.2216235 91.1511628 38.6621768 144.391147"></polygon>
                </g>
            </g>
            <path d="M87,61.2929743 C86.3323067,63.1160129 85.0781228,64.8676646 83.6310856,65.8104295 L71.1380409,73.9498222 C68.9942563,75.3465279 65.5293284,75.3535862 63.3747101,73.9498222 L50.8816654,65.8104295 C48.7378809,64.4137239 47,61.2103286 47,58.6536743 L47,41.5146442 C47,40.3978289 47.3297558,39.158572 47.8808497,38 L87,61.2929743 Z" id="Combined-Shape" fill="url(#linearGradient-3)" fill-rule="nonzero" transform="translate(67.000000, 56.500000) scale(-1, 1) translate(-67.000000, -56.500000) "></path>
            <path d="M86.1106753,39 C86.666559,40.1539929 87,41.3870398 87,42.498023 L87,59.6455603 C87,62.2026902 85.2434392,65.4014074 83.0520005,66.805868 L70.3454611,74.9493011 C68.1650411,76.3466998 64.6409006,76.3537617 62.449462,74.9493011 L49.7429225,66.805868 C48.6772911,66.1229206 47.7102685,65.0082225 47,63.7483172 L86.1106753,39 Z" id="Combined-Shape" fill="url(#linearGradient-4)" fill-rule="nonzero" transform="translate(67.000000, 57.500000) scale(-1, 1) translate(-67.000000, -57.500000) "></path>
            <path d="M100,89.1237787 C99.2649921,90.7138759 98.0778704,92.1581328 96.741028,92.9332287 L72.4253788,107.031345 C70.1960391,108.323907 66.5780379,108.321862 64.3522257,107.031345 L40.0365765,92.9332287 C37.8072369,91.6406665 36,88.49309 36,85.912056 L36,57.7158232 C36,56.5174373 36.389128,55.1986217 37.0283427,54 L100,89.1237787 Z" id="Combined-Shape" fill="url(#linearGradient-5)" fill-rule="nonzero"></path>
            <path d="M100.134971,54 C100.676908,55.0929917 101,56.2652468 101,57.3383428 L101,85.1855054 C101,87.7386259 99.1733198,90.8452154 96.9279438,92.1197558 L72.3985709,106.043337 C70.1496363,107.319897 66.4998345,107.317878 64.2544584,106.043337 L39.7250856,92.1197558 C38.6771408,91.524912 37.7216535,90.5322723 37,89.3838111 L100.134971,54 Z" id="Combined-Shape" fill="url(#linearGradient-6)" fill-rule="nonzero"></path>
        </g>
        <g id="snooze" transform="translate(480.000000, 14.000000)">
            <g id="logo" opacity="0.330970982" transform="translate(0.000000, 18.000000)">
                <g id="Rectangle-2">
                    <g id="Mask" fill="#009F76" fill-rule="nonzero">
                        <path d="M65.4777399,1.55019548 C67.0355576,0.802427435 69.5677448,0.805531096 71.1190967,1.55019548 L120.080049,25.0519421 C121.637867,25.7997101 123.214225,27.7749567 123.597377,29.4482024 L135.689734,82.2561476 C136.074483,83.9363672 135.507983,86.3963559 134.434414,87.7381946 L100.552384,130.086879 C99.4743406,131.43431 97.1915676,132.526619 95.4696971,132.526619 L41.1271396,132.526619 C39.3980925,132.526619 37.1180215,131.428717 36.0444528,130.086879 L2.16242242,87.7381946 C1.08437915,86.3907632 0.523950186,83.9293933 0.907102443,82.2561476 L12.9994591,29.4482024 C13.3842083,27.767983 14.9654357,25.7966064 16.5167875,25.0519421 L65.4777399,1.55019548 Z" id="path-1"></path>
                    </g>
                    <g id="Clipped">
                        <mask id="mask-8" fill="white">
                            <use xlink:href="#path-7"></use>
                        </mask>
                        <g id="path-1"></g>
                        <polygon id="Shape" fill="#000000" fill-rule="nonzero" opacity="0.289628623" mask="url(#mask-8)" points="-27.5883621 84.9536019 48.1849857 39.0767397 99.2216235 91.1511628 38.6621768 144.391147"></polygon>
                    </g>
                </g>
                <path d="M87,61.2929743 C86.3323067,63.1160129 85.0781228,64.8676646 83.6310856,65.8104295 L71.1380409,73.9498222 C68.9942563,75.3465279 65.5293284,75.3535862 63.3747101,73.9498222 L50.8816654,65.8104295 C48.7378809,64.4137239 47,61.2103286 47,58.6536743 L47,41.5146442 C47,40.3978289 47.3297558,39.158572 47.8808497,38 L87,61.2929743 Z" id="Combined-Shape" fill="url(#linearGradient-3)" fill-rule="nonzero" transform="translate(67.000000, 56.500000) scale(-1, 1) translate(-67.000000, -56.500000) "></path>
                <path d="M86.1106753,39 C86.666559,40.1539929 87,41.3870398 87,42.498023 L87,59.6455603 C87,62.2026902 85.2434392,65.4014074 83.0520005,66.805868 L70.3454611,74.9493011 C68.1650411,76.3466998 64.6409006,76.3537617 62.449462,74.9493011 L49.7429225,66.805868 C48.6772911,66.1229206 47.7102685,65.0082225 47,63.7483172 L86.1106753,39 Z" id="Combined-Shape" fill="url(#linearGradient-4)" fill-rule="nonzero" transform="translate(67.000000, 57.500000) scale(-1, 1) translate(-67.000000, -57.500000) "></path>
                <path d="M100,89.1237787 C99.2649921,90.7138759 98.0778704,92.1581328 96.741028,92.9332287 L72.4253788,107.031345 C70.1960391,108.323907 66.5780379,108.321862 64.3522257,107.031345 L40.0365765,92.9332287 C37.8072369,91.6406665 36,88.49309 36,85.912056 L36,57.7158232 C36,56.5174373 36.389128,55.1986217 37.0283427,54 L100,89.1237787 Z" id="Combined-Shape" fill="url(#linearGradient-5)" fill-rule="nonzero"></path>
                <path d="M100.134971,54 C100.676908,55.0929917 101,56.2652468 101,57.3383428 L101,85.1855054 C101,87.7386259 99.1733198,90.8452154 96.9279438,92.1197558 L72.3985709,106.043337 C70.1496363,107.319897 66.4998345,107.317878 64.2544584,106.043337 L39.7250856,92.1197558 C38.6771408,91.524912 37.7216535,90.5322723 37,89.3838111 L100.134971,54 Z" id="Combined-Shape" fill="url(#linearGradient-6)" fill-rule="nonzero"></path>
            </g>
            <text id="Z" font-family="BentonSans-Medium, BentonSans" font-size="48" font-weight="400" letter-spacing="8.123081" fill="#4A4A4A">
                <tspan x="134" y="56">Z</tspan>
            </text>
            <text id="Z" font-family="BentonSans-Medium, BentonSans" font-size="15" font-weight="400" letter-spacing="2.538462" fill="#4A4A4A">
                <tspan x="85" y="74">Z</tspan>
            </text>
            <text id="Z" font-family="BentonSans-Medium, BentonSans" font-size="22" font-weight="400" letter-spacing="3.723078" fill="#4A4A4A">
                <tspan x="96" y="68">Z</tspan>
            </text>
            <text id="Z" font-family="BentonSans-Medium, BentonSans" font-size="29" font-weight="400" letter-spacing="4.907694" fill="#4A4A4A">
                <tspan x="113" y="60">Z</tspan>
            </text>
        </g>
        <path id="Line" d="M448.55236,48.4321616 C392.398035,31.4021907 350.152379,22.8945312 321.892578,22.8945312 C290.108225,22.8945312 240.648291,33.6542224 173.6117,55.1893158 C172.560061,55.5271482 171.433673,54.9484941 171.09584,53.8968558 C170.758008,52.8452175 171.336662,51.718829 172.3883,51.3809967 C239.790077,29.7285901 289.591862,18.8945312 321.892578,18.8945312 C350.637902,18.8945312 393.230824,27.4729219 449.748589,44.6150404 L452.316144,36.4220637 C452.552588,35.6675798 453.355894,35.2476253 454.110378,35.4840692 C454.32246,35.5505327 454.516156,35.6654617 454.676125,35.8197546 L471.684975,52.2250902 C472.254065,52.7739876 472.270435,53.6802954 471.721538,54.2493854 C471.506494,54.4723395 471.224939,54.6195319 470.919132,54.6688693 L447.589553,58.4327485 C446.808981,58.5586822 446.074113,58.027993 445.94818,57.2474211 C445.91278,57.0280054 445.928952,56.803361 445.995416,56.5912785 L448.55236,48.4321616 Z" fill="#4A4A4A" fill-rule="nonzero"></path>
        <path id="BackArrow" d="M191.053656,117.611845 C247.311171,136.756911 289.620235,146.320312 317.892578,146.320312 C349.646666,146.320312 399.089218,134.259477 466.107355,110.118356 C467.146558,109.744016 468.292461,110.282995 468.6668,111.322198 C469.04114,112.361402 468.502161,113.507305 467.462958,113.881644 C400.042727,138.167607 350.22356,150.320312 317.892578,150.320312 C289.077405,150.320312 246.385004,140.669337 189.727033,121.385662 L186.879098,129.487125 C186.80539,129.6968 186.683877,129.886434 186.524181,130.04101 C185.956063,130.590914 185.049728,130.576148 184.499824,130.008031 L168.06441,113.028243 C167.848973,112.80567 167.711536,112.519225 167.67273,112.211904 C167.573678,111.427468 168.129292,110.711259 168.913728,110.612206 L192.358807,107.651748 C192.579309,107.623905 192.803265,107.647782 193.01294,107.72149 C193.758859,107.983706 194.150978,108.80096 193.888762,109.546879 L191.053656,117.611845 Z" fill="#4A4A4A" fill-rule="nonzero"></path>
    </g>
</svg>