<?xml version="1.0" encoding="UTF-8"?>
<svg width="522px" height="323px" viewBox="0 0 522 323" version="1.1" xmlns="http://www.w3.org/2000/svg" xmlns:xlink="http://www.w3.org/1999/xlink">
    <!-- Generator: Sketch 52.6 (67491) - http://www.bohemiancoding.com/sketch -->
    <title>teaser</title>
    <desc>Created with Sketch.</desc>
    <defs>
        <linearGradient x1="39.081929%" y1="85.7233163%" x2="91.8919748%" y2="85.7233163%" id="linearGradient-1">
            <stop stop-color="#B9D5F1" offset="0%"></stop>
            <stop stop-color="#DEE1F6" offset="100%"></stop>
        </linearGradient>
        <linearGradient x1="54.5649246%" y1="85.7233163%" x2="7.38011853%" y2="85.7233163%" id="linearGradient-2">
            <stop stop-color="#B9D5F1" offset="0%"></stop>
            <stop stop-color="#DEE1F6" offset="100%"></stop>
        </linearGradient>
        <linearGradient x1="87.5377155%" y1="87.9036902%" x2="11.2621228%" y2="87.9036902%" id="linearGradient-3">
            <stop stop-color="#B9D5F1" offset="0%"></stop>
            <stop stop-color="#DEE1F6" offset="100%"></stop>
        </linearGradient>
        <path d="M30.3130954,0.922461482 C31.3223056,0.461529004 32.9518773,0.458477443 33.9677689,0.922461482 L56.0082997,10.9889434 C57.0175099,11.4498759 58.0467856,12.700906 58.3022871,13.76257 L63.7151772,36.2543032 C63.9729012,37.3252024 63.6103404,38.8729834 62.8886933,39.7312075 L47.6933292,57.8024074 C46.9791508,58.6517494 45.4995586,59.3402772 44.3947571,59.3402772 L19.8861072,59.3402772 C18.7785346,59.3402772 17.3091821,58.6606316 16.5875351,57.8024074 L1.39217092,39.7312075 C0.677992463,38.8818655 0.310185576,37.3159672 0.565687036,36.2543032 L5.97857721,13.76257 C6.23630122,12.6916708 7.25667296,11.4529274 8.27256458,10.9889434 L30.3130954,0.922461482 Z" id="path-4"></path>
        <linearGradient x1="12.7542673%" y1="-18.6617048%" x2="88.2666158%" y2="84.6075483%" id="linearGradient-6">
            <stop stop-color="#FFFFFF" offset="0%"></stop>
            <stop stop-color="#439246" offset="100%"></stop>
        </linearGradient>
        <linearGradient x1="50%" y1="4.93673768%" x2="148.756007%" y2="175.514523%" id="linearGradient-7">
            <stop stop-color="#FFFFFF" offset="0%"></stop>
            <stop stop-color="#439246" offset="100%"></stop>
        </linearGradient>
        <linearGradient x1="19.1574381%" y1="-9.04800713%" x2="82.2203149%" y2="77.9084293%" id="linearGradient-8">
            <stop stop-color="#FFFFFF" offset="0%"></stop>
            <stop stop-color="#439246" offset="100%"></stop>
        </linearGradient>
        <linearGradient x1="57.4403751%" y1="26.3148481%" x2="137.966711%" y2="158.080556%" id="linearGradient-9">
            <stop stop-color="#FFFFFF" offset="0%"></stop>
            <stop stop-color="#439246" offset="100%"></stop>
        </linearGradient>
        <path d="M40,0 L268,0 L268,167 C257.209635,167 235.048503,164.272461 201.516602,158.817383 C151.21875,150.634766 142.364258,134.325195 49.2363281,147.304688 C-12.8489583,155.957682 -15.9277344,106.85612 40,0 Z" id="path-10"></path>
    </defs>
    <g id="teaser" stroke="none" stroke-width="1" fill="none" fill-rule="evenodd">
        <g id="Clouds">
            <path d="M121.600259,68.2765767 C175.815103,47.3136861 393.238281,8.37695312 423.382813,13.75 C434.732239,15.7729541 514.193359,2.890625 484.679688,135.015625 C455.166016,267.140625 389.323021,307.189984 384.543619,309.706264 C354.536036,325.504788 220.174478,270.298061 156.098306,296.475795 C92.0221345,322.65353 95.1490876,235.626186 77.186197,218.92892 C46.5695845,190.469486 67.3854157,89.2394673 121.600259,68.2765767 Z" id="Rectangle" fill-opacity="0.0718976449" fill="#00877A"></path>
            <path d="M36.2011719,71.6464844 C56.703125,71.6464844 57.9762337,84.0380859 76.3359375,84.0380859 C91.5566406,84.0380859 86.6113281,67 104.09375,67 C121.576172,67 108.832031,104.121094 138.507812,92.9316406 C158.291667,85.4720052 175.789062,89.2018229 191,104.121094 L1.42108547e-14,104.121094 C10.4661458,82.4713542 22.5332031,71.6464844 36.2011719,71.6464844 Z" id="Rectangle" fill="url(#linearGradient-1)"></path>
            <path d="M47.4667969,241.834934 C58.8448442,241.834934 49.6272512,248.929688 59.8164063,248.929688 C68.263498,248.929688 78.6199791,216 88.3222656,216 C98.0245521,216 91.3998589,241.021399 107.869141,233.44912 C118.848662,228.400933 127.892282,235.726487 135,255.425781 L29,255.425781 C33.7258331,246.365216 39.881432,241.834934 47.4667969,241.834934 Z" id="Rectangle" fill="url(#linearGradient-1)"></path>
            <path d="M393.765625,160.998047 C409.329935,160.998047 403.216523,168.558594 417.154518,168.558594 C428.709502,168.558594 431.716286,136 444.988281,136 C458.260277,136 449.016187,163.099623 471.544922,155.527344 C486.564078,150.479157 502.715771,156.988272 520,175.054688 L375,175.054688 C377.13421,165.683594 383.389418,160.998047 393.765625,160.998047 Z" id="Rectangle" fill="url(#linearGradient-2)"></path>
            <path d="M376.017578,22.2545828 C391.581888,22.2545828 387.073724,38.7936453 401.011719,38.7936453 C412.566703,38.7936453 407.800781,25.3541922 417.654297,4.31708282 C427.507813,-16.7200266 440.393141,46.3659249 462.921875,38.7936453 C477.941031,33.7454589 491.63374,40.2545735 504,58.3209891 L359,58.3209891 C359.968845,34.2767182 365.641371,22.2545828 376.017578,22.2545828 Z" id="Rectangle" fill="url(#linearGradient-3)"></path>
        </g>
        <g id="captain" transform="translate(163.000000, 52.000000)">
            <path d="M49.0253906,190.070312 C49.5074454,189.820154 49.5074454,205.132654 49.0253906,236.007813 C58.7121575,236.007813 66.0754387,236.007813 71.1152344,236.007813 C90.0182736,236.007813 144.245054,249.387908 151.039062,253.228516 L148.508789,193.253906 C169.742513,200.847005 184.782878,201.558268 193.629883,195.387695 C203.984556,188.165561 187.22614,149.741724 174.150391,128.586914 C162.078942,109.056928 156.84668,102.442383 151.039062,98 C138.910401,97.9151291 130.672771,97.9151291 126.326172,98 C96.3992182,98.5843483 79.9216124,99.7208361 69.3417969,100.702148 C61.5904678,101.421109 49.436171,103.72482 32.8789062,107.613281 C30.1432187,112.969727 21.2463726,128.880753 13.0966797,144.913086 C3.65730013,163.482531 -4.5042799,182.595253 3.46582031,191.730469 C16.1650391,206.286133 42.890625,193.253906 49.0253906,190.070312 Z" id="Oval" fill="#18212B"></path>
            <path d="M97.8706055,119.204102 C124.430176,119.204102 125.765625,103.246705 125.765625,98 C114.171916,97.0658453 103.668254,96.8519781 94.2546387,97.3583984 C91.2758929,97.5186448 83.8391253,98.6015712 71.9443359,100.607178 C71.9443359,105.853883 71.3110352,119.204102 97.8706055,119.204102 Z" id="Oval" fill="#424242"></path>
            <path d="M119.657471,97.6054688 L114.635742,97.2792969 L114.635742,76.7617188 L83.7226563,78.3544922 L82.6206055,98.784668 C81.1235236,98.784668 78.5443407,99.2260742 74.8830566,100.108887 C76.1696777,104.168457 79.7763796,111.221191 96.1567383,111.221191 C115.452637,111.221191 116.243408,100.995605 119.657471,97.6054688 Z" id="Oval" fill="#EBCFB8"></path>
            <path d="M77.4902344,48.0800781 C79.8177772,48.0800781 66.7088811,91.2080078 98,91.2080078 C128.477539,91.2080078 120.736328,52.2499143 120.736328,49.9453125 C120.736328,48.2642668 126.582031,38.1406027 126.582031,26.2451172 C126.582031,17.1289063 120.266265,16.1356078 120.736328,7.88476562 C120.865394,5.61932048 121.739418,3.1570809 123.358398,0.498046875 C114.821289,3.38151042 104.438151,4.82324219 92.2089844,4.82324219 C85.6295573,4.82324219 81.5988464,9.75338465 80.1168517,19.6136696 C76.0545756,19.3718742 72.9042969,21.5823568 70.6660156,26.2451172 C67.3085938,33.2392578 72.2435293,48.0800781 77.4902344,48.0800781 Z" id="Oval" fill="#18212B"></path>
            <ellipse id="Oval" fill="#F5C195" cx="76.5" cy="54" rx="2.5" ry="6"></ellipse>
            <ellipse id="Oval" fill="#F5C195" cx="121.5" cy="54" rx="2.5" ry="6"></ellipse>
            <path d="M97.5058594,72.7900391 C102.420719,72.7900391 106.218804,74.1796357 109.791016,72.7900391 C118.918945,69.2392578 120.738281,63.913238 120.738281,60.5341797 C120.738281,58.3933553 125.439633,37.5499483 112.376953,39.9482422 C108.655419,40.6315118 107.79344,39.0442722 109.791016,35.1865234 C106.329903,38.3610026 103.612129,39.9482422 101.637695,39.9482422 C95.7711171,39.9482422 87.1111494,36.9905783 82.2988281,39.9482422 C77.9564408,42.6170836 76.4551387,45.0207294 77.7949219,47.1591797 C74.0429687,58.8017578 76.6376953,67.3453776 85.5791016,72.7900391 C90.753344,75.9407737 95.1444465,72.7900391 97.5058594,72.7900391 Z" id="Oval" fill="#EBCFB8"></path>
        </g>
        <g id="Logo" transform="translate(230.000000, 180.000000)">
            <g id="Rectangle-2">
                <mask id="mask-5" fill="white">
                    <use xlink:href="#path-4"></use>
                </mask>
                <use id="Mask" fill="#009F76" xlink:href="#path-4"></use>
                <polygon fill="#000000" opacity="0.289628623" mask="url(#mask-5)" points="-12.9827586 38.0389262 22.6752874 17.4970476 46.6925287 40.8139535 18.1939655 64.6527525"></polygon>
            </g>
            <path d="M41,27.6012997 C40.5417374,28.6825478 39.773359,29.6872167 38.9102534,30.2319092 L34.3349451,33.1193153 C32.9358446,34.0022659 30.657734,33.9961314 29.268354,33.1193153 L24.6930457,30.2319092 C23.2939452,29.3489586 22.1597501,27.2843163 22.1597501,25.624943 L22.1597501,19.4717223 C22.1597501,18.7143404 22.3974735,17.8723077 22.7878043,17.0971325 L41,27.6012997 Z" id="Combined-Shape" fill="url(#linearGradient-6)" transform="translate(31.579875, 25.438181) scale(-1, 1) translate(-31.579875, -25.438181) "></path>
            <path d="M40.1859761,18.1108904 C40.5793298,18.8812645 40.8177369,19.7201314 40.8177369,20.4790798 L40.8177369,25.9557159 C40.8177369,27.6129873 39.6779003,29.6601943 38.2653479,30.5322892 L34.0744157,33.1197266 C32.6647702,33.9900269 30.3821902,33.9918216 28.9696378,33.1197266 L24.7787056,30.5322892 C24.0870679,30.1052794 23.4596826,29.3955586 23,28.5870843 L40.1859761,18.1108904 Z" id="Combined-Shape" fill="url(#linearGradient-7)" transform="translate(31.908868, 25.942008) scale(-1, 1) translate(-31.908868, -25.942008) "></path>
            <path d="M46.8135258,39.5084204 C46.3306815,40.4462804 45.5962567,41.2796374 44.7752727,41.7315058 L34.8338536,47.2032484 C33.3808965,48.0029538 31.0227355,48.0016041 29.5722306,47.2032484 L19.6308115,41.7315058 C18.1778544,40.9318004 17,38.9422674 17,37.2915454 L17,26.5400124 C17,25.7480059 17.2711521,24.878633 17.7132443,24.1000982 L46.8135258,39.5084204 Z" id="Combined-Shape" fill="url(#linearGradient-8)"></path>
            <path d="M47.3669069,24.1038427 C47.7615933,24.8468009 48,25.6610941 48,26.4074059 L48,37.2223895 C48,38.8845583 46.8222605,40.878513 45.364064,41.6789659 L35.3023584,47.2021734 C33.8465712,48.0013038 31.488683,48.0026263 30.0304865,47.2021734 L19.9687809,41.6789659 C19.2841601,41.3031546 18.6604992,40.6624278 18.1918723,39.9163685 L47.3669069,24.1038427 Z" id="Combined-Shape" fill="url(#linearGradient-9)"></path>
        </g>
        <g id="Stearing" transform="translate(115.000000, 146.000000)">
            <mask id="mask-11" fill="white">
                <use xlink:href="#path-10"></use>
            </mask>
            <g id="Mask"></g>
            <g mask="url(#mask-11)" fill="#326DE6">
                <g transform="translate(48.000000, 9.000000)">
                    <path d="M100.5,172 C60.4593556,172 28,139.540644 28,99.5 C28,59.4593556 60.4593556,27 100.5,27 C140.540644,27 173,59.4593556 173,99.5 C173,139.540644 140.540644,172 100.5,172 Z M99,158 C131.032515,158 157,132.032515 157,100 C157,67.9674845 131.032515,42 99,42 C66.9674845,42 41,67.9674845 41,100 C41,132.032515 66.9674845,158 99,158 Z" id="Combined-Shape"></path>
                    <path d="M118.395033,77.4377295 L171.108887,49.8632812 C177.870117,41.9208984 182.510508,43.5003738 185.14502,47.4619141 C187.824733,51.4914243 185.14502,55.7568359 176.774902,58.8227539 L126.792156,94.9218378 C125.448987,95.8919154 125.146537,97.7671721 126.116615,99.1103407 C126.438383,99.5558609 126.876349,99.9044347 127.382713,100.118019 C147.891783,108.768754 162.467174,115.167728 171.108887,119.314941 C172.056214,119.76957 172.754294,120.797239 173.203125,122.397949 C193.128906,125.312012 196.385724,129.177936 195.04834,134.43457 C193.821513,139.256656 185.715332,138.325195 171.98584,130.237793 C170.468851,130.506051 169.147236,130.506051 168.020996,130.237793 C158.465996,127.961896 142.757288,123.946676 120.894873,118.192133 L120.89487,118.192148 C119.292599,117.770404 117.651811,118.72741 117.230067,120.329681 C117.103348,120.811109 117.098426,121.316505 117.215747,121.80031 L122.463867,143.442383 L101.907227,138.325195 L99.1813003,129.760717 C98.5112883,127.655633 96.2616284,126.492277 94.1565443,127.162289 C93.3684237,127.413134 92.6774385,127.902116 92.1787177,128.561915 L86.6044922,135.936523 L68.2714844,134.43457 L76.773418,117.170511 C77.5054089,115.684131 76.8938553,113.885785 75.4074749,113.153795 C74.9620114,112.934419 74.4690605,112.829047 73.9728385,112.84713 C51.5596974,113.663885 35.7266288,113.992999 26.4736328,113.834473 C24.8634453,113.806886 23.4842135,113.09188 22.3359375,111.689453 C8.29980469,115.887935 1.13396333,115.887935 0.759765625,109.499023 C0.366018721,102.776336 7.87744141,102.149414 23.0146484,103.094727 C24.2070813,101.960148 25.3600761,101.269392 26.4736328,101.022461 C35.6738153,98.9823187 50.4657182,96.4979546 70.8493412,93.5693689 L70.8493403,93.5693624 C73.0360222,93.2551943 74.5539945,91.2278547 74.2398263,89.0411729 C74.1360012,88.3185265 73.8363802,87.6380764 73.3734326,87.0735616 L37.984375,43.9204102 L35.7119141,40.6860352 C27.6285807,36.7631836 25.8850911,31.9471029 30.4814453,26.237793 C32.251689,24.0389046 39.6479492,25.1219124 42.2304688,33.1542969 C43.304915,33.2083373 44.0964189,33.4628946 44.6049805,33.9179687 C53.6970316,42.0537732 68.1001279,55.3415434 87.8142691,73.7812793 L87.8142757,73.7812723 C89.0243024,74.9130778 90.9227326,74.849667 92.0545381,73.6396402 C92.4382291,73.2294315 92.6990525,72.719745 92.8073211,72.1685936 C97.1114356,50.2580961 100.373741,34.5562276 102.594238,25.0629883 C102.825619,24.073772 103.551693,23.012574 104.772461,21.8793945 C104.772461,2.19921875 105.897135,-0.282070011 112.158203,0.530273437 C119.221056,1.44664454 117.885254,6.96044922 112.946777,23.8969727 C113.997172,25.2661912 114.516052,26.4058396 114.503418,27.315918 C114.373957,36.6413405 113.721785,52.094676 112.5469,73.6759244 L112.546897,73.6759242 C112.426809,75.8817987 114.117673,77.7673637 116.323548,77.8874517 C117.041922,77.92656 117.757546,77.771197 118.395033,77.4377295 Z" id="Rectangle"></path>
                </g>
            </g>
            <polygon id="Polygon" fill="#FFFFFF" mask="url(#mask-11)" points="147.5 95 158.054725 100.647653 160.661527 113.337814 153.35743 123.514533 141.64257 123.514533 134.338473 113.337814 136.945275 100.647653"></polygon>
        </g>
        <g id="Hands" transform="translate(189.000000, 176.000000)" fill="#EBCFB8">
            <path d="M23.1704102,33.6547852 C26.6289063,30.7841797 28.2792969,27.6889462 28.9287109,22.5249023 C28.9873665,22.0584819 28.834914,21.0665868 28.9287109,19.605957 C29.0003979,18.4896295 29.4309783,16.9242306 28.9287109,16.1542969 C28.5605369,15.5899169 27.5134991,14.9468505 25.7875977,14.2250977 C25.3549072,12.1989781 24.7590413,10.8143752 24,10.0712891 C23.2409587,9.32820294 21.9862386,8.9011196 20.2358398,8.79003906 C19.7414202,6.89346886 19.1685036,5.78051313 18.5170898,5.45117188 C16.555321,4.45934231 13.5427839,5.45117188 12.8466797,5.45117188 C11.8943263,5.45117188 12.8466797,0.0546875 10.9257813,0.975585938 C8.50792978,2.13472876 7.30810547,6.43701172 8.05566406,7.98583984 C8.41273651,8.72563985 4.76009316,10.6173137 2.52978516,16.965332 C0.509971787,22.7142296 0.650878906,27.0849609 0.650878906,34.2993164 L10.9257813,41 C14.0849609,38.6577148 19.7119141,36.5253906 23.1704102,33.6547852 Z" id="Oval"></path>
            <path d="M137.679185,23.7299243 C137.484192,23.931798 135.300735,23.4689887 134.264634,24.5033618 C133.614064,25.1528467 133.224904,26.2290186 133.097154,27.7318774 C130.430161,28.7535495 129.096665,30.7259279 129.096665,33.6490124 C129.096665,35.3785285 128.51641,37.8921871 130.199204,40.3588306 C131.582299,42.3861743 131.582299,43.8784744 133.097154,45.4975024 C136.072974,48.6779654 142.189439,50.4416373 148.422349,54.3842212 L157.711411,47.2611743 C158.337722,44.7154741 158.179396,33.2314836 152.885728,26.264104 C151.062359,23.8642369 148.226054,22.0700495 145.186997,21.029729 C143.572707,20.47713 141.994699,19.6965796 140.274888,20.1220141 C136.684635,21.0101453 138.91063,22.455022 137.679185,23.7299243 Z" id="Oval"></path>
        </g>
    </g>
</svg>