<svg width="31" height="33" viewBox="0 0 31 33" fill="none" xmlns="http://www.w3.org/2000/svg">
<path d="M23.5121 10.5895V6.7975C24.0149 6.5626 24.4405 6.18959 24.7394 5.72199C25.0382 5.25439 25.198 4.71146 25.2001 4.1565V4.0675C25.198 3.29319 24.8894 2.55119 24.3419 2.00367C23.7944 1.45615 23.0524 1.14762 22.2781 1.1455H22.1891C21.414 1.14656 20.6708 1.45459 20.1223 2.0022C19.5738 2.54981 19.2645 3.29241 19.2621 4.0675V4.1565C19.265 4.70781 19.4235 5.24709 19.7193 5.71234C20.015 6.17759 20.4361 6.54991 20.9341 6.7865L20.9501 6.7965V10.5985C19.4993 10.8187 18.1332 11.421 16.9921 12.3435L17.0081 12.3335L6.57007 4.2035C7.51307 0.682504 2.91907 -1.5725 0.711073 1.3285C-1.50293 4.2245 1.87807 8.0575 5.02907 6.2245L5.01307 6.2345L15.2731 14.2185C14.3662 15.5806 13.8842 17.1812 13.8881 18.8175C13.8881 20.6035 14.4561 22.2655 15.4191 23.6245L15.4031 23.5985L12.2781 26.7185C12.0281 26.6405 11.7681 26.5985 11.5071 26.5935H11.5021C9.09107 26.5935 7.87707 29.5155 9.58507 31.2235C11.2931 32.9265 14.2151 31.7185 14.2151 29.3065C14.2095 29.0356 14.1641 28.7671 14.0801 28.5095L14.0851 28.5305L17.1741 25.4415C18.1818 26.2102 19.3514 26.7392 20.5941 26.9884C21.8368 27.2376 23.1199 27.2003 24.3461 26.8795C25.5708 26.5569 26.7058 25.9594 27.6651 25.1324C28.6243 24.3055 29.3825 23.2708 29.882 22.107C30.3815 20.9432 30.6093 19.6809 30.548 18.4159C30.4866 17.1509 30.1378 15.9165 29.5281 14.8065C28.9183 13.6966 28.0632 12.7406 27.0279 12.0114C25.9926 11.2821 24.8045 10.7989 23.5541 10.5985L23.5021 10.5885L23.5121 10.5895ZM22.2251 23.0945C18.4181 23.0845 16.5221 18.4795 19.2201 15.7925C21.9131 13.1045 26.5121 15.0115 26.5121 18.8185V18.8235C26.5121 19.3848 26.4014 19.9406 26.1865 20.4591C25.9715 20.9776 25.6565 21.4487 25.2594 21.8453C24.8622 22.242 24.3908 22.5565 23.872 22.7708C23.3533 22.9852 22.7974 23.0952 22.2361 23.0945H22.2251Z" fill="#009F76"/>
</svg>
