<svg width="62" height="62" viewBox="0 0 62 62" fill="none" xmlns="http://www.w3.org/2000/svg">
<path d="M32.1904 45.9529C23.851 45.9529 17.1794 39.4965 17.1794 31.4261C17.1794 23.3556 23.851 16.8993 32.1904 16.8993C40.5299 16.8993 47.2015 23.3556 47.2015 31.4261C47.2015 39.4965 40.5299 45.9529 32.1904 45.9529ZM32.1904 20.1274C25.6857 20.1274 20.5152 25.1311 20.5152 31.4261C20.5152 37.721 25.6857 42.7247 32.1904 42.7247C38.6952 42.7247 43.8657 37.721 43.8657 31.4261C43.8657 25.1311 38.6952 20.1274 32.1904 20.1274Z" fill="#009F76"/>
<path d="M35.6575 61.463H26.9623L24.547 54.0755C22.9368 53.5937 21.3265 52.9513 19.8773 52.1483L12.7923 55.6815L6.6735 49.5787L10.216 42.5124C9.41088 41.067 8.76679 39.461 8.28372 37.855L0.715668 35.2855V26.6131L8.1227 24.2041C8.60576 22.5982 9.24986 20.9922 10.055 19.5468L6.51247 12.4804L12.6313 6.3777L19.7163 9.91087C21.1655 9.10787 22.7757 8.46548 24.386 7.98368L26.9623 0.435547H35.6575L38.0729 7.82309C39.6831 8.30488 41.2933 8.94728 42.7425 9.75027L49.8275 6.2171L55.9463 12.3198L52.4039 19.3862C53.209 20.8316 53.8531 22.4376 54.3361 24.0436L61.7432 26.4525V35.1249L54.3361 37.5338C53.8531 39.1398 53.209 40.7458 52.4039 42.1912L55.9463 49.2575L49.8275 55.3603L42.7425 51.8271C41.2933 52.6301 39.6831 53.2725 38.0729 53.7543L35.6575 61.463ZM29.2166 58.2511H33.4032L35.6575 51.3453L36.4626 51.1847C38.3949 50.7029 40.1662 49.8999 41.9374 48.9363L42.7425 48.4545L49.1834 51.6665L52.0818 48.7757L48.8614 42.3518L49.3444 41.5488C50.3106 39.9428 51.1157 38.0156 51.5987 36.0885L51.7598 35.2855L58.6837 33.0371V28.8615L51.7598 26.6131L51.5987 25.8101C51.1157 23.8829 50.3106 22.1164 49.3444 20.3498L48.8614 19.5468L52.0818 13.1228L49.1834 10.2321L42.7425 13.444L41.9374 12.9622C40.1662 11.9987 38.3949 11.1957 36.4626 10.7139L35.6575 10.5533L33.4032 3.64752H29.2166L26.9623 10.5533L26.1572 10.7139C24.2249 11.1957 22.4537 11.9987 20.6824 12.9622L19.8773 13.444L13.4364 10.2321L10.538 13.1228L13.7585 19.5468L13.2754 20.3498C12.3093 21.9558 11.5042 23.8829 11.0211 25.8101L10.8601 26.6131L3.93612 28.8615V33.0371L10.8601 35.2855L11.0211 36.0885C11.5042 38.0156 12.3093 39.7822 13.2754 41.5488L13.7585 42.3518L10.538 48.7757L13.4364 51.6665L19.8773 48.4545L20.6824 48.9363C22.4537 49.8999 24.2249 50.7029 26.1572 51.1847L26.9623 51.3453L29.2166 58.2511Z" fill="#009F76"/>
</svg>
