<svg width="61" height="61" viewBox="0 0 61 61" fill="none" xmlns="http://www.w3.org/2000/svg">
<g id="clusters">
<g clip-path="url(#clip0)">
<rect x="0.623711" y="0.426025" width="60" height="60" fill="white"/>
<g id="Vector">
<path fill-rule="evenodd" clip-rule="evenodd" d="M14.0194 33.4176C15.5566 32.5392 17.4436 32.5392 18.9808 33.4176L24.4808 36.5604C26.0387 37.4506 27.0001 39.1074 27.0001 40.9016V47.0984C27.0001 48.8927 26.0387 50.5494 24.4808 51.4396L18.9808 54.5825C17.4436 55.4609 15.5566 55.4609 14.0194 54.5825L8.51941 51.4396C6.96154 50.5494 6.00011 48.8927 6.00011 47.0984V40.9016C6.00011 39.1074 6.96154 37.4506 8.51941 36.5604L14.0194 33.4176Z" stroke="#009F76" stroke-width="1.5"/>
<path fill-rule="evenodd" clip-rule="evenodd" d="M42.4276 33.5435C44.011 32.5935 45.9892 32.5935 47.5726 33.5435L52.5726 36.5435C54.0786 37.4471 55.0001 39.0747 55.0001 40.831V47.1691C55.0001 48.9254 54.0786 50.5529 52.5726 51.4565L47.5726 54.4565C45.9892 55.4066 44.011 55.4066 42.4276 54.4565L37.4276 51.4565C35.9216 50.5529 35.0001 48.9254 35.0001 47.1691V40.831C35.0001 39.0747 35.9216 37.4471 37.4276 36.5435L42.4276 33.5435Z" stroke="#009F76" stroke-width="1.5"/>
<path fill-rule="evenodd" clip-rule="evenodd" d="M42.4276 6.54352C44.011 5.59347 45.9892 5.59347 47.5726 6.54352L52.5726 9.54352C54.0786 10.4471 55.0001 12.0747 55.0001 13.831V20.1691C55.0001 21.9254 54.0786 23.5529 52.5726 24.4565L47.5726 27.4565C45.9892 28.4066 44.011 28.4066 42.4276 27.4565L37.4276 24.4565C35.9216 23.5529 35.0001 21.9254 35.0001 20.1691V13.831C35.0001 12.0747 35.9216 10.4471 37.4276 9.54352L42.4276 6.54352Z" stroke="#009F76" stroke-width="1.5"/>
<path fill-rule="evenodd" clip-rule="evenodd" d="M14.0194 6.41757C15.5566 5.53919 17.4436 5.53919 18.9808 6.41757L24.4808 9.56043C26.0387 10.4506 27.0001 12.1074 27.0001 13.9016V20.0984C27.0001 21.8927 26.0387 23.5494 24.4808 24.4396L18.9808 27.5825C17.4436 28.4609 15.5566 28.4609 14.0194 27.5825L8.51941 24.4396C6.96154 23.5494 6.00011 21.8927 6.00011 20.0984V13.9016C6.00011 12.1074 6.96154 10.4506 8.51941 9.56043L14.0194 6.41757Z" stroke="#009F76" stroke-width="1.5"/>
</g>
<path id="Rectangle 3" d="M1.46142 9.4646C1.46142 5.18439 4.93121 1.7146 9.21142 1.7146H51.2114C55.4916 1.7146 58.9614 5.18439 58.9614 9.4646V51.4646C58.9614 55.7448 55.4916 59.2146 51.2114 59.2146H9.21142C4.93121 59.2146 1.46142 55.7448 1.46142 51.4646V9.4646Z" stroke="#009F76" stroke-width="2.5"/>
</g>
</g>
<defs>
<clipPath id="clip0">
<rect x="0.623711" y="0.426025" width="60" height="60" fill="white"/>
</clipPath>
</defs>
</svg>
