<svg width="100" height="78" viewBox="0 0 100 78" fill="none" xmlns="http://www.w3.org/2000/svg">
<path d="M46.2656 73.3146L69.8503 69.1484L70.0688 69.0976L57.9411 54.6684C53.8763 49.8553 49.8337 45.0235 45.8135 40.1732C45.8135 40.102 58.3374 5.61418 58.4085 5.49225C58.4289 5.4516 66.9543 20.1653 79.0667 41.1588L99.8468 77.181L100.004 77.4554L61.457 77.4503L22.9096 77.4452L46.2656 73.3197V73.3146ZM0.00579834 68.9249C0.00579834 68.9046 5.7216 58.9819 12.7076 46.8746L25.4093 24.8599L40.2094 12.4376C48.3487 5.6091 55.0299 0.0101614 55.0604 0C55.006 0.208978 54.9257 0.410369 54.8216 0.599524L38.7462 35.0721L22.9604 68.9249L11.4831 68.9401C5.17288 68.9503 0.00579834 68.9401 0.00579834 68.9198V68.9249Z" fill="#0089D6"/>
</svg>
