<svg xmlns="http://www.w3.org/2000/svg" xmlns:xlink="http://www.w3.org/1999/xlink" width="940" height="581.04"><rect width="940" height="581.04" rx="5" ry="5" class="a"/><svg y="0%" x="0%"><circle cx="20" cy="20" r="6" fill="#ff5f58"/><circle cx="40" cy="20" r="6" fill="#ffbd2e"/><circle cx="60" cy="20" r="6" fill="#18c132"/></svg><svg height="521.04" viewBox="0 0 90 52.104" width="900" x="15" xmlns="http://www.w3.org/2000/svg" xmlns:xlink="http://www.w3.org/1999/xlink" y="50"><style>@keyframes i{0%{transform:translateX(0)}.15%{transform:translateX(-90px)}6.77%{transform:translateX(-180px)}14.38%{transform:translateX(-270px)}15.8%{transform:translateX(-360px)}17.84%{transform:translateX(-450px)}18.47%{transform:translateX(-540px)}20.75%{transform:translateX(-630px)}24.93%{transform:translateX(-810px)}27.32%{transform:translateX(-990px)}32.54%{transform:translateX(-1080px)}35.03%{transform:translateX(-1170px)}35.05%{transform:translateX(-1260px)}41.16%{transform:translateX(-1350px)}44.89%{transform:translateX(-1440px)}47.82%{transform:translateX(-1620px)}52.74%{transform:translateX(-1710px)}55.47%{transform:translateX(-1800px)}57.65%{transform:translateX(-1890px)}57.66%{transform:translateX(-1980px)}68.09%{transform:translateX(-2070px)}68.6%{transform:translateX(-2160px)}69.91%{transform:translateX(-2250px)}70.6%{transform:translateX(-2340px)}71.58%{transform:translateX(-2430px)}72.37%{transform:translateX(-2520px)}73.76%{transform:translateX(-2610px)}77.97%{transform:translateX(-2700px)}78.37%{transform:translateX(-2790px)}79.13%{transform:translateX(-2880px)}80.04%{transform:translateX(-2970px)}81.07%{transform:translateX(-3150px)}87.91%{transform:translateX(-3240px)}87.92%{transform:translateX(-3330px)}to{transform:translateX(-3510px)}}.a{fill:#111213}.f,.g{white-space:pre}.f{fill:#fff;font-weight:700}.g{fill:#cacecd}</style><g font-family="Monaco,Consolas,Menlo,'Bitstream Vera Sans Mono','Powerline Symbols',monospace" font-size="1.67"><defs><symbol id="1"><text y="1.67" class="f">$</text></symbol><symbol id="2"><text y="1.67" class="f">$</text><text x="2.004" y="1.67" class="g">g</text></symbol><symbol id="3"><text y="1.67" class="f">$</text><text x="2.004" y="1.67" class="g">g</text><text x="4.008" y="1.67" class="g">target</text><text x="11.022" y="1.67" class="g">shoot</text><text x="17.034" y="1.67" class="g">ps-test</text></symbol><symbol id="4"><text y="1.67" class="g">┌─</text><text x="3.006" y="1.67" class="g">Access</text><text x="10.02" y="1.67" class="g">Restriction</text><text x="22.044" y="1.67" class="g">────────────────────────────────────────────────┐</text></symbol><symbol id="5"><text y="1.67" class="g">│</text><text x="2.004" y="1.67" class="g">Do</text><text x="5.01" y="1.67" class="g">not</text><text x="9.018" y="1.67" class="g">migrate</text><text x="17.034" y="1.67" class="g">the</text><text x="21.042" y="1.67" class="g">cluster</text><text x="29.058" y="1.67" class="g">to</text><text x="32.064" y="1.67" class="g">a</text><text x="34.068" y="1.67" class="g">data</text><text x="39.078" y="1.67" class="g">center</text><text x="46.092" y="1.67" class="g">outside</text><text x="54.108" y="1.67" class="g">the</text><text x="58.116" y="1.67" class="g">EEA</text><text x="62.124" y="1.67" class="g">or</text><text x="70.14" y="1.67" class="g">│</text></symbol><symbol id="6"><text y="1.67" class="g">│</text><text x="2.004" y="1.67" class="g">Switzerland</text><text x="14.028" y="1.67" class="g">without</text><text x="22.044" y="1.67" class="g">the</text><text x="26.052" y="1.67" class="g">customer&apos;s</text><text x="37.074" y="1.67" class="g">prior</text><text x="43.086" y="1.67" class="g">written</text><text x="51.102" y="1.67" class="g">consent</text><text x="59.118" y="1.67" class="g">(email</text><text x="70.14" y="1.67" class="g">│</text></symbol><symbol id="7"><text y="1.67" class="g">│</text><text x="2.004" y="1.67" class="g">permitted).</text><text x="14.028" y="1.67" class="g">The</text><text x="18.036" y="1.67" class="g">service</text><text x="26.052" y="1.67" class="g">is</text><text x="29.058" y="1.67" class="g">offered</text><text x="37.074" y="1.67" class="g">with</text><text x="42.084" y="1.67" class="g">the</text><text x="46.092" y="1.67" class="g">regular</text><text x="54.108" y="1.67" class="g">SLAs</text><text x="59.118" y="1.67" class="g">and</text><text x="70.14" y="1.67" class="g">│</text></symbol><symbol id="8"><text y="1.67" class="g">│</text><text x="2.004" y="1.67" class="g">24x7</text><text x="7.014" y="1.67" class="g">support</text><text x="15.03" y="1.67" class="g">for</text><text x="19.038" y="1.67" class="g">the</text><text x="23.046" y="1.67" class="g">control</text><text x="31.062" y="1.67" class="g">plane</text><text x="37.074" y="1.67" class="g">of</text><text x="40.08" y="1.67" class="g">the</text><text x="44.088" y="1.67" class="g">cluster.</text><text x="53.106" y="1.67" class="g">24x7</text><text x="58.116" y="1.67" class="g">support</text><text x="70.14" y="1.67" class="g">│</text></symbol><symbol id="9"><text y="1.67" class="g">│</text><text x="2.004" y="1.67" class="g">for</text><text x="6.012" y="1.67" class="g">cluster</text><text x="14.028" y="1.67" class="g">add-ons</text><text x="22.044" y="1.67" class="g">and</text><text x="26.052" y="1.67" class="g">nodes</text><text x="32.064" y="1.67" class="g">is</text><text x="35.07" y="1.67" class="g">only</text><text x="40.08" y="1.67" class="g">available</text><text x="50.1" y="1.67" class="g">if</text><text x="53.106" y="1.67" class="g">the</text><text x="57.114" y="1.67" class="g">user</text><text x="70.14" y="1.67" class="g">│</text></symbol><symbol id="10"><text y="1.67" class="g">│</text><text x="2.004" y="1.67" class="g">complies</text><text x="11.022" y="1.67" class="g">to</text><text x="14.028" y="1.67" class="g">the</text><text x="18.036" y="1.67" class="g">conditions</text><text x="70.14" y="1.67" class="g">│</text></symbol><symbol id="11"><text y="1.67" class="g">│</text><text x="2.004" y="1.67" class="g">*</text><text x="4.008" y="1.67" class="g">Do</text><text x="7.014" y="1.67" class="g">not</text><text x="11.022" y="1.67" class="g">access</text><text x="18.036" y="1.67" class="g">all</text><text x="22.044" y="1.67" class="g">node-related</text><text x="35.07" y="1.67" class="g">components</text><text x="46.092" y="1.67" class="g">such</text><text x="51.102" y="1.67" class="g">as</text><text x="54.108" y="1.67" class="g">Docker</text><text x="61.122" y="1.67" class="g">and</text><text x="70.14" y="1.67" class="g">│</text></symbol><symbol id="12"><text y="1.67" class="g">│</text><text x="4.008" y="1.67" class="g">Kubelet,</text><text x="13.026" y="1.67" class="g">the</text><text x="17.034" y="1.67" class="g">operating</text><text x="27.054" y="1.67" class="g">system,</text><text x="35.07" y="1.67" class="g">and</text><text x="39.078" y="1.67" class="g">everything</text><text x="50.1" y="1.67" class="g">else</text><text x="55.11" y="1.67" class="g">that</text><text x="60.12" y="1.67" class="g">would</text><text x="70.14" y="1.67" class="g">│</text></symbol><symbol id="13"><text y="1.67" class="g">│</text><text x="4.008" y="1.67" class="g">require</text><text x="12.024" y="1.67" class="g">direct</text><text x="19.038" y="1.67" class="g">inspection</text><text x="30.06" y="1.67" class="g">of</text><text x="33.066" y="1.67" class="g">the</text><text x="37.074" y="1.67" class="g">nodes</text><text x="43.086" y="1.67" class="g">through</text><text x="51.102" y="1.67" class="g">a</text><text x="53.106" y="1.67" class="g">privileged</text><text x="64.128" y="1.67" class="g">pod</text><text x="70.14" y="1.67" class="g">│</text></symbol><symbol id="14"><text y="1.67" class="g">│</text><text x="4.008" y="1.67" class="g">or</text><text x="7.014" y="1.67" class="g">SSH</text><text x="11.022" y="1.67" class="g">in</text><text x="14.028" y="1.67" class="g">case</text><text x="19.038" y="1.67" class="g">you</text><text x="23.046" y="1.67" class="g">are</text><text x="27.054" y="1.67" class="g">not</text><text x="31.062" y="1.67" class="g">located</text><text x="39.078" y="1.67" class="g">in</text><text x="42.084" y="1.67" class="g">EEA.</text><text x="47.094" y="1.67" class="g">Only</text><text x="52.104" y="1.67" class="g">third-level/dev</text><text x="70.14" y="1.67" class="g">│</text></symbol><symbol id="15"><text y="1.67" class="g">│</text><text x="4.008" y="1.67" class="g">support</text><text x="12.024" y="1.67" class="g">at</text><text x="15.03" y="1.67" class="g">usual</text><text x="21.042" y="1.67" class="g">8x5</text><text x="25.05" y="1.67" class="g">working</text><text x="33.066" y="1.67" class="g">hours</text><text x="39.078" y="1.67" class="g">in</text><text x="42.084" y="1.67" class="g">EEA</text><text x="46.092" y="1.67" class="g">does</text><text x="51.102" y="1.67" class="g">apply</text><text x="57.114" y="1.67" class="g">in</text><text x="60.12" y="1.67" class="g">this</text><text x="65.13" y="1.67" class="g">case</text><text x="70.14" y="1.67" class="g">│</text></symbol><symbol id="16"><text y="1.67" class="g">└─────────────────────────────────────────────────────────────────────┘</text></symbol><symbol id="17"><text y="1.67" class="g">Do</text><text x="3.006" y="1.67" class="g">you</text><text x="7.014" y="1.67" class="g">want</text><text x="12.024" y="1.67" class="g">to</text><text x="15.03" y="1.67" class="g">continue?</text><text x="25.05" y="1.67" class="g">[y/N]:</text></symbol><symbol id="18"><text y="1.67" class="g">Do</text><text x="3.006" y="1.67" class="g">you</text><text x="7.014" y="1.67" class="g">want</text><text x="12.024" y="1.67" class="g">to</text><text x="15.03" y="1.67" class="g">continue?</text><text x="25.05" y="1.67" class="g">[y/N]:</text><text x="32.064" y="1.67" class="g">n</text></symbol><symbol id="19"><text y="1.67" class="g">Do</text><text x="3.006" y="1.67" class="g">you</text><text x="7.014" y="1.67" class="g">want</text><text x="12.024" y="1.67" class="g">to</text><text x="15.03" y="1.67" class="g">continue?</text><text x="25.05" y="1.67" class="g">[y/N]:</text><text x="32.064" y="1.67" class="g">y</text></symbol><symbol id="20"><text y="1.67" class="g">Successfully</text><text x="13.026" y="1.67" class="g">targeted</text><text x="22.044" y="1.67" class="g">shoot</text><text x="28.056" y="1.67" class="g">&quot;ps-test&quot;</text></symbol><symbol id="21"><text y="1.67" class="f">$</text><text x="2.004" y="1.67" class="g">k</text></symbol><symbol id="22"><text y="1.67" class="f">$</text><text x="2.004" y="1.67" class="g">k</text><text x="4.008" y="1.67" class="g">get</text></symbol><symbol id="23"><text y="1.67" class="f">$</text><text x="2.004" y="1.67" class="g">k</text><text x="4.008" y="1.67" class="g">get</text><text x="8.016" y="1.67" class="g">nodes</text></symbol><symbol id="24"><text y="1.67" class="g">NAME</text><text x="51.102" y="1.67" class="g">STATUS</text><text x="60.12" y="1.67" class="g">ROLES</text><text x="69.138" y="1.67" class="g">AGE</text><text x="75.15" y="1.67" class="g">VERSION</text></symbol><symbol id="25"><text y="1.67" class="g">shoot--core--ps-test-worker-xdvi5-z1-64477-bl5br</text><text x="51.102" y="1.67" class="g">Ready</text><text x="60.12" y="1.67" class="g">&lt;none&gt;</text><text x="69.138" y="1.67" class="g">36d</text><text x="75.15" y="1.67" class="g">v1.22.7</text></symbol><symbol id="a"><path fill="transparent" d="M0 0h90v25H0z"/></symbol></defs><path class="a" d="M0 0h90v52.104H0z"/><g style="animation-duration:26.37994s;animation-iteration-count:infinite;animation-name:i;animation-timing-function:steps(1,end)"><svg width="3600"><svg><use xlink:href="#a"/></svg><svg x="90"><use xlink:href="#a"/></svg><svg x="180"><use xlink:href="#a"/><use xlink:href="#1"/></svg><svg x="270"><use xlink:href="#a"/><use xlink:href="#2"/></svg><svg x="360"><use xlink:href="#a"/><use xlink:href="#2"/></svg><svg x="450"><use xlink:href="#a"/><text y="1.67" class="f">$</text><text x="2.004" y="1.67" class="g">g</text><text x="4.008" y="1.67" class="g">t</text></svg><svg x="540"><use xlink:href="#a"/><text y="1.67" class="f">$</text><text x="2.004" y="1.67" class="g">g</text><text x="4.008" y="1.67" class="g">ta</text></svg><svg x="630"><use xlink:href="#a"/><use xlink:href="#3"/></svg><svg x="720"><use xlink:href="#a"/><use xlink:href="#3"/></svg><svg x="810"><use xlink:href="#a"/><use xlink:href="#3"/></svg><svg x="900"><use xlink:href="#a"/><use xlink:href="#3"/><use xlink:href="#4" y="2.171"/><use xlink:href="#5" y="4.342"/><use xlink:href="#6" y="6.513"/><use xlink:href="#7" y="8.684"/><use xlink:href="#8" y="10.855"/><use xlink:href="#9" y="13.026"/><use xlink:href="#10" y="15.197"/><use xlink:href="#11" y="17.368"/><use xlink:href="#12" y="19.539"/><use xlink:href="#13" y="21.71"/><use xlink:href="#14" y="23.881"/><use xlink:href="#15" y="26.052"/></svg><svg x="990"><use xlink:href="#a"/><use xlink:href="#3"/><use xlink:href="#4" y="2.171"/><use xlink:href="#5" y="4.342"/><use xlink:href="#6" y="6.513"/><use xlink:href="#7" y="8.684"/><use xlink:href="#8" y="10.855"/><use xlink:href="#9" y="13.026"/><use xlink:href="#10" y="15.197"/><use xlink:href="#11" y="17.368"/><use xlink:href="#12" y="19.539"/><use xlink:href="#13" y="21.71"/><use xlink:href="#14" y="23.881"/><use xlink:href="#15" y="26.052"/><use xlink:href="#16" y="28.223"/><use xlink:href="#17" y="30.394"/></svg><svg x="1080"><use xlink:href="#a"/><use xlink:href="#3"/><use xlink:href="#4" y="2.171"/><use xlink:href="#5" y="4.342"/><use xlink:href="#6" y="6.513"/><use xlink:href="#7" y="8.684"/><use xlink:href="#8" y="10.855"/><use xlink:href="#9" y="13.026"/><use xlink:href="#10" y="15.197"/><use xlink:href="#11" y="17.368"/><use xlink:href="#12" y="19.539"/><use xlink:href="#13" y="21.71"/><use xlink:href="#14" y="23.881"/><use xlink:href="#15" y="26.052"/><use xlink:href="#16" y="28.223"/><use xlink:href="#18" y="30.394"/></svg><svg x="1170"><use xlink:href="#a"/><use xlink:href="#3"/><use xlink:href="#4" y="2.171"/><use xlink:href="#5" y="4.342"/><use xlink:href="#6" y="6.513"/><use xlink:href="#7" y="8.684"/><use xlink:href="#8" y="10.855"/><use xlink:href="#9" y="13.026"/><use xlink:href="#10" y="15.197"/><use xlink:href="#11" y="17.368"/><use xlink:href="#12" y="19.539"/><use xlink:href="#13" y="21.71"/><use xlink:href="#14" y="23.881"/><use xlink:href="#15" y="26.052"/><use xlink:href="#16" y="28.223"/><use xlink:href="#18" y="30.394"/></svg><svg x="1260"><use xlink:href="#a"/><use xlink:href="#3"/><use xlink:href="#4" y="2.171"/><use xlink:href="#5" y="4.342"/><use xlink:href="#6" y="6.513"/><use xlink:href="#7" y="8.684"/><use xlink:href="#8" y="10.855"/><use xlink:href="#9" y="13.026"/><use xlink:href="#10" y="15.197"/><use xlink:href="#11" y="17.368"/><use xlink:href="#12" y="19.539"/><use xlink:href="#13" y="21.71"/><use xlink:href="#14" y="23.881"/><use xlink:href="#15" y="26.052"/><use xlink:href="#16" y="28.223"/><use xlink:href="#18" y="30.394"/><use xlink:href="#1" y="32.565"/></svg><svg x="1350"><use xlink:href="#a"/><use xlink:href="#3"/><use xlink:href="#4" y="2.171"/><use xlink:href="#5" y="4.342"/><use xlink:href="#6" y="6.513"/><use xlink:href="#7" y="8.684"/><use xlink:href="#8" y="10.855"/><use xlink:href="#9" y="13.026"/><use xlink:href="#10" y="15.197"/><use xlink:href="#11" y="17.368"/><use xlink:href="#12" y="19.539"/><use xlink:href="#13" y="21.71"/><use xlink:href="#14" y="23.881"/><use xlink:href="#15" y="26.052"/><use xlink:href="#16" y="28.223"/><use xlink:href="#18" y="30.394"/><use xlink:href="#3" y="32.565"/></svg><svg x="1440"><use xlink:href="#a"/><use xlink:href="#3"/><use xlink:href="#4" y="2.171"/><use xlink:href="#5" y="4.342"/><use xlink:href="#6" y="6.513"/><use xlink:href="#7" y="8.684"/><use xlink:href="#8" y="10.855"/><use xlink:href="#9" y="13.026"/><use xlink:href="#10" y="15.197"/><use xlink:href="#11" y="17.368"/><use xlink:href="#12" y="19.539"/><use xlink:href="#13" y="21.71"/><use xlink:href="#14" y="23.881"/><use xlink:href="#15" y="26.052"/><use xlink:href="#16" y="28.223"/><use xlink:href="#18" y="30.394"/><use xlink:href="#3" y="32.565"/></svg><svg x="1530"><use xlink:href="#a"/><use xlink:href="#3"/><use xlink:href="#4" y="2.171"/><use xlink:href="#5" y="4.342"/><use xlink:href="#6" y="6.513"/><use xlink:href="#7" y="8.684"/><use xlink:href="#8" y="10.855"/><use xlink:href="#9" y="13.026"/><use xlink:href="#10" y="15.197"/><use xlink:href="#11" y="17.368"/><use xlink:href="#12" y="19.539"/><use xlink:href="#13" y="21.71"/><use xlink:href="#14" y="23.881"/><use xlink:href="#15" y="26.052"/><use xlink:href="#16" y="28.223"/><use xlink:href="#18" y="30.394"/><use xlink:href="#3" y="32.565"/><use xlink:href="#4" y="34.736"/><use xlink:href="#5" y="36.907"/><use xlink:href="#6" y="39.078"/><use xlink:href="#7" y="41.249"/><use xlink:href="#8" y="43.42"/><use xlink:href="#9" y="45.591"/><use xlink:href="#10" y="47.762"/></svg><svg x="1620"><use xlink:href="#a"/><use xlink:href="#8"/><use xlink:href="#9" y="2.171"/><use xlink:href="#10" y="4.342"/><use xlink:href="#11" y="6.513"/><use xlink:href="#12" y="8.684"/><use xlink:href="#13" y="10.855"/><use xlink:href="#14" y="13.026"/><use xlink:href="#15" y="15.197"/><use xlink:href="#16" y="17.368"/><use xlink:href="#18" y="19.539"/><use xlink:href="#3" y="21.71"/><use xlink:href="#4" y="23.881"/><use xlink:href="#5" y="26.052"/><use xlink:href="#6" y="28.223"/><use xlink:href="#7" y="30.394"/><use xlink:href="#8" y="32.565"/><use xlink:href="#9" y="34.736"/><use xlink:href="#10" y="36.907"/><use xlink:href="#11" y="39.078"/><use xlink:href="#12" y="41.249"/><use xlink:href="#13" y="43.42"/><use xlink:href="#14" y="45.591"/><use xlink:href="#15" y="47.762"/><use xlink:href="#16" y="49.933"/><use xlink:href="#17" y="52.104"/></svg><svg x="1710"><use xlink:href="#a"/><use xlink:href="#8"/><use xlink:href="#9" y="2.171"/><use xlink:href="#10" y="4.342"/><use xlink:href="#11" y="6.513"/><use xlink:href="#12" y="8.684"/><use xlink:href="#13" y="10.855"/><use xlink:href="#14" y="13.026"/><use xlink:href="#15" y="15.197"/><use xlink:href="#16" y="17.368"/><use xlink:href="#18" y="19.539"/><use xlink:href="#3" y="21.71"/><use xlink:href="#4" y="23.881"/><use xlink:href="#5" y="26.052"/><use xlink:href="#6" y="28.223"/><use xlink:href="#7" y="30.394"/><use xlink:href="#8" y="32.565"/><use xlink:href="#9" y="34.736"/><use xlink:href="#10" y="36.907"/><use xlink:href="#11" y="39.078"/><use xlink:href="#12" y="41.249"/><use xlink:href="#13" y="43.42"/><use xlink:href="#14" y="45.591"/><use xlink:href="#15" y="47.762"/><use xlink:href="#16" y="49.933"/><use xlink:href="#19" y="52.104"/></svg><svg x="1800"><use xlink:href="#a"/><use xlink:href="#9"/><use xlink:href="#10" y="2.171"/><use xlink:href="#11" y="4.342"/><use xlink:href="#12" y="6.513"/><use xlink:href="#13" y="8.684"/><use xlink:href="#14" y="10.855"/><use xlink:href="#15" y="13.026"/><use xlink:href="#16" y="15.197"/><use xlink:href="#18" y="17.368"/><use xlink:href="#3" y="19.539"/><use xlink:href="#4" y="21.71"/><use xlink:href="#5" y="23.881"/><use xlink:href="#6" y="26.052"/><use xlink:href="#7" y="28.223"/><use xlink:href="#8" y="30.394"/><use xlink:href="#9" y="32.565"/><use xlink:href="#10" y="34.736"/><use xlink:href="#11" y="36.907"/><use xlink:href="#12" y="39.078"/><use xlink:href="#13" y="41.249"/><use xlink:href="#14" y="43.42"/><use xlink:href="#15" y="45.591"/><use xlink:href="#16" y="47.762"/><use xlink:href="#19" y="49.933"/></svg><svg x="1890"><use xlink:href="#a"/><use xlink:href="#10"/><use xlink:href="#11" y="2.171"/><use xlink:href="#12" y="4.342"/><use xlink:href="#13" y="6.513"/><use xlink:href="#14" y="8.684"/><use xlink:href="#15" y="10.855"/><use xlink:href="#16" y="13.026"/><use xlink:href="#18" y="15.197"/><use xlink:href="#3" y="17.368"/><use xlink:href="#4" y="19.539"/><use xlink:href="#5" y="21.71"/><use xlink:href="#6" y="23.881"/><use xlink:href="#7" y="26.052"/><use xlink:href="#8" y="28.223"/><use xlink:href="#9" y="30.394"/><use xlink:href="#10" y="32.565"/><use xlink:href="#11" y="34.736"/><use xlink:href="#12" y="36.907"/><use xlink:href="#13" y="39.078"/><use xlink:href="#14" y="41.249"/><use xlink:href="#15" y="43.42"/><use xlink:href="#16" y="45.591"/><use xlink:href="#19" y="47.762"/><use xlink:href="#20" y="49.933"/></svg><svg x="1980"><use xlink:href="#a"/><use xlink:href="#10"/><use xlink:href="#11" y="2.171"/><use xlink:href="#12" y="4.342"/><use xlink:href="#13" y="6.513"/><use xlink:href="#14" y="8.684"/><use xlink:href="#15" y="10.855"/><use xlink:href="#16" y="13.026"/><use xlink:href="#18" y="15.197"/><use xlink:href="#3" y="17.368"/><use xlink:href="#4" y="19.539"/><use xlink:href="#5" y="21.71"/><use xlink:href="#6" y="23.881"/><use xlink:href="#7" y="26.052"/><use xlink:href="#8" y="28.223"/><use xlink:href="#9" y="30.394"/><use xlink:href="#10" y="32.565"/><use xlink:href="#11" y="34.736"/><use xlink:href="#12" y="36.907"/><use xlink:href="#13" y="39.078"/><use xlink:href="#14" y="41.249"/><use xlink:href="#15" y="43.42"/><use xlink:href="#16" y="45.591"/><use xlink:href="#19" y="47.762"/><use xlink:href="#20" y="49.933"/><use xlink:href="#1" y="52.104"/></svg><svg x="2070"><use xlink:href="#a"/><use xlink:href="#10"/><use xlink:href="#11" y="2.171"/><use xlink:href="#12" y="4.342"/><use xlink:href="#13" y="6.513"/><use xlink:href="#14" y="8.684"/><use xlink:href="#15" y="10.855"/><use xlink:href="#16" y="13.026"/><use xlink:href="#18" y="15.197"/><use xlink:href="#3" y="17.368"/><use xlink:href="#4" y="19.539"/><use xlink:href="#5" y="21.71"/><use xlink:href="#6" y="23.881"/><use xlink:href="#7" y="26.052"/><use xlink:href="#8" y="28.223"/><use xlink:href="#9" y="30.394"/><use xlink:href="#10" y="32.565"/><use xlink:href="#11" y="34.736"/><use xlink:href="#12" y="36.907"/><use xlink:href="#13" y="39.078"/><use xlink:href="#14" y="41.249"/><use xlink:href="#15" y="43.42"/><use xlink:href="#16" y="45.591"/><use xlink:href="#19" y="47.762"/><use xlink:href="#20" y="49.933"/><use xlink:href="#21" y="52.104"/></svg><svg x="2160"><use xlink:href="#a"/><use xlink:href="#10"/><use xlink:href="#11" y="2.171"/><use xlink:href="#12" y="4.342"/><use xlink:href="#13" y="6.513"/><use xlink:href="#14" y="8.684"/><use xlink:href="#15" y="10.855"/><use xlink:href="#16" y="13.026"/><use xlink:href="#18" y="15.197"/><use xlink:href="#3" y="17.368"/><use xlink:href="#4" y="19.539"/><use xlink:href="#5" y="21.71"/><use xlink:href="#6" y="23.881"/><use xlink:href="#7" y="26.052"/><use xlink:href="#8" y="28.223"/><use xlink:href="#9" y="30.394"/><use xlink:href="#10" y="32.565"/><use xlink:href="#11" y="34.736"/><use xlink:href="#12" y="36.907"/><use xlink:href="#13" y="39.078"/><use xlink:href="#14" y="41.249"/><use xlink:href="#15" y="43.42"/><use xlink:href="#16" y="45.591"/><use xlink:href="#19" y="47.762"/><use xlink:href="#20" y="49.933"/><use xlink:href="#21" y="52.104"/></svg><svg x="2250"><use xlink:href="#a"/><use xlink:href="#10"/><use xlink:href="#11" y="2.171"/><use xlink:href="#12" y="4.342"/><use xlink:href="#13" y="6.513"/><use xlink:href="#14" y="8.684"/><use xlink:href="#15" y="10.855"/><use xlink:href="#16" y="13.026"/><use xlink:href="#18" y="15.197"/><use xlink:href="#3" y="17.368"/><use xlink:href="#4" y="19.539"/><use xlink:href="#5" y="21.71"/><use xlink:href="#6" y="23.881"/><use xlink:href="#7" y="26.052"/><use xlink:href="#8" y="28.223"/><use xlink:href="#9" y="30.394"/><use xlink:href="#10" y="32.565"/><use xlink:href="#11" y="34.736"/><use xlink:href="#12" y="36.907"/><use xlink:href="#13" y="39.078"/><use xlink:href="#14" y="41.249"/><use xlink:href="#15" y="43.42"/><use xlink:href="#16" y="45.591"/><use xlink:href="#19" y="47.762"/><use xlink:href="#20" y="49.933"/><text y="53.774" class="f">$</text><text x="2.004" y="53.774" class="g">k</text><text x="4.008" y="53.774" class="g">g</text></svg><svg x="2340"><use xlink:href="#a"/><use xlink:href="#10"/><use xlink:href="#11" y="2.171"/><use xlink:href="#12" y="4.342"/><use xlink:href="#13" y="6.513"/><use xlink:href="#14" y="8.684"/><use xlink:href="#15" y="10.855"/><use xlink:href="#16" y="13.026"/><use xlink:href="#18" y="15.197"/><use xlink:href="#3" y="17.368"/><use xlink:href="#4" y="19.539"/><use xlink:href="#5" y="21.71"/><use xlink:href="#6" y="23.881"/><use xlink:href="#7" y="26.052"/><use xlink:href="#8" y="28.223"/><use xlink:href="#9" y="30.394"/><use xlink:href="#10" y="32.565"/><use xlink:href="#11" y="34.736"/><use xlink:href="#12" y="36.907"/><use xlink:href="#13" y="39.078"/><use xlink:href="#14" y="41.249"/><use xlink:href="#15" y="43.42"/><use xlink:href="#16" y="45.591"/><use xlink:href="#19" y="47.762"/><use xlink:href="#20" y="49.933"/><text y="53.774" class="f">$</text><text x="2.004" y="53.774" class="g">k</text><text x="4.008" y="53.774" class="g">ge</text></svg><svg x="2430"><use xlink:href="#a"/><use xlink:href="#10"/><use xlink:href="#11" y="2.171"/><use xlink:href="#12" y="4.342"/><use xlink:href="#13" y="6.513"/><use xlink:href="#14" y="8.684"/><use xlink:href="#15" y="10.855"/><use xlink:href="#16" y="13.026"/><use xlink:href="#18" y="15.197"/><use xlink:href="#3" y="17.368"/><use xlink:href="#4" y="19.539"/><use xlink:href="#5" y="21.71"/><use xlink:href="#6" y="23.881"/><use xlink:href="#7" y="26.052"/><use xlink:href="#8" y="28.223"/><use xlink:href="#9" y="30.394"/><use xlink:href="#10" y="32.565"/><use xlink:href="#11" y="34.736"/><use xlink:href="#12" y="36.907"/><use xlink:href="#13" y="39.078"/><use xlink:href="#14" y="41.249"/><use xlink:href="#15" y="43.42"/><use xlink:href="#16" y="45.591"/><use xlink:href="#19" y="47.762"/><use xlink:href="#20" y="49.933"/><use xlink:href="#22" y="52.104"/></svg><svg x="2520"><use xlink:href="#a"/><use xlink:href="#10"/><use xlink:href="#11" y="2.171"/><use xlink:href="#12" y="4.342"/><use xlink:href="#13" y="6.513"/><use xlink:href="#14" y="8.684"/><use xlink:href="#15" y="10.855"/><use xlink:href="#16" y="13.026"/><use xlink:href="#18" y="15.197"/><use xlink:href="#3" y="17.368"/><use xlink:href="#4" y="19.539"/><use xlink:href="#5" y="21.71"/><use xlink:href="#6" y="23.881"/><use xlink:href="#7" y="26.052"/><use xlink:href="#8" y="28.223"/><use xlink:href="#9" y="30.394"/><use xlink:href="#10" y="32.565"/><use xlink:href="#11" y="34.736"/><use xlink:href="#12" y="36.907"/><use xlink:href="#13" y="39.078"/><use xlink:href="#14" y="41.249"/><use xlink:href="#15" y="43.42"/><use xlink:href="#16" y="45.591"/><use xlink:href="#19" y="47.762"/><use xlink:href="#20" y="49.933"/><use xlink:href="#22" y="52.104"/></svg><svg x="2610"><use xlink:href="#a"/><use xlink:href="#10"/><use xlink:href="#11" y="2.171"/><use xlink:href="#12" y="4.342"/><use xlink:href="#13" y="6.513"/><use xlink:href="#14" y="8.684"/><use xlink:href="#15" y="10.855"/><use xlink:href="#16" y="13.026"/><use xlink:href="#18" y="15.197"/><use xlink:href="#3" y="17.368"/><use xlink:href="#4" y="19.539"/><use xlink:href="#5" y="21.71"/><use xlink:href="#6" y="23.881"/><use xlink:href="#7" y="26.052"/><use xlink:href="#8" y="28.223"/><use xlink:href="#9" y="30.394"/><use xlink:href="#10" y="32.565"/><use xlink:href="#11" y="34.736"/><use xlink:href="#12" y="36.907"/><use xlink:href="#13" y="39.078"/><use xlink:href="#14" y="41.249"/><use xlink:href="#15" y="43.42"/><use xlink:href="#16" y="45.591"/><use xlink:href="#19" y="47.762"/><use xlink:href="#20" y="49.933"/><text y="53.774" class="f">$</text><text x="2.004" y="53.774" class="g">k</text><text x="4.008" y="53.774" class="g">get</text><text x="8.016" y="53.774" class="g">n</text></svg><svg x="2700"><use xlink:href="#a"/><use xlink:href="#10"/><use xlink:href="#11" y="2.171"/><use xlink:href="#12" y="4.342"/><use xlink:href="#13" y="6.513"/><use xlink:href="#14" y="8.684"/><use xlink:href="#15" y="10.855"/><use xlink:href="#16" y="13.026"/><use xlink:href="#18" y="15.197"/><use xlink:href="#3" y="17.368"/><use xlink:href="#4" y="19.539"/><use xlink:href="#5" y="21.71"/><use xlink:href="#6" y="23.881"/><use xlink:href="#7" y="26.052"/><use xlink:href="#8" y="28.223"/><use xlink:href="#9" y="30.394"/><use xlink:href="#10" y="32.565"/><use xlink:href="#11" y="34.736"/><use xlink:href="#12" y="36.907"/><use xlink:href="#13" y="39.078"/><use xlink:href="#14" y="41.249"/><use xlink:href="#15" y="43.42"/><use xlink:href="#16" y="45.591"/><use xlink:href="#19" y="47.762"/><use xlink:href="#20" y="49.933"/><text y="53.774" class="f">$</text><text x="2.004" y="53.774" class="g">k</text><text x="4.008" y="53.774" class="g">get</text><text x="8.016" y="53.774" class="g">no</text></svg><svg x="2790"><use xlink:href="#a"/><use xlink:href="#10"/><use xlink:href="#11" y="2.171"/><use xlink:href="#12" y="4.342"/><use xlink:href="#13" y="6.513"/><use xlink:href="#14" y="8.684"/><use xlink:href="#15" y="10.855"/><use xlink:href="#16" y="13.026"/><use xlink:href="#18" y="15.197"/><use xlink:href="#3" y="17.368"/><use xlink:href="#4" y="19.539"/><use xlink:href="#5" y="21.71"/><use xlink:href="#6" y="23.881"/><use xlink:href="#7" y="26.052"/><use xlink:href="#8" y="28.223"/><use xlink:href="#9" y="30.394"/><use xlink:href="#10" y="32.565"/><use xlink:href="#11" y="34.736"/><use xlink:href="#12" y="36.907"/><use xlink:href="#13" y="39.078"/><use xlink:href="#14" y="41.249"/><use xlink:href="#15" y="43.42"/><use xlink:href="#16" y="45.591"/><use xlink:href="#19" y="47.762"/><use xlink:href="#20" y="49.933"/><text y="53.774" class="f">$</text><text x="2.004" y="53.774" class="g">k</text><text x="4.008" y="53.774" class="g">get</text><text x="8.016" y="53.774" class="g">nod</text></svg><svg x="2880"><use xlink:href="#a"/><use xlink:href="#10"/><use xlink:href="#11" y="2.171"/><use xlink:href="#12" y="4.342"/><use xlink:href="#13" y="6.513"/><use xlink:href="#14" y="8.684"/><use xlink:href="#15" y="10.855"/><use xlink:href="#16" y="13.026"/><use xlink:href="#18" y="15.197"/><use xlink:href="#3" y="17.368"/><use xlink:href="#4" y="19.539"/><use xlink:href="#5" y="21.71"/><use xlink:href="#6" y="23.881"/><use xlink:href="#7" y="26.052"/><use xlink:href="#8" y="28.223"/><use xlink:href="#9" y="30.394"/><use xlink:href="#10" y="32.565"/><use xlink:href="#11" y="34.736"/><use xlink:href="#12" y="36.907"/><use xlink:href="#13" y="39.078"/><use xlink:href="#14" y="41.249"/><use xlink:href="#15" y="43.42"/><use xlink:href="#16" y="45.591"/><use xlink:href="#19" y="47.762"/><use xlink:href="#20" y="49.933"/><text y="53.774" class="f">$</text><text x="2.004" y="53.774" class="g">k</text><text x="4.008" y="53.774" class="g">get</text><text x="8.016" y="53.774" class="g">node</text></svg><svg x="2970"><use xlink:href="#a"/><use xlink:href="#10"/><use xlink:href="#11" y="2.171"/><use xlink:href="#12" y="4.342"/><use xlink:href="#13" y="6.513"/><use xlink:href="#14" y="8.684"/><use xlink:href="#15" y="10.855"/><use xlink:href="#16" y="13.026"/><use xlink:href="#18" y="15.197"/><use xlink:href="#3" y="17.368"/><use xlink:href="#4" y="19.539"/><use xlink:href="#5" y="21.71"/><use xlink:href="#6" y="23.881"/><use xlink:href="#7" y="26.052"/><use xlink:href="#8" y="28.223"/><use xlink:href="#9" y="30.394"/><use xlink:href="#10" y="32.565"/><use xlink:href="#11" y="34.736"/><use xlink:href="#12" y="36.907"/><use xlink:href="#13" y="39.078"/><use xlink:href="#14" y="41.249"/><use xlink:href="#15" y="43.42"/><use xlink:href="#16" y="45.591"/><use xlink:href="#19" y="47.762"/><use xlink:href="#20" y="49.933"/><use xlink:href="#23" y="52.104"/></svg><svg x="3060"><use xlink:href="#a"/><use xlink:href="#11"/><use xlink:href="#12" y="2.171"/><use xlink:href="#13" y="4.342"/><use xlink:href="#14" y="6.513"/><use xlink:href="#15" y="8.684"/><use xlink:href="#16" y="10.855"/><use xlink:href="#18" y="13.026"/><use xlink:href="#3" y="15.197"/><use xlink:href="#4" y="17.368"/><use xlink:href="#5" y="19.539"/><use xlink:href="#6" y="21.71"/><use xlink:href="#7" y="23.881"/><use xlink:href="#8" y="26.052"/><use xlink:href="#9" y="28.223"/><use xlink:href="#10" y="30.394"/><use xlink:href="#11" y="32.565"/><use xlink:href="#12" y="34.736"/><use xlink:href="#13" y="36.907"/><use xlink:href="#14" y="39.078"/><use xlink:href="#15" y="41.249"/><use xlink:href="#16" y="43.42"/><use xlink:href="#19" y="45.591"/><use xlink:href="#20" y="47.762"/><use xlink:href="#23" y="49.933"/></svg><svg x="3150"><use xlink:href="#a"/><use xlink:href="#11"/><use xlink:href="#12" y="2.171"/><use xlink:href="#13" y="4.342"/><use xlink:href="#14" y="6.513"/><use xlink:href="#15" y="8.684"/><use xlink:href="#16" y="10.855"/><use xlink:href="#18" y="13.026"/><use xlink:href="#3" y="15.197"/><use xlink:href="#4" y="17.368"/><use xlink:href="#5" y="19.539"/><use xlink:href="#6" y="21.71"/><use xlink:href="#7" y="23.881"/><use xlink:href="#8" y="26.052"/><use xlink:href="#9" y="28.223"/><use xlink:href="#10" y="30.394"/><use xlink:href="#11" y="32.565"/><use xlink:href="#12" y="34.736"/><use xlink:href="#13" y="36.907"/><use xlink:href="#14" y="39.078"/><use xlink:href="#15" y="41.249"/><use xlink:href="#16" y="43.42"/><use xlink:href="#19" y="45.591"/><use xlink:href="#20" y="47.762"/><use xlink:href="#23" y="49.933"/></svg><svg x="3240"><use xlink:href="#a"/><use xlink:href="#13"/><use xlink:href="#14" y="2.171"/><use xlink:href="#15" y="4.342"/><use xlink:href="#16" y="6.513"/><use xlink:href="#18" y="8.684"/><use xlink:href="#3" y="10.855"/><use xlink:href="#4" y="13.026"/><use xlink:href="#5" y="15.197"/><use xlink:href="#6" y="17.368"/><use xlink:href="#7" y="19.539"/><use xlink:href="#8" y="21.71"/><use xlink:href="#9" y="23.881"/><use xlink:href="#10" y="26.052"/><use xlink:href="#11" y="28.223"/><use xlink:href="#12" y="30.394"/><use xlink:href="#13" y="32.565"/><use xlink:href="#14" y="34.736"/><use xlink:href="#15" y="36.907"/><use xlink:href="#16" y="39.078"/><use xlink:href="#19" y="41.249"/><use xlink:href="#20" y="43.42"/><use xlink:href="#23" y="45.591"/><use xlink:href="#24" y="47.762"/><use xlink:href="#25" y="49.933"/></svg><svg x="3330"><use xlink:href="#a"/><use xlink:href="#13"/><use xlink:href="#14" y="2.171"/><use xlink:href="#15" y="4.342"/><use xlink:href="#16" y="6.513"/><use xlink:href="#18" y="8.684"/><use xlink:href="#3" y="10.855"/><use xlink:href="#4" y="13.026"/><use xlink:href="#5" y="15.197"/><use xlink:href="#6" y="17.368"/><use xlink:href="#7" y="19.539"/><use xlink:href="#8" y="21.71"/><use xlink:href="#9" y="23.881"/><use xlink:href="#10" y="26.052"/><use xlink:href="#11" y="28.223"/><use xlink:href="#12" y="30.394"/><use xlink:href="#13" y="32.565"/><use xlink:href="#14" y="34.736"/><use xlink:href="#15" y="36.907"/><use xlink:href="#16" y="39.078"/><use xlink:href="#19" y="41.249"/><use xlink:href="#20" y="43.42"/><use xlink:href="#23" y="45.591"/><use xlink:href="#24" y="47.762"/><use xlink:href="#25" y="49.933"/><use xlink:href="#1" y="52.104"/></svg><svg x="3420"><use xlink:href="#a"/><use xlink:href="#14"/><use xlink:href="#15" y="2.171"/><use xlink:href="#16" y="4.342"/><use xlink:href="#18" y="6.513"/><use xlink:href="#3" y="8.684"/><use xlink:href="#4" y="10.855"/><use xlink:href="#5" y="13.026"/><use xlink:href="#6" y="15.197"/><use xlink:href="#7" y="17.368"/><use xlink:href="#8" y="19.539"/><use xlink:href="#9" y="21.71"/><use xlink:href="#10" y="23.881"/><use xlink:href="#11" y="26.052"/><use xlink:href="#12" y="28.223"/><use xlink:href="#13" y="30.394"/><use xlink:href="#14" y="32.565"/><use xlink:href="#15" y="34.736"/><use xlink:href="#16" y="36.907"/><use xlink:href="#19" y="39.078"/><use xlink:href="#20" y="41.249"/><use xlink:href="#23" y="43.42"/><use xlink:href="#24" y="45.591"/><use xlink:href="#25" y="47.762"/><use xlink:href="#1" y="49.933"/></svg><svg x="3510"><use xlink:href="#a"/><use xlink:href="#15"/><use xlink:href="#16" y="2.171"/><use xlink:href="#18" y="4.342"/><use xlink:href="#3" y="6.513"/><use xlink:href="#4" y="8.684"/><use xlink:href="#5" y="10.855"/><use xlink:href="#6" y="13.026"/><use xlink:href="#7" y="15.197"/><use xlink:href="#8" y="17.368"/><use xlink:href="#9" y="19.539"/><use xlink:href="#10" y="21.71"/><use xlink:href="#11" y="23.881"/><use xlink:href="#12" y="26.052"/><use xlink:href="#13" y="28.223"/><use xlink:href="#14" y="30.394"/><use xlink:href="#15" y="32.565"/><use xlink:href="#16" y="34.736"/><use xlink:href="#19" y="36.907"/><use xlink:href="#20" y="39.078"/><use xlink:href="#23" y="41.249"/><use xlink:href="#24" y="43.42"/><use xlink:href="#25" y="45.591"/><use xlink:href="#1" y="47.762"/><text y="51.603" class="g">exit</text></svg></svg></g></g></svg></svg>